M48
; DRILL file {KiCad (5.99.0-11393-ga06b95bb1f)} date Sat Jul 10 21:53:42 2021
; FORMAT={-:-/ absolute / metric / decimal}
; #@! TF.CreationDate,2021-07-10T21:53:42+02:00
; #@! TF.GenerationSoftware,Kicad,Pcbnew,(5.99.0-11393-ga06b95bb1f)
; #@! TF.FileFunction,Plated,1,2,PTH
FMAT,2
METRIC
; #@! TA.AperFunction,Plated,PTH,ViaDrill
T1C0.400
; #@! TA.AperFunction,Plated,PTH,ComponentDrill
T2C1.000
; #@! TA.AperFunction,Plated,PTH,ComponentDrill
T3C1.400
%
G90
G05
T1
X135.257Y-78.183
X138.94Y-75.77
X139.956Y-95.582
X140.636Y-117.399
X140.718Y-75.77
X146.814Y-77.86
X147.748Y-83.363
X149.1Y-98.122
X149.659Y-111.508
X150.878Y-80.596
X151.226Y-79.232
X151.894Y-73.103
X152.021Y-76.659
X155.196Y-79.326
X155.45Y-74.627
X157.609Y-125.427
X158.117Y-83.644
X160.276Y-89.232
X160.956Y-113.97
T2
X135.638Y-90.121
X135.638Y-92.788
X141.759Y-81.358
X141.759Y-83.898
X141.759Y-86.438
X144.299Y-81.358
X144.299Y-83.898
X144.299Y-86.438
X158.545Y-96.215
X158.545Y-103.835
X161.292Y-76.532
X161.292Y-79.072
X161.292Y-81.612
T3
X140.89Y-66.99
X140.89Y-132.99
X145.97Y-66.99
X145.97Y-132.99
X151.05Y-66.99
X151.05Y-132.99
X156.13Y-66.99
X156.13Y-132.99
T0
M30
