%TF.GenerationSoftware,KiCad,Pcbnew,(5.99.0-11393-ga06b95bb1f)*%
%TF.CreationDate,2021-07-10T21:53:40+02:00*%
%TF.ProjectId,LasS0,4c617353-302e-46b6-9963-61645f706362,v0.1*%
%TF.SameCoordinates,Original*%
%TF.FileFunction,Soldermask,Bot*%
%TF.FilePolarity,Negative*%
%FSLAX46Y46*%
G04 Gerber Fmt 4.6, Leading zero omitted, Abs format (unit mm)*
G04 Created by KiCad (PCBNEW (5.99.0-11393-ga06b95bb1f)) date 2021-07-10 21:53:40*
%MOMM*%
%LPD*%
G01*
G04 APERTURE LIST*
G04 Aperture macros list*
%AMRoundRect*
0 Rectangle with rounded corners*
0 $1 Rounding radius*
0 $2 $3 $4 $5 $6 $7 $8 $9 X,Y pos of 4 corners*
0 Add a 4 corners polygon primitive as box body*
4,1,4,$2,$3,$4,$5,$6,$7,$8,$9,$2,$3,0*
0 Add four circle primitives for the rounded corners*
1,1,$1+$1,$2,$3*
1,1,$1+$1,$4,$5*
1,1,$1+$1,$6,$7*
1,1,$1+$1,$8,$9*
0 Add four rect primitives between the rounded corners*
20,1,$1+$1,$2,$3,$4,$5,0*
20,1,$1+$1,$4,$5,$6,$7,0*
20,1,$1+$1,$6,$7,$8,$9,0*
20,1,$1+$1,$8,$9,$2,$3,0*%
G04 Aperture macros list end*
%ADD10C,0.400000*%
%ADD11RoundRect,0.249999X0.790001X1.550001X-0.790001X1.550001X-0.790001X-1.550001X0.790001X-1.550001X0*%
%ADD12O,2.080000X3.600000*%
%ADD13R,1.700000X1.700000*%
%ADD14C,5.700000*%
%ADD15O,1.600000X1.600000*%
%ADD16C,1.600000*%
%ADD17RoundRect,0.249999X-0.790001X-1.550001X0.790001X-1.550001X0.790001X1.550001X-0.790001X1.550001X0*%
%ADD18O,1.700000X1.700000*%
%ADD19C,0.800000*%
G04 APERTURE END LIST*
D10*
X140977142Y-95215982D02*
X140977142Y-93787410D01*
X137977142Y-94162410D01*
X140977142Y-97501696D02*
X139405714Y-97698125D01*
X139120000Y-97590982D01*
X138977142Y-97323125D01*
X138977142Y-96751696D01*
X139120000Y-96448125D01*
X140834285Y-97519553D02*
X140977142Y-97215982D01*
X140977142Y-96501696D01*
X140834285Y-96233839D01*
X140548571Y-96126696D01*
X140262857Y-96162410D01*
X139977142Y-96340982D01*
X139834285Y-96644553D01*
X139834285Y-97358839D01*
X139691428Y-97662410D01*
X140834285Y-98805267D02*
X140977142Y-99073125D01*
X140977142Y-99644553D01*
X140834285Y-99948125D01*
X140548571Y-100126696D01*
X140405714Y-100144553D01*
X140120000Y-100037410D01*
X139977142Y-99769553D01*
X139977142Y-99340982D01*
X139834285Y-99073125D01*
X139548571Y-98965982D01*
X139405714Y-98983839D01*
X139120000Y-99162410D01*
X138977142Y-99465982D01*
X138977142Y-99894553D01*
X139120000Y-100162410D01*
X140834285Y-101233839D02*
X140977142Y-101644553D01*
X140977142Y-102358839D01*
X140834285Y-102662410D01*
X140691428Y-102823125D01*
X140405714Y-103001696D01*
X140120000Y-103037410D01*
X139834285Y-102930267D01*
X139691428Y-102805267D01*
X139548571Y-102537410D01*
X139405714Y-101983839D01*
X139262857Y-101715982D01*
X139120000Y-101590982D01*
X138834285Y-101483839D01*
X138548571Y-101519553D01*
X138262857Y-101698125D01*
X138120000Y-101858839D01*
X137977142Y-102162410D01*
X137977142Y-102876696D01*
X138120000Y-103287410D01*
X137977142Y-105162410D02*
X137977142Y-105448125D01*
X138120000Y-105715982D01*
X138262857Y-105840982D01*
X138548571Y-105948125D01*
X139120000Y-106019553D01*
X139834285Y-105930267D01*
X140405714Y-105715982D01*
X140691428Y-105537410D01*
X140834285Y-105376696D01*
X140977142Y-105073125D01*
X140977142Y-104787410D01*
X140834285Y-104519553D01*
X140691428Y-104394553D01*
X140405714Y-104287410D01*
X139834285Y-104215982D01*
X139120000Y-104305267D01*
X138548571Y-104519553D01*
X138262857Y-104698125D01*
X138120000Y-104858839D01*
X137977142Y-105162410D01*
D11*
%TO.C,J3*%
X145970000Y-66990000D03*
D12*
X140890000Y-66990000D03*
%TD*%
D13*
%TO.C,J10*%
X135638000Y-92788000D03*
%TD*%
%TO.C,J6*%
X135638000Y-90121000D03*
%TD*%
%TO.C,J9*%
X161292000Y-81612000D03*
%TD*%
%TO.C,J7*%
X161292000Y-76532000D03*
%TD*%
D14*
%TO.C,H2*%
X136860000Y-127990000D03*
%TD*%
D11*
%TO.C,J4*%
X156130000Y-66990000D03*
D12*
X151050000Y-66990000D03*
%TD*%
D13*
%TO.C,J8*%
X161292000Y-79072000D03*
%TD*%
D15*
%TO.C,LOGO1*%
X158544800Y-96215400D03*
D16*
X158544800Y-103835400D03*
%TD*%
D17*
%TO.C,J1*%
X140890000Y-132990000D03*
D12*
X145970000Y-132990000D03*
%TD*%
D13*
%TO.C,J5*%
X141759400Y-81358000D03*
D18*
X144299400Y-81358000D03*
X141759400Y-83898000D03*
X144299400Y-83898000D03*
X141759400Y-86438000D03*
X144299400Y-86438000D03*
%TD*%
D17*
%TO.C,J2*%
X151050000Y-132990000D03*
D12*
X156130000Y-132990000D03*
%TD*%
D14*
%TO.C,H1*%
X160160000Y-72000000D03*
%TD*%
D19*
X149100000Y-98122000D03*
X138940000Y-75770000D03*
X157609000Y-125427000D03*
X135257000Y-78183000D03*
X160956000Y-113970000D03*
X155450000Y-74627000D03*
X140718000Y-75770000D03*
X140636000Y-117399000D03*
X147748000Y-83363000D03*
X158117000Y-83644000D03*
X149658800Y-111507800D03*
X139956000Y-95582000D03*
X160276000Y-89232000D03*
X151894000Y-73103000D03*
X146814000Y-77859989D03*
X151225900Y-79232100D03*
X152021000Y-76659000D03*
X155196000Y-79326000D03*
X150878000Y-80596000D03*
M02*
