%TF.GenerationSoftware,KiCad,Pcbnew,(5.99.0-11393-ga06b95bb1f)*%
%TF.CreationDate,2021-07-10T21:53:40+02:00*%
%TF.ProjectId,LasS0,4c617353-302e-46b6-9963-61645f706362,v0.1*%
%TF.SameCoordinates,Original*%
%TF.FileFunction,Legend,Bot*%
%TF.FilePolarity,Positive*%
%FSLAX46Y46*%
G04 Gerber Fmt 4.6, Leading zero omitted, Abs format (unit mm)*
G04 Created by KiCad (PCBNEW (5.99.0-11393-ga06b95bb1f)) date 2021-07-10 21:53:40*
%MOMM*%
%LPD*%
G01*
G04 APERTURE LIST*
G04 Aperture macros list*
%AMRoundRect*
0 Rectangle with rounded corners*
0 $1 Rounding radius*
0 $2 $3 $4 $5 $6 $7 $8 $9 X,Y pos of 4 corners*
0 Add a 4 corners polygon primitive as box body*
4,1,4,$2,$3,$4,$5,$6,$7,$8,$9,$2,$3,0*
0 Add four circle primitives for the rounded corners*
1,1,$1+$1,$2,$3*
1,1,$1+$1,$4,$5*
1,1,$1+$1,$6,$7*
1,1,$1+$1,$8,$9*
0 Add four rect primitives between the rounded corners*
20,1,$1+$1,$2,$3,$4,$5,0*
20,1,$1+$1,$4,$5,$6,$7,0*
20,1,$1+$1,$6,$7,$8,$9,0*
20,1,$1+$1,$8,$9,$2,$3,0*%
G04 Aperture macros list end*
%ADD10C,0.750000*%
%ADD11C,0.300000*%
%ADD12C,0.150000*%
%ADD13C,0.400000*%
%ADD14RoundRect,0.249999X0.790001X1.550001X-0.790001X1.550001X-0.790001X-1.550001X0.790001X-1.550001X0*%
%ADD15O,2.080000X3.600000*%
%ADD16R,1.700000X1.700000*%
%ADD17C,5.700000*%
%ADD18O,1.600000X1.600000*%
%ADD19C,1.600000*%
%ADD20RoundRect,0.249999X-0.790001X-1.550001X0.790001X-1.550001X0.790001X1.550001X-0.790001X1.550001X0*%
%ADD21O,1.700000X1.700000*%
%ADD22C,0.800000*%
G04 APERTURE END LIST*
D10*
X140977142Y-95215982D02*
X140977142Y-93787410D01*
X137977142Y-94162410D01*
X140977142Y-97501696D02*
X139405714Y-97698125D01*
X139120000Y-97590982D01*
X138977142Y-97323125D01*
X138977142Y-96751696D01*
X139120000Y-96448125D01*
X140834285Y-97519553D02*
X140977142Y-97215982D01*
X140977142Y-96501696D01*
X140834285Y-96233839D01*
X140548571Y-96126696D01*
X140262857Y-96162410D01*
X139977142Y-96340982D01*
X139834285Y-96644553D01*
X139834285Y-97358839D01*
X139691428Y-97662410D01*
X140834285Y-98805267D02*
X140977142Y-99073125D01*
X140977142Y-99644553D01*
X140834285Y-99948125D01*
X140548571Y-100126696D01*
X140405714Y-100144553D01*
X140120000Y-100037410D01*
X139977142Y-99769553D01*
X139977142Y-99340982D01*
X139834285Y-99073125D01*
X139548571Y-98965982D01*
X139405714Y-98983839D01*
X139120000Y-99162410D01*
X138977142Y-99465982D01*
X138977142Y-99894553D01*
X139120000Y-100162410D01*
X140834285Y-101233839D02*
X140977142Y-101644553D01*
X140977142Y-102358839D01*
X140834285Y-102662410D01*
X140691428Y-102823125D01*
X140405714Y-103001696D01*
X140120000Y-103037410D01*
X139834285Y-102930267D01*
X139691428Y-102805267D01*
X139548571Y-102537410D01*
X139405714Y-101983839D01*
X139262857Y-101715982D01*
X139120000Y-101590982D01*
X138834285Y-101483839D01*
X138548571Y-101519553D01*
X138262857Y-101698125D01*
X138120000Y-101858839D01*
X137977142Y-102162410D01*
X137977142Y-102876696D01*
X138120000Y-103287410D01*
X137977142Y-105162410D02*
X137977142Y-105448125D01*
X138120000Y-105715982D01*
X138262857Y-105840982D01*
X138548571Y-105948125D01*
X139120000Y-106019553D01*
X139834285Y-105930267D01*
X140405714Y-105715982D01*
X140691428Y-105537410D01*
X140834285Y-105376696D01*
X140977142Y-105073125D01*
X140977142Y-104787410D01*
X140834285Y-104519553D01*
X140691428Y-104394553D01*
X140405714Y-104287410D01*
X139834285Y-104215982D01*
X139120000Y-104305267D01*
X138548571Y-104519553D01*
X138262857Y-104698125D01*
X138120000Y-104858839D01*
X137977142Y-105162410D01*
D11*
X146952761Y-73999999D02*
X146952761Y-73047619D01*
X144952761Y-73047619D01*
X146952761Y-74952380D02*
X146857523Y-74761904D01*
X146762285Y-74666666D01*
X146571809Y-74571428D01*
X146000380Y-74571428D01*
X145809904Y-74666666D01*
X145714666Y-74761904D01*
X145619428Y-74952380D01*
X145619428Y-75238095D01*
X145714666Y-75428571D01*
X145809904Y-75523809D01*
X146000380Y-75619047D01*
X146571809Y-75619047D01*
X146762285Y-75523809D01*
X146857523Y-75428571D01*
X146952761Y-75238095D01*
X146952761Y-74952380D01*
X145619428Y-77333333D02*
X147238476Y-77333333D01*
X147428952Y-77238095D01*
X147524190Y-77142857D01*
X147619428Y-76952380D01*
X147619428Y-76666666D01*
X147524190Y-76476190D01*
X146857523Y-77333333D02*
X146952761Y-77142857D01*
X146952761Y-76761904D01*
X146857523Y-76571428D01*
X146762285Y-76476190D01*
X146571809Y-76380952D01*
X146000380Y-76380952D01*
X145809904Y-76476190D01*
X145714666Y-76571428D01*
X145619428Y-76761904D01*
X145619428Y-77142857D01*
X145714666Y-77333333D01*
X146952761Y-78285714D02*
X145619428Y-78285714D01*
X144952761Y-78285714D02*
X145048000Y-78190476D01*
X145143238Y-78285714D01*
X145048000Y-78380952D01*
X144952761Y-78285714D01*
X145143238Y-78285714D01*
X146857523Y-80095238D02*
X146952761Y-79904761D01*
X146952761Y-79523809D01*
X146857523Y-79333333D01*
X146762285Y-79238095D01*
X146571809Y-79142857D01*
X146000380Y-79142857D01*
X145809904Y-79238095D01*
X145714666Y-79333333D01*
X145619428Y-79523809D01*
X145619428Y-79904761D01*
X145714666Y-80095238D01*
X146952761Y-82761904D02*
X146857523Y-82571428D01*
X146667047Y-82476190D01*
X144952761Y-82476190D01*
X146857523Y-84285714D02*
X146952761Y-84095238D01*
X146952761Y-83714285D01*
X146857523Y-83523809D01*
X146667047Y-83428571D01*
X145905142Y-83428571D01*
X145714666Y-83523809D01*
X145619428Y-83714285D01*
X145619428Y-84095238D01*
X145714666Y-84285714D01*
X145905142Y-84380952D01*
X146095619Y-84380952D01*
X146286095Y-83428571D01*
X145619428Y-85047619D02*
X146952761Y-85523809D01*
X145619428Y-85999999D01*
X146857523Y-87523809D02*
X146952761Y-87333333D01*
X146952761Y-86952380D01*
X146857523Y-86761904D01*
X146667047Y-86666666D01*
X145905142Y-86666666D01*
X145714666Y-86761904D01*
X145619428Y-86952380D01*
X145619428Y-87333333D01*
X145714666Y-87523809D01*
X145905142Y-87619047D01*
X146095619Y-87619047D01*
X146286095Y-86666666D01*
X146952761Y-88761904D02*
X146857523Y-88571428D01*
X146667047Y-88476190D01*
X144952761Y-88476190D01*
X146952761Y-91047619D02*
X145619428Y-91047619D01*
X144952761Y-91047619D02*
X145048000Y-90952380D01*
X145143238Y-91047619D01*
X145048000Y-91142857D01*
X144952761Y-91047619D01*
X145143238Y-91047619D01*
X146952761Y-91999999D02*
X145619428Y-91999999D01*
X145809904Y-91999999D02*
X145714666Y-92095238D01*
X145619428Y-92285714D01*
X145619428Y-92571428D01*
X145714666Y-92761904D01*
X145905142Y-92857142D01*
X146952761Y-92857142D01*
X145905142Y-92857142D02*
X145714666Y-92952380D01*
X145619428Y-93142857D01*
X145619428Y-93428571D01*
X145714666Y-93619047D01*
X145905142Y-93714285D01*
X146952761Y-93714285D01*
X145619428Y-94666666D02*
X147619428Y-94666666D01*
X145714666Y-94666666D02*
X145619428Y-94857142D01*
X145619428Y-95238095D01*
X145714666Y-95428571D01*
X145809904Y-95523809D01*
X146000380Y-95619047D01*
X146571809Y-95619047D01*
X146762285Y-95523809D01*
X146857523Y-95428571D01*
X146952761Y-95238095D01*
X146952761Y-94857142D01*
X146857523Y-94666666D01*
X145619428Y-97333333D02*
X146952761Y-97333333D01*
X145619428Y-96476190D02*
X146667047Y-96476190D01*
X146857523Y-96571428D01*
X146952761Y-96761904D01*
X146952761Y-97047619D01*
X146857523Y-97238095D01*
X146762285Y-97333333D01*
X146952761Y-98571428D02*
X146857523Y-98380952D01*
X146667047Y-98285714D01*
X144952761Y-98285714D01*
X146857523Y-99238095D02*
X146952761Y-99428571D01*
X146952761Y-99809523D01*
X146857523Y-99999999D01*
X146667047Y-100095238D01*
X146571809Y-100095238D01*
X146381333Y-99999999D01*
X146286095Y-99809523D01*
X146286095Y-99523809D01*
X146190857Y-99333333D01*
X146000380Y-99238095D01*
X145905142Y-99238095D01*
X145714666Y-99333333D01*
X145619428Y-99523809D01*
X145619428Y-99809523D01*
X145714666Y-99999999D01*
X146857523Y-101714285D02*
X146952761Y-101523809D01*
X146952761Y-101142857D01*
X146857523Y-100952380D01*
X146667047Y-100857142D01*
X145905142Y-100857142D01*
X145714666Y-100952380D01*
X145619428Y-101142857D01*
X145619428Y-101523809D01*
X145714666Y-101714285D01*
X145905142Y-101809523D01*
X146095619Y-101809523D01*
X146286095Y-100857142D01*
X145619428Y-103904761D02*
X145619428Y-104666666D01*
X144952761Y-104190476D02*
X146667047Y-104190476D01*
X146857523Y-104285714D01*
X146952761Y-104476190D01*
X146952761Y-104666666D01*
X146952761Y-105619047D02*
X146857523Y-105428571D01*
X146762285Y-105333333D01*
X146571809Y-105238095D01*
X146000380Y-105238095D01*
X145809904Y-105333333D01*
X145714666Y-105428571D01*
X145619428Y-105619047D01*
X145619428Y-105904761D01*
X145714666Y-106095238D01*
X145809904Y-106190476D01*
X146000380Y-106285714D01*
X146571809Y-106285714D01*
X146762285Y-106190476D01*
X146857523Y-106095238D01*
X146952761Y-105904761D01*
X146952761Y-105619047D01*
X146857523Y-108571428D02*
X146952761Y-108857142D01*
X146952761Y-109333333D01*
X146857523Y-109523809D01*
X146762285Y-109619047D01*
X146571809Y-109714285D01*
X146381333Y-109714285D01*
X146190857Y-109619047D01*
X146095619Y-109523809D01*
X146000380Y-109333333D01*
X145905142Y-108952380D01*
X145809904Y-108761904D01*
X145714666Y-108666666D01*
X145524190Y-108571428D01*
X145333714Y-108571428D01*
X145143238Y-108666666D01*
X145048000Y-108761904D01*
X144952761Y-108952380D01*
X144952761Y-109428571D01*
X145048000Y-109714285D01*
X144952761Y-110952380D02*
X144952761Y-111142857D01*
X145048000Y-111333333D01*
X145143238Y-111428571D01*
X145333714Y-111523809D01*
X145714666Y-111619047D01*
X146190857Y-111619047D01*
X146571809Y-111523809D01*
X146762285Y-111428571D01*
X146857523Y-111333333D01*
X146952761Y-111142857D01*
X146952761Y-110952380D01*
X146857523Y-110761904D01*
X146762285Y-110666666D01*
X146571809Y-110571428D01*
X146190857Y-110476190D01*
X145714666Y-110476190D01*
X145333714Y-110571428D01*
X145143238Y-110666666D01*
X145048000Y-110761904D01*
X144952761Y-110952380D01*
X146857523Y-114857142D02*
X146952761Y-114666666D01*
X146952761Y-114285714D01*
X146857523Y-114095238D01*
X146762285Y-113999999D01*
X146571809Y-113904761D01*
X146000380Y-113904761D01*
X145809904Y-113999999D01*
X145714666Y-114095238D01*
X145619428Y-114285714D01*
X145619428Y-114666666D01*
X145714666Y-114857142D01*
X146952761Y-115999999D02*
X146857523Y-115809523D01*
X146762285Y-115714285D01*
X146571809Y-115619047D01*
X146000380Y-115619047D01*
X145809904Y-115714285D01*
X145714666Y-115809523D01*
X145619428Y-115999999D01*
X145619428Y-116285714D01*
X145714666Y-116476190D01*
X145809904Y-116571428D01*
X146000380Y-116666666D01*
X146571809Y-116666666D01*
X146762285Y-116571428D01*
X146857523Y-116476190D01*
X146952761Y-116285714D01*
X146952761Y-115999999D01*
X145619428Y-117523809D02*
X146952761Y-117523809D01*
X145809904Y-117523809D02*
X145714666Y-117619047D01*
X145619428Y-117809523D01*
X145619428Y-118095238D01*
X145714666Y-118285714D01*
X145905142Y-118380952D01*
X146952761Y-118380952D01*
X145619428Y-119142857D02*
X146952761Y-119619047D01*
X145619428Y-120095238D01*
X146857523Y-121619047D02*
X146952761Y-121428571D01*
X146952761Y-121047619D01*
X146857523Y-120857142D01*
X146667047Y-120761904D01*
X145905142Y-120761904D01*
X145714666Y-120857142D01*
X145619428Y-121047619D01*
X145619428Y-121428571D01*
X145714666Y-121619047D01*
X145905142Y-121714285D01*
X146095619Y-121714285D01*
X146286095Y-120761904D01*
X146952761Y-122571428D02*
X145619428Y-122571428D01*
X146000380Y-122571428D02*
X145809904Y-122666666D01*
X145714666Y-122761904D01*
X145619428Y-122952380D01*
X145619428Y-123142857D01*
X145619428Y-123523809D02*
X145619428Y-124285714D01*
X144952761Y-123809523D02*
X146667047Y-123809523D01*
X146857523Y-123904761D01*
X146952761Y-124095238D01*
X146952761Y-124285714D01*
X146857523Y-125714285D02*
X146952761Y-125523809D01*
X146952761Y-125142857D01*
X146857523Y-124952380D01*
X146667047Y-124857142D01*
X145905142Y-124857142D01*
X145714666Y-124952380D01*
X145619428Y-125142857D01*
X145619428Y-125523809D01*
X145714666Y-125714285D01*
X145905142Y-125809523D01*
X146095619Y-125809523D01*
X146286095Y-124857142D01*
X146952761Y-126666666D02*
X145619428Y-126666666D01*
X146000380Y-126666666D02*
X145809904Y-126761904D01*
X145714666Y-126857142D01*
X145619428Y-127047619D01*
X145619428Y-127238095D01*
X153202285Y-85809523D02*
X153297523Y-85714285D01*
X153392761Y-85428571D01*
X153392761Y-85238095D01*
X153297523Y-84952380D01*
X153107047Y-84761904D01*
X152916571Y-84666666D01*
X152535619Y-84571428D01*
X152249904Y-84571428D01*
X151868952Y-84666666D01*
X151678476Y-84761904D01*
X151488000Y-84952380D01*
X151392761Y-85238095D01*
X151392761Y-85428571D01*
X151488000Y-85714285D01*
X151583238Y-85809523D01*
X153392761Y-86666666D02*
X151392761Y-86666666D01*
X153392761Y-87523809D02*
X152345142Y-87523809D01*
X152154666Y-87428571D01*
X152059428Y-87238095D01*
X152059428Y-86952380D01*
X152154666Y-86761904D01*
X152249904Y-86666666D01*
X153392761Y-88476190D02*
X152059428Y-88476190D01*
X152440380Y-88476190D02*
X152249904Y-88571428D01*
X152154666Y-88666666D01*
X152059428Y-88857142D01*
X152059428Y-89047619D01*
X153392761Y-89714285D02*
X152059428Y-89714285D01*
X151392761Y-89714285D02*
X151488000Y-89619047D01*
X151583238Y-89714285D01*
X151488000Y-89809523D01*
X151392761Y-89714285D01*
X151583238Y-89714285D01*
X153297523Y-90571428D02*
X153392761Y-90761904D01*
X153392761Y-91142857D01*
X153297523Y-91333333D01*
X153107047Y-91428571D01*
X153011809Y-91428571D01*
X152821333Y-91333333D01*
X152726095Y-91142857D01*
X152726095Y-90857142D01*
X152630857Y-90666666D01*
X152440380Y-90571428D01*
X152345142Y-90571428D01*
X152154666Y-90666666D01*
X152059428Y-90857142D01*
X152059428Y-91142857D01*
X152154666Y-91333333D01*
X153392761Y-92285714D02*
X152059428Y-92285714D01*
X152249904Y-92285714D02*
X152154666Y-92380952D01*
X152059428Y-92571428D01*
X152059428Y-92857142D01*
X152154666Y-93047619D01*
X152345142Y-93142857D01*
X153392761Y-93142857D01*
X152345142Y-93142857D02*
X152154666Y-93238095D01*
X152059428Y-93428571D01*
X152059428Y-93714285D01*
X152154666Y-93904761D01*
X152345142Y-94000000D01*
X153392761Y-94000000D01*
X153297523Y-95714285D02*
X153392761Y-95523809D01*
X153392761Y-95142857D01*
X153297523Y-94952380D01*
X153107047Y-94857142D01*
X152345142Y-94857142D01*
X152154666Y-94952380D01*
X152059428Y-95142857D01*
X152059428Y-95523809D01*
X152154666Y-95714285D01*
X152345142Y-95809523D01*
X152535619Y-95809523D01*
X152726095Y-94857142D01*
X152059428Y-96380952D02*
X152059428Y-97142857D01*
X151392761Y-96666666D02*
X153107047Y-96666666D01*
X153297523Y-96761904D01*
X153392761Y-96952380D01*
X153392761Y-97142857D01*
X152059428Y-97523809D02*
X152059428Y-98285714D01*
X151392761Y-97809523D02*
X153107047Y-97809523D01*
X153297523Y-97904761D01*
X153392761Y-98095238D01*
X153392761Y-98285714D01*
X153392761Y-99809523D02*
X152345142Y-99809523D01*
X152154666Y-99714285D01*
X152059428Y-99523809D01*
X152059428Y-99142857D01*
X152154666Y-98952380D01*
X153297523Y-99809523D02*
X153392761Y-99619047D01*
X153392761Y-99142857D01*
X153297523Y-98952380D01*
X153107047Y-98857142D01*
X152916571Y-98857142D01*
X152726095Y-98952380D01*
X152630857Y-99142857D01*
X152630857Y-99619047D01*
X152535619Y-99809523D01*
X153392761Y-101047619D02*
X153297523Y-100857142D01*
X153107047Y-100761904D01*
X151392761Y-100761904D01*
X151583238Y-103238095D02*
X151488000Y-103333333D01*
X151392761Y-103523809D01*
X151392761Y-104000000D01*
X151488000Y-104190476D01*
X151583238Y-104285714D01*
X151773714Y-104380952D01*
X151964190Y-104380952D01*
X152249904Y-104285714D01*
X153392761Y-103142857D01*
X153392761Y-104380952D01*
X151392761Y-105619047D02*
X151392761Y-105809523D01*
X151488000Y-106000000D01*
X151583238Y-106095238D01*
X151773714Y-106190476D01*
X152154666Y-106285714D01*
X152630857Y-106285714D01*
X153011809Y-106190476D01*
X153202285Y-106095238D01*
X153297523Y-106000000D01*
X153392761Y-105809523D01*
X153392761Y-105619047D01*
X153297523Y-105428571D01*
X153202285Y-105333333D01*
X153011809Y-105238095D01*
X152630857Y-105142857D01*
X152154666Y-105142857D01*
X151773714Y-105238095D01*
X151583238Y-105333333D01*
X151488000Y-105428571D01*
X151392761Y-105619047D01*
X151583238Y-107047619D02*
X151488000Y-107142857D01*
X151392761Y-107333333D01*
X151392761Y-107809523D01*
X151488000Y-108000000D01*
X151583238Y-108095238D01*
X151773714Y-108190476D01*
X151964190Y-108190476D01*
X152249904Y-108095238D01*
X153392761Y-106952380D01*
X153392761Y-108190476D01*
X153392761Y-110095238D02*
X153392761Y-108952380D01*
X153392761Y-109523809D02*
X151392761Y-109523809D01*
X151678476Y-109333333D01*
X151868952Y-109142857D01*
X151964190Y-108952380D01*
X153583238Y-110476190D02*
X153583238Y-112000000D01*
X151392761Y-112857142D02*
X151392761Y-113047619D01*
X151488000Y-113238095D01*
X151583238Y-113333333D01*
X151773714Y-113428571D01*
X152154666Y-113523809D01*
X152630857Y-113523809D01*
X153011809Y-113428571D01*
X153202285Y-113333333D01*
X153297523Y-113238095D01*
X153392761Y-113047619D01*
X153392761Y-112857142D01*
X153297523Y-112666666D01*
X153202285Y-112571428D01*
X153011809Y-112476190D01*
X152630857Y-112380952D01*
X152154666Y-112380952D01*
X151773714Y-112476190D01*
X151583238Y-112571428D01*
X151488000Y-112666666D01*
X151392761Y-112857142D01*
X151392761Y-114190476D02*
X151392761Y-115523809D01*
X153392761Y-114666666D01*
X155279428Y-78000000D02*
X156898476Y-78000000D01*
X157088952Y-77904761D01*
X157184190Y-77809523D01*
X157279428Y-77619047D01*
X157279428Y-77333333D01*
X157184190Y-77142857D01*
X156517523Y-78000000D02*
X156612761Y-77809523D01*
X156612761Y-77428571D01*
X156517523Y-77238095D01*
X156422285Y-77142857D01*
X156231809Y-77047619D01*
X155660380Y-77047619D01*
X155469904Y-77142857D01*
X155374666Y-77238095D01*
X155279428Y-77428571D01*
X155279428Y-77809523D01*
X155374666Y-78000000D01*
X156612761Y-78952380D02*
X155279428Y-78952380D01*
X154612761Y-78952380D02*
X154708000Y-78857142D01*
X154803238Y-78952380D01*
X154708000Y-79047619D01*
X154612761Y-78952380D01*
X154803238Y-78952380D01*
X155279428Y-79619047D02*
X155279428Y-80380952D01*
X154612761Y-79904761D02*
X156327047Y-79904761D01*
X156517523Y-80000000D01*
X156612761Y-80190476D01*
X156612761Y-80380952D01*
X156612761Y-81047619D02*
X154612761Y-81047619D01*
X156612761Y-81904761D02*
X155565142Y-81904761D01*
X155374666Y-81809523D01*
X155279428Y-81619047D01*
X155279428Y-81333333D01*
X155374666Y-81142857D01*
X155469904Y-81047619D01*
X155279428Y-83714285D02*
X156612761Y-83714285D01*
X155279428Y-82857142D02*
X156327047Y-82857142D01*
X156517523Y-82952380D01*
X156612761Y-83142857D01*
X156612761Y-83428571D01*
X156517523Y-83619047D01*
X156422285Y-83714285D01*
X156612761Y-84666666D02*
X154612761Y-84666666D01*
X155374666Y-84666666D02*
X155279428Y-84857142D01*
X155279428Y-85238095D01*
X155374666Y-85428571D01*
X155469904Y-85523809D01*
X155660380Y-85619047D01*
X156231809Y-85619047D01*
X156422285Y-85523809D01*
X156517523Y-85428571D01*
X156612761Y-85238095D01*
X156612761Y-84857142D01*
X156517523Y-84666666D01*
X156422285Y-86476190D02*
X156517523Y-86571428D01*
X156612761Y-86476190D01*
X156517523Y-86380952D01*
X156422285Y-86476190D01*
X156612761Y-86476190D01*
X156517523Y-88285714D02*
X156612761Y-88095238D01*
X156612761Y-87714285D01*
X156517523Y-87523809D01*
X156422285Y-87428571D01*
X156231809Y-87333333D01*
X155660380Y-87333333D01*
X155469904Y-87428571D01*
X155374666Y-87523809D01*
X155279428Y-87714285D01*
X155279428Y-88095238D01*
X155374666Y-88285714D01*
X156612761Y-89428571D02*
X156517523Y-89238095D01*
X156422285Y-89142857D01*
X156231809Y-89047619D01*
X155660380Y-89047619D01*
X155469904Y-89142857D01*
X155374666Y-89238095D01*
X155279428Y-89428571D01*
X155279428Y-89714285D01*
X155374666Y-89904761D01*
X155469904Y-90000000D01*
X155660380Y-90095238D01*
X156231809Y-90095238D01*
X156422285Y-90000000D01*
X156517523Y-89904761D01*
X156612761Y-89714285D01*
X156612761Y-89428571D01*
X156612761Y-90952380D02*
X155279428Y-90952380D01*
X155469904Y-90952380D02*
X155374666Y-91047619D01*
X155279428Y-91238095D01*
X155279428Y-91523809D01*
X155374666Y-91714285D01*
X155565142Y-91809523D01*
X156612761Y-91809523D01*
X155565142Y-91809523D02*
X155374666Y-91904761D01*
X155279428Y-92095238D01*
X155279428Y-92380952D01*
X155374666Y-92571428D01*
X155565142Y-92666666D01*
X156612761Y-92666666D01*
X154517523Y-95047619D02*
X157088952Y-93333333D01*
X156422285Y-96857142D02*
X156517523Y-96761904D01*
X156612761Y-96476190D01*
X156612761Y-96285714D01*
X156517523Y-96000000D01*
X156327047Y-95809523D01*
X156136571Y-95714285D01*
X155755619Y-95619047D01*
X155469904Y-95619047D01*
X155088952Y-95714285D01*
X154898476Y-95809523D01*
X154708000Y-96000000D01*
X154612761Y-96285714D01*
X154612761Y-96476190D01*
X154708000Y-96761904D01*
X154803238Y-96857142D01*
X156612761Y-97714285D02*
X154612761Y-97714285D01*
X156612761Y-98571428D02*
X155565142Y-98571428D01*
X155374666Y-98476190D01*
X155279428Y-98285714D01*
X155279428Y-98000000D01*
X155374666Y-97809523D01*
X155469904Y-97714285D01*
X156612761Y-99523809D02*
X155279428Y-99523809D01*
X155660380Y-99523809D02*
X155469904Y-99619047D01*
X155374666Y-99714285D01*
X155279428Y-99904761D01*
X155279428Y-100095238D01*
X156612761Y-100761904D02*
X155279428Y-100761904D01*
X154612761Y-100761904D02*
X154708000Y-100666666D01*
X154803238Y-100761904D01*
X154708000Y-100857142D01*
X154612761Y-100761904D01*
X154803238Y-100761904D01*
X156517523Y-101619047D02*
X156612761Y-101809523D01*
X156612761Y-102190476D01*
X156517523Y-102380952D01*
X156327047Y-102476190D01*
X156231809Y-102476190D01*
X156041333Y-102380952D01*
X155946095Y-102190476D01*
X155946095Y-101904761D01*
X155850857Y-101714285D01*
X155660380Y-101619047D01*
X155565142Y-101619047D01*
X155374666Y-101714285D01*
X155279428Y-101904761D01*
X155279428Y-102190476D01*
X155374666Y-102380952D01*
X156612761Y-103333333D02*
X155279428Y-103333333D01*
X155469904Y-103333333D02*
X155374666Y-103428571D01*
X155279428Y-103619047D01*
X155279428Y-103904761D01*
X155374666Y-104095238D01*
X155565142Y-104190476D01*
X156612761Y-104190476D01*
X155565142Y-104190476D02*
X155374666Y-104285714D01*
X155279428Y-104476190D01*
X155279428Y-104761904D01*
X155374666Y-104952380D01*
X155565142Y-105047619D01*
X156612761Y-105047619D01*
X156517523Y-106761904D02*
X156612761Y-106571428D01*
X156612761Y-106190476D01*
X156517523Y-106000000D01*
X156327047Y-105904761D01*
X155565142Y-105904761D01*
X155374666Y-106000000D01*
X155279428Y-106190476D01*
X155279428Y-106571428D01*
X155374666Y-106761904D01*
X155565142Y-106857142D01*
X155755619Y-106857142D01*
X155946095Y-105904761D01*
X155279428Y-107428571D02*
X155279428Y-108190476D01*
X154612761Y-107714285D02*
X156327047Y-107714285D01*
X156517523Y-107809523D01*
X156612761Y-108000000D01*
X156612761Y-108190476D01*
X155279428Y-108571428D02*
X155279428Y-109333333D01*
X154612761Y-108857142D02*
X156327047Y-108857142D01*
X156517523Y-108952380D01*
X156612761Y-109142857D01*
X156612761Y-109333333D01*
X156612761Y-110857142D02*
X155565142Y-110857142D01*
X155374666Y-110761904D01*
X155279428Y-110571428D01*
X155279428Y-110190476D01*
X155374666Y-110000000D01*
X156517523Y-110857142D02*
X156612761Y-110666666D01*
X156612761Y-110190476D01*
X156517523Y-110000000D01*
X156327047Y-109904761D01*
X156136571Y-109904761D01*
X155946095Y-110000000D01*
X155850857Y-110190476D01*
X155850857Y-110666666D01*
X155755619Y-110857142D01*
X156612761Y-112095238D02*
X156517523Y-111904761D01*
X156327047Y-111809523D01*
X154612761Y-111809523D01*
X154517523Y-114285714D02*
X157088952Y-112571428D01*
X156612761Y-115904761D02*
X156612761Y-114952380D01*
X154612761Y-114952380D01*
X156612761Y-117428571D02*
X155565142Y-117428571D01*
X155374666Y-117333333D01*
X155279428Y-117142857D01*
X155279428Y-116761904D01*
X155374666Y-116571428D01*
X156517523Y-117428571D02*
X156612761Y-117238095D01*
X156612761Y-116761904D01*
X156517523Y-116571428D01*
X156327047Y-116476190D01*
X156136571Y-116476190D01*
X155946095Y-116571428D01*
X155850857Y-116761904D01*
X155850857Y-117238095D01*
X155755619Y-117428571D01*
X156517523Y-118285714D02*
X156612761Y-118476190D01*
X156612761Y-118857142D01*
X156517523Y-119047619D01*
X156327047Y-119142857D01*
X156231809Y-119142857D01*
X156041333Y-119047619D01*
X155946095Y-118857142D01*
X155946095Y-118571428D01*
X155850857Y-118380952D01*
X155660380Y-118285714D01*
X155565142Y-118285714D01*
X155374666Y-118380952D01*
X155279428Y-118571428D01*
X155279428Y-118857142D01*
X155374666Y-119047619D01*
X156517523Y-119904761D02*
X156612761Y-120190476D01*
X156612761Y-120666666D01*
X156517523Y-120857142D01*
X156422285Y-120952380D01*
X156231809Y-121047619D01*
X156041333Y-121047619D01*
X155850857Y-120952380D01*
X155755619Y-120857142D01*
X155660380Y-120666666D01*
X155565142Y-120285714D01*
X155469904Y-120095238D01*
X155374666Y-120000000D01*
X155184190Y-119904761D01*
X154993714Y-119904761D01*
X154803238Y-120000000D01*
X154708000Y-120095238D01*
X154612761Y-120285714D01*
X154612761Y-120761904D01*
X154708000Y-121047619D01*
X154612761Y-122285714D02*
X154612761Y-122476190D01*
X154708000Y-122666666D01*
X154803238Y-122761904D01*
X154993714Y-122857142D01*
X155374666Y-122952380D01*
X155850857Y-122952380D01*
X156231809Y-122857142D01*
X156422285Y-122761904D01*
X156517523Y-122666666D01*
X156612761Y-122476190D01*
X156612761Y-122285714D01*
X156517523Y-122095238D01*
X156422285Y-121999999D01*
X156231809Y-121904761D01*
X155850857Y-121809523D01*
X155374666Y-121809523D01*
X154993714Y-121904761D01*
X154803238Y-121999999D01*
X154708000Y-122095238D01*
X154612761Y-122285714D01*
D12*
X161252380Y-128046952D02*
X161966666Y-128046952D01*
X162109523Y-127999333D01*
X162204761Y-127904095D01*
X162252380Y-127761238D01*
X162252380Y-127666000D01*
X162252380Y-128999333D02*
X162252380Y-128523142D01*
X161252380Y-128523142D01*
X162157142Y-129904095D02*
X162204761Y-129856476D01*
X162252380Y-129713619D01*
X162252380Y-129618380D01*
X162204761Y-129475523D01*
X162109523Y-129380285D01*
X162014285Y-129332666D01*
X161823809Y-129285047D01*
X161680952Y-129285047D01*
X161490476Y-129332666D01*
X161395238Y-129380285D01*
X161300000Y-129475523D01*
X161252380Y-129618380D01*
X161252380Y-129713619D01*
X161300000Y-129856476D01*
X161347619Y-129904095D01*
X161252380Y-130618380D02*
X161966666Y-130618380D01*
X162109523Y-130570761D01*
X162204761Y-130475523D01*
X162252380Y-130332666D01*
X162252380Y-130237428D01*
X162252380Y-131570761D02*
X162252380Y-131094571D01*
X161252380Y-131094571D01*
X162157142Y-132475523D02*
X162204761Y-132427904D01*
X162252380Y-132285047D01*
X162252380Y-132189809D01*
X162204761Y-132046952D01*
X162109523Y-131951714D01*
X162014285Y-131904095D01*
X161823809Y-131856476D01*
X161680952Y-131856476D01*
X161490476Y-131904095D01*
X161395238Y-131951714D01*
X161300000Y-132046952D01*
X161252380Y-132189809D01*
X161252380Y-132285047D01*
X161300000Y-132427904D01*
X161347619Y-132475523D01*
X161252380Y-133189809D02*
X161966666Y-133189809D01*
X162109523Y-133142190D01*
X162204761Y-133046952D01*
X162252380Y-132904095D01*
X162252380Y-132808857D01*
X162252380Y-134142190D02*
X162252380Y-133666000D01*
X161252380Y-133666000D01*
X162157142Y-135046952D02*
X162204761Y-134999333D01*
X162252380Y-134856476D01*
X162252380Y-134761238D01*
X162204761Y-134618380D01*
X162109523Y-134523142D01*
X162014285Y-134475523D01*
X161823809Y-134427904D01*
X161680952Y-134427904D01*
X161490476Y-134475523D01*
X161395238Y-134523142D01*
X161300000Y-134618380D01*
X161252380Y-134761238D01*
X161252380Y-134856476D01*
X161300000Y-134999333D01*
X161347619Y-135046952D01*
X161252380Y-135761238D02*
X161966666Y-135761238D01*
X162109523Y-135713619D01*
X162204761Y-135618380D01*
X162252380Y-135475523D01*
X162252380Y-135380285D01*
X162252380Y-136713619D02*
X162252380Y-136237428D01*
X161252380Y-136237428D01*
X162157142Y-137618380D02*
X162204761Y-137570761D01*
X162252380Y-137427904D01*
X162252380Y-137332666D01*
X162204761Y-137189809D01*
X162109523Y-137094571D01*
X162014285Y-137046952D01*
X161823809Y-136999333D01*
X161680952Y-136999333D01*
X161490476Y-137046952D01*
X161395238Y-137094571D01*
X161300000Y-137189809D01*
X161252380Y-137332666D01*
X161252380Y-137427904D01*
X161300000Y-137570761D01*
X161347619Y-137618380D01*
%LPC*%
D13*
X140977142Y-95215982D02*
X140977142Y-93787410D01*
X137977142Y-94162410D01*
X140977142Y-97501696D02*
X139405714Y-97698125D01*
X139120000Y-97590982D01*
X138977142Y-97323125D01*
X138977142Y-96751696D01*
X139120000Y-96448125D01*
X140834285Y-97519553D02*
X140977142Y-97215982D01*
X140977142Y-96501696D01*
X140834285Y-96233839D01*
X140548571Y-96126696D01*
X140262857Y-96162410D01*
X139977142Y-96340982D01*
X139834285Y-96644553D01*
X139834285Y-97358839D01*
X139691428Y-97662410D01*
X140834285Y-98805267D02*
X140977142Y-99073125D01*
X140977142Y-99644553D01*
X140834285Y-99948125D01*
X140548571Y-100126696D01*
X140405714Y-100144553D01*
X140120000Y-100037410D01*
X139977142Y-99769553D01*
X139977142Y-99340982D01*
X139834285Y-99073125D01*
X139548571Y-98965982D01*
X139405714Y-98983839D01*
X139120000Y-99162410D01*
X138977142Y-99465982D01*
X138977142Y-99894553D01*
X139120000Y-100162410D01*
X140834285Y-101233839D02*
X140977142Y-101644553D01*
X140977142Y-102358839D01*
X140834285Y-102662410D01*
X140691428Y-102823125D01*
X140405714Y-103001696D01*
X140120000Y-103037410D01*
X139834285Y-102930267D01*
X139691428Y-102805267D01*
X139548571Y-102537410D01*
X139405714Y-101983839D01*
X139262857Y-101715982D01*
X139120000Y-101590982D01*
X138834285Y-101483839D01*
X138548571Y-101519553D01*
X138262857Y-101698125D01*
X138120000Y-101858839D01*
X137977142Y-102162410D01*
X137977142Y-102876696D01*
X138120000Y-103287410D01*
X137977142Y-105162410D02*
X137977142Y-105448125D01*
X138120000Y-105715982D01*
X138262857Y-105840982D01*
X138548571Y-105948125D01*
X139120000Y-106019553D01*
X139834285Y-105930267D01*
X140405714Y-105715982D01*
X140691428Y-105537410D01*
X140834285Y-105376696D01*
X140977142Y-105073125D01*
X140977142Y-104787410D01*
X140834285Y-104519553D01*
X140691428Y-104394553D01*
X140405714Y-104287410D01*
X139834285Y-104215982D01*
X139120000Y-104305267D01*
X138548571Y-104519553D01*
X138262857Y-104698125D01*
X138120000Y-104858839D01*
X137977142Y-105162410D01*
D14*
%TO.C,J3*%
X145970000Y-66990000D03*
D15*
X140890000Y-66990000D03*
%TD*%
D16*
%TO.C,J10*%
X135638000Y-92788000D03*
%TD*%
%TO.C,J6*%
X135638000Y-90121000D03*
%TD*%
%TO.C,J9*%
X161292000Y-81612000D03*
%TD*%
%TO.C,J7*%
X161292000Y-76532000D03*
%TD*%
D17*
%TO.C,H2*%
X136860000Y-127990000D03*
%TD*%
D14*
%TO.C,J4*%
X156130000Y-66990000D03*
D15*
X151050000Y-66990000D03*
%TD*%
D16*
%TO.C,J8*%
X161292000Y-79072000D03*
%TD*%
D18*
%TO.C,LOGO1*%
X158544800Y-96215400D03*
D19*
X158544800Y-103835400D03*
%TD*%
D20*
%TO.C,J1*%
X140890000Y-132990000D03*
D15*
X145970000Y-132990000D03*
%TD*%
D16*
%TO.C,J5*%
X141759400Y-81358000D03*
D21*
X144299400Y-81358000D03*
X141759400Y-83898000D03*
X144299400Y-83898000D03*
X141759400Y-86438000D03*
X144299400Y-86438000D03*
%TD*%
D20*
%TO.C,J2*%
X151050000Y-132990000D03*
D15*
X156130000Y-132990000D03*
%TD*%
D17*
%TO.C,H1*%
X160160000Y-72000000D03*
%TD*%
D22*
X149100000Y-98122000D03*
X138940000Y-75770000D03*
X157609000Y-125427000D03*
X135257000Y-78183000D03*
X160956000Y-113970000D03*
X155450000Y-74627000D03*
X140718000Y-75770000D03*
X140636000Y-117399000D03*
X147748000Y-83363000D03*
X158117000Y-83644000D03*
X149658800Y-111507800D03*
X139956000Y-95582000D03*
X160276000Y-89232000D03*
X151894000Y-73103000D03*
X146814000Y-77859989D03*
X151225900Y-79232100D03*
X152021000Y-76659000D03*
X155196000Y-79326000D03*
X150878000Y-80596000D03*
M02*
