%TF.GenerationSoftware,KiCad,Pcbnew,(5.99.0-11393-ga06b95bb1f)*%
%TF.CreationDate,2021-07-10T21:53:40+02:00*%
%TF.ProjectId,LasS0,4c617353-302e-46b6-9963-61645f706362,v0.1*%
%TF.SameCoordinates,Original*%
%TF.FileFunction,Soldermask,Top*%
%TF.FilePolarity,Negative*%
%FSLAX46Y46*%
G04 Gerber Fmt 4.6, Leading zero omitted, Abs format (unit mm)*
G04 Created by KiCad (PCBNEW (5.99.0-11393-ga06b95bb1f)) date 2021-07-10 21:53:40*
%MOMM*%
%LPD*%
G01*
G04 APERTURE LIST*
G04 Aperture macros list*
%AMRoundRect*
0 Rectangle with rounded corners*
0 $1 Rounding radius*
0 $2 $3 $4 $5 $6 $7 $8 $9 X,Y pos of 4 corners*
0 Add a 4 corners polygon primitive as box body*
4,1,4,$2,$3,$4,$5,$6,$7,$8,$9,$2,$3,0*
0 Add four circle primitives for the rounded corners*
1,1,$1+$1,$2,$3*
1,1,$1+$1,$4,$5*
1,1,$1+$1,$6,$7*
1,1,$1+$1,$8,$9*
0 Add four rect primitives between the rounded corners*
20,1,$1+$1,$2,$3,$4,$5,0*
20,1,$1+$1,$4,$5,$6,$7,0*
20,1,$1+$1,$6,$7,$8,$9,0*
20,1,$1+$1,$8,$9,$2,$3,0*%
%AMFreePoly0*
4,1,6,1.000000,0.000000,0.500000,-0.750000,-0.500000,-0.750000,-0.500000,0.750000,0.500000,0.750000,1.000000,0.000000,1.000000,0.000000,$1*%
%AMFreePoly1*
4,1,6,0.500000,-0.750000,-0.650000,-0.750000,-0.150000,0.000000,-0.650000,0.750000,0.500000,0.750000,0.500000,-0.750000,0.500000,-0.750000,$1*%
G04 Aperture macros list end*
%ADD10C,0.400000*%
%ADD11C,0.150000*%
%ADD12R,2.400000X2.000000*%
%ADD13RoundRect,0.225000X-0.225000X-0.250000X0.225000X-0.250000X0.225000X0.250000X-0.225000X0.250000X0*%
%ADD14RoundRect,0.249999X0.790001X1.550001X-0.790001X1.550001X-0.790001X-1.550001X0.790001X-1.550001X0*%
%ADD15O,2.080000X3.600000*%
%ADD16RoundRect,0.200000X0.200000X0.275000X-0.200000X0.275000X-0.200000X-0.275000X0.200000X-0.275000X0*%
%ADD17RoundRect,0.150000X-0.825000X-0.150000X0.825000X-0.150000X0.825000X0.150000X-0.825000X0.150000X0*%
%ADD18FreePoly0,270.000000*%
%ADD19FreePoly1,270.000000*%
%ADD20RoundRect,0.250000X-0.325000X-0.650000X0.325000X-0.650000X0.325000X0.650000X-0.325000X0.650000X0*%
%ADD21R,1.700000X1.700000*%
%ADD22R,1.780000X2.000000*%
%ADD23RoundRect,0.200000X-0.275000X0.200000X-0.275000X-0.200000X0.275000X-0.200000X0.275000X0.200000X0*%
%ADD24R,1.800000X2.500000*%
%ADD25FreePoly0,180.000000*%
%ADD26FreePoly1,180.000000*%
%ADD27RoundRect,0.150000X-0.150000X0.587500X-0.150000X-0.587500X0.150000X-0.587500X0.150000X0.587500X0*%
%ADD28RoundRect,0.225000X0.225000X0.250000X-0.225000X0.250000X-0.225000X-0.250000X0.225000X-0.250000X0*%
%ADD29C,5.700000*%
%ADD30RoundRect,0.200000X0.275000X-0.200000X0.275000X0.200000X-0.275000X0.200000X-0.275000X-0.200000X0*%
%ADD31O,1.600000X1.600000*%
%ADD32C,1.600000*%
%ADD33RoundRect,0.225000X0.675000X-0.225000X0.675000X0.225000X-0.675000X0.225000X-0.675000X-0.225000X0*%
%ADD34RoundRect,0.200000X-0.200000X-0.275000X0.200000X-0.275000X0.200000X0.275000X-0.200000X0.275000X0*%
%ADD35RoundRect,0.249999X-0.790001X-1.550001X0.790001X-1.550001X0.790001X1.550001X-0.790001X1.550001X0*%
%ADD36O,1.700000X1.700000*%
%ADD37R,3.000000X1.950000*%
%ADD38FreePoly0,90.000000*%
%ADD39FreePoly1,90.000000*%
%ADD40RoundRect,0.150000X0.150000X-0.825000X0.150000X0.825000X-0.150000X0.825000X-0.150000X-0.825000X0*%
%ADD41C,0.800000*%
G04 APERTURE END LIST*
D10*
X144560663Y-92016527D02*
X143218245Y-92505127D01*
X142544570Y-89557792D01*
X146708532Y-91234767D02*
X146355655Y-89690924D01*
X146157253Y-89459086D01*
X145856690Y-89416457D01*
X145319723Y-89611897D01*
X145083319Y-89849966D01*
X146676452Y-91094417D02*
X146440049Y-91332487D01*
X145768840Y-91576787D01*
X145468276Y-91534158D01*
X145269875Y-91302319D01*
X145205715Y-91021620D01*
X145275797Y-90692062D01*
X145512201Y-90453992D01*
X146183410Y-90209692D01*
X146419814Y-89971623D01*
X147884629Y-90654677D02*
X148185192Y-90697307D01*
X148722159Y-90501866D01*
X148958563Y-90263797D01*
X149028645Y-89934238D01*
X148996566Y-89793889D01*
X148798164Y-89562051D01*
X148497601Y-89519421D01*
X148094875Y-89666001D01*
X147794312Y-89623372D01*
X147595911Y-89391534D01*
X147563831Y-89251184D01*
X147633913Y-88921626D01*
X147870317Y-88683556D01*
X148273042Y-88536976D01*
X148573606Y-88579605D01*
X150166739Y-89824057D02*
X150601545Y-89817826D01*
X151272754Y-89573526D01*
X151509157Y-89335457D01*
X151611319Y-89146247D01*
X151681402Y-88816689D01*
X151617242Y-88535990D01*
X151418841Y-88304152D01*
X151252519Y-88212662D01*
X150951956Y-88170033D01*
X150382909Y-88225124D01*
X150082345Y-88182495D01*
X149916024Y-88091005D01*
X149717622Y-87859167D01*
X149653463Y-87578468D01*
X149723545Y-87248909D01*
X149825707Y-87059700D01*
X150062111Y-86821631D01*
X150733320Y-86577331D01*
X151168125Y-86571100D01*
X152881189Y-85795570D02*
X153149672Y-85697850D01*
X153450236Y-85740480D01*
X153616557Y-85831969D01*
X153814959Y-86063807D01*
X154077519Y-86576345D01*
X154237918Y-87278091D01*
X154231996Y-87888348D01*
X154161914Y-88217907D01*
X154059752Y-88407116D01*
X153823348Y-88645186D01*
X153554864Y-88742906D01*
X153254301Y-88700276D01*
X153087979Y-88608787D01*
X152889578Y-88376949D01*
X152627017Y-87864411D01*
X152466618Y-87162665D01*
X152472540Y-86552408D01*
X152542623Y-86222849D01*
X152644785Y-86033640D01*
X152881189Y-85795570D01*
D11*
%TO.C,LOGO1*%
X157071600Y-91922800D02*
X157071600Y-108890000D01*
X157071600Y-108890000D02*
X161796000Y-108890000D01*
X161796000Y-108890000D02*
X161796000Y-91922800D01*
X161796000Y-91922800D02*
X157071600Y-91922800D01*
G36*
X161796000Y-108890000D02*
G01*
X157071600Y-108890000D01*
X157071600Y-91922800D01*
X161796000Y-91922800D01*
X161796000Y-108890000D01*
G37*
X161796000Y-108890000D02*
X157071600Y-108890000D01*
X157071600Y-91922800D01*
X161796000Y-91922800D01*
X161796000Y-108890000D01*
%TD*%
D12*
%TO.C,Y1*%
X143258000Y-77620000D03*
X143258000Y-73920000D03*
%TD*%
D13*
%TO.C,C11*%
X138927000Y-73992000D03*
X140477000Y-73992000D03*
%TD*%
D14*
%TO.C,J3*%
X145970000Y-66990000D03*
D15*
X140890000Y-66990000D03*
%TD*%
D16*
%TO.C,R12*%
X153101500Y-97234500D03*
X151451500Y-97234500D03*
%TD*%
D17*
%TO.C,U3*%
X148555400Y-73941200D03*
X148555400Y-75211200D03*
X148555400Y-76481200D03*
X148555400Y-77751200D03*
X148555400Y-79021200D03*
X148555400Y-80291200D03*
X148555400Y-81561200D03*
X153505400Y-81561200D03*
X153505400Y-80291200D03*
X153505400Y-79021200D03*
X153505400Y-77751200D03*
X153505400Y-76481200D03*
X153505400Y-75211200D03*
X153505400Y-73941200D03*
%TD*%
D18*
%TO.C,JP1_VCC1*%
X156212000Y-118225000D03*
D19*
X156212000Y-119675000D03*
%TD*%
D20*
%TO.C,C8*%
X144114000Y-106604000D03*
X147064000Y-106604000D03*
%TD*%
D21*
%TO.C,J10*%
X135638000Y-92788000D03*
%TD*%
D13*
%TO.C,C3*%
X140877000Y-113208000D03*
X142427000Y-113208000D03*
%TD*%
D22*
%TO.C,U2*%
X153590000Y-106284000D03*
X151050000Y-106284000D03*
X151050000Y-115814000D03*
X153590000Y-115814000D03*
%TD*%
D23*
%TO.C,R5*%
X158625000Y-75707000D03*
X158625000Y-77357000D03*
%TD*%
D24*
%TO.C,D1*%
X138223000Y-113494000D03*
X138223000Y-117494000D03*
%TD*%
D21*
%TO.C,J6*%
X135638000Y-90121000D03*
%TD*%
D25*
%TO.C,JP2_D1*%
X154143000Y-71198000D03*
D26*
X152693000Y-71198000D03*
%TD*%
D13*
%TO.C,C5*%
X143925000Y-113208000D03*
X145475000Y-113208000D03*
%TD*%
D27*
%TO.C,Q2*%
X153226500Y-100361000D03*
X151326500Y-100361000D03*
X152276500Y-102236000D03*
%TD*%
D21*
%TO.C,J9*%
X161292000Y-81612000D03*
%TD*%
D23*
%TO.C,R10*%
X158162000Y-113195800D03*
X158162000Y-114845800D03*
%TD*%
%TO.C,R4*%
X146986000Y-108510000D03*
X146986000Y-110160000D03*
%TD*%
D28*
%TO.C,C2*%
X142300000Y-122352000D03*
X140750000Y-122352000D03*
%TD*%
D24*
%TO.C,D3*%
X151177000Y-123590000D03*
X151177000Y-119590000D03*
%TD*%
D21*
%TO.C,J7*%
X161292000Y-76532000D03*
%TD*%
D29*
%TO.C,H2*%
X136860000Y-127990000D03*
%TD*%
D14*
%TO.C,J4*%
X156130000Y-66990000D03*
D15*
X151050000Y-66990000D03*
%TD*%
D30*
%TO.C,R1*%
X146986000Y-113208000D03*
X146986000Y-111558000D03*
%TD*%
D16*
%TO.C,R8*%
X147303000Y-100635000D03*
X145653000Y-100635000D03*
%TD*%
D21*
%TO.C,J8*%
X161292000Y-79072000D03*
%TD*%
D24*
%TO.C,D2*%
X137461000Y-96857000D03*
X137461000Y-100857000D03*
%TD*%
D28*
%TO.C,C1*%
X145348000Y-125908000D03*
X143798000Y-125908000D03*
%TD*%
D31*
%TO.C,LOGO1*%
X158544800Y-96215400D03*
D32*
X158544800Y-103835400D03*
D33*
X158544800Y-100895400D03*
X158544800Y-99155400D03*
%TD*%
D18*
%TO.C,JP1_PU1*%
X158752000Y-118225000D03*
D19*
X158752000Y-119675000D03*
%TD*%
D34*
%TO.C,R2*%
X143875000Y-108636000D03*
X145525000Y-108636000D03*
%TD*%
%TO.C,R3*%
X143875000Y-110160000D03*
X145525000Y-110160000D03*
%TD*%
D35*
%TO.C,J1*%
X140890000Y-132990000D03*
D15*
X145970000Y-132990000D03*
%TD*%
D23*
%TO.C,R9*%
X154180000Y-120765000D03*
X154180000Y-122415000D03*
%TD*%
D13*
%TO.C,C4*%
X143798000Y-122352000D03*
X145348000Y-122352000D03*
%TD*%
D21*
%TO.C,J5*%
X141759400Y-81358000D03*
D36*
X144299400Y-81358000D03*
X141759400Y-83898000D03*
X144299400Y-83898000D03*
X141759400Y-86438000D03*
X144299400Y-86438000D03*
%TD*%
D37*
%TO.C,L1*%
X139112000Y-104108000D03*
X139112000Y-109608000D03*
%TD*%
D35*
%TO.C,J2*%
X151050000Y-132990000D03*
D15*
X156130000Y-132990000D03*
%TD*%
D38*
%TO.C,JP1_D1*%
X161292000Y-119675000D03*
D39*
X161292000Y-118225000D03*
%TD*%
D20*
%TO.C,C7*%
X144114000Y-104191000D03*
X147064000Y-104191000D03*
%TD*%
D29*
%TO.C,H1*%
X160160000Y-72000000D03*
%TD*%
D40*
%TO.C,U1*%
X141144000Y-120255000D03*
X142414000Y-120255000D03*
X143684000Y-120255000D03*
X144954000Y-120255000D03*
X144954000Y-115305000D03*
X143684000Y-115305000D03*
X142414000Y-115305000D03*
X141144000Y-115305000D03*
%TD*%
D13*
%TO.C,C6*%
X143925000Y-111684000D03*
X145475000Y-111684000D03*
%TD*%
D28*
%TO.C,C9*%
X149468600Y-71807600D03*
X147918600Y-71807600D03*
%TD*%
D13*
%TO.C,C10*%
X138927000Y-77548000D03*
X140477000Y-77548000D03*
%TD*%
D41*
X149100000Y-98122000D03*
X138940000Y-75770000D03*
X157609000Y-125427000D03*
X135257000Y-78183000D03*
X160956000Y-113970000D03*
X155450000Y-74627000D03*
X140718000Y-75770000D03*
X140636000Y-117399000D03*
X147748000Y-83363000D03*
X158117000Y-83644000D03*
X149658800Y-111507800D03*
X139956000Y-95582000D03*
X160276000Y-89232000D03*
X151894000Y-73103000D03*
X146814000Y-77859989D03*
X151225900Y-79232100D03*
X152021000Y-76659000D03*
X155196000Y-79326000D03*
X150878000Y-80596000D03*
M02*
