%TF.GenerationSoftware,KiCad,Pcbnew,(5.99.0-11393-ga06b95bb1f)*%
%TF.CreationDate,2021-07-10T21:53:40+02:00*%
%TF.ProjectId,LasS0,4c617353-302e-46b6-9963-61645f706362,v0.1*%
%TF.SameCoordinates,Original*%
%TF.FileFunction,Legend,Top*%
%TF.FilePolarity,Positive*%
%FSLAX46Y46*%
G04 Gerber Fmt 4.6, Leading zero omitted, Abs format (unit mm)*
G04 Created by KiCad (PCBNEW (5.99.0-11393-ga06b95bb1f)) date 2021-07-10 21:53:40*
%MOMM*%
%LPD*%
G01*
G04 APERTURE LIST*
G04 Aperture macros list*
%AMRoundRect*
0 Rectangle with rounded corners*
0 $1 Rounding radius*
0 $2 $3 $4 $5 $6 $7 $8 $9 X,Y pos of 4 corners*
0 Add a 4 corners polygon primitive as box body*
4,1,4,$2,$3,$4,$5,$6,$7,$8,$9,$2,$3,0*
0 Add four circle primitives for the rounded corners*
1,1,$1+$1,$2,$3*
1,1,$1+$1,$4,$5*
1,1,$1+$1,$6,$7*
1,1,$1+$1,$8,$9*
0 Add four rect primitives between the rounded corners*
20,1,$1+$1,$2,$3,$4,$5,0*
20,1,$1+$1,$4,$5,$6,$7,0*
20,1,$1+$1,$6,$7,$8,$9,0*
20,1,$1+$1,$8,$9,$2,$3,0*%
%AMFreePoly0*
4,1,6,1.000000,0.000000,0.500000,-0.750000,-0.500000,-0.750000,-0.500000,0.750000,0.500000,0.750000,1.000000,0.000000,1.000000,0.000000,$1*%
%AMFreePoly1*
4,1,6,0.500000,-0.750000,-0.650000,-0.750000,-0.150000,0.000000,-0.650000,0.750000,0.500000,0.750000,0.500000,-0.750000,0.500000,-0.750000,$1*%
G04 Aperture macros list end*
%ADD10C,0.120000*%
%ADD11C,0.150000*%
%ADD12C,0.250000*%
%ADD13C,0.750000*%
%ADD14C,0.010000*%
%ADD15C,1.000000*%
%ADD16C,0.400000*%
%ADD17R,2.400000X2.000000*%
%ADD18RoundRect,0.225000X-0.225000X-0.250000X0.225000X-0.250000X0.225000X0.250000X-0.225000X0.250000X0*%
%ADD19RoundRect,0.249999X0.790001X1.550001X-0.790001X1.550001X-0.790001X-1.550001X0.790001X-1.550001X0*%
%ADD20O,2.080000X3.600000*%
%ADD21RoundRect,0.200000X0.200000X0.275000X-0.200000X0.275000X-0.200000X-0.275000X0.200000X-0.275000X0*%
%ADD22RoundRect,0.150000X-0.825000X-0.150000X0.825000X-0.150000X0.825000X0.150000X-0.825000X0.150000X0*%
%ADD23FreePoly0,270.000000*%
%ADD24FreePoly1,270.000000*%
%ADD25RoundRect,0.250000X-0.325000X-0.650000X0.325000X-0.650000X0.325000X0.650000X-0.325000X0.650000X0*%
%ADD26R,1.700000X1.700000*%
%ADD27R,1.780000X2.000000*%
%ADD28RoundRect,0.200000X-0.275000X0.200000X-0.275000X-0.200000X0.275000X-0.200000X0.275000X0.200000X0*%
%ADD29R,1.800000X2.500000*%
%ADD30FreePoly0,180.000000*%
%ADD31FreePoly1,180.000000*%
%ADD32RoundRect,0.150000X-0.150000X0.587500X-0.150000X-0.587500X0.150000X-0.587500X0.150000X0.587500X0*%
%ADD33RoundRect,0.225000X0.225000X0.250000X-0.225000X0.250000X-0.225000X-0.250000X0.225000X-0.250000X0*%
%ADD34C,5.700000*%
%ADD35RoundRect,0.200000X0.275000X-0.200000X0.275000X0.200000X-0.275000X0.200000X-0.275000X-0.200000X0*%
%ADD36O,1.600000X1.600000*%
%ADD37C,1.600000*%
%ADD38RoundRect,0.225000X0.675000X-0.225000X0.675000X0.225000X-0.675000X0.225000X-0.675000X-0.225000X0*%
%ADD39RoundRect,0.200000X-0.200000X-0.275000X0.200000X-0.275000X0.200000X0.275000X-0.200000X0.275000X0*%
%ADD40RoundRect,0.249999X-0.790001X-1.550001X0.790001X-1.550001X0.790001X1.550001X-0.790001X1.550001X0*%
%ADD41O,1.700000X1.700000*%
%ADD42R,3.000000X1.950000*%
%ADD43FreePoly0,90.000000*%
%ADD44FreePoly1,90.000000*%
%ADD45RoundRect,0.150000X0.150000X-0.825000X0.150000X0.825000X-0.150000X0.825000X-0.150000X-0.825000X0*%
%ADD46C,0.800000*%
G04 APERTURE END LIST*
D10*
X159962000Y-84212000D02*
X162629000Y-84212000D01*
X162629000Y-84212000D02*
X162629000Y-82942000D01*
X162629000Y-82942000D02*
X159962000Y-82942000D01*
X159962000Y-82942000D02*
X159962000Y-84212000D01*
D11*
X156847000Y-78183000D02*
X155958000Y-77294000D01*
X156212000Y-120982000D02*
X156212000Y-120350000D01*
D10*
X159962000Y-86752000D02*
X162629000Y-86752000D01*
X162629000Y-86752000D02*
X162629000Y-85482000D01*
X162629000Y-85482000D02*
X159962000Y-85482000D01*
X159962000Y-85482000D02*
X159962000Y-86752000D01*
D11*
X155958000Y-73338000D02*
X155958000Y-77294000D01*
D10*
X136968000Y-91458000D02*
X139635000Y-91458000D01*
X139635000Y-91458000D02*
X139635000Y-90188000D01*
X139635000Y-90188000D02*
X136968000Y-90188000D01*
X136968000Y-90188000D02*
X136968000Y-91458000D01*
D11*
X162054000Y-128094000D02*
X162054000Y-124157000D01*
X159387000Y-125300000D02*
X159387000Y-124157000D01*
X154818000Y-72198000D02*
X155958000Y-73338000D01*
X159387000Y-124157000D02*
X156720000Y-121490000D01*
X160784000Y-124157000D02*
X160784000Y-125808000D01*
X156085000Y-83009000D02*
X159006000Y-83009000D01*
X159006000Y-83009000D02*
X159006000Y-78183000D01*
X159006000Y-78183000D02*
X156085000Y-78183000D01*
X156085000Y-78183000D02*
X156085000Y-83009000D01*
X162054000Y-124157000D02*
X161292000Y-123395000D01*
X159387000Y-128221000D02*
X159387000Y-125300000D01*
D10*
X159962000Y-85482000D02*
X162629000Y-85482000D01*
X162629000Y-85482000D02*
X162629000Y-84212000D01*
X162629000Y-84212000D02*
X159962000Y-84212000D01*
X159962000Y-84212000D02*
X159962000Y-85482000D01*
D11*
X158752000Y-120350000D02*
X158752000Y-122125000D01*
X161292000Y-123395000D02*
X161292000Y-120350000D01*
X156720000Y-121490000D02*
X156212000Y-120982000D01*
D10*
X136968000Y-92728000D02*
X139635000Y-92728000D01*
X139635000Y-92728000D02*
X139635000Y-91458000D01*
X139635000Y-91458000D02*
X136968000Y-91458000D01*
X136968000Y-91458000D02*
X136968000Y-92728000D01*
D11*
X158752000Y-122125000D02*
X160784000Y-124157000D01*
X158750000Y-135460000D02*
X162814000Y-135460000D01*
X162814000Y-135460000D02*
X162814000Y-125808000D01*
X162814000Y-125808000D02*
X158750000Y-125808000D01*
X158750000Y-125808000D02*
X158750000Y-135460000D01*
D12*
X145302000Y-72594857D02*
X145230571Y-72737714D01*
X145230571Y-72952000D01*
X145302000Y-73166285D01*
X145444857Y-73309142D01*
X145587714Y-73380571D01*
X145873428Y-73452000D01*
X146087714Y-73452000D01*
X146373428Y-73380571D01*
X146516285Y-73309142D01*
X146659142Y-73166285D01*
X146730571Y-72952000D01*
X146730571Y-72809142D01*
X146659142Y-72594857D01*
X146587714Y-72523428D01*
X146087714Y-72523428D01*
X146087714Y-72809142D01*
X146730571Y-71880571D02*
X145230571Y-71880571D01*
X146730571Y-71023428D01*
X145230571Y-71023428D01*
X146730571Y-70309142D02*
X145230571Y-70309142D01*
X145230571Y-69952000D01*
X145302000Y-69737714D01*
X145444857Y-69594857D01*
X145587714Y-69523428D01*
X145873428Y-69452000D01*
X146087714Y-69452000D01*
X146373428Y-69523428D01*
X146516285Y-69594857D01*
X146659142Y-69737714D01*
X146730571Y-69952000D01*
X146730571Y-70309142D01*
D11*
X160436976Y-83920904D02*
X160436976Y-83120904D01*
X160741738Y-83120904D01*
X160817928Y-83159000D01*
X160856023Y-83197095D01*
X160894119Y-83273285D01*
X160894119Y-83387571D01*
X160856023Y-83463761D01*
X160817928Y-83501857D01*
X160741738Y-83539952D01*
X160436976Y-83539952D01*
X161198880Y-83692333D02*
X161579833Y-83692333D01*
X161122690Y-83920904D02*
X161389357Y-83120904D01*
X161656023Y-83920904D01*
X162341738Y-83920904D02*
X161884595Y-83920904D01*
X162113166Y-83920904D02*
X162113166Y-83120904D01*
X162036976Y-83235190D01*
X161960785Y-83311380D01*
X161884595Y-83349476D01*
X160436976Y-85208904D02*
X160436976Y-84408904D01*
X160741738Y-84408904D01*
X160817928Y-84447000D01*
X160856023Y-84485095D01*
X160894119Y-84561285D01*
X160894119Y-84675571D01*
X160856023Y-84751761D01*
X160817928Y-84789857D01*
X160741738Y-84827952D01*
X160436976Y-84827952D01*
X161198880Y-84980333D02*
X161579833Y-84980333D01*
X161122690Y-85208904D02*
X161389357Y-84408904D01*
X161656023Y-85208904D01*
X161846500Y-84408904D02*
X162341738Y-84408904D01*
X162075071Y-84713666D01*
X162189357Y-84713666D01*
X162265547Y-84751761D01*
X162303642Y-84789857D01*
X162341738Y-84866047D01*
X162341738Y-85056523D01*
X162303642Y-85132714D01*
X162265547Y-85170809D01*
X162189357Y-85208904D01*
X161960785Y-85208904D01*
X161884595Y-85170809D01*
X161846500Y-85132714D01*
X160436976Y-86496904D02*
X160436976Y-85696904D01*
X160741738Y-85696904D01*
X160817928Y-85735000D01*
X160856023Y-85773095D01*
X160894119Y-85849285D01*
X160894119Y-85963571D01*
X160856023Y-86039761D01*
X160817928Y-86077857D01*
X160741738Y-86115952D01*
X160436976Y-86115952D01*
X161198880Y-86268333D02*
X161579833Y-86268333D01*
X161122690Y-86496904D02*
X161389357Y-85696904D01*
X161656023Y-86496904D01*
X161846500Y-85696904D02*
X162379833Y-85696904D01*
X162036976Y-86496904D01*
D12*
X140068571Y-130575000D02*
X141568571Y-130075000D01*
X140068571Y-129575000D01*
X141425714Y-128217857D02*
X141497142Y-128289285D01*
X141568571Y-128503571D01*
X141568571Y-128646428D01*
X141497142Y-128860714D01*
X141354285Y-129003571D01*
X141211428Y-129075000D01*
X140925714Y-129146428D01*
X140711428Y-129146428D01*
X140425714Y-129075000D01*
X140282857Y-129003571D01*
X140140000Y-128860714D01*
X140068571Y-128646428D01*
X140068571Y-128503571D01*
X140140000Y-128289285D01*
X140211428Y-128217857D01*
X141425714Y-126717857D02*
X141497142Y-126789285D01*
X141568571Y-127003571D01*
X141568571Y-127146428D01*
X141497142Y-127360714D01*
X141354285Y-127503571D01*
X141211428Y-127575000D01*
X140925714Y-127646428D01*
X140711428Y-127646428D01*
X140425714Y-127575000D01*
X140282857Y-127503571D01*
X140140000Y-127360714D01*
X140068571Y-127146428D01*
X140068571Y-127003571D01*
X140140000Y-126789285D01*
X140211428Y-126717857D01*
D11*
X159817809Y-135210119D02*
X159855904Y-135095833D01*
X159855904Y-134905357D01*
X159817809Y-134829166D01*
X159779714Y-134791071D01*
X159703523Y-134752976D01*
X159627333Y-134752976D01*
X159551142Y-134791071D01*
X159513047Y-134829166D01*
X159474952Y-134905357D01*
X159436857Y-135057738D01*
X159398761Y-135133928D01*
X159360666Y-135172023D01*
X159284476Y-135210119D01*
X159208285Y-135210119D01*
X159132095Y-135172023D01*
X159094000Y-135133928D01*
X159055904Y-135057738D01*
X159055904Y-134867261D01*
X159094000Y-134752976D01*
X159055904Y-134257738D02*
X159055904Y-134105357D01*
X159094000Y-134029166D01*
X159170190Y-133952976D01*
X159322571Y-133914880D01*
X159589238Y-133914880D01*
X159741619Y-133952976D01*
X159817809Y-134029166D01*
X159855904Y-134105357D01*
X159855904Y-134257738D01*
X159817809Y-134333928D01*
X159741619Y-134410119D01*
X159589238Y-134448214D01*
X159322571Y-134448214D01*
X159170190Y-134410119D01*
X159094000Y-134333928D01*
X159055904Y-134257738D01*
X159551142Y-133572023D02*
X159551142Y-132962500D01*
X159855904Y-133267261D02*
X159246380Y-133267261D01*
X159551142Y-131972023D02*
X159551142Y-131362500D01*
X159055904Y-130486309D02*
X159855904Y-130219642D01*
X159055904Y-129952976D01*
X159779714Y-129229166D02*
X159817809Y-129267261D01*
X159855904Y-129381547D01*
X159855904Y-129457738D01*
X159817809Y-129572023D01*
X159741619Y-129648214D01*
X159665428Y-129686309D01*
X159513047Y-129724404D01*
X159398761Y-129724404D01*
X159246380Y-129686309D01*
X159170190Y-129648214D01*
X159094000Y-129572023D01*
X159055904Y-129457738D01*
X159055904Y-129381547D01*
X159094000Y-129267261D01*
X159132095Y-129229166D01*
X159779714Y-128429166D02*
X159817809Y-128467261D01*
X159855904Y-128581547D01*
X159855904Y-128657738D01*
X159817809Y-128772023D01*
X159741619Y-128848214D01*
X159665428Y-128886309D01*
X159513047Y-128924404D01*
X159398761Y-128924404D01*
X159246380Y-128886309D01*
X159170190Y-128848214D01*
X159094000Y-128772023D01*
X159055904Y-128657738D01*
X159055904Y-128581547D01*
X159094000Y-128467261D01*
X159132095Y-128429166D01*
X161105809Y-135210119D02*
X161143904Y-135095833D01*
X161143904Y-134905357D01*
X161105809Y-134829166D01*
X161067714Y-134791071D01*
X160991523Y-134752976D01*
X160915333Y-134752976D01*
X160839142Y-134791071D01*
X160801047Y-134829166D01*
X160762952Y-134905357D01*
X160724857Y-135057738D01*
X160686761Y-135133928D01*
X160648666Y-135172023D01*
X160572476Y-135210119D01*
X160496285Y-135210119D01*
X160420095Y-135172023D01*
X160382000Y-135133928D01*
X160343904Y-135057738D01*
X160343904Y-134867261D01*
X160382000Y-134752976D01*
X160343904Y-134257738D02*
X160343904Y-134105357D01*
X160382000Y-134029166D01*
X160458190Y-133952976D01*
X160610571Y-133914880D01*
X160877238Y-133914880D01*
X161029619Y-133952976D01*
X161105809Y-134029166D01*
X161143904Y-134105357D01*
X161143904Y-134257738D01*
X161105809Y-134333928D01*
X161029619Y-134410119D01*
X160877238Y-134448214D01*
X160610571Y-134448214D01*
X160458190Y-134410119D01*
X160382000Y-134333928D01*
X160343904Y-134257738D01*
X160839142Y-133572023D02*
X160839142Y-132962500D01*
X161143904Y-133267261D02*
X160534380Y-133267261D01*
X160839142Y-131972023D02*
X160839142Y-131362500D01*
X161143904Y-130372023D02*
X160343904Y-130372023D01*
X160343904Y-130067261D01*
X160382000Y-129991071D01*
X160420095Y-129952976D01*
X160496285Y-129914880D01*
X160610571Y-129914880D01*
X160686761Y-129952976D01*
X160724857Y-129991071D01*
X160762952Y-130067261D01*
X160762952Y-130372023D01*
X160343904Y-129572023D02*
X160991523Y-129572023D01*
X161067714Y-129533928D01*
X161105809Y-129495833D01*
X161143904Y-129419642D01*
X161143904Y-129267261D01*
X161105809Y-129191071D01*
X161067714Y-129152976D01*
X160991523Y-129114880D01*
X160343904Y-129114880D01*
X161220095Y-128924404D02*
X161220095Y-128314880D01*
X160343904Y-128238690D02*
X161143904Y-127972023D01*
X160343904Y-127705357D01*
X161067714Y-126981547D02*
X161105809Y-127019642D01*
X161143904Y-127133928D01*
X161143904Y-127210119D01*
X161105809Y-127324404D01*
X161029619Y-127400595D01*
X160953428Y-127438690D01*
X160801047Y-127476785D01*
X160686761Y-127476785D01*
X160534380Y-127438690D01*
X160458190Y-127400595D01*
X160382000Y-127324404D01*
X160343904Y-127210119D01*
X160343904Y-127133928D01*
X160382000Y-127019642D01*
X160420095Y-126981547D01*
X161067714Y-126181547D02*
X161105809Y-126219642D01*
X161143904Y-126333928D01*
X161143904Y-126410119D01*
X161105809Y-126524404D01*
X161029619Y-126600595D01*
X160953428Y-126638690D01*
X160801047Y-126676785D01*
X160686761Y-126676785D01*
X160534380Y-126638690D01*
X160458190Y-126600595D01*
X160382000Y-126524404D01*
X160343904Y-126410119D01*
X160343904Y-126333928D01*
X160382000Y-126219642D01*
X160420095Y-126181547D01*
X162393809Y-135210119D02*
X162431904Y-135095833D01*
X162431904Y-134905357D01*
X162393809Y-134829166D01*
X162355714Y-134791071D01*
X162279523Y-134752976D01*
X162203333Y-134752976D01*
X162127142Y-134791071D01*
X162089047Y-134829166D01*
X162050952Y-134905357D01*
X162012857Y-135057738D01*
X161974761Y-135133928D01*
X161936666Y-135172023D01*
X161860476Y-135210119D01*
X161784285Y-135210119D01*
X161708095Y-135172023D01*
X161670000Y-135133928D01*
X161631904Y-135057738D01*
X161631904Y-134867261D01*
X161670000Y-134752976D01*
X161631904Y-134257738D02*
X161631904Y-134105357D01*
X161670000Y-134029166D01*
X161746190Y-133952976D01*
X161898571Y-133914880D01*
X162165238Y-133914880D01*
X162317619Y-133952976D01*
X162393809Y-134029166D01*
X162431904Y-134105357D01*
X162431904Y-134257738D01*
X162393809Y-134333928D01*
X162317619Y-134410119D01*
X162165238Y-134448214D01*
X161898571Y-134448214D01*
X161746190Y-134410119D01*
X161670000Y-134333928D01*
X161631904Y-134257738D01*
X162127142Y-133572023D02*
X162127142Y-132962500D01*
X162127142Y-131972023D02*
X162127142Y-131362500D01*
X161670000Y-129952976D02*
X161631904Y-130029166D01*
X161631904Y-130143452D01*
X161670000Y-130257738D01*
X161746190Y-130333928D01*
X161822380Y-130372023D01*
X161974761Y-130410119D01*
X162089047Y-130410119D01*
X162241428Y-130372023D01*
X162317619Y-130333928D01*
X162393809Y-130257738D01*
X162431904Y-130143452D01*
X162431904Y-130067261D01*
X162393809Y-129952976D01*
X162355714Y-129914880D01*
X162089047Y-129914880D01*
X162089047Y-130067261D01*
X162431904Y-129572023D02*
X161631904Y-129572023D01*
X162431904Y-129114880D01*
X161631904Y-129114880D01*
X162431904Y-128733928D02*
X161631904Y-128733928D01*
X161631904Y-128543452D01*
X161670000Y-128429166D01*
X161746190Y-128352976D01*
X161822380Y-128314880D01*
X161974761Y-128276785D01*
X162089047Y-128276785D01*
X162241428Y-128314880D01*
X162317619Y-128352976D01*
X162393809Y-128429166D01*
X162431904Y-128543452D01*
X162431904Y-128733928D01*
D12*
X151779371Y-72024142D02*
X150279371Y-72024142D01*
X150279371Y-71667000D01*
X150350800Y-71452714D01*
X150493657Y-71309857D01*
X150636514Y-71238428D01*
X150922228Y-71167000D01*
X151136514Y-71167000D01*
X151422228Y-71238428D01*
X151565085Y-71309857D01*
X151707942Y-71452714D01*
X151779371Y-71667000D01*
X151779371Y-72024142D01*
X150279371Y-70238428D02*
X150279371Y-70095571D01*
X150350800Y-69952714D01*
X150422228Y-69881285D01*
X150565085Y-69809857D01*
X150850800Y-69738428D01*
X151207942Y-69738428D01*
X151493657Y-69809857D01*
X151636514Y-69881285D01*
X151707942Y-69952714D01*
X151779371Y-70095571D01*
X151779371Y-70238428D01*
X151707942Y-70381285D01*
X151636514Y-70452714D01*
X151493657Y-70524142D01*
X151207942Y-70595571D01*
X150850800Y-70595571D01*
X150565085Y-70524142D01*
X150422228Y-70452714D01*
X150350800Y-70381285D01*
X150279371Y-70238428D01*
X156380000Y-72059857D02*
X156380000Y-71345571D01*
X156808571Y-72202714D02*
X155308571Y-71702714D01*
X156808571Y-71202714D01*
X155308571Y-70417000D02*
X155308571Y-70131285D01*
X155380000Y-69988428D01*
X155522857Y-69845571D01*
X155808571Y-69774142D01*
X156308571Y-69774142D01*
X156594285Y-69845571D01*
X156737142Y-69988428D01*
X156808571Y-70131285D01*
X156808571Y-70417000D01*
X156737142Y-70559857D01*
X156594285Y-70702714D01*
X156308571Y-70774142D01*
X155808571Y-70774142D01*
X155522857Y-70702714D01*
X155380000Y-70559857D01*
X155308571Y-70417000D01*
X140068571Y-70975714D02*
X140068571Y-71690000D01*
X140782857Y-71761428D01*
X140711428Y-71690000D01*
X140640000Y-71547142D01*
X140640000Y-71190000D01*
X140711428Y-71047142D01*
X140782857Y-70975714D01*
X140925714Y-70904285D01*
X141282857Y-70904285D01*
X141425714Y-70975714D01*
X141497142Y-71047142D01*
X141568571Y-71190000D01*
X141568571Y-71547142D01*
X141497142Y-71690000D01*
X141425714Y-71761428D01*
X140068571Y-70475714D02*
X141568571Y-69975714D01*
X140068571Y-69475714D01*
D11*
X161252380Y-68498857D02*
X161252380Y-67832190D01*
X162252380Y-68260761D01*
X161680952Y-67308380D02*
X161633333Y-67403619D01*
X161585714Y-67451238D01*
X161490476Y-67498857D01*
X161442857Y-67498857D01*
X161347619Y-67451238D01*
X161300000Y-67403619D01*
X161252380Y-67308380D01*
X161252380Y-67117904D01*
X161300000Y-67022666D01*
X161347619Y-66975047D01*
X161442857Y-66927428D01*
X161490476Y-66927428D01*
X161585714Y-66975047D01*
X161633333Y-67022666D01*
X161680952Y-67117904D01*
X161680952Y-67308380D01*
X161728571Y-67403619D01*
X161776190Y-67451238D01*
X161871428Y-67498857D01*
X162061904Y-67498857D01*
X162157142Y-67451238D01*
X162204761Y-67403619D01*
X162252380Y-67308380D01*
X162252380Y-67117904D01*
X162204761Y-67022666D01*
X162157142Y-66975047D01*
X162061904Y-66927428D01*
X161871428Y-66927428D01*
X161776190Y-66975047D01*
X161728571Y-67022666D01*
X161680952Y-67117904D01*
X161680952Y-66356000D02*
X161633333Y-66451238D01*
X161585714Y-66498857D01*
X161490476Y-66546476D01*
X161442857Y-66546476D01*
X161347619Y-66498857D01*
X161300000Y-66451238D01*
X161252380Y-66356000D01*
X161252380Y-66165523D01*
X161300000Y-66070285D01*
X161347619Y-66022666D01*
X161442857Y-65975047D01*
X161490476Y-65975047D01*
X161585714Y-66022666D01*
X161633333Y-66070285D01*
X161680952Y-66165523D01*
X161680952Y-66356000D01*
X161728571Y-66451238D01*
X161776190Y-66498857D01*
X161871428Y-66546476D01*
X162061904Y-66546476D01*
X162157142Y-66498857D01*
X162204761Y-66451238D01*
X162252380Y-66356000D01*
X162252380Y-66165523D01*
X162204761Y-66070285D01*
X162157142Y-66022666D01*
X162061904Y-65975047D01*
X161871428Y-65975047D01*
X161776190Y-66022666D01*
X161728571Y-66070285D01*
X161680952Y-66165523D01*
X161252380Y-65641714D02*
X161252380Y-64975047D01*
X162252380Y-65403619D01*
X161252380Y-64689333D02*
X161252380Y-64070285D01*
X161633333Y-64403619D01*
X161633333Y-64260761D01*
X161680952Y-64165523D01*
X161728571Y-64117904D01*
X161823809Y-64070285D01*
X162061904Y-64070285D01*
X162157142Y-64117904D01*
X162204761Y-64165523D01*
X162252380Y-64260761D01*
X162252380Y-64546476D01*
X162204761Y-64641714D01*
X162157142Y-64689333D01*
X161585714Y-63213142D02*
X162252380Y-63213142D01*
X161204761Y-63451238D02*
X161919047Y-63689333D01*
X161919047Y-63070285D01*
X162204761Y-62308380D02*
X162252380Y-62403619D01*
X162252380Y-62594095D01*
X162204761Y-62689333D01*
X162109523Y-62736952D01*
X161728571Y-62736952D01*
X161633333Y-62689333D01*
X161585714Y-62594095D01*
X161585714Y-62403619D01*
X161633333Y-62308380D01*
X161728571Y-62260761D01*
X161823809Y-62260761D01*
X161919047Y-62736952D01*
D12*
X145270000Y-129668666D02*
X145203333Y-129802000D01*
X145203333Y-130002000D01*
X145270000Y-130202000D01*
X145403333Y-130335333D01*
X145536666Y-130402000D01*
X145803333Y-130468666D01*
X146003333Y-130468666D01*
X146270000Y-130402000D01*
X146403333Y-130335333D01*
X146536666Y-130202000D01*
X146603333Y-130002000D01*
X146603333Y-129868666D01*
X146536666Y-129668666D01*
X146470000Y-129602000D01*
X146003333Y-129602000D01*
X146003333Y-129868666D01*
X146603333Y-129002000D02*
X145203333Y-129002000D01*
X146603333Y-128202000D01*
X145203333Y-128202000D01*
X146603333Y-127535333D02*
X145203333Y-127535333D01*
X145203333Y-127202000D01*
X145270000Y-127002000D01*
X145403333Y-126868666D01*
X145536666Y-126802000D01*
X145803333Y-126735333D01*
X146003333Y-126735333D01*
X146270000Y-126802000D01*
X146403333Y-126868666D01*
X146536666Y-127002000D01*
X146603333Y-127202000D01*
X146603333Y-127535333D01*
X151657142Y-130392428D02*
X151728571Y-130178142D01*
X151728571Y-129821000D01*
X151657142Y-129678142D01*
X151585714Y-129606714D01*
X151442857Y-129535285D01*
X151300000Y-129535285D01*
X151157142Y-129606714D01*
X151085714Y-129678142D01*
X151014285Y-129821000D01*
X150942857Y-130106714D01*
X150871428Y-130249571D01*
X150800000Y-130321000D01*
X150657142Y-130392428D01*
X150514285Y-130392428D01*
X150371428Y-130321000D01*
X150300000Y-130249571D01*
X150228571Y-130106714D01*
X150228571Y-129749571D01*
X150300000Y-129535285D01*
X150228571Y-128606714D02*
X150228571Y-128463857D01*
X150300000Y-128321000D01*
X150371428Y-128249571D01*
X150514285Y-128178142D01*
X150800000Y-128106714D01*
X151157142Y-128106714D01*
X151442857Y-128178142D01*
X151585714Y-128249571D01*
X151657142Y-128321000D01*
X151728571Y-128463857D01*
X151728571Y-128606714D01*
X151657142Y-128749571D01*
X151585714Y-128821000D01*
X151442857Y-128892428D01*
X151157142Y-128963857D01*
X150800000Y-128963857D01*
X150514285Y-128892428D01*
X150371428Y-128821000D01*
X150300000Y-128749571D01*
X150228571Y-128606714D01*
X151157142Y-127463857D02*
X151157142Y-126321000D01*
D11*
X157199904Y-82721023D02*
X156399904Y-82721023D01*
X156399904Y-82530547D01*
X156438000Y-82416261D01*
X156514190Y-82340071D01*
X156590380Y-82301976D01*
X156742761Y-82263880D01*
X156857047Y-82263880D01*
X157009428Y-82301976D01*
X157085619Y-82340071D01*
X157161809Y-82416261D01*
X157199904Y-82530547D01*
X157199904Y-82721023D01*
X156399904Y-81768642D02*
X156399904Y-81616261D01*
X156438000Y-81540071D01*
X156514190Y-81463880D01*
X156666571Y-81425785D01*
X156933238Y-81425785D01*
X157085619Y-81463880D01*
X157161809Y-81540071D01*
X157199904Y-81616261D01*
X157199904Y-81768642D01*
X157161809Y-81844833D01*
X157085619Y-81921023D01*
X156933238Y-81959119D01*
X156666571Y-81959119D01*
X156514190Y-81921023D01*
X156438000Y-81844833D01*
X156399904Y-81768642D01*
X156895142Y-80473404D02*
X156895142Y-79863880D01*
X158487904Y-82721023D02*
X157687904Y-82721023D01*
X157687904Y-82416261D01*
X157726000Y-82340071D01*
X157764095Y-82301976D01*
X157840285Y-82263880D01*
X157954571Y-82263880D01*
X158030761Y-82301976D01*
X158068857Y-82340071D01*
X158106952Y-82416261D01*
X158106952Y-82721023D01*
X158487904Y-81921023D02*
X157687904Y-81921023D01*
X157687904Y-81730547D01*
X157726000Y-81616261D01*
X157802190Y-81540071D01*
X157878380Y-81501976D01*
X158030761Y-81463880D01*
X158145047Y-81463880D01*
X158297428Y-81501976D01*
X158373619Y-81540071D01*
X158449809Y-81616261D01*
X158487904Y-81730547D01*
X158487904Y-81921023D01*
X158564095Y-81311500D02*
X158564095Y-80701976D01*
X157726000Y-80092452D02*
X157687904Y-80168642D01*
X157687904Y-80282928D01*
X157726000Y-80397214D01*
X157802190Y-80473404D01*
X157878380Y-80511500D01*
X158030761Y-80549595D01*
X158145047Y-80549595D01*
X158297428Y-80511500D01*
X158373619Y-80473404D01*
X158449809Y-80397214D01*
X158487904Y-80282928D01*
X158487904Y-80206738D01*
X158449809Y-80092452D01*
X158411714Y-80054357D01*
X158145047Y-80054357D01*
X158145047Y-80206738D01*
X158487904Y-79711500D02*
X157687904Y-79711500D01*
X158487904Y-79254357D01*
X157687904Y-79254357D01*
X158487904Y-78873404D02*
X157687904Y-78873404D01*
X157687904Y-78682928D01*
X157726000Y-78568642D01*
X157802190Y-78492452D01*
X157878380Y-78454357D01*
X158030761Y-78416261D01*
X158145047Y-78416261D01*
X158297428Y-78454357D01*
X158373619Y-78492452D01*
X158449809Y-78568642D01*
X158487904Y-78682928D01*
X158487904Y-78873404D01*
D12*
X156737142Y-130519428D02*
X156808571Y-130305142D01*
X156808571Y-129948000D01*
X156737142Y-129805142D01*
X156665714Y-129733714D01*
X156522857Y-129662285D01*
X156380000Y-129662285D01*
X156237142Y-129733714D01*
X156165714Y-129805142D01*
X156094285Y-129948000D01*
X156022857Y-130233714D01*
X155951428Y-130376571D01*
X155880000Y-130448000D01*
X155737142Y-130519428D01*
X155594285Y-130519428D01*
X155451428Y-130448000D01*
X155380000Y-130376571D01*
X155308571Y-130233714D01*
X155308571Y-129876571D01*
X155380000Y-129662285D01*
X155308571Y-128733714D02*
X155308571Y-128590857D01*
X155380000Y-128448000D01*
X155451428Y-128376571D01*
X155594285Y-128305142D01*
X155880000Y-128233714D01*
X156237142Y-128233714D01*
X156522857Y-128305142D01*
X156665714Y-128376571D01*
X156737142Y-128448000D01*
X156808571Y-128590857D01*
X156808571Y-128733714D01*
X156737142Y-128876571D01*
X156665714Y-128948000D01*
X156522857Y-129019428D01*
X156237142Y-129090857D01*
X155880000Y-129090857D01*
X155594285Y-129019428D01*
X155451428Y-128948000D01*
X155380000Y-128876571D01*
X155308571Y-128733714D01*
X156237142Y-127590857D02*
X156237142Y-126448000D01*
X156808571Y-127019428D02*
X155665714Y-127019428D01*
D13*
X144560663Y-92016527D02*
X143218245Y-92505127D01*
X142544570Y-89557792D01*
X146708532Y-91234767D02*
X146355655Y-89690924D01*
X146157253Y-89459086D01*
X145856690Y-89416457D01*
X145319723Y-89611897D01*
X145083319Y-89849966D01*
X146676452Y-91094417D02*
X146440049Y-91332487D01*
X145768840Y-91576787D01*
X145468276Y-91534158D01*
X145269875Y-91302319D01*
X145205715Y-91021620D01*
X145275797Y-90692062D01*
X145512201Y-90453992D01*
X146183410Y-90209692D01*
X146419814Y-89971623D01*
X147884629Y-90654677D02*
X148185192Y-90697307D01*
X148722159Y-90501866D01*
X148958563Y-90263797D01*
X149028645Y-89934238D01*
X148996566Y-89793889D01*
X148798164Y-89562051D01*
X148497601Y-89519421D01*
X148094875Y-89666001D01*
X147794312Y-89623372D01*
X147595911Y-89391534D01*
X147563831Y-89251184D01*
X147633913Y-88921626D01*
X147870317Y-88683556D01*
X148273042Y-88536976D01*
X148573606Y-88579605D01*
X150166739Y-89824057D02*
X150601545Y-89817826D01*
X151272754Y-89573526D01*
X151509157Y-89335457D01*
X151611319Y-89146247D01*
X151681402Y-88816689D01*
X151617242Y-88535990D01*
X151418841Y-88304152D01*
X151252519Y-88212662D01*
X150951956Y-88170033D01*
X150382909Y-88225124D01*
X150082345Y-88182495D01*
X149916024Y-88091005D01*
X149717622Y-87859167D01*
X149653463Y-87578468D01*
X149723545Y-87248909D01*
X149825707Y-87059700D01*
X150062111Y-86821631D01*
X150733320Y-86577331D01*
X151168125Y-86571100D01*
X152881189Y-85795570D02*
X153149672Y-85697850D01*
X153450236Y-85740480D01*
X153616557Y-85831969D01*
X153814959Y-86063807D01*
X154077519Y-86576345D01*
X154237918Y-87278091D01*
X154231996Y-87888348D01*
X154161914Y-88217907D01*
X154059752Y-88407116D01*
X153823348Y-88645186D01*
X153554864Y-88742906D01*
X153254301Y-88700276D01*
X153087979Y-88608787D01*
X152889578Y-88376949D01*
X152627017Y-87864411D01*
X152466618Y-87162665D01*
X152472540Y-86552408D01*
X152542623Y-86222849D01*
X152644785Y-86033640D01*
X152881189Y-85795570D01*
D11*
X137636928Y-90375904D02*
X137255976Y-90375904D01*
X137217880Y-90756857D01*
X137255976Y-90718761D01*
X137332166Y-90680666D01*
X137522642Y-90680666D01*
X137598833Y-90718761D01*
X137636928Y-90756857D01*
X137675023Y-90833047D01*
X137675023Y-91023523D01*
X137636928Y-91099714D01*
X137598833Y-91137809D01*
X137522642Y-91175904D01*
X137332166Y-91175904D01*
X137255976Y-91137809D01*
X137217880Y-91099714D01*
X137903595Y-90375904D02*
X138170261Y-91175904D01*
X138436928Y-90375904D01*
X137675023Y-91702000D02*
X137598833Y-91663904D01*
X137484547Y-91663904D01*
X137370261Y-91702000D01*
X137294071Y-91778190D01*
X137255976Y-91854380D01*
X137217880Y-92006761D01*
X137217880Y-92121047D01*
X137255976Y-92273428D01*
X137294071Y-92349619D01*
X137370261Y-92425809D01*
X137484547Y-92463904D01*
X137560738Y-92463904D01*
X137675023Y-92425809D01*
X137713119Y-92387714D01*
X137713119Y-92121047D01*
X137560738Y-92121047D01*
X138055976Y-92463904D02*
X138055976Y-91663904D01*
X138513119Y-92463904D01*
X138513119Y-91663904D01*
X138894071Y-92463904D02*
X138894071Y-91663904D01*
X139084547Y-91663904D01*
X139198833Y-91702000D01*
X139275023Y-91778190D01*
X139313119Y-91854380D01*
X139351214Y-92006761D01*
X139351214Y-92121047D01*
X139313119Y-92273428D01*
X139275023Y-92349619D01*
X139198833Y-92425809D01*
X139084547Y-92463904D01*
X138894071Y-92463904D01*
%TO.C,Y1*%
X140434190Y-76246190D02*
X140910380Y-76246190D01*
X139910380Y-76579523D02*
X140434190Y-76246190D01*
X139910380Y-75912857D01*
X140910380Y-75055714D02*
X140910380Y-75627142D01*
X140910380Y-75341428D02*
X139910380Y-75341428D01*
X140053238Y-75436666D01*
X140148476Y-75531904D01*
X140196095Y-75627142D01*
%TO.C,C11*%
X137773142Y-74634857D02*
X137820761Y-74682476D01*
X137868380Y-74825333D01*
X137868380Y-74920571D01*
X137820761Y-75063428D01*
X137725523Y-75158666D01*
X137630285Y-75206285D01*
X137439809Y-75253904D01*
X137296952Y-75253904D01*
X137106476Y-75206285D01*
X137011238Y-75158666D01*
X136916000Y-75063428D01*
X136868380Y-74920571D01*
X136868380Y-74825333D01*
X136916000Y-74682476D01*
X136963619Y-74634857D01*
X137868380Y-73682476D02*
X137868380Y-74253904D01*
X137868380Y-73968190D02*
X136868380Y-73968190D01*
X137011238Y-74063428D01*
X137106476Y-74158666D01*
X137154095Y-74253904D01*
X137868380Y-72730095D02*
X137868380Y-73301523D01*
X137868380Y-73015809D02*
X136868380Y-73015809D01*
X137011238Y-73111047D01*
X137106476Y-73206285D01*
X137154095Y-73301523D01*
%TO.C,J3*%
X137000666Y-67956380D02*
X137000666Y-68670666D01*
X136953047Y-68813523D01*
X136857809Y-68908761D01*
X136714952Y-68956380D01*
X136619714Y-68956380D01*
X137381619Y-67956380D02*
X138000666Y-67956380D01*
X137667333Y-68337333D01*
X137810190Y-68337333D01*
X137905428Y-68384952D01*
X137953047Y-68432571D01*
X138000666Y-68527809D01*
X138000666Y-68765904D01*
X137953047Y-68861142D01*
X137905428Y-68908761D01*
X137810190Y-68956380D01*
X137524476Y-68956380D01*
X137429238Y-68908761D01*
X137381619Y-68861142D01*
%TO.C,R12*%
X151633642Y-99116880D02*
X151300309Y-98640690D01*
X151062214Y-99116880D02*
X151062214Y-98116880D01*
X151443166Y-98116880D01*
X151538404Y-98164500D01*
X151586023Y-98212119D01*
X151633642Y-98307357D01*
X151633642Y-98450214D01*
X151586023Y-98545452D01*
X151538404Y-98593071D01*
X151443166Y-98640690D01*
X151062214Y-98640690D01*
X152586023Y-99116880D02*
X152014595Y-99116880D01*
X152300309Y-99116880D02*
X152300309Y-98116880D01*
X152205071Y-98259738D01*
X152109833Y-98354976D01*
X152014595Y-98402595D01*
X152966976Y-98212119D02*
X153014595Y-98164500D01*
X153109833Y-98116880D01*
X153347928Y-98116880D01*
X153443166Y-98164500D01*
X153490785Y-98212119D01*
X153538404Y-98307357D01*
X153538404Y-98402595D01*
X153490785Y-98545452D01*
X152919357Y-99116880D01*
X153538404Y-99116880D01*
%TO.C,U3*%
X150268495Y-82715380D02*
X150268495Y-83524904D01*
X150316114Y-83620142D01*
X150363733Y-83667761D01*
X150458971Y-83715380D01*
X150649447Y-83715380D01*
X150744685Y-83667761D01*
X150792304Y-83620142D01*
X150839923Y-83524904D01*
X150839923Y-82715380D01*
X151220876Y-82715380D02*
X151839923Y-82715380D01*
X151506590Y-83096333D01*
X151649447Y-83096333D01*
X151744685Y-83143952D01*
X151792304Y-83191571D01*
X151839923Y-83286809D01*
X151839923Y-83524904D01*
X151792304Y-83620142D01*
X151744685Y-83667761D01*
X151649447Y-83715380D01*
X151363733Y-83715380D01*
X151268495Y-83667761D01*
X151220876Y-83620142D01*
%TO.C,C8*%
X148917942Y-106618266D02*
X148965561Y-106665885D01*
X149013180Y-106808742D01*
X149013180Y-106903980D01*
X148965561Y-107046838D01*
X148870323Y-107142076D01*
X148775085Y-107189695D01*
X148584609Y-107237314D01*
X148441752Y-107237314D01*
X148251276Y-107189695D01*
X148156038Y-107142076D01*
X148060800Y-107046838D01*
X148013180Y-106903980D01*
X148013180Y-106808742D01*
X148060800Y-106665885D01*
X148108419Y-106618266D01*
X148441752Y-106046838D02*
X148394133Y-106142076D01*
X148346514Y-106189695D01*
X148251276Y-106237314D01*
X148203657Y-106237314D01*
X148108419Y-106189695D01*
X148060800Y-106142076D01*
X148013180Y-106046838D01*
X148013180Y-105856361D01*
X148060800Y-105761123D01*
X148108419Y-105713504D01*
X148203657Y-105665885D01*
X148251276Y-105665885D01*
X148346514Y-105713504D01*
X148394133Y-105761123D01*
X148441752Y-105856361D01*
X148441752Y-106046838D01*
X148489371Y-106142076D01*
X148536990Y-106189695D01*
X148632228Y-106237314D01*
X148822704Y-106237314D01*
X148917942Y-106189695D01*
X148965561Y-106142076D01*
X149013180Y-106046838D01*
X149013180Y-105856361D01*
X148965561Y-105761123D01*
X148917942Y-105713504D01*
X148822704Y-105665885D01*
X148632228Y-105665885D01*
X148536990Y-105713504D01*
X148489371Y-105761123D01*
X148441752Y-105856361D01*
%TO.C,C3*%
X141069800Y-112256657D02*
X141034085Y-112292371D01*
X140926942Y-112328085D01*
X140855514Y-112328085D01*
X140748371Y-112292371D01*
X140676942Y-112220942D01*
X140641228Y-112149514D01*
X140605514Y-112006657D01*
X140605514Y-111899514D01*
X140641228Y-111756657D01*
X140676942Y-111685228D01*
X140748371Y-111613800D01*
X140855514Y-111578085D01*
X140926942Y-111578085D01*
X141034085Y-111613800D01*
X141069800Y-111649514D01*
X141319800Y-111578085D02*
X141784085Y-111578085D01*
X141534085Y-111863800D01*
X141641228Y-111863800D01*
X141712657Y-111899514D01*
X141748371Y-111935228D01*
X141784085Y-112006657D01*
X141784085Y-112185228D01*
X141748371Y-112256657D01*
X141712657Y-112292371D01*
X141641228Y-112328085D01*
X141426942Y-112328085D01*
X141355514Y-112292371D01*
X141319800Y-112256657D01*
%TO.C,U2*%
X155372380Y-111810904D02*
X156181904Y-111810904D01*
X156277142Y-111763285D01*
X156324761Y-111715666D01*
X156372380Y-111620428D01*
X156372380Y-111429952D01*
X156324761Y-111334714D01*
X156277142Y-111287095D01*
X156181904Y-111239476D01*
X155372380Y-111239476D01*
X155467619Y-110810904D02*
X155420000Y-110763285D01*
X155372380Y-110668047D01*
X155372380Y-110429952D01*
X155420000Y-110334714D01*
X155467619Y-110287095D01*
X155562857Y-110239476D01*
X155658095Y-110239476D01*
X155800952Y-110287095D01*
X156372380Y-110858523D01*
X156372380Y-110239476D01*
%TO.C,R5*%
X157680380Y-76698666D02*
X157204190Y-77032000D01*
X157680380Y-77270095D02*
X156680380Y-77270095D01*
X156680380Y-76889142D01*
X156728000Y-76793904D01*
X156775619Y-76746285D01*
X156870857Y-76698666D01*
X157013714Y-76698666D01*
X157108952Y-76746285D01*
X157156571Y-76793904D01*
X157204190Y-76889142D01*
X157204190Y-77270095D01*
X156680380Y-75793904D02*
X156680380Y-76270095D01*
X157156571Y-76317714D01*
X157108952Y-76270095D01*
X157061333Y-76174857D01*
X157061333Y-75936761D01*
X157108952Y-75841523D01*
X157156571Y-75793904D01*
X157251809Y-75746285D01*
X157489904Y-75746285D01*
X157585142Y-75793904D01*
X157632761Y-75841523D01*
X157680380Y-75936761D01*
X157680380Y-76174857D01*
X157632761Y-76270095D01*
X157585142Y-76317714D01*
%TO.C,D1*%
X136008380Y-113539695D02*
X135008380Y-113539695D01*
X135008380Y-113301600D01*
X135056000Y-113158742D01*
X135151238Y-113063504D01*
X135246476Y-113015885D01*
X135436952Y-112968266D01*
X135579809Y-112968266D01*
X135770285Y-113015885D01*
X135865523Y-113063504D01*
X135960761Y-113158742D01*
X136008380Y-113301600D01*
X136008380Y-113539695D01*
X136008380Y-112015885D02*
X136008380Y-112587314D01*
X136008380Y-112301600D02*
X135008380Y-112301600D01*
X135151238Y-112396838D01*
X135246476Y-112492076D01*
X135294095Y-112587314D01*
%TO.C,C5*%
X146565333Y-115089142D02*
X146517714Y-115136761D01*
X146374857Y-115184380D01*
X146279619Y-115184380D01*
X146136761Y-115136761D01*
X146041523Y-115041523D01*
X145993904Y-114946285D01*
X145946285Y-114755809D01*
X145946285Y-114612952D01*
X145993904Y-114422476D01*
X146041523Y-114327238D01*
X146136761Y-114232000D01*
X146279619Y-114184380D01*
X146374857Y-114184380D01*
X146517714Y-114232000D01*
X146565333Y-114279619D01*
X147470095Y-114184380D02*
X146993904Y-114184380D01*
X146946285Y-114660571D01*
X146993904Y-114612952D01*
X147089142Y-114565333D01*
X147327238Y-114565333D01*
X147422476Y-114612952D01*
X147470095Y-114660571D01*
X147517714Y-114755809D01*
X147517714Y-114993904D01*
X147470095Y-115089142D01*
X147422476Y-115136761D01*
X147327238Y-115184380D01*
X147089142Y-115184380D01*
X146993904Y-115136761D01*
X146946285Y-115089142D01*
%TO.C,Q2*%
X155224119Y-101393738D02*
X155176500Y-101488976D01*
X155081261Y-101584214D01*
X154938404Y-101727071D01*
X154890785Y-101822309D01*
X154890785Y-101917547D01*
X155128880Y-101869928D02*
X155081261Y-101965166D01*
X154986023Y-102060404D01*
X154795547Y-102108023D01*
X154462214Y-102108023D01*
X154271738Y-102060404D01*
X154176500Y-101965166D01*
X154128880Y-101869928D01*
X154128880Y-101679452D01*
X154176500Y-101584214D01*
X154271738Y-101488976D01*
X154462214Y-101441357D01*
X154795547Y-101441357D01*
X154986023Y-101488976D01*
X155081261Y-101584214D01*
X155128880Y-101679452D01*
X155128880Y-101869928D01*
X154224119Y-101060404D02*
X154176500Y-101012785D01*
X154128880Y-100917547D01*
X154128880Y-100679452D01*
X154176500Y-100584214D01*
X154224119Y-100536595D01*
X154319357Y-100488976D01*
X154414595Y-100488976D01*
X154557452Y-100536595D01*
X155128880Y-101108023D01*
X155128880Y-100488976D01*
%TO.C,R10*%
X160044380Y-114663657D02*
X159568190Y-114996990D01*
X160044380Y-115235085D02*
X159044380Y-115235085D01*
X159044380Y-114854133D01*
X159092000Y-114758895D01*
X159139619Y-114711276D01*
X159234857Y-114663657D01*
X159377714Y-114663657D01*
X159472952Y-114711276D01*
X159520571Y-114758895D01*
X159568190Y-114854133D01*
X159568190Y-115235085D01*
X160044380Y-113711276D02*
X160044380Y-114282704D01*
X160044380Y-113996990D02*
X159044380Y-113996990D01*
X159187238Y-114092228D01*
X159282476Y-114187466D01*
X159330095Y-114282704D01*
X159044380Y-113092228D02*
X159044380Y-112996990D01*
X159092000Y-112901752D01*
X159139619Y-112854133D01*
X159234857Y-112806514D01*
X159425333Y-112758895D01*
X159663428Y-112758895D01*
X159853904Y-112806514D01*
X159949142Y-112854133D01*
X159996761Y-112901752D01*
X160044380Y-112996990D01*
X160044380Y-113092228D01*
X159996761Y-113187466D01*
X159949142Y-113235085D01*
X159853904Y-113282704D01*
X159663428Y-113330323D01*
X159425333Y-113330323D01*
X159234857Y-113282704D01*
X159139619Y-113235085D01*
X159092000Y-113187466D01*
X159044380Y-113092228D01*
%TO.C,R4*%
X148868380Y-109501666D02*
X148392190Y-109835000D01*
X148868380Y-110073095D02*
X147868380Y-110073095D01*
X147868380Y-109692142D01*
X147916000Y-109596904D01*
X147963619Y-109549285D01*
X148058857Y-109501666D01*
X148201714Y-109501666D01*
X148296952Y-109549285D01*
X148344571Y-109596904D01*
X148392190Y-109692142D01*
X148392190Y-110073095D01*
X148201714Y-108644523D02*
X148868380Y-108644523D01*
X147820761Y-108882619D02*
X148535047Y-109120714D01*
X148535047Y-108501666D01*
%TO.C,C2*%
X141358333Y-124139142D02*
X141310714Y-124186761D01*
X141167857Y-124234380D01*
X141072619Y-124234380D01*
X140929761Y-124186761D01*
X140834523Y-124091523D01*
X140786904Y-123996285D01*
X140739285Y-123805809D01*
X140739285Y-123662952D01*
X140786904Y-123472476D01*
X140834523Y-123377238D01*
X140929761Y-123282000D01*
X141072619Y-123234380D01*
X141167857Y-123234380D01*
X141310714Y-123282000D01*
X141358333Y-123329619D01*
X141739285Y-123329619D02*
X141786904Y-123282000D01*
X141882142Y-123234380D01*
X142120238Y-123234380D01*
X142215476Y-123282000D01*
X142263095Y-123329619D01*
X142310714Y-123424857D01*
X142310714Y-123520095D01*
X142263095Y-123662952D01*
X141691666Y-124234380D01*
X142310714Y-124234380D01*
%TO.C,D3*%
X149129380Y-122328095D02*
X148129380Y-122328095D01*
X148129380Y-122090000D01*
X148177000Y-121947142D01*
X148272238Y-121851904D01*
X148367476Y-121804285D01*
X148557952Y-121756666D01*
X148700809Y-121756666D01*
X148891285Y-121804285D01*
X148986523Y-121851904D01*
X149081761Y-121947142D01*
X149129380Y-122090000D01*
X149129380Y-122328095D01*
X148129380Y-121423333D02*
X148129380Y-120804285D01*
X148510333Y-121137619D01*
X148510333Y-120994761D01*
X148557952Y-120899523D01*
X148605571Y-120851904D01*
X148700809Y-120804285D01*
X148938904Y-120804285D01*
X149034142Y-120851904D01*
X149081761Y-120899523D01*
X149129380Y-120994761D01*
X149129380Y-121280476D01*
X149081761Y-121375714D01*
X149034142Y-121423333D01*
%TO.C,J4*%
X159352666Y-67829380D02*
X159352666Y-68543666D01*
X159305047Y-68686523D01*
X159209809Y-68781761D01*
X159066952Y-68829380D01*
X158971714Y-68829380D01*
X160257428Y-68162714D02*
X160257428Y-68829380D01*
X160019333Y-67781761D02*
X159781238Y-68496047D01*
X160400285Y-68496047D01*
%TO.C,R1*%
X148835380Y-112612666D02*
X148359190Y-112946000D01*
X148835380Y-113184095D02*
X147835380Y-113184095D01*
X147835380Y-112803142D01*
X147883000Y-112707904D01*
X147930619Y-112660285D01*
X148025857Y-112612666D01*
X148168714Y-112612666D01*
X148263952Y-112660285D01*
X148311571Y-112707904D01*
X148359190Y-112803142D01*
X148359190Y-113184095D01*
X148835380Y-111660285D02*
X148835380Y-112231714D01*
X148835380Y-111946000D02*
X147835380Y-111946000D01*
X147978238Y-112041238D01*
X148073476Y-112136476D01*
X148121095Y-112231714D01*
%TO.C,R8*%
X146311333Y-102384380D02*
X145978000Y-101908190D01*
X145739904Y-102384380D02*
X145739904Y-101384380D01*
X146120857Y-101384380D01*
X146216095Y-101432000D01*
X146263714Y-101479619D01*
X146311333Y-101574857D01*
X146311333Y-101717714D01*
X146263714Y-101812952D01*
X146216095Y-101860571D01*
X146120857Y-101908190D01*
X145739904Y-101908190D01*
X146882761Y-101812952D02*
X146787523Y-101765333D01*
X146739904Y-101717714D01*
X146692285Y-101622476D01*
X146692285Y-101574857D01*
X146739904Y-101479619D01*
X146787523Y-101432000D01*
X146882761Y-101384380D01*
X147073238Y-101384380D01*
X147168476Y-101432000D01*
X147216095Y-101479619D01*
X147263714Y-101574857D01*
X147263714Y-101622476D01*
X147216095Y-101717714D01*
X147168476Y-101765333D01*
X147073238Y-101812952D01*
X146882761Y-101812952D01*
X146787523Y-101860571D01*
X146739904Y-101908190D01*
X146692285Y-102003428D01*
X146692285Y-102193904D01*
X146739904Y-102289142D01*
X146787523Y-102336761D01*
X146882761Y-102384380D01*
X147073238Y-102384380D01*
X147168476Y-102336761D01*
X147216095Y-102289142D01*
X147263714Y-102193904D01*
X147263714Y-102003428D01*
X147216095Y-101908190D01*
X147168476Y-101860571D01*
X147073238Y-101812952D01*
%TO.C,D2*%
X140413380Y-99595095D02*
X139413380Y-99595095D01*
X139413380Y-99357000D01*
X139461000Y-99214142D01*
X139556238Y-99118904D01*
X139651476Y-99071285D01*
X139841952Y-99023666D01*
X139984809Y-99023666D01*
X140175285Y-99071285D01*
X140270523Y-99118904D01*
X140365761Y-99214142D01*
X140413380Y-99357000D01*
X140413380Y-99595095D01*
X139508619Y-98642714D02*
X139461000Y-98595095D01*
X139413380Y-98499857D01*
X139413380Y-98261761D01*
X139461000Y-98166523D01*
X139508619Y-98118904D01*
X139603857Y-98071285D01*
X139699095Y-98071285D01*
X139841952Y-98118904D01*
X140413380Y-98690333D01*
X140413380Y-98071285D01*
%TO.C,C1*%
X143218333Y-127689142D02*
X143170714Y-127736761D01*
X143027857Y-127784380D01*
X142932619Y-127784380D01*
X142789761Y-127736761D01*
X142694523Y-127641523D01*
X142646904Y-127546285D01*
X142599285Y-127355809D01*
X142599285Y-127212952D01*
X142646904Y-127022476D01*
X142694523Y-126927238D01*
X142789761Y-126832000D01*
X142932619Y-126784380D01*
X143027857Y-126784380D01*
X143170714Y-126832000D01*
X143218333Y-126879619D01*
X144170714Y-127784380D02*
X143599285Y-127784380D01*
X143885000Y-127784380D02*
X143885000Y-126784380D01*
X143789761Y-126927238D01*
X143694523Y-127022476D01*
X143599285Y-127070095D01*
%TO.C,R2*%
X143058085Y-108761000D02*
X142700942Y-109011000D01*
X143058085Y-109189571D02*
X142308085Y-109189571D01*
X142308085Y-108903857D01*
X142343800Y-108832428D01*
X142379514Y-108796714D01*
X142450942Y-108761000D01*
X142558085Y-108761000D01*
X142629514Y-108796714D01*
X142665228Y-108832428D01*
X142700942Y-108903857D01*
X142700942Y-109189571D01*
X142379514Y-108475285D02*
X142343800Y-108439571D01*
X142308085Y-108368142D01*
X142308085Y-108189571D01*
X142343800Y-108118142D01*
X142379514Y-108082428D01*
X142450942Y-108046714D01*
X142522371Y-108046714D01*
X142629514Y-108082428D01*
X143058085Y-108511000D01*
X143058085Y-108046714D01*
%TO.C,R3*%
X143108885Y-110285000D02*
X142751742Y-110535000D01*
X143108885Y-110713571D02*
X142358885Y-110713571D01*
X142358885Y-110427857D01*
X142394600Y-110356428D01*
X142430314Y-110320714D01*
X142501742Y-110285000D01*
X142608885Y-110285000D01*
X142680314Y-110320714D01*
X142716028Y-110356428D01*
X142751742Y-110427857D01*
X142751742Y-110713571D01*
X142358885Y-110035000D02*
X142358885Y-109570714D01*
X142644600Y-109820714D01*
X142644600Y-109713571D01*
X142680314Y-109642142D01*
X142716028Y-109606428D01*
X142787457Y-109570714D01*
X142966028Y-109570714D01*
X143037457Y-109606428D01*
X143073171Y-109642142D01*
X143108885Y-109713571D01*
X143108885Y-109927857D01*
X143073171Y-109999285D01*
X143037457Y-110035000D01*
%TO.C,J1*%
X137127666Y-131075380D02*
X137127666Y-131789666D01*
X137080047Y-131932523D01*
X136984809Y-132027761D01*
X136841952Y-132075380D01*
X136746714Y-132075380D01*
X138127666Y-132075380D02*
X137556238Y-132075380D01*
X137841952Y-132075380D02*
X137841952Y-131075380D01*
X137746714Y-131218238D01*
X137651476Y-131313476D01*
X137556238Y-131361095D01*
%TO.C,R9*%
X154632380Y-124323666D02*
X154156190Y-124657000D01*
X154632380Y-124895095D02*
X153632380Y-124895095D01*
X153632380Y-124514142D01*
X153680000Y-124418904D01*
X153727619Y-124371285D01*
X153822857Y-124323666D01*
X153965714Y-124323666D01*
X154060952Y-124371285D01*
X154108571Y-124418904D01*
X154156190Y-124514142D01*
X154156190Y-124895095D01*
X154632380Y-123847476D02*
X154632380Y-123657000D01*
X154584761Y-123561761D01*
X154537142Y-123514142D01*
X154394285Y-123418904D01*
X154203809Y-123371285D01*
X153822857Y-123371285D01*
X153727619Y-123418904D01*
X153680000Y-123466523D01*
X153632380Y-123561761D01*
X153632380Y-123752238D01*
X153680000Y-123847476D01*
X153727619Y-123895095D01*
X153822857Y-123942714D01*
X154060952Y-123942714D01*
X154156190Y-123895095D01*
X154203809Y-123847476D01*
X154251428Y-123752238D01*
X154251428Y-123561761D01*
X154203809Y-123466523D01*
X154156190Y-123418904D01*
X154060952Y-123371285D01*
%TO.C,C4*%
X144406333Y-124131542D02*
X144358714Y-124179161D01*
X144215857Y-124226780D01*
X144120619Y-124226780D01*
X143977761Y-124179161D01*
X143882523Y-124083923D01*
X143834904Y-123988685D01*
X143787285Y-123798209D01*
X143787285Y-123655352D01*
X143834904Y-123464876D01*
X143882523Y-123369638D01*
X143977761Y-123274400D01*
X144120619Y-123226780D01*
X144215857Y-123226780D01*
X144358714Y-123274400D01*
X144406333Y-123322019D01*
X145263476Y-123560114D02*
X145263476Y-124226780D01*
X145025380Y-123179161D02*
X144787285Y-123893447D01*
X145406333Y-123893447D01*
%TO.C,J5*%
X140765666Y-87922380D02*
X140765666Y-88636666D01*
X140718047Y-88779523D01*
X140622809Y-88874761D01*
X140479952Y-88922380D01*
X140384714Y-88922380D01*
X141718047Y-87922380D02*
X141241857Y-87922380D01*
X141194238Y-88398571D01*
X141241857Y-88350952D01*
X141337095Y-88303333D01*
X141575190Y-88303333D01*
X141670428Y-88350952D01*
X141718047Y-88398571D01*
X141765666Y-88493809D01*
X141765666Y-88731904D01*
X141718047Y-88827142D01*
X141670428Y-88874761D01*
X141575190Y-88922380D01*
X141337095Y-88922380D01*
X141241857Y-88874761D01*
X141194238Y-88827142D01*
X136363457Y-84669428D02*
X136392028Y-84583714D01*
X136392028Y-84440857D01*
X136363457Y-84383714D01*
X136334885Y-84355142D01*
X136277742Y-84326571D01*
X136220600Y-84326571D01*
X136163457Y-84355142D01*
X136134885Y-84383714D01*
X136106314Y-84440857D01*
X136077742Y-84555142D01*
X136049171Y-84612285D01*
X136020600Y-84640857D01*
X135963457Y-84669428D01*
X135906314Y-84669428D01*
X135849171Y-84640857D01*
X135820600Y-84612285D01*
X135792028Y-84555142D01*
X135792028Y-84412285D01*
X135820600Y-84326571D01*
X136334885Y-83726571D02*
X136363457Y-83755142D01*
X136392028Y-83840857D01*
X136392028Y-83898000D01*
X136363457Y-83983714D01*
X136306314Y-84040857D01*
X136249171Y-84069428D01*
X136134885Y-84098000D01*
X136049171Y-84098000D01*
X135934885Y-84069428D01*
X135877742Y-84040857D01*
X135820600Y-83983714D01*
X135792028Y-83898000D01*
X135792028Y-83840857D01*
X135820600Y-83755142D01*
X135849171Y-83726571D01*
X136392028Y-83469428D02*
X135792028Y-83469428D01*
X136392028Y-83126571D02*
X136049171Y-83383714D01*
X135792028Y-83126571D02*
X136134885Y-83469428D01*
X136392028Y-86766571D02*
X136106314Y-86966571D01*
X136392028Y-87109428D02*
X135792028Y-87109428D01*
X135792028Y-86880857D01*
X135820600Y-86823714D01*
X135849171Y-86795142D01*
X135906314Y-86766571D01*
X135992028Y-86766571D01*
X136049171Y-86795142D01*
X136077742Y-86823714D01*
X136106314Y-86880857D01*
X136106314Y-87109428D01*
X136363457Y-86538000D02*
X136392028Y-86452285D01*
X136392028Y-86309428D01*
X136363457Y-86252285D01*
X136334885Y-86223714D01*
X136277742Y-86195142D01*
X136220600Y-86195142D01*
X136163457Y-86223714D01*
X136134885Y-86252285D01*
X136106314Y-86309428D01*
X136077742Y-86423714D01*
X136049171Y-86480857D01*
X136020600Y-86509428D01*
X135963457Y-86538000D01*
X135906314Y-86538000D01*
X135849171Y-86509428D01*
X135820600Y-86480857D01*
X135792028Y-86423714D01*
X135792028Y-86280857D01*
X135820600Y-86195142D01*
X135792028Y-86023714D02*
X135792028Y-85680857D01*
X136392028Y-85852285D02*
X135792028Y-85852285D01*
X136392028Y-82300857D02*
X135792028Y-82300857D01*
X136220600Y-82100857D01*
X135792028Y-81900857D01*
X136392028Y-81900857D01*
X136392028Y-81615142D02*
X135792028Y-81615142D01*
X136363457Y-81358000D02*
X136392028Y-81272285D01*
X136392028Y-81129428D01*
X136363457Y-81072285D01*
X136334885Y-81043714D01*
X136277742Y-81015142D01*
X136220600Y-81015142D01*
X136163457Y-81043714D01*
X136134885Y-81072285D01*
X136106314Y-81129428D01*
X136077742Y-81243714D01*
X136049171Y-81300857D01*
X136020600Y-81329428D01*
X135963457Y-81358000D01*
X135906314Y-81358000D01*
X135849171Y-81329428D01*
X135820600Y-81300857D01*
X135792028Y-81243714D01*
X135792028Y-81100857D01*
X135820600Y-81015142D01*
X135792028Y-80643714D02*
X135792028Y-80529428D01*
X135820600Y-80472285D01*
X135877742Y-80415142D01*
X135992028Y-80386571D01*
X136192028Y-80386571D01*
X136306314Y-80415142D01*
X136363457Y-80472285D01*
X136392028Y-80529428D01*
X136392028Y-80643714D01*
X136363457Y-80700857D01*
X136306314Y-80758000D01*
X136192028Y-80786571D01*
X135992028Y-80786571D01*
X135877742Y-80758000D01*
X135820600Y-80700857D01*
X135792028Y-80643714D01*
X138360600Y-86895142D02*
X138332028Y-86952285D01*
X138332028Y-87038000D01*
X138360600Y-87123714D01*
X138417742Y-87180857D01*
X138474885Y-87209428D01*
X138589171Y-87238000D01*
X138674885Y-87238000D01*
X138789171Y-87209428D01*
X138846314Y-87180857D01*
X138903457Y-87123714D01*
X138932028Y-87038000D01*
X138932028Y-86980857D01*
X138903457Y-86895142D01*
X138874885Y-86866571D01*
X138674885Y-86866571D01*
X138674885Y-86980857D01*
X138932028Y-86609428D02*
X138332028Y-86609428D01*
X138932028Y-86266571D01*
X138332028Y-86266571D01*
X138932028Y-85980857D02*
X138332028Y-85980857D01*
X138332028Y-85838000D01*
X138360600Y-85752285D01*
X138417742Y-85695142D01*
X138474885Y-85666571D01*
X138589171Y-85638000D01*
X138674885Y-85638000D01*
X138789171Y-85666571D01*
X138846314Y-85695142D01*
X138903457Y-85752285D01*
X138932028Y-85838000D01*
X138932028Y-85980857D01*
X138332028Y-81472285D02*
X138332028Y-81758000D01*
X138617742Y-81786571D01*
X138589171Y-81758000D01*
X138560600Y-81700857D01*
X138560600Y-81558000D01*
X138589171Y-81500857D01*
X138617742Y-81472285D01*
X138674885Y-81443714D01*
X138817742Y-81443714D01*
X138874885Y-81472285D01*
X138903457Y-81500857D01*
X138932028Y-81558000D01*
X138932028Y-81700857D01*
X138903457Y-81758000D01*
X138874885Y-81786571D01*
X138332028Y-81272285D02*
X138932028Y-81072285D01*
X138332028Y-80872285D01*
X138932028Y-84840857D02*
X138332028Y-84840857D01*
X138760600Y-84640857D01*
X138332028Y-84440857D01*
X138932028Y-84440857D01*
X138332028Y-84040857D02*
X138332028Y-83926571D01*
X138360600Y-83869428D01*
X138417742Y-83812285D01*
X138532028Y-83783714D01*
X138732028Y-83783714D01*
X138846314Y-83812285D01*
X138903457Y-83869428D01*
X138932028Y-83926571D01*
X138932028Y-84040857D01*
X138903457Y-84098000D01*
X138846314Y-84155142D01*
X138732028Y-84183714D01*
X138532028Y-84183714D01*
X138417742Y-84155142D01*
X138360600Y-84098000D01*
X138332028Y-84040857D01*
X138903457Y-83555142D02*
X138932028Y-83469428D01*
X138932028Y-83326571D01*
X138903457Y-83269428D01*
X138874885Y-83240857D01*
X138817742Y-83212285D01*
X138760600Y-83212285D01*
X138703457Y-83240857D01*
X138674885Y-83269428D01*
X138646314Y-83326571D01*
X138617742Y-83440857D01*
X138589171Y-83498000D01*
X138560600Y-83526571D01*
X138503457Y-83555142D01*
X138446314Y-83555142D01*
X138389171Y-83526571D01*
X138360600Y-83498000D01*
X138332028Y-83440857D01*
X138332028Y-83298000D01*
X138360600Y-83212285D01*
X138932028Y-82955142D02*
X138332028Y-82955142D01*
%TO.C,L1*%
X141282133Y-102941580D02*
X140805942Y-102941580D01*
X140805942Y-101941580D01*
X142139276Y-102941580D02*
X141567847Y-102941580D01*
X141853561Y-102941580D02*
X141853561Y-101941580D01*
X141758323Y-102084438D01*
X141663085Y-102179676D01*
X141567847Y-102227295D01*
%TO.C,J2*%
X159307666Y-138468380D02*
X159307666Y-139182666D01*
X159260047Y-139325523D01*
X159164809Y-139420761D01*
X159021952Y-139468380D01*
X158926714Y-139468380D01*
X159736238Y-138563619D02*
X159783857Y-138516000D01*
X159879095Y-138468380D01*
X160117190Y-138468380D01*
X160212428Y-138516000D01*
X160260047Y-138563619D01*
X160307666Y-138658857D01*
X160307666Y-138754095D01*
X160260047Y-138896952D01*
X159688619Y-139468380D01*
X160307666Y-139468380D01*
%TO.C,C7*%
X149019542Y-104383066D02*
X149067161Y-104430685D01*
X149114780Y-104573542D01*
X149114780Y-104668780D01*
X149067161Y-104811638D01*
X148971923Y-104906876D01*
X148876685Y-104954495D01*
X148686209Y-105002114D01*
X148543352Y-105002114D01*
X148352876Y-104954495D01*
X148257638Y-104906876D01*
X148162400Y-104811638D01*
X148114780Y-104668780D01*
X148114780Y-104573542D01*
X148162400Y-104430685D01*
X148210019Y-104383066D01*
X148114780Y-104049733D02*
X148114780Y-103383066D01*
X149114780Y-103811638D01*
%TO.C,U1*%
X139021580Y-121285104D02*
X139831104Y-121285104D01*
X139926342Y-121237485D01*
X139973961Y-121189866D01*
X140021580Y-121094628D01*
X140021580Y-120904152D01*
X139973961Y-120808914D01*
X139926342Y-120761295D01*
X139831104Y-120713676D01*
X139021580Y-120713676D01*
X140021580Y-119713676D02*
X140021580Y-120285104D01*
X140021580Y-119999390D02*
X139021580Y-119999390D01*
X139164438Y-120094628D01*
X139259676Y-120189866D01*
X139307295Y-120285104D01*
%TO.C,C6*%
X142986657Y-111809000D02*
X143022371Y-111844714D01*
X143058085Y-111951857D01*
X143058085Y-112023285D01*
X143022371Y-112130428D01*
X142950942Y-112201857D01*
X142879514Y-112237571D01*
X142736657Y-112273285D01*
X142629514Y-112273285D01*
X142486657Y-112237571D01*
X142415228Y-112201857D01*
X142343800Y-112130428D01*
X142308085Y-112023285D01*
X142308085Y-111951857D01*
X142343800Y-111844714D01*
X142379514Y-111809000D01*
X142308085Y-111166142D02*
X142308085Y-111309000D01*
X142343800Y-111380428D01*
X142379514Y-111416142D01*
X142486657Y-111487571D01*
X142629514Y-111523285D01*
X142915228Y-111523285D01*
X142986657Y-111487571D01*
X143022371Y-111451857D01*
X143058085Y-111380428D01*
X143058085Y-111237571D01*
X143022371Y-111166142D01*
X142986657Y-111130428D01*
X142915228Y-111094714D01*
X142736657Y-111094714D01*
X142665228Y-111130428D01*
X142629514Y-111166142D01*
X142593800Y-111237571D01*
X142593800Y-111380428D01*
X142629514Y-111451857D01*
X142665228Y-111487571D01*
X142736657Y-111523285D01*
%TO.C,C9*%
X148526933Y-70666142D02*
X148479314Y-70713761D01*
X148336457Y-70761380D01*
X148241219Y-70761380D01*
X148098361Y-70713761D01*
X148003123Y-70618523D01*
X147955504Y-70523285D01*
X147907885Y-70332809D01*
X147907885Y-70189952D01*
X147955504Y-69999476D01*
X148003123Y-69904238D01*
X148098361Y-69809000D01*
X148241219Y-69761380D01*
X148336457Y-69761380D01*
X148479314Y-69809000D01*
X148526933Y-69856619D01*
X149003123Y-70761380D02*
X149193600Y-70761380D01*
X149288838Y-70713761D01*
X149336457Y-70666142D01*
X149431695Y-70523285D01*
X149479314Y-70332809D01*
X149479314Y-69951857D01*
X149431695Y-69856619D01*
X149384076Y-69809000D01*
X149288838Y-69761380D01*
X149098361Y-69761380D01*
X149003123Y-69809000D01*
X148955504Y-69856619D01*
X148907885Y-69951857D01*
X148907885Y-70189952D01*
X148955504Y-70285190D01*
X149003123Y-70332809D01*
X149098361Y-70380428D01*
X149288838Y-70380428D01*
X149384076Y-70332809D01*
X149431695Y-70285190D01*
X149479314Y-70189952D01*
%TO.C,C10*%
X137773142Y-78190857D02*
X137820761Y-78238476D01*
X137868380Y-78381333D01*
X137868380Y-78476571D01*
X137820761Y-78619428D01*
X137725523Y-78714666D01*
X137630285Y-78762285D01*
X137439809Y-78809904D01*
X137296952Y-78809904D01*
X137106476Y-78762285D01*
X137011238Y-78714666D01*
X136916000Y-78619428D01*
X136868380Y-78476571D01*
X136868380Y-78381333D01*
X136916000Y-78238476D01*
X136963619Y-78190857D01*
X137868380Y-77238476D02*
X137868380Y-77809904D01*
X137868380Y-77524190D02*
X136868380Y-77524190D01*
X137011238Y-77619428D01*
X137106476Y-77714666D01*
X137154095Y-77809904D01*
X136868380Y-76619428D02*
X136868380Y-76524190D01*
X136916000Y-76428952D01*
X136963619Y-76381333D01*
X137058857Y-76333714D01*
X137249333Y-76286095D01*
X137487428Y-76286095D01*
X137677904Y-76333714D01*
X137773142Y-76381333D01*
X137820761Y-76428952D01*
X137868380Y-76524190D01*
X137868380Y-76619428D01*
X137820761Y-76714666D01*
X137773142Y-76762285D01*
X137677904Y-76809904D01*
X137487428Y-76857523D01*
X137249333Y-76857523D01*
X137058857Y-76809904D01*
X136963619Y-76762285D01*
X136916000Y-76714666D01*
X136868380Y-76619428D01*
D10*
%TO.C,Y1*%
X145058000Y-78820000D02*
X145058000Y-73070000D01*
X141458000Y-73070000D02*
X141458000Y-78820000D01*
X141458000Y-78820000D02*
X145058000Y-78820000D01*
%TO.C,C11*%
X139561420Y-73482000D02*
X139842580Y-73482000D01*
X139561420Y-74502000D02*
X139842580Y-74502000D01*
%TO.C,J3*%
X141640000Y-58380000D02*
X141890000Y-56880000D01*
X141890000Y-56880000D02*
X139890000Y-56880000D01*
X139890000Y-56880000D02*
X140140000Y-58380000D01*
X148570000Y-56880000D02*
X138270000Y-56880000D01*
X145220000Y-58380000D02*
X146720000Y-58380000D01*
X148570000Y-69100000D02*
X148570000Y-56880000D01*
X140140000Y-58380000D02*
X141640000Y-58380000D01*
X148570000Y-60180000D02*
X138270000Y-60180000D01*
X138270000Y-69100000D02*
X148570000Y-69100000D01*
X144970000Y-56880000D02*
X145220000Y-58380000D01*
X146970000Y-56880000D02*
X144970000Y-56880000D01*
X138270000Y-60180000D02*
X138270000Y-58380000D01*
X148570000Y-58380000D02*
X148570000Y-60180000D01*
X138270000Y-56880000D02*
X138270000Y-69100000D01*
X138270000Y-58380000D02*
X148570000Y-58380000D01*
X146720000Y-58380000D02*
X146970000Y-56880000D01*
%TO.C,R12*%
X152513758Y-97757000D02*
X152039242Y-97757000D01*
X152513758Y-96712000D02*
X152039242Y-96712000D01*
%TO.C,U3*%
X151030400Y-82186200D02*
X152980400Y-82186200D01*
X151030400Y-82186200D02*
X149080400Y-82186200D01*
X151030400Y-73316200D02*
X147580400Y-73316200D01*
X151030400Y-73316200D02*
X152980400Y-73316200D01*
%TO.C,JP1_VCC1*%
X157212000Y-120350000D02*
X155212000Y-120350000D01*
X155212000Y-120350000D02*
X155212000Y-117550000D01*
X157212000Y-117550000D02*
X157212000Y-120350000D01*
X155212000Y-117550000D02*
X157212000Y-117550000D01*
%TO.C,C8*%
X144877748Y-107514000D02*
X146300252Y-107514000D01*
X144877748Y-105694000D02*
X146300252Y-105694000D01*
%TO.C,J10*%
X134308000Y-91458000D02*
X134308000Y-94118000D01*
X135638000Y-91458000D02*
X136968000Y-91458000D01*
X134368000Y-94118000D02*
X134308000Y-94118000D01*
X134368000Y-91458000D02*
X134368000Y-94118000D01*
X136968000Y-91458000D02*
X136968000Y-92788000D01*
X134368000Y-91458000D02*
X134308000Y-91458000D01*
%TO.C,C3*%
X141511420Y-113718000D02*
X141792580Y-113718000D01*
X141511420Y-112698000D02*
X141792580Y-112698000D01*
%TO.C,U2*%
X154920000Y-107814000D02*
X149720000Y-107814000D01*
X154920000Y-110049000D02*
X154920000Y-107814000D01*
X149720000Y-107814000D02*
X149720000Y-114284000D01*
X154920000Y-114284000D02*
X154920000Y-112049000D01*
X149720000Y-114284000D02*
X154920000Y-114284000D01*
X154920000Y-112049000D02*
G75*
G02*
X154920000Y-110049000I0J1000000D01*
G01*
%TO.C,R5*%
X158102500Y-76294742D02*
X158102500Y-76769258D01*
X159147500Y-76294742D02*
X159147500Y-76769258D01*
%TO.C,D1*%
X139873000Y-112094000D02*
X136573000Y-112094000D01*
X139873000Y-112094000D02*
X139873000Y-117494000D01*
X136573000Y-112094000D02*
X136573000Y-117494000D01*
%TO.C,J6*%
X135638000Y-88791000D02*
X136968000Y-88791000D01*
X134368000Y-91451000D02*
X134308000Y-91451000D01*
X136968000Y-88791000D02*
X136968000Y-90121000D01*
X134368000Y-88791000D02*
X134308000Y-88791000D01*
X134368000Y-88791000D02*
X134368000Y-91451000D01*
X134308000Y-88791000D02*
X134308000Y-91451000D01*
%TO.C,JP2_D1*%
X152018000Y-70198000D02*
X154818000Y-70198000D01*
X152018000Y-72198000D02*
X152018000Y-70198000D01*
X154818000Y-70198000D02*
X154818000Y-72198000D01*
X154818000Y-72198000D02*
X152018000Y-72198000D01*
%TO.C,C5*%
X144559420Y-112698000D02*
X144840580Y-112698000D01*
X144559420Y-113718000D02*
X144840580Y-113718000D01*
D14*
%TO.C,LOGO3*%
X146099814Y-93939931D02*
X146183635Y-94384555D01*
X146183635Y-94384555D02*
X146492920Y-94512053D01*
X146492920Y-94512053D02*
X146802206Y-94639551D01*
X146802206Y-94639551D02*
X147173246Y-94387246D01*
X147173246Y-94387246D02*
X147277157Y-94316996D01*
X147277157Y-94316996D02*
X147371087Y-94254272D01*
X147371087Y-94254272D02*
X147450652Y-94201938D01*
X147450652Y-94201938D02*
X147511470Y-94162857D01*
X147511470Y-94162857D02*
X147549157Y-94139893D01*
X147549157Y-94139893D02*
X147559421Y-94134942D01*
X147559421Y-94134942D02*
X147577910Y-94147676D01*
X147577910Y-94147676D02*
X147617420Y-94182882D01*
X147617420Y-94182882D02*
X147673522Y-94236062D01*
X147673522Y-94236062D02*
X147741787Y-94302718D01*
X147741787Y-94302718D02*
X147817786Y-94378354D01*
X147817786Y-94378354D02*
X147897092Y-94458472D01*
X147897092Y-94458472D02*
X147975275Y-94538574D01*
X147975275Y-94538574D02*
X148047907Y-94614164D01*
X148047907Y-94614164D02*
X148110559Y-94680745D01*
X148110559Y-94680745D02*
X148158803Y-94733818D01*
X148158803Y-94733818D02*
X148188210Y-94768887D01*
X148188210Y-94768887D02*
X148195241Y-94780623D01*
X148195241Y-94780623D02*
X148185123Y-94802260D01*
X148185123Y-94802260D02*
X148156759Y-94849662D01*
X148156759Y-94849662D02*
X148113129Y-94918193D01*
X148113129Y-94918193D02*
X148057218Y-95003215D01*
X148057218Y-95003215D02*
X147992006Y-95100093D01*
X147992006Y-95100093D02*
X147954219Y-95155350D01*
X147954219Y-95155350D02*
X147885343Y-95256248D01*
X147885343Y-95256248D02*
X147824140Y-95347299D01*
X147824140Y-95347299D02*
X147773578Y-95423970D01*
X147773578Y-95423970D02*
X147736628Y-95481728D01*
X147736628Y-95481728D02*
X147716258Y-95516043D01*
X147716258Y-95516043D02*
X147713197Y-95523254D01*
X147713197Y-95523254D02*
X147720136Y-95543748D01*
X147720136Y-95543748D02*
X147739051Y-95591513D01*
X147739051Y-95591513D02*
X147767087Y-95659832D01*
X147767087Y-95659832D02*
X147801391Y-95741989D01*
X147801391Y-95741989D02*
X147839109Y-95831270D01*
X147839109Y-95831270D02*
X147877387Y-95920958D01*
X147877387Y-95920958D02*
X147913370Y-96004338D01*
X147913370Y-96004338D02*
X147944206Y-96074694D01*
X147944206Y-96074694D02*
X147967039Y-96125310D01*
X147967039Y-96125310D02*
X147979017Y-96149471D01*
X147979017Y-96149471D02*
X147979724Y-96150422D01*
X147979724Y-96150422D02*
X147998531Y-96155036D01*
X147998531Y-96155036D02*
X148048618Y-96165328D01*
X148048618Y-96165328D02*
X148124793Y-96180287D01*
X148124793Y-96180287D02*
X148221865Y-96198901D01*
X148221865Y-96198901D02*
X148334643Y-96220159D01*
X148334643Y-96220159D02*
X148400442Y-96232418D01*
X148400442Y-96232418D02*
X148520950Y-96255362D01*
X148520950Y-96255362D02*
X148629797Y-96277195D01*
X148629797Y-96277195D02*
X148721476Y-96296722D01*
X148721476Y-96296722D02*
X148790481Y-96312748D01*
X148790481Y-96312748D02*
X148831304Y-96324079D01*
X148831304Y-96324079D02*
X148839511Y-96327674D01*
X148839511Y-96327674D02*
X148847548Y-96352006D01*
X148847548Y-96352006D02*
X148854033Y-96406959D01*
X148854033Y-96406959D02*
X148858970Y-96486108D01*
X148858970Y-96486108D02*
X148862364Y-96583026D01*
X148862364Y-96583026D02*
X148864218Y-96691287D01*
X148864218Y-96691287D02*
X148864538Y-96804465D01*
X148864538Y-96804465D02*
X148863327Y-96916135D01*
X148863327Y-96916135D02*
X148860590Y-97019868D01*
X148860590Y-97019868D02*
X148856331Y-97109241D01*
X148856331Y-97109241D02*
X148850555Y-97177826D01*
X148850555Y-97177826D02*
X148843267Y-97219197D01*
X148843267Y-97219197D02*
X148838895Y-97227810D01*
X148838895Y-97227810D02*
X148812764Y-97238133D01*
X148812764Y-97238133D02*
X148757393Y-97252892D01*
X148757393Y-97252892D02*
X148680107Y-97270352D01*
X148680107Y-97270352D02*
X148588230Y-97288780D01*
X148588230Y-97288780D02*
X148556158Y-97294741D01*
X148556158Y-97294741D02*
X148401524Y-97323066D01*
X148401524Y-97323066D02*
X148279375Y-97345876D01*
X148279375Y-97345876D02*
X148185673Y-97364080D01*
X148185673Y-97364080D02*
X148116384Y-97378583D01*
X148116384Y-97378583D02*
X148067471Y-97390292D01*
X148067471Y-97390292D02*
X148034897Y-97400115D01*
X148034897Y-97400115D02*
X148014628Y-97408956D01*
X148014628Y-97408956D02*
X148002626Y-97417724D01*
X148002626Y-97417724D02*
X148000947Y-97419457D01*
X148000947Y-97419457D02*
X147984184Y-97447371D01*
X147984184Y-97447371D02*
X147958614Y-97501695D01*
X147958614Y-97501695D02*
X147926788Y-97575777D01*
X147926788Y-97575777D02*
X147891260Y-97662965D01*
X147891260Y-97662965D02*
X147854583Y-97756608D01*
X147854583Y-97756608D02*
X147819311Y-97850052D01*
X147819311Y-97850052D02*
X147787996Y-97936647D01*
X147787996Y-97936647D02*
X147763193Y-98009740D01*
X147763193Y-98009740D02*
X147747454Y-98062678D01*
X147747454Y-98062678D02*
X147743332Y-98088811D01*
X147743332Y-98088811D02*
X147743676Y-98089726D01*
X147743676Y-98089726D02*
X147757641Y-98111086D01*
X147757641Y-98111086D02*
X147789322Y-98158084D01*
X147789322Y-98158084D02*
X147835391Y-98225827D01*
X147835391Y-98225827D02*
X147892518Y-98309423D01*
X147892518Y-98309423D02*
X147957373Y-98403982D01*
X147957373Y-98403982D02*
X147975843Y-98430854D01*
X147975843Y-98430854D02*
X148041699Y-98528275D01*
X148041699Y-98528275D02*
X148099650Y-98617163D01*
X148099650Y-98617163D02*
X148146538Y-98692412D01*
X148146538Y-98692412D02*
X148179207Y-98748920D01*
X148179207Y-98748920D02*
X148194500Y-98781581D01*
X148194500Y-98781581D02*
X148195241Y-98785593D01*
X148195241Y-98785593D02*
X148182392Y-98806684D01*
X148182392Y-98806684D02*
X148146888Y-98848464D01*
X148146888Y-98848464D02*
X148093293Y-98906445D01*
X148093293Y-98906445D02*
X148026171Y-98976135D01*
X148026171Y-98976135D02*
X147950087Y-99053045D01*
X147950087Y-99053045D02*
X147869604Y-99132683D01*
X147869604Y-99132683D02*
X147789287Y-99210561D01*
X147789287Y-99210561D02*
X147713699Y-99282186D01*
X147713699Y-99282186D02*
X147647405Y-99343070D01*
X147647405Y-99343070D02*
X147594969Y-99388721D01*
X147594969Y-99388721D02*
X147560955Y-99414650D01*
X147560955Y-99414650D02*
X147551545Y-99418883D01*
X147551545Y-99418883D02*
X147529643Y-99408912D01*
X147529643Y-99408912D02*
X147484800Y-99382020D01*
X147484800Y-99382020D02*
X147424321Y-99342736D01*
X147424321Y-99342736D02*
X147377789Y-99311117D01*
X147377789Y-99311117D02*
X147293475Y-99253098D01*
X147293475Y-99253098D02*
X147193626Y-99184784D01*
X147193626Y-99184784D02*
X147093473Y-99116579D01*
X147093473Y-99116579D02*
X147039627Y-99080075D01*
X147039627Y-99080075D02*
X146857371Y-98956800D01*
X146857371Y-98956800D02*
X146704381Y-99039520D01*
X146704381Y-99039520D02*
X146634682Y-99075759D01*
X146634682Y-99075759D02*
X146575414Y-99103926D01*
X146575414Y-99103926D02*
X146535311Y-99119991D01*
X146535311Y-99119991D02*
X146525103Y-99122226D01*
X146525103Y-99122226D02*
X146512829Y-99105722D01*
X146512829Y-99105722D02*
X146488613Y-99059082D01*
X146488613Y-99059082D02*
X146454263Y-98986609D01*
X146454263Y-98986609D02*
X146411588Y-98892606D01*
X146411588Y-98892606D02*
X146362394Y-98781374D01*
X146362394Y-98781374D02*
X146308490Y-98657215D01*
X146308490Y-98657215D02*
X146251684Y-98524432D01*
X146251684Y-98524432D02*
X146193782Y-98387327D01*
X146193782Y-98387327D02*
X146136593Y-98250202D01*
X146136593Y-98250202D02*
X146081924Y-98117358D01*
X146081924Y-98117358D02*
X146031584Y-97993098D01*
X146031584Y-97993098D02*
X145987380Y-97881725D01*
X145987380Y-97881725D02*
X145951119Y-97787539D01*
X145951119Y-97787539D02*
X145924609Y-97714844D01*
X145924609Y-97714844D02*
X145909658Y-97667941D01*
X145909658Y-97667941D02*
X145907254Y-97651833D01*
X145907254Y-97651833D02*
X145926311Y-97631286D01*
X145926311Y-97631286D02*
X145968036Y-97597933D01*
X145968036Y-97597933D02*
X146023706Y-97558702D01*
X146023706Y-97558702D02*
X146028378Y-97555599D01*
X146028378Y-97555599D02*
X146172264Y-97440423D01*
X146172264Y-97440423D02*
X146288283Y-97306053D01*
X146288283Y-97306053D02*
X146375430Y-97156784D01*
X146375430Y-97156784D02*
X146432699Y-96996913D01*
X146432699Y-96996913D02*
X146459086Y-96830737D01*
X146459086Y-96830737D02*
X146453585Y-96662552D01*
X146453585Y-96662552D02*
X146415190Y-96496655D01*
X146415190Y-96496655D02*
X146342895Y-96337342D01*
X146342895Y-96337342D02*
X146321626Y-96302487D01*
X146321626Y-96302487D02*
X146210996Y-96161737D01*
X146210996Y-96161737D02*
X146080302Y-96048714D01*
X146080302Y-96048714D02*
X145934064Y-95964003D01*
X145934064Y-95964003D02*
X145776808Y-95908194D01*
X145776808Y-95908194D02*
X145613057Y-95881874D01*
X145613057Y-95881874D02*
X145447333Y-95885630D01*
X145447333Y-95885630D02*
X145284162Y-95920050D01*
X145284162Y-95920050D02*
X145128065Y-95985723D01*
X145128065Y-95985723D02*
X144983567Y-96083235D01*
X144983567Y-96083235D02*
X144938869Y-96122813D01*
X144938869Y-96122813D02*
X144825112Y-96246703D01*
X144825112Y-96246703D02*
X144742218Y-96377124D01*
X144742218Y-96377124D02*
X144685356Y-96523315D01*
X144685356Y-96523315D02*
X144653687Y-96668088D01*
X144653687Y-96668088D02*
X144645869Y-96830860D01*
X144645869Y-96830860D02*
X144671938Y-96994440D01*
X144671938Y-96994440D02*
X144729245Y-97153298D01*
X144729245Y-97153298D02*
X144815144Y-97301906D01*
X144815144Y-97301906D02*
X144926986Y-97434735D01*
X144926986Y-97434735D02*
X145062123Y-97546256D01*
X145062123Y-97546256D02*
X145079883Y-97558011D01*
X145079883Y-97558011D02*
X145136150Y-97596508D01*
X145136150Y-97596508D02*
X145178923Y-97629863D01*
X145178923Y-97629863D02*
X145199372Y-97651160D01*
X145199372Y-97651160D02*
X145199669Y-97651833D01*
X145199669Y-97651833D02*
X145195279Y-97674871D01*
X145195279Y-97674871D02*
X145177876Y-97727157D01*
X145177876Y-97727157D02*
X145149268Y-97804390D01*
X145149268Y-97804390D02*
X145111265Y-97902268D01*
X145111265Y-97902268D02*
X145065674Y-98016491D01*
X145065674Y-98016491D02*
X145014303Y-98142758D01*
X145014303Y-98142758D02*
X144958962Y-98276767D01*
X144958962Y-98276767D02*
X144901458Y-98414218D01*
X144901458Y-98414218D02*
X144843601Y-98550808D01*
X144843601Y-98550808D02*
X144787198Y-98682237D01*
X144787198Y-98682237D02*
X144734058Y-98804205D01*
X144734058Y-98804205D02*
X144685990Y-98912409D01*
X144685990Y-98912409D02*
X144644801Y-99002549D01*
X144644801Y-99002549D02*
X144612301Y-99070323D01*
X144612301Y-99070323D02*
X144590297Y-99111430D01*
X144590297Y-99111430D02*
X144581436Y-99122226D01*
X144581436Y-99122226D02*
X144554360Y-99113819D01*
X144554360Y-99113819D02*
X144503697Y-99091272D01*
X144503697Y-99091272D02*
X144438183Y-99058613D01*
X144438183Y-99058613D02*
X144402159Y-99039520D01*
X144402159Y-99039520D02*
X144249168Y-98956800D01*
X144249168Y-98956800D02*
X144066912Y-99080075D01*
X144066912Y-99080075D02*
X143973875Y-99143228D01*
X143973875Y-99143228D02*
X143872015Y-99212727D01*
X143872015Y-99212727D02*
X143776562Y-99278165D01*
X143776562Y-99278165D02*
X143728750Y-99311117D01*
X143728750Y-99311117D02*
X143661505Y-99356273D01*
X143661505Y-99356273D02*
X143604564Y-99392057D01*
X143604564Y-99392057D02*
X143565354Y-99413938D01*
X143565354Y-99413938D02*
X143552619Y-99418563D01*
X143552619Y-99418563D02*
X143534083Y-99406085D01*
X143534083Y-99406085D02*
X143493059Y-99371252D01*
X143493059Y-99371252D02*
X143433525Y-99317678D01*
X143433525Y-99317678D02*
X143359458Y-99248983D01*
X143359458Y-99248983D02*
X143274835Y-99168781D01*
X143274835Y-99168781D02*
X143221315Y-99117286D01*
X143221315Y-99117286D02*
X143127681Y-99025286D01*
X143127681Y-99025286D02*
X143046759Y-98942999D01*
X143046759Y-98942999D02*
X142981823Y-98873945D01*
X142981823Y-98873945D02*
X142936142Y-98821644D01*
X142936142Y-98821644D02*
X142912989Y-98789616D01*
X142912989Y-98789616D02*
X142910768Y-98783116D01*
X142910768Y-98783116D02*
X142921076Y-98758394D01*
X142921076Y-98758394D02*
X142949561Y-98708405D01*
X142949561Y-98708405D02*
X142993063Y-98638212D01*
X142993063Y-98638212D02*
X143048423Y-98552875D01*
X143048423Y-98552875D02*
X143112480Y-98457456D01*
X143112480Y-98457456D02*
X143130697Y-98430854D01*
X143130697Y-98430854D02*
X143197073Y-98334167D01*
X143197073Y-98334167D02*
X143256622Y-98247117D01*
X143256622Y-98247117D02*
X143306016Y-98174595D01*
X143306016Y-98174595D02*
X143341925Y-98121493D01*
X143341925Y-98121493D02*
X143361019Y-98092703D01*
X143361019Y-98092703D02*
X143362864Y-98089726D01*
X143362864Y-98089726D02*
X143360105Y-98066782D01*
X143360105Y-98066782D02*
X143345462Y-98016336D01*
X143345462Y-98016336D02*
X143321487Y-97945041D01*
X143321487Y-97945041D02*
X143290734Y-97859547D01*
X143290734Y-97859547D02*
X143255756Y-97766507D01*
X143255756Y-97766507D02*
X143219107Y-97672574D01*
X143219107Y-97672574D02*
X143183339Y-97584399D01*
X143183339Y-97584399D02*
X143151006Y-97508634D01*
X143151006Y-97508634D02*
X143124662Y-97451931D01*
X143124662Y-97451931D02*
X143106858Y-97420943D01*
X143106858Y-97420943D02*
X143105593Y-97419457D01*
X143105593Y-97419457D02*
X143094706Y-97410601D01*
X143094706Y-97410601D02*
X143076318Y-97401843D01*
X143076318Y-97401843D02*
X143046394Y-97392277D01*
X143046394Y-97392277D02*
X143000897Y-97380996D01*
X143000897Y-97380996D02*
X142935791Y-97367093D01*
X142935791Y-97367093D02*
X142847039Y-97349663D01*
X142847039Y-97349663D02*
X142730607Y-97327798D01*
X142730607Y-97327798D02*
X142582458Y-97300591D01*
X142582458Y-97300591D02*
X142550382Y-97294741D01*
X142550382Y-97294741D02*
X142455314Y-97276374D01*
X142455314Y-97276374D02*
X142372435Y-97258405D01*
X142372435Y-97258405D02*
X142309070Y-97242569D01*
X142309070Y-97242569D02*
X142272542Y-97230600D01*
X142272542Y-97230600D02*
X142267644Y-97227810D01*
X142267644Y-97227810D02*
X142259573Y-97203072D01*
X142259573Y-97203072D02*
X142253013Y-97147790D01*
X142253013Y-97147790D02*
X142247967Y-97068389D01*
X142247967Y-97068389D02*
X142244441Y-96971296D01*
X142244441Y-96971296D02*
X142242439Y-96862938D01*
X142242439Y-96862938D02*
X142241964Y-96749740D01*
X142241964Y-96749740D02*
X142243023Y-96638128D01*
X142243023Y-96638128D02*
X142245618Y-96534529D01*
X142245618Y-96534529D02*
X142249754Y-96445368D01*
X142249754Y-96445368D02*
X142255437Y-96377072D01*
X142255437Y-96377072D02*
X142262669Y-96336066D01*
X142262669Y-96336066D02*
X142267029Y-96327674D01*
X142267029Y-96327674D02*
X142291302Y-96319208D01*
X142291302Y-96319208D02*
X142346574Y-96305435D01*
X142346574Y-96305435D02*
X142427338Y-96287550D01*
X142427338Y-96287550D02*
X142528088Y-96266748D01*
X142528088Y-96266748D02*
X142643317Y-96244223D01*
X142643317Y-96244223D02*
X142706098Y-96232418D01*
X142706098Y-96232418D02*
X142825213Y-96210151D01*
X142825213Y-96210151D02*
X142931435Y-96189979D01*
X142931435Y-96189979D02*
X143019573Y-96172915D01*
X143019573Y-96172915D02*
X143084434Y-96159969D01*
X143084434Y-96159969D02*
X143120826Y-96152155D01*
X143120826Y-96152155D02*
X143126816Y-96150422D01*
X143126816Y-96150422D02*
X143136939Y-96130890D01*
X143136939Y-96130890D02*
X143158338Y-96083843D01*
X143158338Y-96083843D02*
X143188161Y-96016003D01*
X143188161Y-96016003D02*
X143223555Y-95934091D01*
X143223555Y-95934091D02*
X143261668Y-95844828D01*
X143261668Y-95844828D02*
X143299647Y-95754935D01*
X143299647Y-95754935D02*
X143334640Y-95671135D01*
X143334640Y-95671135D02*
X143363794Y-95600147D01*
X143363794Y-95600147D02*
X143384257Y-95548694D01*
X143384257Y-95548694D02*
X143393177Y-95523497D01*
X143393177Y-95523497D02*
X143393343Y-95522396D01*
X143393343Y-95522396D02*
X143383231Y-95502519D01*
X143383231Y-95502519D02*
X143354883Y-95456777D01*
X143354883Y-95456777D02*
X143311277Y-95389717D01*
X143311277Y-95389717D02*
X143255394Y-95305884D01*
X143255394Y-95305884D02*
X143190213Y-95209826D01*
X143190213Y-95209826D02*
X143152321Y-95154650D01*
X143152321Y-95154650D02*
X143083275Y-95053481D01*
X143083275Y-95053481D02*
X143021950Y-94961630D01*
X143021950Y-94961630D02*
X142971337Y-94883744D01*
X142971337Y-94883744D02*
X142934429Y-94824469D01*
X142934429Y-94824469D02*
X142914218Y-94788451D01*
X142914218Y-94788451D02*
X142911299Y-94780377D01*
X142911299Y-94780377D02*
X142923847Y-94761584D01*
X142923847Y-94761584D02*
X142958537Y-94721457D01*
X142958537Y-94721457D02*
X143010937Y-94664493D01*
X143010937Y-94664493D02*
X143076616Y-94595185D01*
X143076616Y-94595185D02*
X143151144Y-94518031D01*
X143151144Y-94518031D02*
X143230087Y-94437525D01*
X143230087Y-94437525D02*
X143309017Y-94358163D01*
X143309017Y-94358163D02*
X143383500Y-94284440D01*
X143383500Y-94284440D02*
X143449106Y-94220852D01*
X143449106Y-94220852D02*
X143501404Y-94171894D01*
X143501404Y-94171894D02*
X143535961Y-94142061D01*
X143535961Y-94142061D02*
X143547522Y-94134942D01*
X143547522Y-94134942D02*
X143566346Y-94144953D01*
X143566346Y-94144953D02*
X143611369Y-94173078D01*
X143611369Y-94173078D02*
X143678213Y-94216454D01*
X143678213Y-94216454D02*
X143762501Y-94272218D01*
X143762501Y-94272218D02*
X143859856Y-94337506D01*
X143859856Y-94337506D02*
X143933293Y-94387246D01*
X143933293Y-94387246D02*
X144304333Y-94639551D01*
X144304333Y-94639551D02*
X144922905Y-94384555D01*
X144922905Y-94384555D02*
X145006725Y-93939931D01*
X145006725Y-93939931D02*
X145090546Y-93495307D01*
X145090546Y-93495307D02*
X146015994Y-93495307D01*
X146015994Y-93495307D02*
X146099814Y-93939931D01*
X146099814Y-93939931D02*
X146099814Y-93939931D01*
G36*
X146099814Y-93939931D02*
G01*
X146183635Y-94384555D01*
X146492920Y-94512053D01*
X146802206Y-94639551D01*
X147173246Y-94387246D01*
X147277157Y-94316996D01*
X147371087Y-94254272D01*
X147450652Y-94201938D01*
X147511470Y-94162857D01*
X147549157Y-94139893D01*
X147559421Y-94134942D01*
X147577910Y-94147676D01*
X147617420Y-94182882D01*
X147673522Y-94236062D01*
X147741787Y-94302718D01*
X147817786Y-94378354D01*
X147897092Y-94458472D01*
X147975275Y-94538574D01*
X148047907Y-94614164D01*
X148110559Y-94680745D01*
X148158803Y-94733818D01*
X148188210Y-94768887D01*
X148195241Y-94780623D01*
X148185123Y-94802260D01*
X148156759Y-94849662D01*
X148113129Y-94918193D01*
X148057218Y-95003215D01*
X147992006Y-95100093D01*
X147954219Y-95155350D01*
X147885343Y-95256248D01*
X147824140Y-95347299D01*
X147773578Y-95423970D01*
X147736628Y-95481728D01*
X147716258Y-95516043D01*
X147713197Y-95523254D01*
X147720136Y-95543748D01*
X147739051Y-95591513D01*
X147767087Y-95659832D01*
X147801391Y-95741989D01*
X147839109Y-95831270D01*
X147877387Y-95920958D01*
X147913370Y-96004338D01*
X147944206Y-96074694D01*
X147967039Y-96125310D01*
X147979017Y-96149471D01*
X147979724Y-96150422D01*
X147998531Y-96155036D01*
X148048618Y-96165328D01*
X148124793Y-96180287D01*
X148221865Y-96198901D01*
X148334643Y-96220159D01*
X148400442Y-96232418D01*
X148520950Y-96255362D01*
X148629797Y-96277195D01*
X148721476Y-96296722D01*
X148790481Y-96312748D01*
X148831304Y-96324079D01*
X148839511Y-96327674D01*
X148847548Y-96352006D01*
X148854033Y-96406959D01*
X148858970Y-96486108D01*
X148862364Y-96583026D01*
X148864218Y-96691287D01*
X148864538Y-96804465D01*
X148863327Y-96916135D01*
X148860590Y-97019868D01*
X148856331Y-97109241D01*
X148850555Y-97177826D01*
X148843267Y-97219197D01*
X148838895Y-97227810D01*
X148812764Y-97238133D01*
X148757393Y-97252892D01*
X148680107Y-97270352D01*
X148588230Y-97288780D01*
X148556158Y-97294741D01*
X148401524Y-97323066D01*
X148279375Y-97345876D01*
X148185673Y-97364080D01*
X148116384Y-97378583D01*
X148067471Y-97390292D01*
X148034897Y-97400115D01*
X148014628Y-97408956D01*
X148002626Y-97417724D01*
X148000947Y-97419457D01*
X147984184Y-97447371D01*
X147958614Y-97501695D01*
X147926788Y-97575777D01*
X147891260Y-97662965D01*
X147854583Y-97756608D01*
X147819311Y-97850052D01*
X147787996Y-97936647D01*
X147763193Y-98009740D01*
X147747454Y-98062678D01*
X147743332Y-98088811D01*
X147743676Y-98089726D01*
X147757641Y-98111086D01*
X147789322Y-98158084D01*
X147835391Y-98225827D01*
X147892518Y-98309423D01*
X147957373Y-98403982D01*
X147975843Y-98430854D01*
X148041699Y-98528275D01*
X148099650Y-98617163D01*
X148146538Y-98692412D01*
X148179207Y-98748920D01*
X148194500Y-98781581D01*
X148195241Y-98785593D01*
X148182392Y-98806684D01*
X148146888Y-98848464D01*
X148093293Y-98906445D01*
X148026171Y-98976135D01*
X147950087Y-99053045D01*
X147869604Y-99132683D01*
X147789287Y-99210561D01*
X147713699Y-99282186D01*
X147647405Y-99343070D01*
X147594969Y-99388721D01*
X147560955Y-99414650D01*
X147551545Y-99418883D01*
X147529643Y-99408912D01*
X147484800Y-99382020D01*
X147424321Y-99342736D01*
X147377789Y-99311117D01*
X147293475Y-99253098D01*
X147193626Y-99184784D01*
X147093473Y-99116579D01*
X147039627Y-99080075D01*
X146857371Y-98956800D01*
X146704381Y-99039520D01*
X146634682Y-99075759D01*
X146575414Y-99103926D01*
X146535311Y-99119991D01*
X146525103Y-99122226D01*
X146512829Y-99105722D01*
X146488613Y-99059082D01*
X146454263Y-98986609D01*
X146411588Y-98892606D01*
X146362394Y-98781374D01*
X146308490Y-98657215D01*
X146251684Y-98524432D01*
X146193782Y-98387327D01*
X146136593Y-98250202D01*
X146081924Y-98117358D01*
X146031584Y-97993098D01*
X145987380Y-97881725D01*
X145951119Y-97787539D01*
X145924609Y-97714844D01*
X145909658Y-97667941D01*
X145907254Y-97651833D01*
X145926311Y-97631286D01*
X145968036Y-97597933D01*
X146023706Y-97558702D01*
X146028378Y-97555599D01*
X146172264Y-97440423D01*
X146288283Y-97306053D01*
X146375430Y-97156784D01*
X146432699Y-96996913D01*
X146459086Y-96830737D01*
X146453585Y-96662552D01*
X146415190Y-96496655D01*
X146342895Y-96337342D01*
X146321626Y-96302487D01*
X146210996Y-96161737D01*
X146080302Y-96048714D01*
X145934064Y-95964003D01*
X145776808Y-95908194D01*
X145613057Y-95881874D01*
X145447333Y-95885630D01*
X145284162Y-95920050D01*
X145128065Y-95985723D01*
X144983567Y-96083235D01*
X144938869Y-96122813D01*
X144825112Y-96246703D01*
X144742218Y-96377124D01*
X144685356Y-96523315D01*
X144653687Y-96668088D01*
X144645869Y-96830860D01*
X144671938Y-96994440D01*
X144729245Y-97153298D01*
X144815144Y-97301906D01*
X144926986Y-97434735D01*
X145062123Y-97546256D01*
X145079883Y-97558011D01*
X145136150Y-97596508D01*
X145178923Y-97629863D01*
X145199372Y-97651160D01*
X145199669Y-97651833D01*
X145195279Y-97674871D01*
X145177876Y-97727157D01*
X145149268Y-97804390D01*
X145111265Y-97902268D01*
X145065674Y-98016491D01*
X145014303Y-98142758D01*
X144958962Y-98276767D01*
X144901458Y-98414218D01*
X144843601Y-98550808D01*
X144787198Y-98682237D01*
X144734058Y-98804205D01*
X144685990Y-98912409D01*
X144644801Y-99002549D01*
X144612301Y-99070323D01*
X144590297Y-99111430D01*
X144581436Y-99122226D01*
X144554360Y-99113819D01*
X144503697Y-99091272D01*
X144438183Y-99058613D01*
X144402159Y-99039520D01*
X144249168Y-98956800D01*
X144066912Y-99080075D01*
X143973875Y-99143228D01*
X143872015Y-99212727D01*
X143776562Y-99278165D01*
X143728750Y-99311117D01*
X143661505Y-99356273D01*
X143604564Y-99392057D01*
X143565354Y-99413938D01*
X143552619Y-99418563D01*
X143534083Y-99406085D01*
X143493059Y-99371252D01*
X143433525Y-99317678D01*
X143359458Y-99248983D01*
X143274835Y-99168781D01*
X143221315Y-99117286D01*
X143127681Y-99025286D01*
X143046759Y-98942999D01*
X142981823Y-98873945D01*
X142936142Y-98821644D01*
X142912989Y-98789616D01*
X142910768Y-98783116D01*
X142921076Y-98758394D01*
X142949561Y-98708405D01*
X142993063Y-98638212D01*
X143048423Y-98552875D01*
X143112480Y-98457456D01*
X143130697Y-98430854D01*
X143197073Y-98334167D01*
X143256622Y-98247117D01*
X143306016Y-98174595D01*
X143341925Y-98121493D01*
X143361019Y-98092703D01*
X143362864Y-98089726D01*
X143360105Y-98066782D01*
X143345462Y-98016336D01*
X143321487Y-97945041D01*
X143290734Y-97859547D01*
X143255756Y-97766507D01*
X143219107Y-97672574D01*
X143183339Y-97584399D01*
X143151006Y-97508634D01*
X143124662Y-97451931D01*
X143106858Y-97420943D01*
X143105593Y-97419457D01*
X143094706Y-97410601D01*
X143076318Y-97401843D01*
X143046394Y-97392277D01*
X143000897Y-97380996D01*
X142935791Y-97367093D01*
X142847039Y-97349663D01*
X142730607Y-97327798D01*
X142582458Y-97300591D01*
X142550382Y-97294741D01*
X142455314Y-97276374D01*
X142372435Y-97258405D01*
X142309070Y-97242569D01*
X142272542Y-97230600D01*
X142267644Y-97227810D01*
X142259573Y-97203072D01*
X142253013Y-97147790D01*
X142247967Y-97068389D01*
X142244441Y-96971296D01*
X142242439Y-96862938D01*
X142241964Y-96749740D01*
X142243023Y-96638128D01*
X142245618Y-96534529D01*
X142249754Y-96445368D01*
X142255437Y-96377072D01*
X142262669Y-96336066D01*
X142267029Y-96327674D01*
X142291302Y-96319208D01*
X142346574Y-96305435D01*
X142427338Y-96287550D01*
X142528088Y-96266748D01*
X142643317Y-96244223D01*
X142706098Y-96232418D01*
X142825213Y-96210151D01*
X142931435Y-96189979D01*
X143019573Y-96172915D01*
X143084434Y-96159969D01*
X143120826Y-96152155D01*
X143126816Y-96150422D01*
X143136939Y-96130890D01*
X143158338Y-96083843D01*
X143188161Y-96016003D01*
X143223555Y-95934091D01*
X143261668Y-95844828D01*
X143299647Y-95754935D01*
X143334640Y-95671135D01*
X143363794Y-95600147D01*
X143384257Y-95548694D01*
X143393177Y-95523497D01*
X143393343Y-95522396D01*
X143383231Y-95502519D01*
X143354883Y-95456777D01*
X143311277Y-95389717D01*
X143255394Y-95305884D01*
X143190213Y-95209826D01*
X143152321Y-95154650D01*
X143083275Y-95053481D01*
X143021950Y-94961630D01*
X142971337Y-94883744D01*
X142934429Y-94824469D01*
X142914218Y-94788451D01*
X142911299Y-94780377D01*
X142923847Y-94761584D01*
X142958537Y-94721457D01*
X143010937Y-94664493D01*
X143076616Y-94595185D01*
X143151144Y-94518031D01*
X143230087Y-94437525D01*
X143309017Y-94358163D01*
X143383500Y-94284440D01*
X143449106Y-94220852D01*
X143501404Y-94171894D01*
X143535961Y-94142061D01*
X143547522Y-94134942D01*
X143566346Y-94144953D01*
X143611369Y-94173078D01*
X143678213Y-94216454D01*
X143762501Y-94272218D01*
X143859856Y-94337506D01*
X143933293Y-94387246D01*
X144304333Y-94639551D01*
X144922905Y-94384555D01*
X145006725Y-93939931D01*
X145090546Y-93495307D01*
X146015994Y-93495307D01*
X146099814Y-93939931D01*
G37*
X146099814Y-93939931D02*
X146183635Y-94384555D01*
X146492920Y-94512053D01*
X146802206Y-94639551D01*
X147173246Y-94387246D01*
X147277157Y-94316996D01*
X147371087Y-94254272D01*
X147450652Y-94201938D01*
X147511470Y-94162857D01*
X147549157Y-94139893D01*
X147559421Y-94134942D01*
X147577910Y-94147676D01*
X147617420Y-94182882D01*
X147673522Y-94236062D01*
X147741787Y-94302718D01*
X147817786Y-94378354D01*
X147897092Y-94458472D01*
X147975275Y-94538574D01*
X148047907Y-94614164D01*
X148110559Y-94680745D01*
X148158803Y-94733818D01*
X148188210Y-94768887D01*
X148195241Y-94780623D01*
X148185123Y-94802260D01*
X148156759Y-94849662D01*
X148113129Y-94918193D01*
X148057218Y-95003215D01*
X147992006Y-95100093D01*
X147954219Y-95155350D01*
X147885343Y-95256248D01*
X147824140Y-95347299D01*
X147773578Y-95423970D01*
X147736628Y-95481728D01*
X147716258Y-95516043D01*
X147713197Y-95523254D01*
X147720136Y-95543748D01*
X147739051Y-95591513D01*
X147767087Y-95659832D01*
X147801391Y-95741989D01*
X147839109Y-95831270D01*
X147877387Y-95920958D01*
X147913370Y-96004338D01*
X147944206Y-96074694D01*
X147967039Y-96125310D01*
X147979017Y-96149471D01*
X147979724Y-96150422D01*
X147998531Y-96155036D01*
X148048618Y-96165328D01*
X148124793Y-96180287D01*
X148221865Y-96198901D01*
X148334643Y-96220159D01*
X148400442Y-96232418D01*
X148520950Y-96255362D01*
X148629797Y-96277195D01*
X148721476Y-96296722D01*
X148790481Y-96312748D01*
X148831304Y-96324079D01*
X148839511Y-96327674D01*
X148847548Y-96352006D01*
X148854033Y-96406959D01*
X148858970Y-96486108D01*
X148862364Y-96583026D01*
X148864218Y-96691287D01*
X148864538Y-96804465D01*
X148863327Y-96916135D01*
X148860590Y-97019868D01*
X148856331Y-97109241D01*
X148850555Y-97177826D01*
X148843267Y-97219197D01*
X148838895Y-97227810D01*
X148812764Y-97238133D01*
X148757393Y-97252892D01*
X148680107Y-97270352D01*
X148588230Y-97288780D01*
X148556158Y-97294741D01*
X148401524Y-97323066D01*
X148279375Y-97345876D01*
X148185673Y-97364080D01*
X148116384Y-97378583D01*
X148067471Y-97390292D01*
X148034897Y-97400115D01*
X148014628Y-97408956D01*
X148002626Y-97417724D01*
X148000947Y-97419457D01*
X147984184Y-97447371D01*
X147958614Y-97501695D01*
X147926788Y-97575777D01*
X147891260Y-97662965D01*
X147854583Y-97756608D01*
X147819311Y-97850052D01*
X147787996Y-97936647D01*
X147763193Y-98009740D01*
X147747454Y-98062678D01*
X147743332Y-98088811D01*
X147743676Y-98089726D01*
X147757641Y-98111086D01*
X147789322Y-98158084D01*
X147835391Y-98225827D01*
X147892518Y-98309423D01*
X147957373Y-98403982D01*
X147975843Y-98430854D01*
X148041699Y-98528275D01*
X148099650Y-98617163D01*
X148146538Y-98692412D01*
X148179207Y-98748920D01*
X148194500Y-98781581D01*
X148195241Y-98785593D01*
X148182392Y-98806684D01*
X148146888Y-98848464D01*
X148093293Y-98906445D01*
X148026171Y-98976135D01*
X147950087Y-99053045D01*
X147869604Y-99132683D01*
X147789287Y-99210561D01*
X147713699Y-99282186D01*
X147647405Y-99343070D01*
X147594969Y-99388721D01*
X147560955Y-99414650D01*
X147551545Y-99418883D01*
X147529643Y-99408912D01*
X147484800Y-99382020D01*
X147424321Y-99342736D01*
X147377789Y-99311117D01*
X147293475Y-99253098D01*
X147193626Y-99184784D01*
X147093473Y-99116579D01*
X147039627Y-99080075D01*
X146857371Y-98956800D01*
X146704381Y-99039520D01*
X146634682Y-99075759D01*
X146575414Y-99103926D01*
X146535311Y-99119991D01*
X146525103Y-99122226D01*
X146512829Y-99105722D01*
X146488613Y-99059082D01*
X146454263Y-98986609D01*
X146411588Y-98892606D01*
X146362394Y-98781374D01*
X146308490Y-98657215D01*
X146251684Y-98524432D01*
X146193782Y-98387327D01*
X146136593Y-98250202D01*
X146081924Y-98117358D01*
X146031584Y-97993098D01*
X145987380Y-97881725D01*
X145951119Y-97787539D01*
X145924609Y-97714844D01*
X145909658Y-97667941D01*
X145907254Y-97651833D01*
X145926311Y-97631286D01*
X145968036Y-97597933D01*
X146023706Y-97558702D01*
X146028378Y-97555599D01*
X146172264Y-97440423D01*
X146288283Y-97306053D01*
X146375430Y-97156784D01*
X146432699Y-96996913D01*
X146459086Y-96830737D01*
X146453585Y-96662552D01*
X146415190Y-96496655D01*
X146342895Y-96337342D01*
X146321626Y-96302487D01*
X146210996Y-96161737D01*
X146080302Y-96048714D01*
X145934064Y-95964003D01*
X145776808Y-95908194D01*
X145613057Y-95881874D01*
X145447333Y-95885630D01*
X145284162Y-95920050D01*
X145128065Y-95985723D01*
X144983567Y-96083235D01*
X144938869Y-96122813D01*
X144825112Y-96246703D01*
X144742218Y-96377124D01*
X144685356Y-96523315D01*
X144653687Y-96668088D01*
X144645869Y-96830860D01*
X144671938Y-96994440D01*
X144729245Y-97153298D01*
X144815144Y-97301906D01*
X144926986Y-97434735D01*
X145062123Y-97546256D01*
X145079883Y-97558011D01*
X145136150Y-97596508D01*
X145178923Y-97629863D01*
X145199372Y-97651160D01*
X145199669Y-97651833D01*
X145195279Y-97674871D01*
X145177876Y-97727157D01*
X145149268Y-97804390D01*
X145111265Y-97902268D01*
X145065674Y-98016491D01*
X145014303Y-98142758D01*
X144958962Y-98276767D01*
X144901458Y-98414218D01*
X144843601Y-98550808D01*
X144787198Y-98682237D01*
X144734058Y-98804205D01*
X144685990Y-98912409D01*
X144644801Y-99002549D01*
X144612301Y-99070323D01*
X144590297Y-99111430D01*
X144581436Y-99122226D01*
X144554360Y-99113819D01*
X144503697Y-99091272D01*
X144438183Y-99058613D01*
X144402159Y-99039520D01*
X144249168Y-98956800D01*
X144066912Y-99080075D01*
X143973875Y-99143228D01*
X143872015Y-99212727D01*
X143776562Y-99278165D01*
X143728750Y-99311117D01*
X143661505Y-99356273D01*
X143604564Y-99392057D01*
X143565354Y-99413938D01*
X143552619Y-99418563D01*
X143534083Y-99406085D01*
X143493059Y-99371252D01*
X143433525Y-99317678D01*
X143359458Y-99248983D01*
X143274835Y-99168781D01*
X143221315Y-99117286D01*
X143127681Y-99025286D01*
X143046759Y-98942999D01*
X142981823Y-98873945D01*
X142936142Y-98821644D01*
X142912989Y-98789616D01*
X142910768Y-98783116D01*
X142921076Y-98758394D01*
X142949561Y-98708405D01*
X142993063Y-98638212D01*
X143048423Y-98552875D01*
X143112480Y-98457456D01*
X143130697Y-98430854D01*
X143197073Y-98334167D01*
X143256622Y-98247117D01*
X143306016Y-98174595D01*
X143341925Y-98121493D01*
X143361019Y-98092703D01*
X143362864Y-98089726D01*
X143360105Y-98066782D01*
X143345462Y-98016336D01*
X143321487Y-97945041D01*
X143290734Y-97859547D01*
X143255756Y-97766507D01*
X143219107Y-97672574D01*
X143183339Y-97584399D01*
X143151006Y-97508634D01*
X143124662Y-97451931D01*
X143106858Y-97420943D01*
X143105593Y-97419457D01*
X143094706Y-97410601D01*
X143076318Y-97401843D01*
X143046394Y-97392277D01*
X143000897Y-97380996D01*
X142935791Y-97367093D01*
X142847039Y-97349663D01*
X142730607Y-97327798D01*
X142582458Y-97300591D01*
X142550382Y-97294741D01*
X142455314Y-97276374D01*
X142372435Y-97258405D01*
X142309070Y-97242569D01*
X142272542Y-97230600D01*
X142267644Y-97227810D01*
X142259573Y-97203072D01*
X142253013Y-97147790D01*
X142247967Y-97068389D01*
X142244441Y-96971296D01*
X142242439Y-96862938D01*
X142241964Y-96749740D01*
X142243023Y-96638128D01*
X142245618Y-96534529D01*
X142249754Y-96445368D01*
X142255437Y-96377072D01*
X142262669Y-96336066D01*
X142267029Y-96327674D01*
X142291302Y-96319208D01*
X142346574Y-96305435D01*
X142427338Y-96287550D01*
X142528088Y-96266748D01*
X142643317Y-96244223D01*
X142706098Y-96232418D01*
X142825213Y-96210151D01*
X142931435Y-96189979D01*
X143019573Y-96172915D01*
X143084434Y-96159969D01*
X143120826Y-96152155D01*
X143126816Y-96150422D01*
X143136939Y-96130890D01*
X143158338Y-96083843D01*
X143188161Y-96016003D01*
X143223555Y-95934091D01*
X143261668Y-95844828D01*
X143299647Y-95754935D01*
X143334640Y-95671135D01*
X143363794Y-95600147D01*
X143384257Y-95548694D01*
X143393177Y-95523497D01*
X143393343Y-95522396D01*
X143383231Y-95502519D01*
X143354883Y-95456777D01*
X143311277Y-95389717D01*
X143255394Y-95305884D01*
X143190213Y-95209826D01*
X143152321Y-95154650D01*
X143083275Y-95053481D01*
X143021950Y-94961630D01*
X142971337Y-94883744D01*
X142934429Y-94824469D01*
X142914218Y-94788451D01*
X142911299Y-94780377D01*
X142923847Y-94761584D01*
X142958537Y-94721457D01*
X143010937Y-94664493D01*
X143076616Y-94595185D01*
X143151144Y-94518031D01*
X143230087Y-94437525D01*
X143309017Y-94358163D01*
X143383500Y-94284440D01*
X143449106Y-94220852D01*
X143501404Y-94171894D01*
X143535961Y-94142061D01*
X143547522Y-94134942D01*
X143566346Y-94144953D01*
X143611369Y-94173078D01*
X143678213Y-94216454D01*
X143762501Y-94272218D01*
X143859856Y-94337506D01*
X143933293Y-94387246D01*
X144304333Y-94639551D01*
X144922905Y-94384555D01*
X145006725Y-93939931D01*
X145090546Y-93495307D01*
X146015994Y-93495307D01*
X146099814Y-93939931D01*
D10*
%TO.C,Q2*%
X150716500Y-101298500D02*
X150716500Y-101948500D01*
X153836500Y-101298500D02*
X153836500Y-101948500D01*
X153836500Y-101298500D02*
X153836500Y-99623500D01*
X150716500Y-101298500D02*
X150716500Y-100648500D01*
%TO.C,J9*%
X162562000Y-80282000D02*
X162622000Y-80282000D01*
X162562000Y-82942000D02*
X162562000Y-80282000D01*
X161292000Y-82942000D02*
X159962000Y-82942000D01*
X159962000Y-82942000D02*
X159962000Y-81612000D01*
X162562000Y-82942000D02*
X162622000Y-82942000D01*
X162622000Y-82942000D02*
X162622000Y-80282000D01*
%TO.C,R10*%
X157639500Y-113783542D02*
X157639500Y-114258058D01*
X158684500Y-113783542D02*
X158684500Y-114258058D01*
%TO.C,R4*%
X146463500Y-109097742D02*
X146463500Y-109572258D01*
X147508500Y-109097742D02*
X147508500Y-109572258D01*
%TO.C,C2*%
X141665580Y-122862000D02*
X141384420Y-122862000D01*
X141665580Y-121842000D02*
X141384420Y-121842000D01*
%TO.C,D3*%
X149527000Y-124990000D02*
X152827000Y-124990000D01*
X152827000Y-124990000D02*
X152827000Y-119590000D01*
X149527000Y-124990000D02*
X149527000Y-119590000D01*
%TO.C,J7*%
X159962000Y-77862000D02*
X159962000Y-76532000D01*
X162622000Y-77862000D02*
X162622000Y-75202000D01*
X162562000Y-77862000D02*
X162562000Y-75202000D01*
X162562000Y-75202000D02*
X162622000Y-75202000D01*
X162562000Y-77862000D02*
X162622000Y-77862000D01*
X161292000Y-77862000D02*
X159962000Y-77862000D01*
%TO.C,J4*%
X148430000Y-69100000D02*
X158730000Y-69100000D01*
X148430000Y-56880000D02*
X148430000Y-69100000D01*
X155380000Y-58380000D02*
X156880000Y-58380000D01*
X158730000Y-69100000D02*
X158730000Y-56880000D01*
X156880000Y-58380000D02*
X157130000Y-56880000D01*
X155130000Y-56880000D02*
X155380000Y-58380000D01*
X158730000Y-58380000D02*
X158730000Y-60180000D01*
X148430000Y-58380000D02*
X158730000Y-58380000D01*
X158730000Y-56880000D02*
X148430000Y-56880000D01*
X152050000Y-56880000D02*
X150050000Y-56880000D01*
X151800000Y-58380000D02*
X152050000Y-56880000D01*
X150050000Y-56880000D02*
X150300000Y-58380000D01*
X148430000Y-60180000D02*
X148430000Y-58380000D01*
X158730000Y-60180000D02*
X148430000Y-60180000D01*
X150300000Y-58380000D02*
X151800000Y-58380000D01*
X157130000Y-56880000D02*
X155130000Y-56880000D01*
%TO.C,R1*%
X146463500Y-112620258D02*
X146463500Y-112145742D01*
X147508500Y-112620258D02*
X147508500Y-112145742D01*
%TO.C,R8*%
X146715258Y-100112500D02*
X146240742Y-100112500D01*
X146715258Y-101157500D02*
X146240742Y-101157500D01*
%TO.C,J8*%
X159962000Y-80402000D02*
X159962000Y-79072000D01*
X162622000Y-80402000D02*
X162622000Y-77742000D01*
X162562000Y-80402000D02*
X162622000Y-80402000D01*
X162562000Y-80402000D02*
X162562000Y-77742000D01*
X161292000Y-80402000D02*
X159962000Y-80402000D01*
X162562000Y-77742000D02*
X162622000Y-77742000D01*
%TO.C,D2*%
X139111000Y-95457000D02*
X139111000Y-100857000D01*
X139111000Y-95457000D02*
X135811000Y-95457000D01*
X135811000Y-95457000D02*
X135811000Y-100857000D01*
%TO.C,C1*%
X144713580Y-126418000D02*
X144432420Y-126418000D01*
X144713580Y-125398000D02*
X144432420Y-125398000D01*
D15*
%TO.C,LOGO1*%
X156766800Y-109169400D02*
X156766800Y-91643400D01*
X156766800Y-91643400D02*
X162100800Y-91643400D01*
X162100800Y-109169400D02*
X156766800Y-109169400D01*
X162100800Y-91643400D02*
X162100800Y-109169400D01*
D10*
%TO.C,JP1_PU1*%
X159752000Y-117550000D02*
X159752000Y-120350000D01*
X159752000Y-120350000D02*
X157752000Y-120350000D01*
X157752000Y-120350000D02*
X157752000Y-117550000D01*
X157752000Y-117550000D02*
X159752000Y-117550000D01*
%TO.C,R2*%
X144462742Y-109158500D02*
X144937258Y-109158500D01*
X144462742Y-108113500D02*
X144937258Y-108113500D01*
%TO.C,R3*%
X144462742Y-109637500D02*
X144937258Y-109637500D01*
X144462742Y-110682500D02*
X144937258Y-110682500D01*
%TO.C,J1*%
X138290000Y-130880000D02*
X138290000Y-143100000D01*
X148590000Y-143100000D02*
X148590000Y-130880000D01*
X141640000Y-141600000D02*
X140140000Y-141600000D01*
X138290000Y-141600000D02*
X138290000Y-139800000D01*
X145220000Y-141600000D02*
X144970000Y-143100000D01*
X148590000Y-141600000D02*
X138290000Y-141600000D01*
X148590000Y-130880000D02*
X138290000Y-130880000D01*
X139890000Y-143100000D02*
X141890000Y-143100000D01*
X148590000Y-139800000D02*
X148590000Y-141600000D01*
X138290000Y-143100000D02*
X148590000Y-143100000D01*
X144970000Y-143100000D02*
X146970000Y-143100000D01*
X138290000Y-139800000D02*
X148590000Y-139800000D01*
X141890000Y-143100000D02*
X141640000Y-141600000D01*
X146720000Y-141600000D02*
X145220000Y-141600000D01*
X140140000Y-141600000D02*
X139890000Y-143100000D01*
X146970000Y-143100000D02*
X146720000Y-141600000D01*
%TO.C,R9*%
X154702500Y-121352742D02*
X154702500Y-121827258D01*
X153657500Y-121352742D02*
X153657500Y-121827258D01*
%TO.C,C4*%
X144432420Y-121842000D02*
X144713580Y-121842000D01*
X144432420Y-122862000D02*
X144713580Y-122862000D01*
%TO.C,J5*%
X139930600Y-87708000D02*
X134850600Y-87708000D01*
X134850600Y-80088000D02*
X134850600Y-87708000D01*
X140489400Y-87708000D02*
X140489400Y-82628000D01*
X134850600Y-85168000D02*
X139930600Y-85168000D01*
X140489400Y-87708000D02*
X145569400Y-87708000D01*
X143029400Y-87708000D02*
X143029400Y-80088000D01*
X143029400Y-80088000D02*
X145569400Y-80088000D01*
X140489400Y-80088000D02*
X141759400Y-80088000D01*
X139930600Y-87708000D02*
X139930600Y-80088000D01*
X140489400Y-80088000D02*
X140489400Y-81358000D01*
X140489400Y-85168000D02*
X145569400Y-85168000D01*
X137390600Y-87708000D02*
X137390600Y-80088000D01*
X140489400Y-82628000D02*
X145569400Y-82628000D01*
X139930600Y-80088000D02*
X134850600Y-80088000D01*
X134850600Y-82628000D02*
X139930600Y-82628000D01*
X145569400Y-80088000D02*
X145569400Y-87708000D01*
X141759400Y-80088000D02*
X140489400Y-80088000D01*
D11*
X140425900Y-84787000D02*
X139981400Y-84787000D01*
X139981400Y-84787000D02*
X139981400Y-83009000D01*
X139981400Y-83009000D02*
X140425900Y-83009000D01*
X140425900Y-83009000D02*
X140425900Y-84787000D01*
G36*
X140425900Y-84787000D02*
G01*
X139981400Y-84787000D01*
X139981400Y-83009000D01*
X140425900Y-83009000D01*
X140425900Y-84787000D01*
G37*
X140425900Y-84787000D02*
X139981400Y-84787000D01*
X139981400Y-83009000D01*
X140425900Y-83009000D01*
X140425900Y-84787000D01*
D10*
%TO.C,L1*%
X136112000Y-110158000D02*
X136112000Y-103558000D01*
X142112000Y-103558000D02*
X142112000Y-110158000D01*
X140712000Y-103558000D02*
X142112000Y-103558000D01*
X142112000Y-110158000D02*
X140712000Y-110158000D01*
X137512000Y-110158000D02*
X136112000Y-110158000D01*
X136112000Y-103558000D02*
X137512000Y-103558000D01*
%TO.C,J2*%
X158750000Y-139800000D02*
X158750000Y-141600000D01*
X155380000Y-141600000D02*
X155130000Y-143100000D01*
X148450000Y-139800000D02*
X158750000Y-139800000D01*
X150300000Y-141600000D02*
X150050000Y-143100000D01*
X155130000Y-143100000D02*
X157130000Y-143100000D01*
X151800000Y-141600000D02*
X150300000Y-141600000D01*
X148450000Y-143100000D02*
X158750000Y-143100000D01*
X158750000Y-141600000D02*
X148450000Y-141600000D01*
X152050000Y-143100000D02*
X151800000Y-141600000D01*
X148450000Y-130880000D02*
X148450000Y-143100000D01*
X148450000Y-141600000D02*
X148450000Y-139800000D01*
X158750000Y-130880000D02*
X148450000Y-130880000D01*
X158750000Y-143100000D02*
X158750000Y-130880000D01*
X157130000Y-143100000D02*
X156880000Y-141600000D01*
X150050000Y-143100000D02*
X152050000Y-143100000D01*
X156880000Y-141600000D02*
X155380000Y-141600000D01*
%TO.C,JP1_D1*%
X160292000Y-120350000D02*
X160292000Y-117550000D01*
X162292000Y-120350000D02*
X160292000Y-120350000D01*
X162292000Y-117550000D02*
X162292000Y-120350000D01*
X160292000Y-117550000D02*
X162292000Y-117550000D01*
%TO.C,C7*%
X144877748Y-103281000D02*
X146300252Y-103281000D01*
X144877748Y-105101000D02*
X146300252Y-105101000D01*
%TO.C,U1*%
X145609000Y-117780000D02*
X145609000Y-119730000D01*
X140489000Y-117780000D02*
X140489000Y-115830000D01*
X140489000Y-117780000D02*
X140489000Y-121230000D01*
X145609000Y-117780000D02*
X145609000Y-115830000D01*
%TO.C,C6*%
X144559420Y-112194000D02*
X144840580Y-112194000D01*
X144559420Y-111174000D02*
X144840580Y-111174000D01*
%TO.C,C9*%
X148834180Y-71297600D02*
X148553020Y-71297600D01*
X148834180Y-72317600D02*
X148553020Y-72317600D01*
%TO.C,C10*%
X139561420Y-77038000D02*
X139842580Y-77038000D01*
X139561420Y-78058000D02*
X139842580Y-78058000D01*
%TD*%
%LPC*%
D16*
X144560663Y-92016527D02*
X143218245Y-92505127D01*
X142544570Y-89557792D01*
X146708532Y-91234767D02*
X146355655Y-89690924D01*
X146157253Y-89459086D01*
X145856690Y-89416457D01*
X145319723Y-89611897D01*
X145083319Y-89849966D01*
X146676452Y-91094417D02*
X146440049Y-91332487D01*
X145768840Y-91576787D01*
X145468276Y-91534158D01*
X145269875Y-91302319D01*
X145205715Y-91021620D01*
X145275797Y-90692062D01*
X145512201Y-90453992D01*
X146183410Y-90209692D01*
X146419814Y-89971623D01*
X147884629Y-90654677D02*
X148185192Y-90697307D01*
X148722159Y-90501866D01*
X148958563Y-90263797D01*
X149028645Y-89934238D01*
X148996566Y-89793889D01*
X148798164Y-89562051D01*
X148497601Y-89519421D01*
X148094875Y-89666001D01*
X147794312Y-89623372D01*
X147595911Y-89391534D01*
X147563831Y-89251184D01*
X147633913Y-88921626D01*
X147870317Y-88683556D01*
X148273042Y-88536976D01*
X148573606Y-88579605D01*
X150166739Y-89824057D02*
X150601545Y-89817826D01*
X151272754Y-89573526D01*
X151509157Y-89335457D01*
X151611319Y-89146247D01*
X151681402Y-88816689D01*
X151617242Y-88535990D01*
X151418841Y-88304152D01*
X151252519Y-88212662D01*
X150951956Y-88170033D01*
X150382909Y-88225124D01*
X150082345Y-88182495D01*
X149916024Y-88091005D01*
X149717622Y-87859167D01*
X149653463Y-87578468D01*
X149723545Y-87248909D01*
X149825707Y-87059700D01*
X150062111Y-86821631D01*
X150733320Y-86577331D01*
X151168125Y-86571100D01*
X152881189Y-85795570D02*
X153149672Y-85697850D01*
X153450236Y-85740480D01*
X153616557Y-85831969D01*
X153814959Y-86063807D01*
X154077519Y-86576345D01*
X154237918Y-87278091D01*
X154231996Y-87888348D01*
X154161914Y-88217907D01*
X154059752Y-88407116D01*
X153823348Y-88645186D01*
X153554864Y-88742906D01*
X153254301Y-88700276D01*
X153087979Y-88608787D01*
X152889578Y-88376949D01*
X152627017Y-87864411D01*
X152466618Y-87162665D01*
X152472540Y-86552408D01*
X152542623Y-86222849D01*
X152644785Y-86033640D01*
X152881189Y-85795570D01*
D11*
%TO.C,LOGO1*%
X157071600Y-91922800D02*
X157071600Y-108890000D01*
X157071600Y-108890000D02*
X161796000Y-108890000D01*
X161796000Y-108890000D02*
X161796000Y-91922800D01*
X161796000Y-91922800D02*
X157071600Y-91922800D01*
G36*
X161796000Y-108890000D02*
G01*
X157071600Y-108890000D01*
X157071600Y-91922800D01*
X161796000Y-91922800D01*
X161796000Y-108890000D01*
G37*
X161796000Y-108890000D02*
X157071600Y-108890000D01*
X157071600Y-91922800D01*
X161796000Y-91922800D01*
X161796000Y-108890000D01*
%TD*%
D17*
%TO.C,Y1*%
X143258000Y-77620000D03*
X143258000Y-73920000D03*
%TD*%
D18*
%TO.C,C11*%
X138927000Y-73992000D03*
X140477000Y-73992000D03*
%TD*%
D19*
%TO.C,J3*%
X145970000Y-66990000D03*
D20*
X140890000Y-66990000D03*
%TD*%
D21*
%TO.C,R12*%
X153101500Y-97234500D03*
X151451500Y-97234500D03*
%TD*%
D22*
%TO.C,U3*%
X148555400Y-73941200D03*
X148555400Y-75211200D03*
X148555400Y-76481200D03*
X148555400Y-77751200D03*
X148555400Y-79021200D03*
X148555400Y-80291200D03*
X148555400Y-81561200D03*
X153505400Y-81561200D03*
X153505400Y-80291200D03*
X153505400Y-79021200D03*
X153505400Y-77751200D03*
X153505400Y-76481200D03*
X153505400Y-75211200D03*
X153505400Y-73941200D03*
%TD*%
D23*
%TO.C,JP1_VCC1*%
X156212000Y-118225000D03*
D24*
X156212000Y-119675000D03*
%TD*%
D25*
%TO.C,C8*%
X144114000Y-106604000D03*
X147064000Y-106604000D03*
%TD*%
D26*
%TO.C,J10*%
X135638000Y-92788000D03*
%TD*%
D18*
%TO.C,C3*%
X140877000Y-113208000D03*
X142427000Y-113208000D03*
%TD*%
D27*
%TO.C,U2*%
X153590000Y-106284000D03*
X151050000Y-106284000D03*
X151050000Y-115814000D03*
X153590000Y-115814000D03*
%TD*%
D28*
%TO.C,R5*%
X158625000Y-75707000D03*
X158625000Y-77357000D03*
%TD*%
D29*
%TO.C,D1*%
X138223000Y-113494000D03*
X138223000Y-117494000D03*
%TD*%
D26*
%TO.C,J6*%
X135638000Y-90121000D03*
%TD*%
D30*
%TO.C,JP2_D1*%
X154143000Y-71198000D03*
D31*
X152693000Y-71198000D03*
%TD*%
D18*
%TO.C,C5*%
X143925000Y-113208000D03*
X145475000Y-113208000D03*
%TD*%
D32*
%TO.C,Q2*%
X153226500Y-100361000D03*
X151326500Y-100361000D03*
X152276500Y-102236000D03*
%TD*%
D26*
%TO.C,J9*%
X161292000Y-81612000D03*
%TD*%
D28*
%TO.C,R10*%
X158162000Y-113195800D03*
X158162000Y-114845800D03*
%TD*%
%TO.C,R4*%
X146986000Y-108510000D03*
X146986000Y-110160000D03*
%TD*%
D33*
%TO.C,C2*%
X142300000Y-122352000D03*
X140750000Y-122352000D03*
%TD*%
D29*
%TO.C,D3*%
X151177000Y-123590000D03*
X151177000Y-119590000D03*
%TD*%
D26*
%TO.C,J7*%
X161292000Y-76532000D03*
%TD*%
D34*
%TO.C,H2*%
X136860000Y-127990000D03*
%TD*%
D19*
%TO.C,J4*%
X156130000Y-66990000D03*
D20*
X151050000Y-66990000D03*
%TD*%
D35*
%TO.C,R1*%
X146986000Y-113208000D03*
X146986000Y-111558000D03*
%TD*%
D21*
%TO.C,R8*%
X147303000Y-100635000D03*
X145653000Y-100635000D03*
%TD*%
D26*
%TO.C,J8*%
X161292000Y-79072000D03*
%TD*%
D29*
%TO.C,D2*%
X137461000Y-96857000D03*
X137461000Y-100857000D03*
%TD*%
D33*
%TO.C,C1*%
X145348000Y-125908000D03*
X143798000Y-125908000D03*
%TD*%
D36*
%TO.C,LOGO1*%
X158544800Y-96215400D03*
D37*
X158544800Y-103835400D03*
D38*
X158544800Y-100895400D03*
X158544800Y-99155400D03*
%TD*%
D23*
%TO.C,JP1_PU1*%
X158752000Y-118225000D03*
D24*
X158752000Y-119675000D03*
%TD*%
D39*
%TO.C,R2*%
X143875000Y-108636000D03*
X145525000Y-108636000D03*
%TD*%
%TO.C,R3*%
X143875000Y-110160000D03*
X145525000Y-110160000D03*
%TD*%
D40*
%TO.C,J1*%
X140890000Y-132990000D03*
D20*
X145970000Y-132990000D03*
%TD*%
D28*
%TO.C,R9*%
X154180000Y-120765000D03*
X154180000Y-122415000D03*
%TD*%
D18*
%TO.C,C4*%
X143798000Y-122352000D03*
X145348000Y-122352000D03*
%TD*%
D26*
%TO.C,J5*%
X141759400Y-81358000D03*
D41*
X144299400Y-81358000D03*
X141759400Y-83898000D03*
X144299400Y-83898000D03*
X141759400Y-86438000D03*
X144299400Y-86438000D03*
%TD*%
D42*
%TO.C,L1*%
X139112000Y-104108000D03*
X139112000Y-109608000D03*
%TD*%
D40*
%TO.C,J2*%
X151050000Y-132990000D03*
D20*
X156130000Y-132990000D03*
%TD*%
D43*
%TO.C,JP1_D1*%
X161292000Y-119675000D03*
D44*
X161292000Y-118225000D03*
%TD*%
D25*
%TO.C,C7*%
X144114000Y-104191000D03*
X147064000Y-104191000D03*
%TD*%
D34*
%TO.C,H1*%
X160160000Y-72000000D03*
%TD*%
D45*
%TO.C,U1*%
X141144000Y-120255000D03*
X142414000Y-120255000D03*
X143684000Y-120255000D03*
X144954000Y-120255000D03*
X144954000Y-115305000D03*
X143684000Y-115305000D03*
X142414000Y-115305000D03*
X141144000Y-115305000D03*
%TD*%
D18*
%TO.C,C6*%
X143925000Y-111684000D03*
X145475000Y-111684000D03*
%TD*%
D33*
%TO.C,C9*%
X149468600Y-71807600D03*
X147918600Y-71807600D03*
%TD*%
D18*
%TO.C,C10*%
X138927000Y-77548000D03*
X140477000Y-77548000D03*
%TD*%
D46*
X149100000Y-98122000D03*
X138940000Y-75770000D03*
X157609000Y-125427000D03*
X135257000Y-78183000D03*
X160956000Y-113970000D03*
X155450000Y-74627000D03*
X140718000Y-75770000D03*
X140636000Y-117399000D03*
X147748000Y-83363000D03*
X158117000Y-83644000D03*
X149658800Y-111507800D03*
X139956000Y-95582000D03*
X160276000Y-89232000D03*
X151894000Y-73103000D03*
X146814000Y-77859989D03*
X151225900Y-79232100D03*
X152021000Y-76659000D03*
X155196000Y-79326000D03*
X150878000Y-80596000D03*
M02*
