%TF.GenerationSoftware,KiCad,Pcbnew,(5.99.0-11393-ga06b95bb1f)*%
%TF.CreationDate,2021-07-10T21:53:40+02:00*%
%TF.ProjectId,LasS0,4c617353-302e-46b6-9963-61645f706362,v0.1*%
%TF.SameCoordinates,Original*%
%TF.FileFunction,Copper,L2,Bot*%
%TF.FilePolarity,Positive*%
%FSLAX46Y46*%
G04 Gerber Fmt 4.6, Leading zero omitted, Abs format (unit mm)*
G04 Created by KiCad (PCBNEW (5.99.0-11393-ga06b95bb1f)) date 2021-07-10 21:53:40*
%MOMM*%
%LPD*%
G01*
G04 APERTURE LIST*
G04 Aperture macros list*
%AMRoundRect*
0 Rectangle with rounded corners*
0 $1 Rounding radius*
0 $2 $3 $4 $5 $6 $7 $8 $9 X,Y pos of 4 corners*
0 Add a 4 corners polygon primitive as box body*
4,1,4,$2,$3,$4,$5,$6,$7,$8,$9,$2,$3,0*
0 Add four circle primitives for the rounded corners*
1,1,$1+$1,$2,$3*
1,1,$1+$1,$4,$5*
1,1,$1+$1,$6,$7*
1,1,$1+$1,$8,$9*
0 Add four rect primitives between the rounded corners*
20,1,$1+$1,$2,$3,$4,$5,0*
20,1,$1+$1,$4,$5,$6,$7,0*
20,1,$1+$1,$6,$7,$8,$9,0*
20,1,$1+$1,$8,$9,$2,$3,0*%
G04 Aperture macros list end*
%TA.AperFunction,ComponentPad*%
%ADD10RoundRect,0.249999X0.790001X1.550001X-0.790001X1.550001X-0.790001X-1.550001X0.790001X-1.550001X0*%
%TD*%
%TA.AperFunction,ComponentPad*%
%ADD11O,2.080000X3.600000*%
%TD*%
%TA.AperFunction,ComponentPad*%
%ADD12R,1.700000X1.700000*%
%TD*%
%TA.AperFunction,ComponentPad*%
%ADD13O,1.600000X1.600000*%
%TD*%
%TA.AperFunction,ComponentPad*%
%ADD14C,1.600000*%
%TD*%
%TA.AperFunction,ComponentPad*%
%ADD15RoundRect,0.249999X-0.790001X-1.550001X0.790001X-1.550001X0.790001X1.550001X-0.790001X1.550001X0*%
%TD*%
%TA.AperFunction,ComponentPad*%
%ADD16O,1.700000X1.700000*%
%TD*%
%TA.AperFunction,ViaPad*%
%ADD17C,0.800000*%
%TD*%
%TA.AperFunction,Conductor*%
%ADD18C,0.250000*%
%TD*%
G04 APERTURE END LIST*
D10*
%TO.P,J3,1,Pin_1*%
%TO.N,GND*%
X145970000Y-66990000D03*
D11*
%TO.P,J3,2,Pin_2*%
%TO.N,+5V*%
X140890000Y-66990000D03*
%TD*%
D12*
%TO.P,J10,1,Pin_1*%
%TO.N,GND*%
X135638000Y-92788000D03*
%TD*%
%TO.P,J6,1,Pin_1*%
%TO.N,+5V*%
X135638000Y-90121000D03*
%TD*%
%TO.P,J9,1,Pin_1*%
%TO.N,Net-(J9-Pad1)*%
X161292000Y-81612000D03*
%TD*%
%TO.P,J7,1,Pin_1*%
%TO.N,Net-(J7-Pad1)*%
X161292000Y-76532000D03*
%TD*%
D10*
%TO.P,J4,1,Pin_1*%
%TO.N,/A0*%
X156130000Y-66990000D03*
D11*
%TO.P,J4,2,Pin_2*%
%TO.N,/D0*%
X151050000Y-66990000D03*
%TD*%
D12*
%TO.P,J8,1,Pin_1*%
%TO.N,Net-(J8-Pad1)*%
X161292000Y-79072000D03*
%TD*%
D13*
%TO.P,LOGO1,*%
%TO.N,*%
X158544800Y-96215400D03*
D14*
X158544800Y-103835400D03*
%TD*%
D15*
%TO.P,J1,1,Pin_1*%
%TO.N,VCC*%
X140890000Y-132990000D03*
D11*
%TO.P,J1,2,Pin_2*%
%TO.N,GND*%
X145970000Y-132990000D03*
%TD*%
D12*
%TO.P,J5,1,MISO*%
%TO.N,/MISO*%
X141759400Y-81358000D03*
D16*
%TO.P,J5,2,VCC*%
%TO.N,+5V*%
X144299400Y-81358000D03*
%TO.P,J5,3,SCK*%
%TO.N,/SCK*%
X141759400Y-83898000D03*
%TO.P,J5,4,MOSI*%
%TO.N,/MOSI*%
X144299400Y-83898000D03*
%TO.P,J5,5,RST*%
%TO.N,/RST*%
X141759400Y-86438000D03*
%TO.P,J5,6,GND*%
%TO.N,GND*%
X144299400Y-86438000D03*
%TD*%
D15*
%TO.P,J2,1,Pin_1*%
%TO.N,/S0-*%
X151050000Y-132990000D03*
D11*
%TO.P,J2,2,Pin_2*%
%TO.N,/S0+*%
X156130000Y-132990000D03*
%TD*%
D17*
%TO.N,GND*%
X149100000Y-98122000D03*
X138940000Y-75770000D03*
X157609000Y-125427000D03*
X135257000Y-78183000D03*
X160956000Y-113970000D03*
X155450000Y-74627000D03*
X140718000Y-75770000D03*
X140636000Y-117399000D03*
X147748000Y-83363000D03*
X158117000Y-83644000D03*
X149658800Y-111507800D03*
X139956000Y-95582000D03*
X160276000Y-89232000D03*
%TO.N,/A0*%
X151894000Y-73103000D03*
%TO.N,/RST*%
X146814000Y-77859989D03*
%TO.N,/SCK*%
X151225900Y-79232100D03*
%TO.N,Net-(J7-Pad1)*%
X152021000Y-76659000D03*
%TO.N,Net-(J8-Pad1)*%
X155196000Y-79326000D03*
%TO.N,Net-(J9-Pad1)*%
X150878000Y-80596000D03*
%TD*%
D18*
%TO.N,/A0*%
X151894000Y-73103000D02*
X155323000Y-73103000D01*
X156130000Y-72296000D02*
X156130000Y-66990000D01*
X155513500Y-72912500D02*
X156130000Y-72296000D01*
X155323000Y-73103000D02*
X155513500Y-72912500D01*
%TO.N,/RST*%
X141422011Y-77859989D02*
X139702000Y-79580000D01*
X139702000Y-79580000D02*
X139702000Y-84380600D01*
X139702000Y-84380600D02*
X141759400Y-86438000D01*
X146814000Y-77859989D02*
X141422011Y-77859989D01*
%TO.N,/SCK*%
X142908511Y-82748889D02*
X141759400Y-83898000D01*
X142908511Y-82723489D02*
X142908511Y-82748889D01*
X148939900Y-79232100D02*
X145448511Y-82723489D01*
X145448511Y-82723489D02*
X142908511Y-82723489D01*
X151225900Y-79232100D02*
X148939900Y-79232100D01*
%TO.N,Net-(J7-Pad1)*%
X152148000Y-76532000D02*
X161292000Y-76532000D01*
X152021000Y-76659000D02*
X152148000Y-76532000D01*
%TO.N,Net-(J8-Pad1)*%
X155958000Y-79072000D02*
X161292000Y-79072000D01*
X155704000Y-79326000D02*
X155958000Y-79072000D01*
X155196000Y-79326000D02*
X155704000Y-79326000D01*
%TO.N,Net-(J9-Pad1)*%
X151894000Y-81612000D02*
X161292000Y-81612000D01*
X150878000Y-80596000D02*
X151894000Y-81612000D01*
%TD*%
%TA.AperFunction,Conductor*%
%TO.N,GND*%
G36*
X160160000Y-59510848D02*
G01*
X160160000Y-59513000D01*
X160172648Y-59513355D01*
X160294137Y-59516764D01*
X160304708Y-59517506D01*
X160397327Y-59527941D01*
X160569556Y-59547347D01*
X160583486Y-59549714D01*
X160841596Y-59608626D01*
X160855173Y-59612538D01*
X161105054Y-59699975D01*
X161118108Y-59705382D01*
X161356634Y-59820250D01*
X161369001Y-59827085D01*
X161593159Y-59967933D01*
X161604682Y-59976109D01*
X161811678Y-60141182D01*
X161822214Y-60150598D01*
X162009402Y-60337786D01*
X162018818Y-60348322D01*
X162183891Y-60555318D01*
X162192067Y-60566841D01*
X162332915Y-60790999D01*
X162339750Y-60803366D01*
X162454618Y-61041892D01*
X162460025Y-61054946D01*
X162547462Y-61304827D01*
X162551374Y-61318404D01*
X162610286Y-61576514D01*
X162612653Y-61590444D01*
X162642494Y-61855289D01*
X162643236Y-61865863D01*
X162647000Y-62000000D01*
X162645604Y-62000039D01*
X162645611Y-62000294D01*
X162647858Y-62000000D01*
X162650937Y-62023548D01*
X162652000Y-62039884D01*
X162652000Y-70193618D01*
X162631998Y-70261739D01*
X162578342Y-70308232D01*
X162508068Y-70318336D01*
X162443488Y-70288842D01*
X162425174Y-70269183D01*
X162368542Y-70193618D01*
X162341020Y-70156896D01*
X162111088Y-69915022D01*
X162108256Y-69912666D01*
X162108251Y-69912662D01*
X161857344Y-69703985D01*
X161854508Y-69701626D01*
X161851422Y-69699618D01*
X161577867Y-69521630D01*
X161577864Y-69521628D01*
X161574782Y-69519623D01*
X161571484Y-69517990D01*
X161571478Y-69517986D01*
X161279039Y-69373135D01*
X161279032Y-69373132D01*
X161275733Y-69371498D01*
X161272261Y-69370258D01*
X161272258Y-69370257D01*
X161070597Y-69298251D01*
X160961444Y-69259276D01*
X160811242Y-69224737D01*
X160639798Y-69185313D01*
X160639789Y-69185312D01*
X160636208Y-69184488D01*
X160632551Y-69184087D01*
X160632548Y-69184087D01*
X160308139Y-69148559D01*
X160308138Y-69148559D01*
X160304468Y-69148157D01*
X160300775Y-69148186D01*
X159974442Y-69150749D01*
X159974441Y-69150749D01*
X159970755Y-69150778D01*
X159967096Y-69151237D01*
X159643283Y-69191857D01*
X159643279Y-69191858D01*
X159639626Y-69192316D01*
X159636055Y-69193196D01*
X159636052Y-69193197D01*
X159319181Y-69271321D01*
X159319172Y-69271324D01*
X159315606Y-69272203D01*
X159312155Y-69273497D01*
X159312154Y-69273497D01*
X159046367Y-69373135D01*
X159003118Y-69389348D01*
X158999842Y-69391035D01*
X158999838Y-69391037D01*
X158934866Y-69424500D01*
X158706432Y-69542151D01*
X158429600Y-69728525D01*
X158176403Y-69945925D01*
X157950299Y-70191381D01*
X157754377Y-70461540D01*
X157591313Y-70752712D01*
X157589905Y-70756102D01*
X157589901Y-70756111D01*
X157464742Y-71057527D01*
X157463333Y-71060921D01*
X157372187Y-71381957D01*
X157319118Y-71711434D01*
X157304852Y-72044852D01*
X157329584Y-72377658D01*
X157330283Y-72381272D01*
X157330284Y-72381278D01*
X157368819Y-72580449D01*
X157392976Y-72705306D01*
X157394089Y-72708804D01*
X157394091Y-72708812D01*
X157461171Y-72919637D01*
X157494161Y-73023320D01*
X157631759Y-73327356D01*
X157803888Y-73613263D01*
X157806134Y-73616164D01*
X157806139Y-73616171D01*
X158005943Y-73874221D01*
X158005950Y-73874228D01*
X158008200Y-73877135D01*
X158241902Y-74115368D01*
X158501803Y-74324707D01*
X158504918Y-74326665D01*
X158504921Y-74326667D01*
X158781227Y-74500330D01*
X158784352Y-74502294D01*
X159085692Y-74645703D01*
X159401705Y-74752974D01*
X159728075Y-74822644D01*
X159841554Y-74833271D01*
X160056678Y-74853418D01*
X160056683Y-74853418D01*
X160060344Y-74853761D01*
X160265754Y-74848920D01*
X160390290Y-74845985D01*
X160390293Y-74845985D01*
X160393975Y-74845898D01*
X160724411Y-74799164D01*
X160727967Y-74798228D01*
X160727971Y-74798227D01*
X161043574Y-74715136D01*
X161043573Y-74715136D01*
X161047137Y-74714198D01*
X161170884Y-74665577D01*
X161354318Y-74593506D01*
X161354325Y-74593503D01*
X161357745Y-74592159D01*
X161651995Y-74434714D01*
X161925865Y-74244014D01*
X161928615Y-74241577D01*
X161928621Y-74241572D01*
X162172864Y-74025103D01*
X162175616Y-74022664D01*
X162397837Y-73773687D01*
X162422850Y-73738031D01*
X162478346Y-73693751D01*
X162548972Y-73686504D01*
X162612304Y-73718590D01*
X162648235Y-73779823D01*
X162652000Y-73810392D01*
X162652000Y-75175474D01*
X162631998Y-75243595D01*
X162578342Y-75290088D01*
X162508068Y-75300192D01*
X162443487Y-75270698D01*
X162426430Y-75255918D01*
X162419619Y-75250016D01*
X162286670Y-75189300D01*
X162277755Y-75188018D01*
X162277754Y-75188018D01*
X162146448Y-75169139D01*
X162146441Y-75169138D01*
X162142000Y-75168500D01*
X160442000Y-75168500D01*
X160368921Y-75173727D01*
X160315884Y-75189300D01*
X160237330Y-75212365D01*
X160237328Y-75212366D01*
X160228684Y-75214904D01*
X160221105Y-75219775D01*
X160113309Y-75289051D01*
X160113306Y-75289053D01*
X160105729Y-75293923D01*
X160099828Y-75300733D01*
X160015918Y-75397569D01*
X160015916Y-75397572D01*
X160010016Y-75404381D01*
X159949300Y-75537330D01*
X159948018Y-75546245D01*
X159948018Y-75546246D01*
X159929139Y-75677552D01*
X159929138Y-75677559D01*
X159928500Y-75682000D01*
X159928500Y-75772500D01*
X159908498Y-75840621D01*
X159854842Y-75887114D01*
X159802500Y-75898500D01*
X152560827Y-75898500D01*
X152486768Y-75874437D01*
X152483094Y-75871768D01*
X152483090Y-75871766D01*
X152477750Y-75867886D01*
X152471722Y-75865202D01*
X152309318Y-75792895D01*
X152309317Y-75792895D01*
X152303287Y-75790210D01*
X152209887Y-75770357D01*
X152122944Y-75751876D01*
X152122939Y-75751876D01*
X152116487Y-75750504D01*
X151925513Y-75750504D01*
X151919061Y-75751876D01*
X151919056Y-75751876D01*
X151832113Y-75770357D01*
X151738713Y-75790210D01*
X151732683Y-75792895D01*
X151732682Y-75792895D01*
X151570280Y-75865201D01*
X151570278Y-75865202D01*
X151564250Y-75867886D01*
X151558909Y-75871766D01*
X151558908Y-75871767D01*
X151415093Y-75976254D01*
X151415091Y-75976256D01*
X151409749Y-75980137D01*
X151281963Y-76122058D01*
X151186476Y-76287446D01*
X151127462Y-76469073D01*
X151107500Y-76659000D01*
X151127462Y-76848927D01*
X151186476Y-77030554D01*
X151281963Y-77195942D01*
X151286381Y-77200849D01*
X151286382Y-77200850D01*
X151405327Y-77332952D01*
X151409749Y-77337863D01*
X151415091Y-77341744D01*
X151415093Y-77341746D01*
X151496171Y-77400652D01*
X151564250Y-77450114D01*
X151570278Y-77452798D01*
X151570280Y-77452799D01*
X151732682Y-77525105D01*
X151738713Y-77527790D01*
X151832113Y-77547643D01*
X151919056Y-77566124D01*
X151919061Y-77566124D01*
X151925513Y-77567496D01*
X152116487Y-77567496D01*
X152122939Y-77566124D01*
X152122944Y-77566124D01*
X152209887Y-77547643D01*
X152303287Y-77527790D01*
X152309318Y-77525105D01*
X152471720Y-77452799D01*
X152471722Y-77452798D01*
X152477750Y-77450114D01*
X152545829Y-77400652D01*
X152626907Y-77341746D01*
X152626909Y-77341744D01*
X152632251Y-77337863D01*
X152639380Y-77329946D01*
X152721125Y-77239158D01*
X152749910Y-77207190D01*
X152810355Y-77169950D01*
X152843545Y-77165500D01*
X159802500Y-77165500D01*
X159870621Y-77185502D01*
X159917114Y-77239158D01*
X159928500Y-77291500D01*
X159928500Y-77382000D01*
X159933727Y-77455079D01*
X159935631Y-77461562D01*
X159966333Y-77566124D01*
X159974904Y-77595316D01*
X159979775Y-77602895D01*
X160049051Y-77710691D01*
X160049053Y-77710694D01*
X160053923Y-77718271D01*
X160059598Y-77723188D01*
X160088776Y-77787077D01*
X160078674Y-77857351D01*
X160059283Y-77887524D01*
X160015918Y-77937569D01*
X160015916Y-77937572D01*
X160010016Y-77944381D01*
X159949300Y-78077330D01*
X159948018Y-78086245D01*
X159948018Y-78086246D01*
X159929139Y-78217552D01*
X159929138Y-78217559D01*
X159928500Y-78222000D01*
X159928500Y-78312500D01*
X159908498Y-78380621D01*
X159854842Y-78427114D01*
X159802500Y-78438500D01*
X156036383Y-78438500D01*
X156025479Y-78437986D01*
X156018088Y-78436334D01*
X156010162Y-78436583D01*
X156010161Y-78436583D01*
X155951134Y-78438438D01*
X155947176Y-78438500D01*
X155918422Y-78438500D01*
X155914155Y-78439039D01*
X155902313Y-78439972D01*
X155870665Y-78440967D01*
X155866040Y-78441112D01*
X155858117Y-78441361D01*
X155838667Y-78447012D01*
X155819305Y-78451022D01*
X155799212Y-78453560D01*
X155783212Y-78459895D01*
X155758108Y-78469834D01*
X155746878Y-78473679D01*
X155712034Y-78483802D01*
X155712032Y-78483803D01*
X155704421Y-78486014D01*
X155691063Y-78493914D01*
X155622247Y-78511375D01*
X155575673Y-78500569D01*
X155484318Y-78459895D01*
X155484317Y-78459895D01*
X155478287Y-78457210D01*
X155380074Y-78436334D01*
X155297944Y-78418876D01*
X155297939Y-78418876D01*
X155291487Y-78417504D01*
X155100513Y-78417504D01*
X155094061Y-78418876D01*
X155094056Y-78418876D01*
X155011926Y-78436334D01*
X154913713Y-78457210D01*
X154907683Y-78459895D01*
X154907682Y-78459895D01*
X154745280Y-78532201D01*
X154745278Y-78532202D01*
X154739250Y-78534886D01*
X154733909Y-78538766D01*
X154733908Y-78538767D01*
X154590093Y-78643254D01*
X154590091Y-78643256D01*
X154584749Y-78647137D01*
X154580328Y-78652047D01*
X154580327Y-78652048D01*
X154477136Y-78766654D01*
X154456963Y-78789058D01*
X154361476Y-78954446D01*
X154302462Y-79136073D01*
X154282500Y-79326000D01*
X154283190Y-79332565D01*
X154295064Y-79445535D01*
X154302462Y-79515927D01*
X154361476Y-79697554D01*
X154364779Y-79703276D01*
X154364780Y-79703277D01*
X154367726Y-79708379D01*
X154456963Y-79862942D01*
X154461381Y-79867849D01*
X154461382Y-79867850D01*
X154580327Y-79999952D01*
X154584749Y-80004863D01*
X154590091Y-80008744D01*
X154590093Y-80008746D01*
X154706189Y-80093094D01*
X154739250Y-80117114D01*
X154745278Y-80119798D01*
X154745280Y-80119799D01*
X154878942Y-80179309D01*
X154913713Y-80194790D01*
X155007113Y-80214643D01*
X155094056Y-80233124D01*
X155094061Y-80233124D01*
X155100513Y-80234496D01*
X155291487Y-80234496D01*
X155297939Y-80233124D01*
X155297944Y-80233124D01*
X155384887Y-80214643D01*
X155478287Y-80194790D01*
X155513058Y-80179309D01*
X155646720Y-80119799D01*
X155646722Y-80119798D01*
X155652750Y-80117114D01*
X155685811Y-80093094D01*
X155801907Y-80008746D01*
X155801909Y-80008744D01*
X155807251Y-80004863D01*
X155841255Y-79967098D01*
X155888507Y-79934257D01*
X155903902Y-79928162D01*
X155915130Y-79924318D01*
X155915364Y-79924250D01*
X155957578Y-79911986D01*
X155967612Y-79906052D01*
X155975011Y-79901677D01*
X155992762Y-79892981D01*
X156004226Y-79888442D01*
X156004229Y-79888440D01*
X156011600Y-79885522D01*
X156047368Y-79859535D01*
X156057291Y-79853016D01*
X156095341Y-79830514D01*
X156095759Y-79830145D01*
X156109842Y-79816062D01*
X156124867Y-79803228D01*
X156141083Y-79791446D01*
X156169030Y-79757664D01*
X156177019Y-79748885D01*
X156183499Y-79742405D01*
X156245811Y-79708379D01*
X156272594Y-79705500D01*
X159802500Y-79705500D01*
X159870621Y-79725502D01*
X159917114Y-79779158D01*
X159928500Y-79831500D01*
X159928500Y-79922000D01*
X159933727Y-79995079D01*
X159951123Y-80054324D01*
X159968954Y-80115051D01*
X159974904Y-80135316D01*
X159979775Y-80142895D01*
X160049051Y-80250691D01*
X160049053Y-80250694D01*
X160053923Y-80258271D01*
X160059598Y-80263188D01*
X160088776Y-80327077D01*
X160078674Y-80397351D01*
X160059283Y-80427524D01*
X160015918Y-80477569D01*
X160015916Y-80477572D01*
X160010016Y-80484381D01*
X160006272Y-80492579D01*
X159999230Y-80508000D01*
X159949300Y-80617330D01*
X159948018Y-80626245D01*
X159948018Y-80626246D01*
X159929139Y-80757552D01*
X159929138Y-80757559D01*
X159928500Y-80762000D01*
X159928500Y-80852500D01*
X159908498Y-80920621D01*
X159854842Y-80967114D01*
X159802500Y-80978500D01*
X152208594Y-80978500D01*
X152140473Y-80958498D01*
X152119499Y-80941595D01*
X151825118Y-80647214D01*
X151791092Y-80584902D01*
X151788903Y-80571290D01*
X151772228Y-80412637D01*
X151772228Y-80412636D01*
X151771538Y-80406073D01*
X151712524Y-80224446D01*
X151697932Y-80199171D01*
X151678573Y-80165641D01*
X151661835Y-80096646D01*
X151685056Y-80029554D01*
X151713631Y-80000705D01*
X151714668Y-79999952D01*
X151798206Y-79939258D01*
X151831807Y-79914846D01*
X151831809Y-79914844D01*
X151837151Y-79910963D01*
X151845512Y-79901677D01*
X151960518Y-79773950D01*
X151960519Y-79773949D01*
X151964937Y-79769042D01*
X152060424Y-79603654D01*
X152091061Y-79509363D01*
X152117398Y-79428306D01*
X152117398Y-79428305D01*
X152119438Y-79422027D01*
X152139400Y-79232100D01*
X152119438Y-79042173D01*
X152060424Y-78860546D01*
X151964937Y-78695158D01*
X151927688Y-78653788D01*
X151841573Y-78558148D01*
X151841572Y-78558147D01*
X151837151Y-78553237D01*
X151831809Y-78549356D01*
X151831807Y-78549354D01*
X151687992Y-78444867D01*
X151687991Y-78444866D01*
X151682650Y-78440986D01*
X151676622Y-78438302D01*
X151676620Y-78438301D01*
X151514218Y-78365995D01*
X151514217Y-78365995D01*
X151508187Y-78363310D01*
X151414787Y-78343457D01*
X151327844Y-78324976D01*
X151327839Y-78324976D01*
X151321387Y-78323604D01*
X151130413Y-78323604D01*
X151123961Y-78324976D01*
X151123956Y-78324976D01*
X151037013Y-78343457D01*
X150943613Y-78363310D01*
X150937583Y-78365995D01*
X150937582Y-78365995D01*
X150775180Y-78438301D01*
X150775178Y-78438302D01*
X150769150Y-78440986D01*
X150763809Y-78444866D01*
X150763808Y-78444867D01*
X150619993Y-78549354D01*
X150619991Y-78549356D01*
X150614649Y-78553237D01*
X150610228Y-78558147D01*
X150605325Y-78562562D01*
X150604199Y-78561311D01*
X150550900Y-78594149D01*
X150517706Y-78598600D01*
X149018296Y-78598600D01*
X149007382Y-78598086D01*
X148999989Y-78596433D01*
X148992064Y-78596682D01*
X148992063Y-78596682D01*
X148933016Y-78598538D01*
X148929058Y-78598600D01*
X148900322Y-78598600D01*
X148896051Y-78599139D01*
X148884222Y-78600071D01*
X148840017Y-78601461D01*
X148832401Y-78603674D01*
X148832399Y-78603674D01*
X148820561Y-78607113D01*
X148801202Y-78611122D01*
X148788979Y-78612666D01*
X148788978Y-78612666D01*
X148781112Y-78613660D01*
X148773736Y-78616580D01*
X148773737Y-78616580D01*
X148740011Y-78629932D01*
X148728782Y-78633777D01*
X148693935Y-78643901D01*
X148693934Y-78643902D01*
X148686322Y-78646113D01*
X148679499Y-78650148D01*
X148668883Y-78656426D01*
X148651131Y-78665122D01*
X148632300Y-78672578D01*
X148609881Y-78688866D01*
X148596529Y-78698567D01*
X148586611Y-78705082D01*
X148548559Y-78727586D01*
X148548141Y-78727955D01*
X148534058Y-78742038D01*
X148519033Y-78754872D01*
X148502817Y-78766654D01*
X148474871Y-78800435D01*
X148466881Y-78809215D01*
X145874580Y-81401516D01*
X145812268Y-81435542D01*
X145741453Y-81430477D01*
X145684617Y-81387930D01*
X145659936Y-81323073D01*
X145643858Y-81133577D01*
X145643857Y-81133574D01*
X145643407Y-81128265D01*
X145585484Y-80905098D01*
X145561791Y-80852500D01*
X145492978Y-80699743D01*
X145492977Y-80699741D01*
X145490788Y-80694882D01*
X145479738Y-80678468D01*
X145458696Y-80647214D01*
X145362027Y-80503626D01*
X145202882Y-80336799D01*
X145166967Y-80310077D01*
X145022186Y-80202357D01*
X145022187Y-80202357D01*
X145017904Y-80199171D01*
X145013153Y-80196755D01*
X145013149Y-80196753D01*
X144817140Y-80097097D01*
X144817139Y-80097097D01*
X144812382Y-80094678D01*
X144688920Y-80056342D01*
X144597295Y-80027891D01*
X144597289Y-80027890D01*
X144592192Y-80026307D01*
X144487198Y-80012391D01*
X144368915Y-79996714D01*
X144368910Y-79996714D01*
X144363630Y-79996014D01*
X144358300Y-79996214D01*
X144358299Y-79996214D01*
X144264720Y-79999727D01*
X144133231Y-80004663D01*
X144113772Y-80008746D01*
X143912811Y-80050912D01*
X143912808Y-80050913D01*
X143907584Y-80052009D01*
X143693140Y-80136697D01*
X143496031Y-80256306D01*
X143492001Y-80259803D01*
X143333490Y-80397351D01*
X143321892Y-80407415D01*
X143316739Y-80413700D01*
X143315764Y-80414365D01*
X143314790Y-80415366D01*
X143314586Y-80415168D01*
X143258081Y-80453695D01*
X143187110Y-80455628D01*
X143126361Y-80418885D01*
X143098408Y-80369309D01*
X143086007Y-80327077D01*
X143076496Y-80294684D01*
X143037815Y-80234496D01*
X143002349Y-80179309D01*
X143002347Y-80179306D01*
X142997477Y-80171729D01*
X142959539Y-80138855D01*
X142893831Y-80081918D01*
X142893828Y-80081916D01*
X142887019Y-80076016D01*
X142843939Y-80056342D01*
X142762264Y-80019042D01*
X142762263Y-80019042D01*
X142754070Y-80015300D01*
X142745155Y-80014018D01*
X142745154Y-80014018D01*
X142613848Y-79995139D01*
X142613841Y-79995138D01*
X142609400Y-79994500D01*
X140909400Y-79994500D01*
X140836321Y-79999727D01*
X140783284Y-80015300D01*
X140704730Y-80038365D01*
X140704728Y-80038366D01*
X140696084Y-80040904D01*
X140675750Y-80053972D01*
X140580709Y-80115051D01*
X140580706Y-80115053D01*
X140573129Y-80119923D01*
X140567228Y-80126733D01*
X140556724Y-80138855D01*
X140496997Y-80177238D01*
X140426000Y-80177238D01*
X140366275Y-80138854D01*
X140336782Y-80074272D01*
X140335500Y-80056342D01*
X140335500Y-79894594D01*
X140355502Y-79826473D01*
X140372405Y-79805499D01*
X141647510Y-78530394D01*
X141709822Y-78496368D01*
X141736605Y-78493489D01*
X146105806Y-78493489D01*
X146173927Y-78513491D01*
X146193151Y-78529831D01*
X146193425Y-78529527D01*
X146198327Y-78533941D01*
X146202749Y-78538852D01*
X146208091Y-78542733D01*
X146208093Y-78542735D01*
X146347337Y-78643901D01*
X146357250Y-78651103D01*
X146363278Y-78653787D01*
X146363280Y-78653788D01*
X146471694Y-78702057D01*
X146531713Y-78728779D01*
X146625113Y-78748632D01*
X146712056Y-78767113D01*
X146712061Y-78767113D01*
X146718513Y-78768485D01*
X146909487Y-78768485D01*
X146915939Y-78767113D01*
X146915944Y-78767113D01*
X147002887Y-78748632D01*
X147096287Y-78728779D01*
X147156306Y-78702057D01*
X147264720Y-78653788D01*
X147264722Y-78653787D01*
X147270750Y-78651103D01*
X147280663Y-78643901D01*
X147419907Y-78542735D01*
X147419909Y-78542733D01*
X147425251Y-78538852D01*
X147433647Y-78529527D01*
X147548618Y-78401839D01*
X147548619Y-78401838D01*
X147553037Y-78396931D01*
X147648524Y-78231543D01*
X147707538Y-78049916D01*
X147717769Y-77952579D01*
X147726810Y-77866554D01*
X147727500Y-77859989D01*
X147707538Y-77670062D01*
X147648524Y-77488435D01*
X147553037Y-77323047D01*
X147497770Y-77261666D01*
X147429673Y-77186037D01*
X147429672Y-77186036D01*
X147425251Y-77181126D01*
X147419909Y-77177245D01*
X147419907Y-77177243D01*
X147276092Y-77072756D01*
X147276091Y-77072755D01*
X147270750Y-77068875D01*
X147264722Y-77066191D01*
X147264720Y-77066190D01*
X147102318Y-76993884D01*
X147102317Y-76993884D01*
X147096287Y-76991199D01*
X147002887Y-76971346D01*
X146915944Y-76952865D01*
X146915939Y-76952865D01*
X146909487Y-76951493D01*
X146718513Y-76951493D01*
X146712061Y-76952865D01*
X146712056Y-76952865D01*
X146625113Y-76971346D01*
X146531713Y-76991199D01*
X146525683Y-76993884D01*
X146525682Y-76993884D01*
X146363280Y-77066190D01*
X146363278Y-77066191D01*
X146357250Y-77068875D01*
X146351909Y-77072755D01*
X146351908Y-77072756D01*
X146208093Y-77177243D01*
X146208091Y-77177245D01*
X146202749Y-77181126D01*
X146198328Y-77186036D01*
X146193425Y-77190451D01*
X146192299Y-77189200D01*
X146139000Y-77222038D01*
X146105806Y-77226489D01*
X141500395Y-77226489D01*
X141489491Y-77225975D01*
X141482100Y-77224323D01*
X141474174Y-77224572D01*
X141474173Y-77224572D01*
X141415145Y-77226427D01*
X141411188Y-77226489D01*
X141382433Y-77226489D01*
X141378166Y-77227028D01*
X141366324Y-77227961D01*
X141322128Y-77229350D01*
X141314511Y-77231563D01*
X141302672Y-77235002D01*
X141283313Y-77239011D01*
X141271090Y-77240555D01*
X141271089Y-77240555D01*
X141263223Y-77241549D01*
X141255847Y-77244469D01*
X141255848Y-77244469D01*
X141222122Y-77257821D01*
X141210893Y-77261666D01*
X141176046Y-77271790D01*
X141176045Y-77271791D01*
X141168433Y-77274002D01*
X141161610Y-77278037D01*
X141150994Y-77284315D01*
X141133242Y-77293011D01*
X141114411Y-77300467D01*
X141091992Y-77316755D01*
X141078640Y-77326456D01*
X141068722Y-77332971D01*
X141030670Y-77355475D01*
X141030252Y-77355844D01*
X141016169Y-77369927D01*
X141001144Y-77382761D01*
X140984928Y-77394543D01*
X140956982Y-77428324D01*
X140948992Y-77437104D01*
X139309487Y-79076609D01*
X139301399Y-79083969D01*
X139295005Y-79088027D01*
X139289580Y-79093804D01*
X139249131Y-79136878D01*
X139246376Y-79139720D01*
X139226062Y-79160034D01*
X139223417Y-79163445D01*
X139215713Y-79172465D01*
X139185443Y-79204699D01*
X139181626Y-79211643D01*
X139181624Y-79211645D01*
X139175682Y-79222453D01*
X139164828Y-79238977D01*
X139152417Y-79254977D01*
X139149270Y-79262248D01*
X139149270Y-79262249D01*
X139134859Y-79295551D01*
X139129638Y-79306207D01*
X139108338Y-79344952D01*
X139106366Y-79352635D01*
X139106365Y-79352636D01*
X139103301Y-79364568D01*
X139096897Y-79383272D01*
X139092001Y-79394585D01*
X139091999Y-79394592D01*
X139088852Y-79401864D01*
X139087613Y-79409688D01*
X139087612Y-79409691D01*
X139081935Y-79445535D01*
X139079528Y-79457156D01*
X139070013Y-79494218D01*
X139068535Y-79499975D01*
X139068500Y-79500531D01*
X139068500Y-79520452D01*
X139066949Y-79540162D01*
X139063816Y-79559944D01*
X139064562Y-79567836D01*
X139067941Y-79603582D01*
X139068500Y-79615440D01*
X139068500Y-84302216D01*
X139067986Y-84313120D01*
X139066334Y-84320511D01*
X139066583Y-84328437D01*
X139066583Y-84328438D01*
X139068438Y-84387466D01*
X139068500Y-84391423D01*
X139068500Y-84420178D01*
X139068996Y-84424103D01*
X139068996Y-84424104D01*
X139069039Y-84424443D01*
X139069972Y-84436287D01*
X139071361Y-84480483D01*
X139073573Y-84488095D01*
X139077012Y-84499933D01*
X139081022Y-84519295D01*
X139083560Y-84539388D01*
X139086476Y-84546753D01*
X139086477Y-84546757D01*
X139099837Y-84580501D01*
X139103681Y-84591728D01*
X139116014Y-84634178D01*
X139120052Y-84641006D01*
X139126323Y-84651611D01*
X139135019Y-84669362D01*
X139139558Y-84680826D01*
X139142478Y-84688200D01*
X139147139Y-84694615D01*
X139168465Y-84723967D01*
X139174983Y-84733890D01*
X139197486Y-84771941D01*
X139197855Y-84772359D01*
X139211938Y-84786442D01*
X139224772Y-84801467D01*
X139236554Y-84817683D01*
X139270335Y-84845629D01*
X139279115Y-84853619D01*
X140406353Y-85980857D01*
X140440379Y-86043169D01*
X140441247Y-86092373D01*
X140425397Y-86180027D01*
X140401951Y-86309683D01*
X140399738Y-86540233D01*
X140436402Y-86767861D01*
X140510894Y-86986056D01*
X140621085Y-87188580D01*
X140763824Y-87369644D01*
X140767789Y-87373220D01*
X140931059Y-87520489D01*
X140931065Y-87520494D01*
X140935029Y-87524069D01*
X141129806Y-87647439D01*
X141342584Y-87736228D01*
X141347787Y-87737425D01*
X141347792Y-87737426D01*
X141562078Y-87786701D01*
X141562083Y-87786702D01*
X141567281Y-87787897D01*
X141572609Y-87788200D01*
X141572612Y-87788200D01*
X141728693Y-87797063D01*
X141797471Y-87800968D01*
X141802778Y-87800368D01*
X141802780Y-87800368D01*
X141923672Y-87786701D01*
X142026573Y-87775068D01*
X142031688Y-87773587D01*
X142031692Y-87773586D01*
X142156561Y-87737426D01*
X142248035Y-87710937D01*
X142455525Y-87610409D01*
X142459863Y-87607309D01*
X142459868Y-87607306D01*
X142638770Y-87479459D01*
X142643111Y-87476357D01*
X142805430Y-87312617D01*
X142927353Y-87138816D01*
X142982849Y-87094536D01*
X143053475Y-87087289D01*
X143116807Y-87119375D01*
X143141181Y-87150958D01*
X143158950Y-87183617D01*
X143164802Y-87192491D01*
X143300886Y-87365113D01*
X143308150Y-87372875D01*
X143471367Y-87520094D01*
X143479844Y-87526528D01*
X143665522Y-87644136D01*
X143674967Y-87649053D01*
X143877806Y-87733694D01*
X143887945Y-87736950D01*
X144027745Y-87769096D01*
X144041822Y-87768257D01*
X144045400Y-87758999D01*
X144045400Y-86705548D01*
X144553400Y-86705548D01*
X144553400Y-87757941D01*
X144557551Y-87772079D01*
X144568198Y-87773774D01*
X144571592Y-87773096D01*
X144782733Y-87711954D01*
X144792659Y-87708143D01*
X144990465Y-87612307D01*
X144999612Y-87606876D01*
X145178441Y-87479083D01*
X145186549Y-87472182D01*
X145341293Y-87316082D01*
X145348106Y-87307933D01*
X145474340Y-87127988D01*
X145479695Y-87118787D01*
X145573799Y-86920156D01*
X145577523Y-86910197D01*
X145635368Y-86703718D01*
X145633830Y-86695351D01*
X145621537Y-86692000D01*
X144571515Y-86692000D01*
X144556276Y-86696475D01*
X144555071Y-86697865D01*
X144553400Y-86705548D01*
X144045400Y-86705548D01*
X144045400Y-86310000D01*
X144065402Y-86241879D01*
X144119058Y-86195386D01*
X144171400Y-86184000D01*
X145618479Y-86184000D01*
X145632010Y-86180027D01*
X145633276Y-86171218D01*
X145586354Y-85990433D01*
X145582819Y-85980395D01*
X145492547Y-85779998D01*
X145487367Y-85770692D01*
X145364618Y-85588366D01*
X145357957Y-85580080D01*
X145206230Y-85421030D01*
X145198273Y-85413990D01*
X145021924Y-85282783D01*
X145009381Y-85275005D01*
X144962028Y-85222107D01*
X144950791Y-85152005D01*
X144979238Y-85086957D01*
X145002522Y-85065409D01*
X145183111Y-84936357D01*
X145300755Y-84817683D01*
X145341677Y-84776403D01*
X145341678Y-84776402D01*
X145345430Y-84772617D01*
X145447886Y-84626566D01*
X145474775Y-84588236D01*
X145474776Y-84588234D01*
X145477839Y-84583868D01*
X145576553Y-84375508D01*
X145638749Y-84153494D01*
X145662649Y-83924176D01*
X145662900Y-83898000D01*
X145662650Y-83895052D01*
X145643858Y-83673576D01*
X145643857Y-83673572D01*
X145643407Y-83668265D01*
X145591683Y-83468982D01*
X145593930Y-83398021D01*
X145634184Y-83339540D01*
X145678490Y-83316331D01*
X145694473Y-83311688D01*
X145694476Y-83311687D01*
X145702089Y-83309475D01*
X145708917Y-83305437D01*
X145719522Y-83299166D01*
X145737273Y-83290470D01*
X145748737Y-83285931D01*
X145748740Y-83285929D01*
X145756111Y-83283011D01*
X145791879Y-83257024D01*
X145801802Y-83250505D01*
X145839852Y-83228003D01*
X145840270Y-83227634D01*
X145854353Y-83213551D01*
X145869378Y-83200717D01*
X145885594Y-83188935D01*
X145913541Y-83155153D01*
X145921530Y-83146374D01*
X149165399Y-79902505D01*
X149227711Y-79868479D01*
X149254494Y-79865600D01*
X150033083Y-79865600D01*
X150101204Y-79885602D01*
X150147697Y-79939258D01*
X150157801Y-80009532D01*
X150137939Y-80058467D01*
X150138963Y-80059058D01*
X150058069Y-80199171D01*
X150043476Y-80224446D01*
X149984462Y-80406073D01*
X149983772Y-80412636D01*
X149983772Y-80412637D01*
X149969473Y-80548684D01*
X149964500Y-80596000D01*
X149984462Y-80785927D01*
X150043476Y-80967554D01*
X150138963Y-81132942D01*
X150266749Y-81274863D01*
X150272091Y-81278744D01*
X150272093Y-81278746D01*
X150381178Y-81358000D01*
X150421250Y-81387114D01*
X150427278Y-81389798D01*
X150427280Y-81389799D01*
X150530021Y-81435542D01*
X150595713Y-81464790D01*
X150689113Y-81484643D01*
X150776056Y-81503124D01*
X150776061Y-81503124D01*
X150782513Y-81504496D01*
X150838402Y-81504496D01*
X150906523Y-81524498D01*
X150927497Y-81541401D01*
X151390609Y-82004513D01*
X151397969Y-82012601D01*
X151402027Y-82018995D01*
X151407804Y-82024420D01*
X151450878Y-82064869D01*
X151453720Y-82067624D01*
X151474034Y-82087938D01*
X151477445Y-82090583D01*
X151486465Y-82098287D01*
X151518699Y-82128557D01*
X151525643Y-82132374D01*
X151525645Y-82132376D01*
X151536453Y-82138318D01*
X151552977Y-82149172D01*
X151568977Y-82161583D01*
X151576248Y-82164730D01*
X151576249Y-82164730D01*
X151609551Y-82179141D01*
X151620207Y-82184362D01*
X151658952Y-82205662D01*
X151666635Y-82207634D01*
X151666636Y-82207635D01*
X151678568Y-82210699D01*
X151697272Y-82217103D01*
X151708585Y-82221999D01*
X151708592Y-82222001D01*
X151715864Y-82225148D01*
X151723688Y-82226387D01*
X151723691Y-82226388D01*
X151759535Y-82232065D01*
X151771156Y-82234472D01*
X151808218Y-82243987D01*
X151813975Y-82245465D01*
X151814531Y-82245500D01*
X151834452Y-82245500D01*
X151854162Y-82247051D01*
X151866114Y-82248944D01*
X151866115Y-82248944D01*
X151873944Y-82250184D01*
X151881836Y-82249438D01*
X151917582Y-82246059D01*
X151929440Y-82245500D01*
X159802500Y-82245500D01*
X159870621Y-82265502D01*
X159917114Y-82319158D01*
X159928500Y-82371500D01*
X159928500Y-82462000D01*
X159933727Y-82535079D01*
X159974904Y-82675316D01*
X159991337Y-82700886D01*
X160049051Y-82790691D01*
X160049053Y-82790694D01*
X160053923Y-82798271D01*
X160060733Y-82804172D01*
X160157569Y-82888082D01*
X160157572Y-82888084D01*
X160164381Y-82893984D01*
X160297330Y-82954700D01*
X160306245Y-82955982D01*
X160306246Y-82955982D01*
X160437552Y-82974861D01*
X160437559Y-82974862D01*
X160442000Y-82975500D01*
X162142000Y-82975500D01*
X162215079Y-82970273D01*
X162304847Y-82943915D01*
X162346670Y-82931635D01*
X162346672Y-82931634D01*
X162355316Y-82929096D01*
X162457880Y-82863182D01*
X162525999Y-82843180D01*
X162594120Y-82863182D01*
X162640613Y-82916837D01*
X162652000Y-82969180D01*
X162652000Y-137952114D01*
X162650500Y-137971497D01*
X162647038Y-137993733D01*
X162647629Y-137998246D01*
X162647417Y-138000000D01*
X162647000Y-138000000D01*
X162646874Y-138004494D01*
X162643236Y-138134137D01*
X162642494Y-138144711D01*
X162612653Y-138409556D01*
X162610286Y-138423486D01*
X162551374Y-138681596D01*
X162547462Y-138695173D01*
X162460025Y-138945054D01*
X162454618Y-138958108D01*
X162339750Y-139196634D01*
X162332915Y-139209001D01*
X162192067Y-139433159D01*
X162183891Y-139444682D01*
X162018818Y-139651678D01*
X162009402Y-139662214D01*
X161822214Y-139849402D01*
X161811678Y-139858818D01*
X161604682Y-140023891D01*
X161593159Y-140032067D01*
X161369001Y-140172915D01*
X161356634Y-140179750D01*
X161118108Y-140294618D01*
X161105054Y-140300025D01*
X160855173Y-140387462D01*
X160841596Y-140391374D01*
X160583486Y-140450286D01*
X160569556Y-140452653D01*
X160397327Y-140472059D01*
X160304708Y-140482494D01*
X160294137Y-140483236D01*
X160175593Y-140486562D01*
X160175590Y-140486563D01*
X160160000Y-140487000D01*
X160160000Y-140489028D01*
X160141205Y-140492000D01*
X160132378Y-140492000D01*
X160131608Y-140491998D01*
X160131052Y-140491995D01*
X160090378Y-140491746D01*
X160089546Y-140491984D01*
X160089308Y-140492000D01*
X136884847Y-140492000D01*
X136860000Y-140489152D01*
X136860000Y-140487000D01*
X136847352Y-140486645D01*
X136725863Y-140483236D01*
X136715292Y-140482494D01*
X136622673Y-140472059D01*
X136450444Y-140452653D01*
X136436514Y-140450286D01*
X136178404Y-140391374D01*
X136164827Y-140387462D01*
X135914946Y-140300025D01*
X135901892Y-140294618D01*
X135663366Y-140179750D01*
X135650999Y-140172915D01*
X135426841Y-140032067D01*
X135415318Y-140023891D01*
X135208322Y-139858818D01*
X135197786Y-139849402D01*
X135010598Y-139662214D01*
X135001182Y-139651678D01*
X134836109Y-139444682D01*
X134827933Y-139433159D01*
X134687085Y-139209001D01*
X134680250Y-139196634D01*
X134565382Y-138958108D01*
X134559975Y-138945054D01*
X134472538Y-138695173D01*
X134468626Y-138681596D01*
X134409714Y-138423486D01*
X134407347Y-138409556D01*
X134377506Y-138144711D01*
X134376764Y-138134137D01*
X134373391Y-138013951D01*
X134373000Y-138000000D01*
X134372103Y-137993733D01*
X134369273Y-137973976D01*
X134368000Y-137956113D01*
X134368000Y-131383977D01*
X139341500Y-131383977D01*
X139341500Y-134582887D01*
X139356978Y-134715644D01*
X139359474Y-134722522D01*
X139359475Y-134722524D01*
X139410720Y-134863701D01*
X139417313Y-134881865D01*
X139514269Y-135029747D01*
X139642645Y-135151359D01*
X139795554Y-135240175D01*
X139964795Y-135291433D01*
X139971235Y-135292008D01*
X139971236Y-135292008D01*
X140041184Y-135298251D01*
X140041190Y-135298251D01*
X140043977Y-135298500D01*
X141722887Y-135298500D01*
X141818107Y-135287398D01*
X141848372Y-135283870D01*
X141848373Y-135283870D01*
X141855644Y-135283022D01*
X141862522Y-135280526D01*
X141862524Y-135280525D01*
X142014986Y-135225184D01*
X142021865Y-135222687D01*
X142169747Y-135125731D01*
X142291359Y-134997355D01*
X142380175Y-134844446D01*
X142431433Y-134675205D01*
X142438500Y-134596023D01*
X142438500Y-133257548D01*
X144422000Y-133257548D01*
X144422000Y-133809626D01*
X144422202Y-133814658D01*
X144436571Y-133993244D01*
X144438185Y-134003214D01*
X144495191Y-134235296D01*
X144498370Y-134244854D01*
X144591750Y-134464844D01*
X144596424Y-134473783D01*
X144723768Y-134676003D01*
X144729809Y-134684078D01*
X144887852Y-134863342D01*
X144895104Y-134870345D01*
X145079772Y-135022033D01*
X145088054Y-135027789D01*
X145294595Y-135147999D01*
X145303700Y-135152361D01*
X145526795Y-135238000D01*
X145536484Y-135240851D01*
X145698264Y-135274649D01*
X145712325Y-135273526D01*
X145716000Y-135263418D01*
X145716000Y-133262115D01*
X145714659Y-133257548D01*
X146224000Y-133257548D01*
X146224000Y-135260821D01*
X146228136Y-135274907D01*
X146241114Y-135276956D01*
X146266618Y-135274005D01*
X146276515Y-135272045D01*
X146506469Y-135206975D01*
X146515914Y-135203463D01*
X146732510Y-135102463D01*
X146741274Y-135097484D01*
X146938925Y-134963160D01*
X146946800Y-134956828D01*
X147120422Y-134792642D01*
X147127183Y-134785133D01*
X147272327Y-134595293D01*
X147277791Y-134586814D01*
X147390719Y-134376203D01*
X147394759Y-134366957D01*
X147472561Y-134141004D01*
X147475072Y-134131223D01*
X147515933Y-133894662D01*
X147516788Y-133886790D01*
X147517936Y-133861519D01*
X147518000Y-133858686D01*
X147518000Y-133262115D01*
X147513525Y-133246876D01*
X147512135Y-133245671D01*
X147504452Y-133244000D01*
X146242115Y-133244000D01*
X146226876Y-133248475D01*
X146225671Y-133249865D01*
X146224000Y-133257548D01*
X145714659Y-133257548D01*
X145711525Y-133246876D01*
X145710135Y-133245671D01*
X145702452Y-133244000D01*
X144440115Y-133244000D01*
X144424876Y-133248475D01*
X144423671Y-133249865D01*
X144422000Y-133257548D01*
X142438500Y-133257548D01*
X142438500Y-132121314D01*
X144422000Y-132121314D01*
X144422000Y-132717885D01*
X144426475Y-132733124D01*
X144427865Y-132734329D01*
X144435548Y-132736000D01*
X145697885Y-132736000D01*
X145713124Y-132731525D01*
X145714329Y-132730135D01*
X145716000Y-132722452D01*
X145716000Y-130719179D01*
X145715237Y-130716582D01*
X146224000Y-130716582D01*
X146224000Y-132717885D01*
X146228475Y-132733124D01*
X146229865Y-132734329D01*
X146237548Y-132736000D01*
X147499885Y-132736000D01*
X147515124Y-132731525D01*
X147516329Y-132730135D01*
X147518000Y-132722452D01*
X147518000Y-132170374D01*
X147517798Y-132165342D01*
X147503429Y-131986756D01*
X147501815Y-131976786D01*
X147444809Y-131744704D01*
X147441630Y-131735146D01*
X147348250Y-131515156D01*
X147343576Y-131506217D01*
X147266598Y-131383977D01*
X149501500Y-131383977D01*
X149501500Y-134582887D01*
X149516978Y-134715644D01*
X149519474Y-134722522D01*
X149519475Y-134722524D01*
X149570720Y-134863701D01*
X149577313Y-134881865D01*
X149674269Y-135029747D01*
X149802645Y-135151359D01*
X149955554Y-135240175D01*
X150124795Y-135291433D01*
X150131235Y-135292008D01*
X150131236Y-135292008D01*
X150201184Y-135298251D01*
X150201190Y-135298251D01*
X150203977Y-135298500D01*
X151882887Y-135298500D01*
X151978107Y-135287398D01*
X152008372Y-135283870D01*
X152008373Y-135283870D01*
X152015644Y-135283022D01*
X152022522Y-135280526D01*
X152022524Y-135280525D01*
X152174986Y-135225184D01*
X152181865Y-135222687D01*
X152329747Y-135125731D01*
X152451359Y-134997355D01*
X152540175Y-134844446D01*
X152591433Y-134675205D01*
X152598500Y-134596023D01*
X152598500Y-132119898D01*
X154581500Y-132119898D01*
X154581500Y-133812143D01*
X154581702Y-133814651D01*
X154581702Y-133814656D01*
X154587510Y-133886836D01*
X154596484Y-133998375D01*
X154655921Y-134240361D01*
X154753283Y-134469730D01*
X154755981Y-134474015D01*
X154755984Y-134474020D01*
X154821935Y-134578748D01*
X154886064Y-134680583D01*
X154923040Y-134722524D01*
X155047188Y-134863342D01*
X155050848Y-134867494D01*
X155243396Y-135025655D01*
X155247764Y-135028197D01*
X155450728Y-135146325D01*
X155458755Y-135150997D01*
X155463478Y-135152810D01*
X155686659Y-135238481D01*
X155686663Y-135238482D01*
X155691383Y-135240294D01*
X155696333Y-135241328D01*
X155696336Y-135241329D01*
X155930344Y-135290216D01*
X155930348Y-135290216D01*
X155935295Y-135291250D01*
X156184216Y-135302554D01*
X156189236Y-135301973D01*
X156189240Y-135301973D01*
X156426716Y-135274496D01*
X156426720Y-135274495D01*
X156431743Y-135273914D01*
X156436607Y-135272538D01*
X156436610Y-135272537D01*
X156666644Y-135207444D01*
X156666643Y-135207444D01*
X156671507Y-135206068D01*
X156677094Y-135203463D01*
X156789606Y-135150997D01*
X156897339Y-135100760D01*
X156901519Y-135097919D01*
X156901523Y-135097917D01*
X156988619Y-135038727D01*
X157103429Y-134960702D01*
X157107106Y-134957225D01*
X157107112Y-134957220D01*
X157280796Y-134792973D01*
X157284475Y-134789494D01*
X157435820Y-134591544D01*
X157553570Y-134371942D01*
X157634694Y-134136340D01*
X157677106Y-133890798D01*
X157678500Y-133860102D01*
X157678500Y-132167857D01*
X157674755Y-132121312D01*
X157663922Y-131986667D01*
X157663921Y-131986663D01*
X157663516Y-131981625D01*
X157604079Y-131739639D01*
X157506717Y-131510270D01*
X157504019Y-131505985D01*
X157504016Y-131505980D01*
X157425427Y-131381184D01*
X157373936Y-131299417D01*
X157223891Y-131129224D01*
X157212496Y-131116299D01*
X157209152Y-131112506D01*
X157016604Y-130954345D01*
X156908925Y-130891674D01*
X156805613Y-130831545D01*
X156805611Y-130831544D01*
X156801245Y-130829003D01*
X156756622Y-130811874D01*
X156573341Y-130741519D01*
X156573337Y-130741518D01*
X156568617Y-130739706D01*
X156563667Y-130738672D01*
X156563664Y-130738671D01*
X156329656Y-130689784D01*
X156329652Y-130689784D01*
X156324705Y-130688750D01*
X156075784Y-130677446D01*
X156070764Y-130678027D01*
X156070760Y-130678027D01*
X155833284Y-130705504D01*
X155833280Y-130705505D01*
X155828257Y-130706086D01*
X155823393Y-130707462D01*
X155823390Y-130707463D01*
X155716524Y-130737703D01*
X155588493Y-130773932D01*
X155583914Y-130776067D01*
X155583912Y-130776068D01*
X155507127Y-130811874D01*
X155362661Y-130879240D01*
X155358481Y-130882081D01*
X155358477Y-130882083D01*
X155357840Y-130882516D01*
X155156571Y-131019298D01*
X155152894Y-131022775D01*
X155152888Y-131022780D01*
X155026224Y-131142562D01*
X154975525Y-131190506D01*
X154824180Y-131388456D01*
X154706430Y-131608058D01*
X154625306Y-131843660D01*
X154582894Y-132089202D01*
X154581500Y-132119898D01*
X152598500Y-132119898D01*
X152598500Y-131397113D01*
X152583022Y-131264356D01*
X152529411Y-131116658D01*
X152525184Y-131105014D01*
X152522687Y-131098135D01*
X152425731Y-130950253D01*
X152297355Y-130828641D01*
X152144446Y-130739825D01*
X151975205Y-130688567D01*
X151968765Y-130687992D01*
X151968764Y-130687992D01*
X151898816Y-130681749D01*
X151898810Y-130681749D01*
X151896023Y-130681500D01*
X150217113Y-130681500D01*
X150121893Y-130692602D01*
X150091628Y-130696130D01*
X150091627Y-130696130D01*
X150084356Y-130696978D01*
X150077478Y-130699474D01*
X150077476Y-130699475D01*
X149966314Y-130739825D01*
X149918135Y-130757313D01*
X149770253Y-130854269D01*
X149648641Y-130982645D01*
X149559825Y-131135554D01*
X149508567Y-131304795D01*
X149501500Y-131383977D01*
X147266598Y-131383977D01*
X147216232Y-131303997D01*
X147210191Y-131295922D01*
X147052148Y-131116658D01*
X147044896Y-131109655D01*
X146860228Y-130957967D01*
X146851946Y-130952211D01*
X146645405Y-130832001D01*
X146636300Y-130827639D01*
X146413205Y-130742000D01*
X146403516Y-130739149D01*
X146241736Y-130705351D01*
X146227675Y-130706474D01*
X146224000Y-130716582D01*
X145715237Y-130716582D01*
X145711864Y-130705093D01*
X145698886Y-130703044D01*
X145673382Y-130705995D01*
X145663485Y-130707955D01*
X145433531Y-130773025D01*
X145424086Y-130776537D01*
X145207490Y-130877537D01*
X145198726Y-130882516D01*
X145001075Y-131016840D01*
X144993200Y-131023172D01*
X144819578Y-131187358D01*
X144812817Y-131194867D01*
X144667673Y-131384707D01*
X144662209Y-131393186D01*
X144549281Y-131603797D01*
X144545241Y-131613043D01*
X144467439Y-131838996D01*
X144464928Y-131848777D01*
X144424067Y-132085338D01*
X144423212Y-132093210D01*
X144422064Y-132118481D01*
X144422000Y-132121314D01*
X142438500Y-132121314D01*
X142438500Y-131397113D01*
X142423022Y-131264356D01*
X142369411Y-131116658D01*
X142365184Y-131105014D01*
X142362687Y-131098135D01*
X142265731Y-130950253D01*
X142137355Y-130828641D01*
X141984446Y-130739825D01*
X141815205Y-130688567D01*
X141808765Y-130687992D01*
X141808764Y-130687992D01*
X141738816Y-130681749D01*
X141738810Y-130681749D01*
X141736023Y-130681500D01*
X140057113Y-130681500D01*
X139961893Y-130692602D01*
X139931628Y-130696130D01*
X139931627Y-130696130D01*
X139924356Y-130696978D01*
X139917478Y-130699474D01*
X139917476Y-130699475D01*
X139806314Y-130739825D01*
X139758135Y-130757313D01*
X139610253Y-130854269D01*
X139488641Y-130982645D01*
X139399825Y-131135554D01*
X139348567Y-131304795D01*
X139341500Y-131383977D01*
X134368000Y-131383977D01*
X134368000Y-129796301D01*
X134388002Y-129728180D01*
X134441658Y-129681687D01*
X134511932Y-129671583D01*
X134576512Y-129701077D01*
X134593627Y-129719162D01*
X134705943Y-129864221D01*
X134705950Y-129864228D01*
X134708200Y-129867135D01*
X134941902Y-130105368D01*
X135201803Y-130314707D01*
X135204918Y-130316665D01*
X135204921Y-130316667D01*
X135481227Y-130490330D01*
X135484352Y-130492294D01*
X135785692Y-130635703D01*
X136101705Y-130742974D01*
X136428075Y-130812644D01*
X136541554Y-130823271D01*
X136756678Y-130843418D01*
X136756683Y-130843418D01*
X136760344Y-130843761D01*
X136965754Y-130838920D01*
X137090290Y-130835985D01*
X137090293Y-130835985D01*
X137093975Y-130835898D01*
X137424411Y-130789164D01*
X137427967Y-130788228D01*
X137427971Y-130788227D01*
X137732867Y-130707955D01*
X137747137Y-130704198D01*
X137870884Y-130655577D01*
X138054318Y-130583506D01*
X138054325Y-130583503D01*
X138057745Y-130582159D01*
X138351995Y-130424714D01*
X138625865Y-130234014D01*
X138628615Y-130231577D01*
X138628621Y-130231572D01*
X138872864Y-130015103D01*
X138875616Y-130012664D01*
X139097837Y-129763687D01*
X139122746Y-129728180D01*
X139287380Y-129493493D01*
X139289491Y-129490484D01*
X139447962Y-129196786D01*
X139571084Y-128886605D01*
X139657177Y-128564178D01*
X139705064Y-128233908D01*
X139715500Y-127990000D01*
X139695999Y-127656847D01*
X139637762Y-127328244D01*
X139541584Y-127008680D01*
X139408779Y-126702519D01*
X139241161Y-126413944D01*
X139160107Y-126305793D01*
X139069105Y-126184370D01*
X139041020Y-126146896D01*
X138811088Y-125905022D01*
X138808256Y-125902666D01*
X138808251Y-125902662D01*
X138557344Y-125693985D01*
X138554508Y-125691626D01*
X138551422Y-125689618D01*
X138277867Y-125511630D01*
X138277864Y-125511628D01*
X138274782Y-125509623D01*
X138271484Y-125507990D01*
X138271478Y-125507986D01*
X137979039Y-125363135D01*
X137979032Y-125363132D01*
X137975733Y-125361498D01*
X137972261Y-125360258D01*
X137972258Y-125360257D01*
X137664922Y-125250518D01*
X137661444Y-125249276D01*
X137594287Y-125233833D01*
X137339798Y-125175313D01*
X137339789Y-125175312D01*
X137336208Y-125174488D01*
X137332551Y-125174087D01*
X137332548Y-125174087D01*
X137008139Y-125138559D01*
X137008138Y-125138559D01*
X137004468Y-125138157D01*
X137000775Y-125138186D01*
X136674442Y-125140749D01*
X136674441Y-125140749D01*
X136670755Y-125140778D01*
X136667096Y-125141237D01*
X136343283Y-125181857D01*
X136343279Y-125181858D01*
X136339626Y-125182316D01*
X136336055Y-125183196D01*
X136336052Y-125183197D01*
X136019181Y-125261321D01*
X136019172Y-125261324D01*
X136015606Y-125262203D01*
X136012155Y-125263497D01*
X136012154Y-125263497D01*
X135746367Y-125363135D01*
X135703118Y-125379348D01*
X135699842Y-125381035D01*
X135699838Y-125381037D01*
X135507808Y-125479939D01*
X135406432Y-125532151D01*
X135129600Y-125718525D01*
X134876403Y-125935925D01*
X134650299Y-126181381D01*
X134628872Y-126210927D01*
X134596001Y-126256253D01*
X134539816Y-126299656D01*
X134469085Y-126305793D01*
X134406265Y-126272716D01*
X134371299Y-126210927D01*
X134368000Y-126182281D01*
X134368000Y-103835400D01*
X157231300Y-103835400D01*
X157251255Y-104063487D01*
X157310514Y-104284643D01*
X157312836Y-104289624D01*
X157312837Y-104289625D01*
X157404950Y-104487163D01*
X157404953Y-104487168D01*
X157407276Y-104492150D01*
X157538601Y-104679702D01*
X157700498Y-104841599D01*
X157705006Y-104844756D01*
X157705009Y-104844758D01*
X157883541Y-104969767D01*
X157888050Y-104972924D01*
X157893032Y-104975247D01*
X157893037Y-104975250D01*
X158090575Y-105067363D01*
X158095557Y-105069686D01*
X158100865Y-105071108D01*
X158100867Y-105071109D01*
X158311398Y-105127521D01*
X158311400Y-105127521D01*
X158316713Y-105128945D01*
X158544800Y-105148900D01*
X158772887Y-105128945D01*
X158778200Y-105127521D01*
X158778202Y-105127521D01*
X158988733Y-105071109D01*
X158988735Y-105071108D01*
X158994043Y-105069686D01*
X158999025Y-105067363D01*
X159196563Y-104975250D01*
X159196568Y-104975247D01*
X159201550Y-104972924D01*
X159206059Y-104969767D01*
X159384591Y-104844758D01*
X159384594Y-104844756D01*
X159389102Y-104841599D01*
X159550999Y-104679702D01*
X159682324Y-104492150D01*
X159684647Y-104487168D01*
X159684650Y-104487163D01*
X159776763Y-104289625D01*
X159776764Y-104289624D01*
X159779086Y-104284643D01*
X159838345Y-104063487D01*
X159858300Y-103835400D01*
X159838345Y-103607313D01*
X159779086Y-103386157D01*
X159776763Y-103381175D01*
X159684650Y-103183637D01*
X159684647Y-103183632D01*
X159682324Y-103178650D01*
X159550999Y-102991098D01*
X159389102Y-102829201D01*
X159384594Y-102826044D01*
X159384591Y-102826042D01*
X159206059Y-102701033D01*
X159206057Y-102701032D01*
X159201550Y-102697876D01*
X159196568Y-102695553D01*
X159196563Y-102695550D01*
X158999025Y-102603437D01*
X158999024Y-102603436D01*
X158994043Y-102601114D01*
X158988735Y-102599692D01*
X158988733Y-102599691D01*
X158778202Y-102543279D01*
X158778200Y-102543279D01*
X158772887Y-102541855D01*
X158544800Y-102521900D01*
X158316713Y-102541855D01*
X158311400Y-102543279D01*
X158311398Y-102543279D01*
X158100867Y-102599691D01*
X158100865Y-102599692D01*
X158095557Y-102601114D01*
X158090576Y-102603436D01*
X158090575Y-102603437D01*
X157893037Y-102695550D01*
X157893032Y-102695553D01*
X157888050Y-102697876D01*
X157883543Y-102701032D01*
X157883541Y-102701033D01*
X157705009Y-102826042D01*
X157705006Y-102826044D01*
X157700498Y-102829201D01*
X157538601Y-102991098D01*
X157407276Y-103178650D01*
X157404953Y-103183632D01*
X157404950Y-103183637D01*
X157312837Y-103381175D01*
X157310514Y-103386157D01*
X157251255Y-103607313D01*
X157231300Y-103835400D01*
X134368000Y-103835400D01*
X134368000Y-96215400D01*
X157231300Y-96215400D01*
X157251255Y-96443487D01*
X157310514Y-96664643D01*
X157312836Y-96669624D01*
X157312837Y-96669625D01*
X157404950Y-96867163D01*
X157404953Y-96867168D01*
X157407276Y-96872150D01*
X157538601Y-97059702D01*
X157700498Y-97221599D01*
X157705006Y-97224756D01*
X157705009Y-97224758D01*
X157883541Y-97349767D01*
X157888050Y-97352924D01*
X157893032Y-97355247D01*
X157893037Y-97355250D01*
X158090575Y-97447363D01*
X158095557Y-97449686D01*
X158100865Y-97451108D01*
X158100867Y-97451109D01*
X158311398Y-97507521D01*
X158311400Y-97507521D01*
X158316713Y-97508945D01*
X158544800Y-97528900D01*
X158772887Y-97508945D01*
X158778200Y-97507521D01*
X158778202Y-97507521D01*
X158988733Y-97451109D01*
X158988735Y-97451108D01*
X158994043Y-97449686D01*
X158999025Y-97447363D01*
X159196563Y-97355250D01*
X159196568Y-97355247D01*
X159201550Y-97352924D01*
X159206059Y-97349767D01*
X159384591Y-97224758D01*
X159384594Y-97224756D01*
X159389102Y-97221599D01*
X159550999Y-97059702D01*
X159682324Y-96872150D01*
X159684647Y-96867168D01*
X159684650Y-96867163D01*
X159776763Y-96669625D01*
X159776764Y-96669624D01*
X159779086Y-96664643D01*
X159838345Y-96443487D01*
X159858300Y-96215400D01*
X159838345Y-95987313D01*
X159779086Y-95766157D01*
X159776763Y-95761175D01*
X159684650Y-95563637D01*
X159684647Y-95563632D01*
X159682324Y-95558650D01*
X159550999Y-95371098D01*
X159389102Y-95209201D01*
X159384594Y-95206044D01*
X159384591Y-95206042D01*
X159206059Y-95081033D01*
X159206057Y-95081032D01*
X159201550Y-95077876D01*
X159196568Y-95075553D01*
X159196563Y-95075550D01*
X158999025Y-94983437D01*
X158999024Y-94983436D01*
X158994043Y-94981114D01*
X158988735Y-94979692D01*
X158988733Y-94979691D01*
X158778202Y-94923279D01*
X158778200Y-94923279D01*
X158772887Y-94921855D01*
X158544800Y-94901900D01*
X158316713Y-94921855D01*
X158311400Y-94923279D01*
X158311398Y-94923279D01*
X158100867Y-94979691D01*
X158100865Y-94979692D01*
X158095557Y-94981114D01*
X158090576Y-94983436D01*
X158090575Y-94983437D01*
X157893037Y-95075550D01*
X157893032Y-95075553D01*
X157888050Y-95077876D01*
X157883543Y-95081032D01*
X157883541Y-95081033D01*
X157705009Y-95206042D01*
X157705006Y-95206044D01*
X157700498Y-95209201D01*
X157538601Y-95371098D01*
X157407276Y-95558650D01*
X157404953Y-95563632D01*
X157404950Y-95563637D01*
X157312837Y-95761175D01*
X157310514Y-95766157D01*
X157251255Y-95987313D01*
X157231300Y-96215400D01*
X134368000Y-96215400D01*
X134368000Y-94200477D01*
X134388002Y-94132356D01*
X134441658Y-94085863D01*
X134511932Y-94075759D01*
X134546342Y-94085863D01*
X134635275Y-94126477D01*
X134652388Y-94131502D01*
X134783554Y-94150361D01*
X134792495Y-94151000D01*
X135365885Y-94151000D01*
X135381124Y-94146525D01*
X135382329Y-94145135D01*
X135384000Y-94137452D01*
X135384000Y-93055548D01*
X135892000Y-93055548D01*
X135892000Y-94132885D01*
X135896475Y-94148124D01*
X135897865Y-94149329D01*
X135905548Y-94151000D01*
X136485743Y-94151000D01*
X136490250Y-94150839D01*
X136554269Y-94146260D01*
X136567491Y-94143874D01*
X136692458Y-94107181D01*
X136708692Y-94099767D01*
X136816360Y-94030574D01*
X136829847Y-94018888D01*
X136913662Y-93922160D01*
X136923307Y-93907152D01*
X136976477Y-93790725D01*
X136981502Y-93773612D01*
X137000361Y-93642446D01*
X137001000Y-93633505D01*
X137001000Y-93060115D01*
X136996525Y-93044876D01*
X136995135Y-93043671D01*
X136987452Y-93042000D01*
X135910115Y-93042000D01*
X135894876Y-93046475D01*
X135893671Y-93047865D01*
X135892000Y-93055548D01*
X135384000Y-93055548D01*
X135384000Y-92660000D01*
X135404002Y-92591879D01*
X135457658Y-92545386D01*
X135510000Y-92534000D01*
X136982885Y-92534000D01*
X136998124Y-92529525D01*
X136999329Y-92528135D01*
X137001000Y-92520452D01*
X137001000Y-91940257D01*
X137000839Y-91935750D01*
X136996260Y-91871731D01*
X136993874Y-91858509D01*
X136957181Y-91733542D01*
X136949767Y-91717308D01*
X136880574Y-91609640D01*
X136868888Y-91596153D01*
X136818695Y-91552661D01*
X136780311Y-91492934D01*
X136780311Y-91421938D01*
X136818203Y-91362976D01*
X136824271Y-91359077D01*
X136830174Y-91352265D01*
X136914082Y-91255431D01*
X136914084Y-91255428D01*
X136919984Y-91248619D01*
X136980700Y-91115670D01*
X136981982Y-91106754D01*
X137000861Y-90975448D01*
X137000862Y-90975441D01*
X137001500Y-90971000D01*
X137001500Y-89271000D01*
X136996273Y-89197921D01*
X136955096Y-89057684D01*
X136904883Y-88979551D01*
X136880949Y-88942309D01*
X136880947Y-88942306D01*
X136876077Y-88934729D01*
X136869267Y-88928828D01*
X136772431Y-88844918D01*
X136772428Y-88844916D01*
X136765619Y-88839016D01*
X136757421Y-88835272D01*
X136640864Y-88782042D01*
X136640863Y-88782042D01*
X136632670Y-88778300D01*
X136623755Y-88777018D01*
X136623754Y-88777018D01*
X136492448Y-88758139D01*
X136492441Y-88758138D01*
X136488000Y-88757500D01*
X134788000Y-88757500D01*
X134714921Y-88762727D01*
X134661884Y-88778300D01*
X134583330Y-88801365D01*
X134583328Y-88801366D01*
X134574684Y-88803904D01*
X134567103Y-88808776D01*
X134562122Y-88811977D01*
X134494002Y-88831980D01*
X134425881Y-88811979D01*
X134379387Y-88758324D01*
X134368000Y-88705980D01*
X134368000Y-73103000D01*
X150980500Y-73103000D01*
X151000462Y-73292927D01*
X151059476Y-73474554D01*
X151154963Y-73639942D01*
X151159381Y-73644849D01*
X151159382Y-73644850D01*
X151243630Y-73738417D01*
X151282749Y-73781863D01*
X151288091Y-73785744D01*
X151288093Y-73785746D01*
X151413880Y-73877135D01*
X151437250Y-73894114D01*
X151443278Y-73896798D01*
X151443280Y-73896799D01*
X151605682Y-73969105D01*
X151611713Y-73971790D01*
X151705113Y-73991643D01*
X151792056Y-74010124D01*
X151792061Y-74010124D01*
X151798513Y-74011496D01*
X151989487Y-74011496D01*
X151995939Y-74010124D01*
X151995944Y-74010124D01*
X152082887Y-73991643D01*
X152176287Y-73971790D01*
X152182318Y-73969105D01*
X152344720Y-73896799D01*
X152344722Y-73896798D01*
X152350750Y-73894114D01*
X152374120Y-73877135D01*
X152499907Y-73785746D01*
X152499909Y-73785744D01*
X152505251Y-73781863D01*
X152509673Y-73776952D01*
X152514575Y-73772538D01*
X152515701Y-73773789D01*
X152569000Y-73740951D01*
X152602194Y-73736500D01*
X155244616Y-73736500D01*
X155255520Y-73737014D01*
X155262911Y-73738666D01*
X155270837Y-73738417D01*
X155270838Y-73738417D01*
X155329866Y-73736562D01*
X155333823Y-73736500D01*
X155362578Y-73736500D01*
X155366845Y-73735961D01*
X155378687Y-73735028D01*
X155410335Y-73734033D01*
X155414960Y-73733888D01*
X155422883Y-73733639D01*
X155442334Y-73727988D01*
X155461695Y-73723978D01*
X155464420Y-73723634D01*
X155473930Y-73722433D01*
X155473933Y-73722432D01*
X155481788Y-73721440D01*
X155489153Y-73718524D01*
X155489157Y-73718523D01*
X155522901Y-73705163D01*
X155534130Y-73701318D01*
X155576578Y-73688986D01*
X155583406Y-73684948D01*
X155594011Y-73678677D01*
X155611762Y-73669981D01*
X155623226Y-73665442D01*
X155623229Y-73665440D01*
X155630600Y-73662522D01*
X155666368Y-73636535D01*
X155676291Y-73630016D01*
X155699702Y-73616171D01*
X155714341Y-73607514D01*
X155714759Y-73607145D01*
X155728842Y-73593062D01*
X155743867Y-73580228D01*
X155760083Y-73568446D01*
X155788030Y-73534664D01*
X155796019Y-73525885D01*
X156522513Y-72799391D01*
X156530601Y-72792031D01*
X156536995Y-72787973D01*
X156582870Y-72739121D01*
X156585624Y-72736280D01*
X156605938Y-72715966D01*
X156608583Y-72712555D01*
X156616289Y-72703533D01*
X156641133Y-72677077D01*
X156646557Y-72671301D01*
X156650376Y-72664355D01*
X156656318Y-72653547D01*
X156667172Y-72637023D01*
X156674725Y-72627286D01*
X156674725Y-72627285D01*
X156679583Y-72621023D01*
X156697142Y-72580447D01*
X156702363Y-72569790D01*
X156707113Y-72561150D01*
X156723662Y-72531048D01*
X156725635Y-72523364D01*
X156728699Y-72511432D01*
X156735103Y-72492728D01*
X156739998Y-72481417D01*
X156740000Y-72481410D01*
X156743148Y-72474136D01*
X156750065Y-72430462D01*
X156752473Y-72418837D01*
X156761987Y-72381782D01*
X156761987Y-72381780D01*
X156763465Y-72376025D01*
X156763500Y-72375469D01*
X156763500Y-72355553D01*
X156765051Y-72335843D01*
X156766945Y-72323884D01*
X156768185Y-72316055D01*
X156764059Y-72272406D01*
X156763500Y-72260549D01*
X156763500Y-69424500D01*
X156783502Y-69356379D01*
X156837158Y-69309886D01*
X156889500Y-69298500D01*
X156962887Y-69298500D01*
X157058107Y-69287398D01*
X157088372Y-69283870D01*
X157088373Y-69283870D01*
X157095644Y-69283022D01*
X157102522Y-69280526D01*
X157102524Y-69280525D01*
X157254986Y-69225184D01*
X157261865Y-69222687D01*
X157409747Y-69125731D01*
X157531359Y-68997355D01*
X157620175Y-68844446D01*
X157671433Y-68675205D01*
X157678500Y-68596023D01*
X157678500Y-65397113D01*
X157663022Y-65264356D01*
X157602687Y-65098135D01*
X157505731Y-64950253D01*
X157377355Y-64828641D01*
X157224446Y-64739825D01*
X157055205Y-64688567D01*
X157048765Y-64687992D01*
X157048764Y-64687992D01*
X156978816Y-64681749D01*
X156978810Y-64681749D01*
X156976023Y-64681500D01*
X155297113Y-64681500D01*
X155201893Y-64692602D01*
X155171628Y-64696130D01*
X155171627Y-64696130D01*
X155164356Y-64696978D01*
X155157478Y-64699474D01*
X155157476Y-64699475D01*
X155046314Y-64739825D01*
X154998135Y-64757313D01*
X154850253Y-64854269D01*
X154728641Y-64982645D01*
X154639825Y-65135554D01*
X154588567Y-65304795D01*
X154581500Y-65383977D01*
X154581500Y-68582887D01*
X154596978Y-68715644D01*
X154657313Y-68881865D01*
X154754269Y-69029747D01*
X154882645Y-69151359D01*
X155035554Y-69240175D01*
X155204795Y-69291433D01*
X155211235Y-69292008D01*
X155211236Y-69292008D01*
X155281184Y-69298251D01*
X155281190Y-69298251D01*
X155283977Y-69298500D01*
X155370500Y-69298500D01*
X155438621Y-69318502D01*
X155485114Y-69372158D01*
X155496500Y-69424500D01*
X155496500Y-71981406D01*
X155476498Y-72049527D01*
X155459595Y-72070501D01*
X155097501Y-72432595D01*
X155035189Y-72466621D01*
X155008406Y-72469500D01*
X152602194Y-72469500D01*
X152534073Y-72449498D01*
X152514849Y-72433158D01*
X152514575Y-72433462D01*
X152509672Y-72429047D01*
X152505251Y-72424137D01*
X152499909Y-72420256D01*
X152499907Y-72420254D01*
X152356092Y-72315767D01*
X152356091Y-72315766D01*
X152350750Y-72311886D01*
X152344722Y-72309202D01*
X152344720Y-72309201D01*
X152182318Y-72236895D01*
X152182317Y-72236895D01*
X152176287Y-72234210D01*
X152082887Y-72214357D01*
X151995944Y-72195876D01*
X151995939Y-72195876D01*
X151989487Y-72194504D01*
X151798513Y-72194504D01*
X151792061Y-72195876D01*
X151792056Y-72195876D01*
X151705113Y-72214357D01*
X151611713Y-72234210D01*
X151605683Y-72236895D01*
X151605682Y-72236895D01*
X151443280Y-72309201D01*
X151443278Y-72309202D01*
X151437250Y-72311886D01*
X151431909Y-72315766D01*
X151431908Y-72315767D01*
X151288093Y-72420254D01*
X151288091Y-72420256D01*
X151282749Y-72424137D01*
X151278328Y-72429047D01*
X151278327Y-72429048D01*
X151220990Y-72492728D01*
X151154963Y-72566058D01*
X151123229Y-72621023D01*
X151066795Y-72718770D01*
X151059476Y-72731446D01*
X151000462Y-72913073D01*
X150980500Y-73103000D01*
X134368000Y-73103000D01*
X134368000Y-66119898D01*
X139341500Y-66119898D01*
X139341500Y-67812143D01*
X139341702Y-67814651D01*
X139341702Y-67814656D01*
X139347510Y-67886836D01*
X139356484Y-67998375D01*
X139415921Y-68240361D01*
X139513283Y-68469730D01*
X139515981Y-68474015D01*
X139515984Y-68474020D01*
X139581935Y-68578748D01*
X139646064Y-68680583D01*
X139810848Y-68867494D01*
X140003396Y-69025655D01*
X140007764Y-69028197D01*
X140210728Y-69146325D01*
X140218755Y-69150997D01*
X140223478Y-69152810D01*
X140446659Y-69238481D01*
X140446663Y-69238482D01*
X140451383Y-69240294D01*
X140456333Y-69241328D01*
X140456336Y-69241329D01*
X140690344Y-69290216D01*
X140690348Y-69290216D01*
X140695295Y-69291250D01*
X140944216Y-69302554D01*
X140949236Y-69301973D01*
X140949240Y-69301973D01*
X141186716Y-69274496D01*
X141186720Y-69274495D01*
X141191743Y-69273914D01*
X141196607Y-69272538D01*
X141196610Y-69272537D01*
X141426644Y-69207444D01*
X141426643Y-69207444D01*
X141431507Y-69206068D01*
X141461983Y-69191857D01*
X141550138Y-69150749D01*
X141657339Y-69100760D01*
X141661519Y-69097919D01*
X141661523Y-69097917D01*
X141748619Y-69038727D01*
X141863429Y-68960702D01*
X141867106Y-68957225D01*
X141867112Y-68957220D01*
X142040796Y-68792973D01*
X142044475Y-68789494D01*
X142195820Y-68591544D01*
X142313570Y-68371942D01*
X142394694Y-68136340D01*
X142437106Y-67890798D01*
X142438500Y-67860102D01*
X142438500Y-67257548D01*
X144422000Y-67257548D01*
X144422000Y-68579225D01*
X144422425Y-68586529D01*
X144436616Y-68708257D01*
X144439961Y-68722409D01*
X144495263Y-68874762D01*
X144501772Y-68887761D01*
X144590641Y-69023306D01*
X144599965Y-69034458D01*
X144717629Y-69145922D01*
X144729276Y-69154635D01*
X144869429Y-69236043D01*
X144882754Y-69241837D01*
X145038700Y-69289068D01*
X145051323Y-69291516D01*
X145121184Y-69297751D01*
X145126779Y-69298000D01*
X145697885Y-69298000D01*
X145713124Y-69293525D01*
X145714329Y-69292135D01*
X145716000Y-69284452D01*
X145716000Y-67262115D01*
X145714659Y-67257548D01*
X146224000Y-67257548D01*
X146224000Y-69279885D01*
X146228475Y-69295124D01*
X146229865Y-69296329D01*
X146237548Y-69298000D01*
X146799225Y-69298000D01*
X146806529Y-69297575D01*
X146928257Y-69283384D01*
X146942409Y-69280039D01*
X147094762Y-69224737D01*
X147107761Y-69218228D01*
X147243306Y-69129359D01*
X147254458Y-69120035D01*
X147365922Y-69002371D01*
X147374635Y-68990724D01*
X147456043Y-68850571D01*
X147461837Y-68837246D01*
X147509068Y-68681300D01*
X147511516Y-68668677D01*
X147517751Y-68598816D01*
X147518000Y-68593221D01*
X147518000Y-67262115D01*
X147513525Y-67246876D01*
X147512135Y-67245671D01*
X147504452Y-67244000D01*
X146242115Y-67244000D01*
X146226876Y-67248475D01*
X146225671Y-67249865D01*
X146224000Y-67257548D01*
X145714659Y-67257548D01*
X145711525Y-67246876D01*
X145710135Y-67245671D01*
X145702452Y-67244000D01*
X144440115Y-67244000D01*
X144424876Y-67248475D01*
X144423671Y-67249865D01*
X144422000Y-67257548D01*
X142438500Y-67257548D01*
X142438500Y-66167857D01*
X142434755Y-66121312D01*
X142423922Y-65986667D01*
X142423921Y-65986663D01*
X142423516Y-65981625D01*
X142364079Y-65739639D01*
X142266717Y-65510270D01*
X142264019Y-65505985D01*
X142264016Y-65505980D01*
X142188950Y-65386779D01*
X144422000Y-65386779D01*
X144422000Y-66717885D01*
X144426475Y-66733124D01*
X144427865Y-66734329D01*
X144435548Y-66736000D01*
X145697885Y-66736000D01*
X145713124Y-66731525D01*
X145714329Y-66730135D01*
X145716000Y-66722452D01*
X145716000Y-64700115D01*
X145714659Y-64695548D01*
X146224000Y-64695548D01*
X146224000Y-66717885D01*
X146228475Y-66733124D01*
X146229865Y-66734329D01*
X146237548Y-66736000D01*
X147499885Y-66736000D01*
X147515124Y-66731525D01*
X147516329Y-66730135D01*
X147518000Y-66722452D01*
X147518000Y-66119898D01*
X149501500Y-66119898D01*
X149501500Y-67812143D01*
X149501702Y-67814651D01*
X149501702Y-67814656D01*
X149507510Y-67886836D01*
X149516484Y-67998375D01*
X149575921Y-68240361D01*
X149673283Y-68469730D01*
X149675981Y-68474015D01*
X149675984Y-68474020D01*
X149741935Y-68578748D01*
X149806064Y-68680583D01*
X149970848Y-68867494D01*
X150163396Y-69025655D01*
X150167764Y-69028197D01*
X150370728Y-69146325D01*
X150378755Y-69150997D01*
X150383478Y-69152810D01*
X150606659Y-69238481D01*
X150606663Y-69238482D01*
X150611383Y-69240294D01*
X150616333Y-69241328D01*
X150616336Y-69241329D01*
X150850344Y-69290216D01*
X150850348Y-69290216D01*
X150855295Y-69291250D01*
X151104216Y-69302554D01*
X151109236Y-69301973D01*
X151109240Y-69301973D01*
X151346716Y-69274496D01*
X151346720Y-69274495D01*
X151351743Y-69273914D01*
X151356607Y-69272538D01*
X151356610Y-69272537D01*
X151586644Y-69207444D01*
X151586643Y-69207444D01*
X151591507Y-69206068D01*
X151621983Y-69191857D01*
X151710138Y-69150749D01*
X151817339Y-69100760D01*
X151821519Y-69097919D01*
X151821523Y-69097917D01*
X151908619Y-69038727D01*
X152023429Y-68960702D01*
X152027106Y-68957225D01*
X152027112Y-68957220D01*
X152200796Y-68792973D01*
X152204475Y-68789494D01*
X152355820Y-68591544D01*
X152473570Y-68371942D01*
X152554694Y-68136340D01*
X152597106Y-67890798D01*
X152598500Y-67860102D01*
X152598500Y-66167857D01*
X152594755Y-66121312D01*
X152583922Y-65986667D01*
X152583921Y-65986663D01*
X152583516Y-65981625D01*
X152524079Y-65739639D01*
X152426717Y-65510270D01*
X152424019Y-65505985D01*
X152424016Y-65505980D01*
X152345427Y-65381184D01*
X152293936Y-65299417D01*
X152129152Y-65112506D01*
X151936604Y-64954345D01*
X151773783Y-64859581D01*
X151725613Y-64831545D01*
X151725611Y-64831544D01*
X151721245Y-64829003D01*
X151583344Y-64776068D01*
X151493341Y-64741519D01*
X151493337Y-64741518D01*
X151488617Y-64739706D01*
X151483667Y-64738672D01*
X151483664Y-64738671D01*
X151249656Y-64689784D01*
X151249652Y-64689784D01*
X151244705Y-64688750D01*
X150995784Y-64677446D01*
X150990764Y-64678027D01*
X150990760Y-64678027D01*
X150753284Y-64705504D01*
X150753280Y-64705505D01*
X150748257Y-64706086D01*
X150743393Y-64707462D01*
X150743390Y-64707463D01*
X150633103Y-64738671D01*
X150508493Y-64773932D01*
X150282661Y-64879240D01*
X150278481Y-64882081D01*
X150278477Y-64882083D01*
X150191381Y-64941273D01*
X150076571Y-65019298D01*
X150072894Y-65022775D01*
X150072888Y-65022780D01*
X149946224Y-65142562D01*
X149895525Y-65190506D01*
X149744180Y-65388456D01*
X149626430Y-65608058D01*
X149545306Y-65843660D01*
X149502894Y-66089202D01*
X149501500Y-66119898D01*
X147518000Y-66119898D01*
X147518000Y-65400775D01*
X147517575Y-65393471D01*
X147503384Y-65271743D01*
X147500039Y-65257591D01*
X147444737Y-65105238D01*
X147438228Y-65092239D01*
X147349359Y-64956694D01*
X147340035Y-64945542D01*
X147222371Y-64834078D01*
X147210724Y-64825365D01*
X147070571Y-64743957D01*
X147057246Y-64738163D01*
X146901300Y-64690932D01*
X146888677Y-64688484D01*
X146818816Y-64682249D01*
X146813221Y-64682000D01*
X146242115Y-64682000D01*
X146226876Y-64686475D01*
X146225671Y-64687865D01*
X146224000Y-64695548D01*
X145714659Y-64695548D01*
X145711525Y-64684876D01*
X145710135Y-64683671D01*
X145702452Y-64682000D01*
X145140775Y-64682000D01*
X145133471Y-64682425D01*
X145011743Y-64696616D01*
X144997591Y-64699961D01*
X144845238Y-64755263D01*
X144832239Y-64761772D01*
X144696694Y-64850641D01*
X144685542Y-64859965D01*
X144574078Y-64977629D01*
X144565365Y-64989276D01*
X144483957Y-65129429D01*
X144478163Y-65142754D01*
X144430932Y-65298700D01*
X144428484Y-65311323D01*
X144422249Y-65381184D01*
X144422000Y-65386779D01*
X142188950Y-65386779D01*
X142185427Y-65381184D01*
X142133936Y-65299417D01*
X141969152Y-65112506D01*
X141776604Y-64954345D01*
X141613783Y-64859581D01*
X141565613Y-64831545D01*
X141565611Y-64831544D01*
X141561245Y-64829003D01*
X141423344Y-64776068D01*
X141333341Y-64741519D01*
X141333337Y-64741518D01*
X141328617Y-64739706D01*
X141323667Y-64738672D01*
X141323664Y-64738671D01*
X141089656Y-64689784D01*
X141089652Y-64689784D01*
X141084705Y-64688750D01*
X140835784Y-64677446D01*
X140830764Y-64678027D01*
X140830760Y-64678027D01*
X140593284Y-64705504D01*
X140593280Y-64705505D01*
X140588257Y-64706086D01*
X140583393Y-64707462D01*
X140583390Y-64707463D01*
X140473103Y-64738671D01*
X140348493Y-64773932D01*
X140122661Y-64879240D01*
X140118481Y-64882081D01*
X140118477Y-64882083D01*
X140031381Y-64941273D01*
X139916571Y-65019298D01*
X139912894Y-65022775D01*
X139912888Y-65022780D01*
X139786224Y-65142562D01*
X139735525Y-65190506D01*
X139584180Y-65388456D01*
X139466430Y-65608058D01*
X139385306Y-65843660D01*
X139342894Y-66089202D01*
X139341500Y-66119898D01*
X134368000Y-66119898D01*
X134368000Y-62051870D01*
X134369746Y-62030964D01*
X134372041Y-62017326D01*
X134372041Y-62017323D01*
X134372847Y-62012534D01*
X134372989Y-62000906D01*
X134373029Y-61998950D01*
X134373152Y-61994601D01*
X134376764Y-61865861D01*
X134377506Y-61855289D01*
X134407347Y-61590444D01*
X134409714Y-61576514D01*
X134468626Y-61318404D01*
X134472538Y-61304827D01*
X134559975Y-61054946D01*
X134565382Y-61041892D01*
X134680250Y-60803366D01*
X134687085Y-60790999D01*
X134827933Y-60566841D01*
X134836109Y-60555318D01*
X135001182Y-60348322D01*
X135010598Y-60337786D01*
X135197786Y-60150598D01*
X135208322Y-60141182D01*
X135415318Y-59976109D01*
X135426841Y-59967933D01*
X135650999Y-59827085D01*
X135663366Y-59820250D01*
X135901892Y-59705382D01*
X135914946Y-59699975D01*
X136164827Y-59612538D01*
X136178404Y-59608626D01*
X136436514Y-59549714D01*
X136450444Y-59547347D01*
X136622673Y-59527941D01*
X136715292Y-59517506D01*
X136725863Y-59516764D01*
X136845903Y-59513396D01*
X136845907Y-59513395D01*
X136860000Y-59513000D01*
X136860000Y-59511299D01*
X136880316Y-59508276D01*
X136907236Y-59508770D01*
X136914835Y-59508909D01*
X136914836Y-59508909D01*
X136923408Y-59509066D01*
X136926679Y-59508174D01*
X136929488Y-59508000D01*
X160135153Y-59508000D01*
X160160000Y-59510848D01*
G37*
%TD.AperFunction*%
%TD*%
M02*
