%TF.GenerationSoftware,KiCad,Pcbnew,(5.99.0-11096-g937f5138db)*%
%TF.CreationDate,2021-07-05T20:04:54+02:00*%
%TF.ProjectId,LasS0,4c617353-302e-46b6-9963-61645f706362,v0.1*%
%TF.SameCoordinates,Original*%
%TF.FileFunction,Legend,Top*%
%TF.FilePolarity,Positive*%
%FSLAX46Y46*%
G04 Gerber Fmt 4.6, Leading zero omitted, Abs format (unit mm)*
G04 Created by KiCad (PCBNEW (5.99.0-11096-g937f5138db)) date 2021-07-05 20:04:54*
%MOMM*%
%LPD*%
G01*
G04 APERTURE LIST*
G04 Aperture macros list*
%AMRoundRect*
0 Rectangle with rounded corners*
0 $1 Rounding radius*
0 $2 $3 $4 $5 $6 $7 $8 $9 X,Y pos of 4 corners*
0 Add a 4 corners polygon primitive as box body*
4,1,4,$2,$3,$4,$5,$6,$7,$8,$9,$2,$3,0*
0 Add four circle primitives for the rounded corners*
1,1,$1+$1,$2,$3*
1,1,$1+$1,$4,$5*
1,1,$1+$1,$6,$7*
1,1,$1+$1,$8,$9*
0 Add four rect primitives between the rounded corners*
20,1,$1+$1,$2,$3,$4,$5,0*
20,1,$1+$1,$4,$5,$6,$7,0*
20,1,$1+$1,$6,$7,$8,$9,0*
20,1,$1+$1,$8,$9,$2,$3,0*%
%AMFreePoly0*
4,1,6,1.000000,0.000000,0.500000,-0.750000,-0.500000,-0.750000,-0.500000,0.750000,0.500000,0.750000,1.000000,0.000000,1.000000,0.000000,$1*%
%AMFreePoly1*
4,1,6,0.500000,-0.750000,-0.650000,-0.750000,-0.150000,0.000000,-0.650000,0.750000,0.500000,0.750000,0.500000,-0.750000,0.500000,-0.750000,$1*%
G04 Aperture macros list end*
%ADD10C,0.150000*%
%ADD11C,0.250000*%
%ADD12C,0.750000*%
%ADD13C,0.120000*%
%ADD14C,0.010000*%
%ADD15C,1.000000*%
%ADD16RoundRect,0.200000X-0.275000X0.200000X-0.275000X-0.200000X0.275000X-0.200000X0.275000X0.200000X0*%
%ADD17RoundRect,0.249999X0.790001X1.550001X-0.790001X1.550001X-0.790001X-1.550001X0.790001X-1.550001X0*%
%ADD18O,2.080000X3.600000*%
%ADD19RoundRect,0.200000X0.200000X0.275000X-0.200000X0.275000X-0.200000X-0.275000X0.200000X-0.275000X0*%
%ADD20RoundRect,0.250000X-0.325000X-0.650000X0.325000X-0.650000X0.325000X0.650000X-0.325000X0.650000X0*%
%ADD21RoundRect,0.225000X-0.225000X-0.250000X0.225000X-0.250000X0.225000X0.250000X-0.225000X0.250000X0*%
%ADD22R,1.780000X2.000000*%
%ADD23FreePoly0,270.000000*%
%ADD24FreePoly1,270.000000*%
%ADD25R,1.800000X2.500000*%
%ADD26RoundRect,0.150000X-0.150000X0.587500X-0.150000X-0.587500X0.150000X-0.587500X0.150000X0.587500X0*%
%ADD27RoundRect,0.225000X0.225000X0.250000X-0.225000X0.250000X-0.225000X-0.250000X0.225000X-0.250000X0*%
%ADD28C,5.700000*%
%ADD29RoundRect,0.200000X0.275000X-0.200000X0.275000X0.200000X-0.275000X0.200000X-0.275000X-0.200000X0*%
%ADD30O,1.600000X1.600000*%
%ADD31C,1.600000*%
%ADD32RoundRect,0.225000X0.675000X-0.225000X0.675000X0.225000X-0.675000X0.225000X-0.675000X-0.225000X0*%
%ADD33RoundRect,0.200000X-0.200000X-0.275000X0.200000X-0.275000X0.200000X0.275000X-0.200000X0.275000X0*%
%ADD34RoundRect,0.249999X-0.790001X-1.550001X0.790001X-1.550001X0.790001X1.550001X-0.790001X1.550001X0*%
%ADD35R,3.000000X1.950000*%
%ADD36FreePoly0,90.000000*%
%ADD37FreePoly1,90.000000*%
%ADD38RoundRect,0.150000X0.150000X-0.825000X0.150000X0.825000X-0.150000X0.825000X-0.150000X-0.825000X0*%
%ADD39C,0.800000*%
G04 APERTURE END LIST*
D10*
X144782000Y-81612000D02*
X145798000Y-80596000D01*
X144274000Y-97106000D02*
X144782000Y-97614000D01*
X144274000Y-98376000D02*
X143004000Y-97106000D01*
X140845000Y-96852000D02*
X145163000Y-96852000D01*
X145163000Y-96852000D02*
X145163000Y-86819000D01*
X145163000Y-86819000D02*
X140845000Y-86819000D01*
X140845000Y-86819000D02*
X140845000Y-96852000D01*
X144782000Y-97614000D02*
X151894000Y-97614000D01*
X143258000Y-78440000D02*
X143258000Y-79072000D01*
X144274000Y-98376000D02*
X150370000Y-98376000D01*
X139956000Y-81612000D02*
X144782000Y-81612000D01*
X144274000Y-96598000D02*
X144274000Y-97106000D01*
X143258000Y-79072000D02*
X142496000Y-79834000D01*
X138940000Y-79834000D02*
X138178000Y-80596000D01*
X143004000Y-97106000D02*
X143004000Y-96598000D01*
X139448000Y-82120000D02*
X139956000Y-81612000D01*
X151894000Y-97614000D02*
X153418000Y-99138000D01*
X134749000Y-88724000D02*
X140337000Y-88724000D01*
X140337000Y-88724000D02*
X140337000Y-80723000D01*
X140337000Y-80723000D02*
X134749000Y-80723000D01*
X134749000Y-80723000D02*
X134749000Y-88724000D01*
X158162000Y-119738800D02*
X158162000Y-120701000D01*
X151132000Y-99770000D02*
X151132000Y-99138000D01*
X138178000Y-80596000D02*
X138178000Y-84152000D01*
X145798000Y-80596000D02*
X145798000Y-78440000D01*
X139448000Y-82882000D02*
X139448000Y-82120000D01*
X151132000Y-99138000D02*
X150370000Y-98376000D01*
X160702000Y-119738800D02*
X160702000Y-120701000D01*
X153418000Y-99138000D02*
X153418000Y-99770000D01*
X142496000Y-79834000D02*
X138940000Y-79834000D01*
X157400000Y-129718000D02*
X161464000Y-129718000D01*
X161464000Y-129718000D02*
X161464000Y-120701000D01*
X161464000Y-120701000D02*
X157400000Y-120701000D01*
X157400000Y-120701000D02*
X157400000Y-129718000D01*
D11*
X144909142Y-69686000D02*
X144766285Y-69614571D01*
X144552000Y-69614571D01*
X144337714Y-69686000D01*
X144194857Y-69828857D01*
X144123428Y-69971714D01*
X144052000Y-70257428D01*
X144052000Y-70471714D01*
X144123428Y-70757428D01*
X144194857Y-70900285D01*
X144337714Y-71043142D01*
X144552000Y-71114571D01*
X144694857Y-71114571D01*
X144909142Y-71043142D01*
X144980571Y-70971714D01*
X144980571Y-70471714D01*
X144694857Y-70471714D01*
X145623428Y-71114571D02*
X145623428Y-69614571D01*
X146480571Y-71114571D01*
X146480571Y-69614571D01*
X147194857Y-71114571D02*
X147194857Y-69614571D01*
X147552000Y-69614571D01*
X147766285Y-69686000D01*
X147909142Y-69828857D01*
X147980571Y-69971714D01*
X148052000Y-70257428D01*
X148052000Y-70471714D01*
X147980571Y-70757428D01*
X147909142Y-70900285D01*
X147766285Y-71043142D01*
X147552000Y-71114571D01*
X147194857Y-71114571D01*
X140068571Y-130575000D02*
X141568571Y-130075000D01*
X140068571Y-129575000D01*
X141425714Y-128217857D02*
X141497142Y-128289285D01*
X141568571Y-128503571D01*
X141568571Y-128646428D01*
X141497142Y-128860714D01*
X141354285Y-129003571D01*
X141211428Y-129075000D01*
X140925714Y-129146428D01*
X140711428Y-129146428D01*
X140425714Y-129075000D01*
X140282857Y-129003571D01*
X140140000Y-128860714D01*
X140068571Y-128646428D01*
X140068571Y-128503571D01*
X140140000Y-128289285D01*
X140211428Y-128217857D01*
X141425714Y-126717857D02*
X141497142Y-126789285D01*
X141568571Y-127003571D01*
X141568571Y-127146428D01*
X141497142Y-127360714D01*
X141354285Y-127503571D01*
X141211428Y-127575000D01*
X140925714Y-127646428D01*
X140711428Y-127646428D01*
X140425714Y-127575000D01*
X140282857Y-127503571D01*
X140140000Y-127360714D01*
X140068571Y-127146428D01*
X140068571Y-127003571D01*
X140140000Y-126789285D01*
X140211428Y-126717857D01*
D10*
X158467809Y-129341119D02*
X158505904Y-129226833D01*
X158505904Y-129036357D01*
X158467809Y-128960166D01*
X158429714Y-128922071D01*
X158353523Y-128883976D01*
X158277333Y-128883976D01*
X158201142Y-128922071D01*
X158163047Y-128960166D01*
X158124952Y-129036357D01*
X158086857Y-129188738D01*
X158048761Y-129264928D01*
X158010666Y-129303023D01*
X157934476Y-129341119D01*
X157858285Y-129341119D01*
X157782095Y-129303023D01*
X157744000Y-129264928D01*
X157705904Y-129188738D01*
X157705904Y-128998261D01*
X157744000Y-128883976D01*
X158467809Y-128236357D02*
X158505904Y-128312547D01*
X158505904Y-128464928D01*
X158467809Y-128541119D01*
X158391619Y-128579214D01*
X158086857Y-128579214D01*
X158010666Y-128541119D01*
X157972571Y-128464928D01*
X157972571Y-128312547D01*
X158010666Y-128236357D01*
X158086857Y-128198261D01*
X158163047Y-128198261D01*
X158239238Y-128579214D01*
X157972571Y-127969690D02*
X157972571Y-127664928D01*
X157705904Y-127855404D02*
X158391619Y-127855404D01*
X158467809Y-127817309D01*
X158505904Y-127741119D01*
X158505904Y-127664928D01*
X158505904Y-126788738D02*
X157705904Y-126788738D01*
X158010666Y-126788738D02*
X157972571Y-126712547D01*
X157972571Y-126560166D01*
X158010666Y-126483976D01*
X158048761Y-126445880D01*
X158124952Y-126407785D01*
X158353523Y-126407785D01*
X158429714Y-126445880D01*
X158467809Y-126483976D01*
X158505904Y-126560166D01*
X158505904Y-126712547D01*
X158467809Y-126788738D01*
X158505904Y-125950642D02*
X158467809Y-126026833D01*
X158429714Y-126064928D01*
X158353523Y-126103023D01*
X158124952Y-126103023D01*
X158048761Y-126064928D01*
X158010666Y-126026833D01*
X157972571Y-125950642D01*
X157972571Y-125836357D01*
X158010666Y-125760166D01*
X158048761Y-125722071D01*
X158124952Y-125683976D01*
X158353523Y-125683976D01*
X158429714Y-125722071D01*
X158467809Y-125760166D01*
X158505904Y-125836357D01*
X158505904Y-125950642D01*
X157972571Y-125455404D02*
X157972571Y-125150642D01*
X157705904Y-125341119D02*
X158391619Y-125341119D01*
X158467809Y-125303023D01*
X158505904Y-125226833D01*
X158505904Y-125150642D01*
X158505904Y-124883976D02*
X157705904Y-124883976D01*
X158505904Y-124541119D02*
X158086857Y-124541119D01*
X158010666Y-124579214D01*
X157972571Y-124655404D01*
X157972571Y-124769690D01*
X158010666Y-124845880D01*
X158048761Y-124883976D01*
X157972571Y-123664928D02*
X157972571Y-123360166D01*
X158505904Y-123550642D02*
X157820190Y-123550642D01*
X157744000Y-123512547D01*
X157705904Y-123436357D01*
X157705904Y-123360166D01*
X158505904Y-122979214D02*
X158467809Y-123055404D01*
X158429714Y-123093500D01*
X158353523Y-123131595D01*
X158124952Y-123131595D01*
X158048761Y-123093500D01*
X158010666Y-123055404D01*
X157972571Y-122979214D01*
X157972571Y-122864928D01*
X158010666Y-122788738D01*
X158048761Y-122750642D01*
X158124952Y-122712547D01*
X158353523Y-122712547D01*
X158429714Y-122750642D01*
X158467809Y-122788738D01*
X158505904Y-122864928D01*
X158505904Y-122979214D01*
X158505904Y-122369690D02*
X157972571Y-122369690D01*
X158124952Y-122369690D02*
X158048761Y-122331595D01*
X158010666Y-122293500D01*
X157972571Y-122217309D01*
X157972571Y-122141119D01*
X159260571Y-129303023D02*
X160060571Y-129303023D01*
X159298666Y-129303023D02*
X159260571Y-129226833D01*
X159260571Y-129074452D01*
X159298666Y-128998261D01*
X159336761Y-128960166D01*
X159412952Y-128922071D01*
X159641523Y-128922071D01*
X159717714Y-128960166D01*
X159755809Y-128998261D01*
X159793904Y-129074452D01*
X159793904Y-129226833D01*
X159755809Y-129303023D01*
X159260571Y-128236357D02*
X159793904Y-128236357D01*
X159260571Y-128579214D02*
X159679619Y-128579214D01*
X159755809Y-128541119D01*
X159793904Y-128464928D01*
X159793904Y-128350642D01*
X159755809Y-128274452D01*
X159717714Y-128236357D01*
X159793904Y-127741119D02*
X159755809Y-127817309D01*
X159679619Y-127855404D01*
X158993904Y-127855404D01*
X159793904Y-127322071D02*
X159755809Y-127398261D01*
X159679619Y-127436357D01*
X158993904Y-127436357D01*
X159260571Y-126674452D02*
X159793904Y-126674452D01*
X159260571Y-127017309D02*
X159679619Y-127017309D01*
X159755809Y-126979214D01*
X159793904Y-126903023D01*
X159793904Y-126788738D01*
X159755809Y-126712547D01*
X159717714Y-126674452D01*
X159260571Y-126293500D02*
X160060571Y-126293500D01*
X159298666Y-126293500D02*
X159260571Y-126217309D01*
X159260571Y-126064928D01*
X159298666Y-125988738D01*
X159336761Y-125950642D01*
X159412952Y-125912547D01*
X159641523Y-125912547D01*
X159717714Y-125950642D01*
X159755809Y-125988738D01*
X159793904Y-126064928D01*
X159793904Y-126217309D01*
X159755809Y-126293500D01*
X159260571Y-125074452D02*
X159260571Y-124769690D01*
X158993904Y-124960166D02*
X159679619Y-124960166D01*
X159755809Y-124922071D01*
X159793904Y-124845880D01*
X159793904Y-124769690D01*
X159793904Y-124388738D02*
X159755809Y-124464928D01*
X159717714Y-124503023D01*
X159641523Y-124541119D01*
X159412952Y-124541119D01*
X159336761Y-124503023D01*
X159298666Y-124464928D01*
X159260571Y-124388738D01*
X159260571Y-124274452D01*
X159298666Y-124198261D01*
X159336761Y-124160166D01*
X159412952Y-124122071D01*
X159641523Y-124122071D01*
X159717714Y-124160166D01*
X159755809Y-124198261D01*
X159793904Y-124274452D01*
X159793904Y-124388738D01*
X158993904Y-123283976D02*
X159793904Y-123017309D01*
X158993904Y-122750642D01*
X159717714Y-122026833D02*
X159755809Y-122064928D01*
X159793904Y-122179214D01*
X159793904Y-122255404D01*
X159755809Y-122369690D01*
X159679619Y-122445880D01*
X159603428Y-122483976D01*
X159451047Y-122522071D01*
X159336761Y-122522071D01*
X159184380Y-122483976D01*
X159108190Y-122445880D01*
X159032000Y-122369690D01*
X158993904Y-122255404D01*
X158993904Y-122179214D01*
X159032000Y-122064928D01*
X159070095Y-122026833D01*
X159717714Y-121226833D02*
X159755809Y-121264928D01*
X159793904Y-121379214D01*
X159793904Y-121455404D01*
X159755809Y-121569690D01*
X159679619Y-121645880D01*
X159603428Y-121683976D01*
X159451047Y-121722071D01*
X159336761Y-121722071D01*
X159184380Y-121683976D01*
X159108190Y-121645880D01*
X159032000Y-121569690D01*
X158993904Y-121455404D01*
X158993904Y-121379214D01*
X159032000Y-121264928D01*
X159070095Y-121226833D01*
X161081904Y-129188738D02*
X161043809Y-129264928D01*
X161005714Y-129303023D01*
X160929523Y-129341119D01*
X160700952Y-129341119D01*
X160624761Y-129303023D01*
X160586666Y-129264928D01*
X160548571Y-129188738D01*
X160548571Y-129074452D01*
X160586666Y-128998261D01*
X160624761Y-128960166D01*
X160700952Y-128922071D01*
X160929523Y-128922071D01*
X161005714Y-128960166D01*
X161043809Y-128998261D01*
X161081904Y-129074452D01*
X161081904Y-129188738D01*
X160548571Y-128579214D02*
X161081904Y-128579214D01*
X160624761Y-128579214D02*
X160586666Y-128541119D01*
X160548571Y-128464928D01*
X160548571Y-128350642D01*
X160586666Y-128274452D01*
X160662857Y-128236357D01*
X161081904Y-128236357D01*
X161043809Y-127283976D02*
X161081904Y-127169690D01*
X161081904Y-126979214D01*
X161043809Y-126903023D01*
X161005714Y-126864928D01*
X160929523Y-126826833D01*
X160853333Y-126826833D01*
X160777142Y-126864928D01*
X160739047Y-126903023D01*
X160700952Y-126979214D01*
X160662857Y-127131595D01*
X160624761Y-127207785D01*
X160586666Y-127245880D01*
X160510476Y-127283976D01*
X160434285Y-127283976D01*
X160358095Y-127245880D01*
X160320000Y-127207785D01*
X160281904Y-127131595D01*
X160281904Y-126941119D01*
X160320000Y-126826833D01*
X160281904Y-126331595D02*
X160281904Y-126255404D01*
X160320000Y-126179214D01*
X160358095Y-126141119D01*
X160434285Y-126103023D01*
X160586666Y-126064928D01*
X160777142Y-126064928D01*
X160929523Y-126103023D01*
X161005714Y-126141119D01*
X161043809Y-126179214D01*
X161081904Y-126255404D01*
X161081904Y-126331595D01*
X161043809Y-126407785D01*
X161005714Y-126445880D01*
X160929523Y-126483976D01*
X160777142Y-126522071D01*
X160586666Y-126522071D01*
X160434285Y-126483976D01*
X160358095Y-126445880D01*
X160320000Y-126407785D01*
X160281904Y-126331595D01*
X160777142Y-125722071D02*
X160777142Y-125112547D01*
X161081904Y-125417309D02*
X160472380Y-125417309D01*
X142001714Y-95852880D02*
X142039809Y-95890976D01*
X142077904Y-96005261D01*
X142077904Y-96081452D01*
X142039809Y-96195738D01*
X141963619Y-96271928D01*
X141887428Y-96310023D01*
X141735047Y-96348119D01*
X141620761Y-96348119D01*
X141468380Y-96310023D01*
X141392190Y-96271928D01*
X141316000Y-96195738D01*
X141277904Y-96081452D01*
X141277904Y-96005261D01*
X141316000Y-95890976D01*
X141354095Y-95852880D01*
X142077904Y-95510023D02*
X141277904Y-95510023D01*
X142077904Y-95167166D02*
X141658857Y-95167166D01*
X141582666Y-95205261D01*
X141544571Y-95281452D01*
X141544571Y-95395738D01*
X141582666Y-95471928D01*
X141620761Y-95510023D01*
X142077904Y-94671928D02*
X142039809Y-94748119D01*
X142001714Y-94786214D01*
X141925523Y-94824309D01*
X141696952Y-94824309D01*
X141620761Y-94786214D01*
X141582666Y-94748119D01*
X141544571Y-94671928D01*
X141544571Y-94557642D01*
X141582666Y-94481452D01*
X141620761Y-94443357D01*
X141696952Y-94405261D01*
X141925523Y-94405261D01*
X142001714Y-94443357D01*
X142039809Y-94481452D01*
X142077904Y-94557642D01*
X142077904Y-94671928D01*
X142077904Y-93948119D02*
X142039809Y-94024309D01*
X142001714Y-94062404D01*
X141925523Y-94100500D01*
X141696952Y-94100500D01*
X141620761Y-94062404D01*
X141582666Y-94024309D01*
X141544571Y-93948119D01*
X141544571Y-93833833D01*
X141582666Y-93757642D01*
X141620761Y-93719547D01*
X141696952Y-93681452D01*
X141925523Y-93681452D01*
X142001714Y-93719547D01*
X142039809Y-93757642D01*
X142077904Y-93833833D01*
X142077904Y-93948119D01*
X142039809Y-93376690D02*
X142077904Y-93300500D01*
X142077904Y-93148119D01*
X142039809Y-93071928D01*
X141963619Y-93033833D01*
X141925523Y-93033833D01*
X141849333Y-93071928D01*
X141811238Y-93148119D01*
X141811238Y-93262404D01*
X141773142Y-93338595D01*
X141696952Y-93376690D01*
X141658857Y-93376690D01*
X141582666Y-93338595D01*
X141544571Y-93262404D01*
X141544571Y-93148119D01*
X141582666Y-93071928D01*
X142039809Y-92386214D02*
X142077904Y-92462404D01*
X142077904Y-92614785D01*
X142039809Y-92690976D01*
X141963619Y-92729071D01*
X141658857Y-92729071D01*
X141582666Y-92690976D01*
X141544571Y-92614785D01*
X141544571Y-92462404D01*
X141582666Y-92386214D01*
X141658857Y-92348119D01*
X141735047Y-92348119D01*
X141811238Y-92729071D01*
X142077904Y-91281452D02*
X142039809Y-91357642D01*
X142001714Y-91395738D01*
X141925523Y-91433833D01*
X141696952Y-91433833D01*
X141620761Y-91395738D01*
X141582666Y-91357642D01*
X141544571Y-91281452D01*
X141544571Y-91167166D01*
X141582666Y-91090976D01*
X141620761Y-91052880D01*
X141696952Y-91014785D01*
X141925523Y-91014785D01*
X142001714Y-91052880D01*
X142039809Y-91090976D01*
X142077904Y-91167166D01*
X142077904Y-91281452D01*
X141544571Y-90671928D02*
X142077904Y-90671928D01*
X141620761Y-90671928D02*
X141582666Y-90633833D01*
X141544571Y-90557642D01*
X141544571Y-90443357D01*
X141582666Y-90367166D01*
X141658857Y-90329071D01*
X142077904Y-90329071D01*
X142039809Y-89643357D02*
X142077904Y-89719547D01*
X142077904Y-89871928D01*
X142039809Y-89948119D01*
X141963619Y-89986214D01*
X141658857Y-89986214D01*
X141582666Y-89948119D01*
X141544571Y-89871928D01*
X141544571Y-89719547D01*
X141582666Y-89643357D01*
X141658857Y-89605261D01*
X141735047Y-89605261D01*
X141811238Y-89986214D01*
X142001714Y-89262404D02*
X142039809Y-89224309D01*
X142077904Y-89262404D01*
X142039809Y-89300500D01*
X142001714Y-89262404D01*
X142077904Y-89262404D01*
X141582666Y-89262404D02*
X141620761Y-89224309D01*
X141658857Y-89262404D01*
X141620761Y-89300500D01*
X141582666Y-89262404D01*
X141658857Y-89262404D01*
X143365904Y-96310023D02*
X142565904Y-96310023D01*
X142565904Y-96119547D01*
X142604000Y-96005261D01*
X142680190Y-95929071D01*
X142756380Y-95890976D01*
X142908761Y-95852880D01*
X143023047Y-95852880D01*
X143175428Y-95890976D01*
X143251619Y-95929071D01*
X143327809Y-96005261D01*
X143365904Y-96119547D01*
X143365904Y-96310023D01*
X143365904Y-95510023D02*
X142832571Y-95510023D01*
X142565904Y-95510023D02*
X142604000Y-95548119D01*
X142642095Y-95510023D01*
X142604000Y-95471928D01*
X142565904Y-95510023D01*
X142642095Y-95510023D01*
X143365904Y-95129071D02*
X142832571Y-95129071D01*
X142984952Y-95129071D02*
X142908761Y-95090976D01*
X142870666Y-95052880D01*
X142832571Y-94976690D01*
X142832571Y-94900500D01*
X143327809Y-94329071D02*
X143365904Y-94405261D01*
X143365904Y-94557642D01*
X143327809Y-94633833D01*
X143251619Y-94671928D01*
X142946857Y-94671928D01*
X142870666Y-94633833D01*
X142832571Y-94557642D01*
X142832571Y-94405261D01*
X142870666Y-94329071D01*
X142946857Y-94290976D01*
X143023047Y-94290976D01*
X143099238Y-94671928D01*
X143327809Y-93605261D02*
X143365904Y-93681452D01*
X143365904Y-93833833D01*
X143327809Y-93910023D01*
X143289714Y-93948119D01*
X143213523Y-93986214D01*
X142984952Y-93986214D01*
X142908761Y-93948119D01*
X142870666Y-93910023D01*
X142832571Y-93833833D01*
X142832571Y-93681452D01*
X142870666Y-93605261D01*
X142832571Y-93376690D02*
X142832571Y-93071928D01*
X142565904Y-93262404D02*
X143251619Y-93262404D01*
X143327809Y-93224309D01*
X143365904Y-93148119D01*
X143365904Y-93071928D01*
X142565904Y-92043357D02*
X142565904Y-91890976D01*
X142604000Y-91814785D01*
X142680190Y-91738595D01*
X142832571Y-91700500D01*
X143099238Y-91700500D01*
X143251619Y-91738595D01*
X143327809Y-91814785D01*
X143365904Y-91890976D01*
X143365904Y-92043357D01*
X143327809Y-92119547D01*
X143251619Y-92195738D01*
X143099238Y-92233833D01*
X142832571Y-92233833D01*
X142680190Y-92195738D01*
X142604000Y-92119547D01*
X142565904Y-92043357D01*
X142832571Y-91014785D02*
X143365904Y-91014785D01*
X142832571Y-91357642D02*
X143251619Y-91357642D01*
X143327809Y-91319547D01*
X143365904Y-91243357D01*
X143365904Y-91129071D01*
X143327809Y-91052880D01*
X143289714Y-91014785D01*
X142832571Y-90748119D02*
X142832571Y-90443357D01*
X142565904Y-90633833D02*
X143251619Y-90633833D01*
X143327809Y-90595738D01*
X143365904Y-90519547D01*
X143365904Y-90443357D01*
X142832571Y-90176690D02*
X143632571Y-90176690D01*
X142870666Y-90176690D02*
X142832571Y-90100500D01*
X142832571Y-89948119D01*
X142870666Y-89871928D01*
X142908761Y-89833833D01*
X142984952Y-89795738D01*
X143213523Y-89795738D01*
X143289714Y-89833833D01*
X143327809Y-89871928D01*
X143365904Y-89948119D01*
X143365904Y-90100500D01*
X143327809Y-90176690D01*
X142832571Y-89110023D02*
X143365904Y-89110023D01*
X142832571Y-89452880D02*
X143251619Y-89452880D01*
X143327809Y-89414785D01*
X143365904Y-89338595D01*
X143365904Y-89224309D01*
X143327809Y-89148119D01*
X143289714Y-89110023D01*
X142832571Y-88843357D02*
X142832571Y-88538595D01*
X142565904Y-88729071D02*
X143251619Y-88729071D01*
X143327809Y-88690976D01*
X143365904Y-88614785D01*
X143365904Y-88538595D01*
X144653904Y-96310023D02*
X143853904Y-96310023D01*
X144120571Y-95929071D02*
X144653904Y-95929071D01*
X144196761Y-95929071D02*
X144158666Y-95890976D01*
X144120571Y-95814785D01*
X144120571Y-95700500D01*
X144158666Y-95624309D01*
X144234857Y-95586214D01*
X144653904Y-95586214D01*
X144120571Y-95281452D02*
X144653904Y-95090976D01*
X144120571Y-94900500D01*
X144615809Y-94290976D02*
X144653904Y-94367166D01*
X144653904Y-94519547D01*
X144615809Y-94595738D01*
X144539619Y-94633833D01*
X144234857Y-94633833D01*
X144158666Y-94595738D01*
X144120571Y-94519547D01*
X144120571Y-94367166D01*
X144158666Y-94290976D01*
X144234857Y-94252880D01*
X144311047Y-94252880D01*
X144387238Y-94633833D01*
X144653904Y-93910023D02*
X144120571Y-93910023D01*
X144272952Y-93910023D02*
X144196761Y-93871928D01*
X144158666Y-93833833D01*
X144120571Y-93757642D01*
X144120571Y-93681452D01*
X144120571Y-93529071D02*
X144120571Y-93224309D01*
X143853904Y-93414785D02*
X144539619Y-93414785D01*
X144615809Y-93376690D01*
X144653904Y-93300500D01*
X144653904Y-93224309D01*
X144615809Y-92652880D02*
X144653904Y-92729071D01*
X144653904Y-92881452D01*
X144615809Y-92957642D01*
X144539619Y-92995738D01*
X144234857Y-92995738D01*
X144158666Y-92957642D01*
X144120571Y-92881452D01*
X144120571Y-92729071D01*
X144158666Y-92652880D01*
X144234857Y-92614785D01*
X144311047Y-92614785D01*
X144387238Y-92995738D01*
X144653904Y-91929071D02*
X143853904Y-91929071D01*
X144615809Y-91929071D02*
X144653904Y-92005261D01*
X144653904Y-92157642D01*
X144615809Y-92233833D01*
X144577714Y-92271928D01*
X144501523Y-92310023D01*
X144272952Y-92310023D01*
X144196761Y-92271928D01*
X144158666Y-92233833D01*
X144120571Y-92157642D01*
X144120571Y-92005261D01*
X144158666Y-91929071D01*
X143853904Y-90786214D02*
X143853904Y-90633833D01*
X143892000Y-90557642D01*
X143968190Y-90481452D01*
X144120571Y-90443357D01*
X144387238Y-90443357D01*
X144539619Y-90481452D01*
X144615809Y-90557642D01*
X144653904Y-90633833D01*
X144653904Y-90786214D01*
X144615809Y-90862404D01*
X144539619Y-90938595D01*
X144387238Y-90976690D01*
X144120571Y-90976690D01*
X143968190Y-90938595D01*
X143892000Y-90862404D01*
X143853904Y-90786214D01*
X144120571Y-89757642D02*
X144653904Y-89757642D01*
X144120571Y-90100500D02*
X144539619Y-90100500D01*
X144615809Y-90062404D01*
X144653904Y-89986214D01*
X144653904Y-89871928D01*
X144615809Y-89795738D01*
X144577714Y-89757642D01*
X144120571Y-89490976D02*
X144120571Y-89186214D01*
X143853904Y-89376690D02*
X144539619Y-89376690D01*
X144615809Y-89338595D01*
X144653904Y-89262404D01*
X144653904Y-89186214D01*
X144120571Y-88919547D02*
X144920571Y-88919547D01*
X144158666Y-88919547D02*
X144120571Y-88843357D01*
X144120571Y-88690976D01*
X144158666Y-88614785D01*
X144196761Y-88576690D01*
X144272952Y-88538595D01*
X144501523Y-88538595D01*
X144577714Y-88576690D01*
X144615809Y-88614785D01*
X144653904Y-88690976D01*
X144653904Y-88843357D01*
X144615809Y-88919547D01*
X144120571Y-87852880D02*
X144653904Y-87852880D01*
X144120571Y-88195738D02*
X144539619Y-88195738D01*
X144615809Y-88157642D01*
X144653904Y-88081452D01*
X144653904Y-87967166D01*
X144615809Y-87890976D01*
X144577714Y-87852880D01*
X144120571Y-87586214D02*
X144120571Y-87281452D01*
X143853904Y-87471928D02*
X144539619Y-87471928D01*
X144615809Y-87433833D01*
X144653904Y-87357642D01*
X144653904Y-87281452D01*
D11*
X151779371Y-72024142D02*
X150279371Y-72024142D01*
X150279371Y-71667000D01*
X150350800Y-71452714D01*
X150493657Y-71309857D01*
X150636514Y-71238428D01*
X150922228Y-71167000D01*
X151136514Y-71167000D01*
X151422228Y-71238428D01*
X151565085Y-71309857D01*
X151707942Y-71452714D01*
X151779371Y-71667000D01*
X151779371Y-72024142D01*
X150279371Y-70238428D02*
X150279371Y-70095571D01*
X150350800Y-69952714D01*
X150422228Y-69881285D01*
X150565085Y-69809857D01*
X150850800Y-69738428D01*
X151207942Y-69738428D01*
X151493657Y-69809857D01*
X151636514Y-69881285D01*
X151707942Y-69952714D01*
X151779371Y-70095571D01*
X151779371Y-70238428D01*
X151707942Y-70381285D01*
X151636514Y-70452714D01*
X151493657Y-70524142D01*
X151207942Y-70595571D01*
X150850800Y-70595571D01*
X150565085Y-70524142D01*
X150422228Y-70452714D01*
X150350800Y-70381285D01*
X150279371Y-70238428D01*
D10*
X135845904Y-88182023D02*
X135045904Y-88182023D01*
X135312571Y-87801071D02*
X135845904Y-87801071D01*
X135388761Y-87801071D02*
X135350666Y-87762976D01*
X135312571Y-87686785D01*
X135312571Y-87572500D01*
X135350666Y-87496309D01*
X135426857Y-87458214D01*
X135845904Y-87458214D01*
X135312571Y-87077261D02*
X136112571Y-87077261D01*
X135350666Y-87077261D02*
X135312571Y-87001071D01*
X135312571Y-86848690D01*
X135350666Y-86772500D01*
X135388761Y-86734404D01*
X135464952Y-86696309D01*
X135693523Y-86696309D01*
X135769714Y-86734404D01*
X135807809Y-86772500D01*
X135845904Y-86848690D01*
X135845904Y-87001071D01*
X135807809Y-87077261D01*
X135312571Y-86010595D02*
X135845904Y-86010595D01*
X135312571Y-86353452D02*
X135731619Y-86353452D01*
X135807809Y-86315357D01*
X135845904Y-86239166D01*
X135845904Y-86124880D01*
X135807809Y-86048690D01*
X135769714Y-86010595D01*
X135312571Y-85743928D02*
X135312571Y-85439166D01*
X135045904Y-85629642D02*
X135731619Y-85629642D01*
X135807809Y-85591547D01*
X135845904Y-85515357D01*
X135845904Y-85439166D01*
X135807809Y-84220119D02*
X135845904Y-84296309D01*
X135845904Y-84448690D01*
X135807809Y-84524880D01*
X135769714Y-84562976D01*
X135693523Y-84601071D01*
X135464952Y-84601071D01*
X135388761Y-84562976D01*
X135350666Y-84524880D01*
X135312571Y-84448690D01*
X135312571Y-84296309D01*
X135350666Y-84220119D01*
X135845904Y-83762976D02*
X135807809Y-83839166D01*
X135769714Y-83877261D01*
X135693523Y-83915357D01*
X135464952Y-83915357D01*
X135388761Y-83877261D01*
X135350666Y-83839166D01*
X135312571Y-83762976D01*
X135312571Y-83648690D01*
X135350666Y-83572500D01*
X135388761Y-83534404D01*
X135464952Y-83496309D01*
X135693523Y-83496309D01*
X135769714Y-83534404D01*
X135807809Y-83572500D01*
X135845904Y-83648690D01*
X135845904Y-83762976D01*
X135312571Y-83153452D02*
X135845904Y-83153452D01*
X135388761Y-83153452D02*
X135350666Y-83115357D01*
X135312571Y-83039166D01*
X135312571Y-82924880D01*
X135350666Y-82848690D01*
X135426857Y-82810595D01*
X135845904Y-82810595D01*
X135312571Y-82543928D02*
X135312571Y-82239166D01*
X135845904Y-82429642D02*
X135160190Y-82429642D01*
X135084000Y-82391547D01*
X135045904Y-82315357D01*
X135045904Y-82239166D01*
X135845904Y-81972500D02*
X135312571Y-81972500D01*
X135045904Y-81972500D02*
X135084000Y-82010595D01*
X135122095Y-81972500D01*
X135084000Y-81934404D01*
X135045904Y-81972500D01*
X135122095Y-81972500D01*
X135312571Y-81248690D02*
X135960190Y-81248690D01*
X136036380Y-81286785D01*
X136074476Y-81324880D01*
X136112571Y-81401071D01*
X136112571Y-81515357D01*
X136074476Y-81591547D01*
X135807809Y-81248690D02*
X135845904Y-81324880D01*
X135845904Y-81477261D01*
X135807809Y-81553452D01*
X135769714Y-81591547D01*
X135693523Y-81629642D01*
X135464952Y-81629642D01*
X135388761Y-81591547D01*
X135350666Y-81553452D01*
X135312571Y-81477261D01*
X135312571Y-81324880D01*
X135350666Y-81248690D01*
X137057714Y-87724880D02*
X137095809Y-87762976D01*
X137133904Y-87877261D01*
X137133904Y-87953452D01*
X137095809Y-88067738D01*
X137019619Y-88143928D01*
X136943428Y-88182023D01*
X136791047Y-88220119D01*
X136676761Y-88220119D01*
X136524380Y-88182023D01*
X136448190Y-88143928D01*
X136372000Y-88067738D01*
X136333904Y-87953452D01*
X136333904Y-87877261D01*
X136372000Y-87762976D01*
X136410095Y-87724880D01*
X137133904Y-87382023D02*
X136333904Y-87382023D01*
X137133904Y-87039166D02*
X136714857Y-87039166D01*
X136638666Y-87077261D01*
X136600571Y-87153452D01*
X136600571Y-87267738D01*
X136638666Y-87343928D01*
X136676761Y-87382023D01*
X137133904Y-86543928D02*
X137095809Y-86620119D01*
X137057714Y-86658214D01*
X136981523Y-86696309D01*
X136752952Y-86696309D01*
X136676761Y-86658214D01*
X136638666Y-86620119D01*
X136600571Y-86543928D01*
X136600571Y-86429642D01*
X136638666Y-86353452D01*
X136676761Y-86315357D01*
X136752952Y-86277261D01*
X136981523Y-86277261D01*
X137057714Y-86315357D01*
X137095809Y-86353452D01*
X137133904Y-86429642D01*
X137133904Y-86543928D01*
X137133904Y-85820119D02*
X137095809Y-85896309D01*
X137057714Y-85934404D01*
X136981523Y-85972500D01*
X136752952Y-85972500D01*
X136676761Y-85934404D01*
X136638666Y-85896309D01*
X136600571Y-85820119D01*
X136600571Y-85705833D01*
X136638666Y-85629642D01*
X136676761Y-85591547D01*
X136752952Y-85553452D01*
X136981523Y-85553452D01*
X137057714Y-85591547D01*
X137095809Y-85629642D01*
X137133904Y-85705833D01*
X137133904Y-85820119D01*
X137095809Y-85248690D02*
X137133904Y-85172500D01*
X137133904Y-85020119D01*
X137095809Y-84943928D01*
X137019619Y-84905833D01*
X136981523Y-84905833D01*
X136905333Y-84943928D01*
X136867238Y-85020119D01*
X136867238Y-85134404D01*
X136829142Y-85210595D01*
X136752952Y-85248690D01*
X136714857Y-85248690D01*
X136638666Y-85210595D01*
X136600571Y-85134404D01*
X136600571Y-85020119D01*
X136638666Y-84943928D01*
X137095809Y-84258214D02*
X137133904Y-84334404D01*
X137133904Y-84486785D01*
X137095809Y-84562976D01*
X137019619Y-84601071D01*
X136714857Y-84601071D01*
X136638666Y-84562976D01*
X136600571Y-84486785D01*
X136600571Y-84334404D01*
X136638666Y-84258214D01*
X136714857Y-84220119D01*
X136791047Y-84220119D01*
X136867238Y-84601071D01*
X137133904Y-83153452D02*
X137095809Y-83229642D01*
X137057714Y-83267738D01*
X136981523Y-83305833D01*
X136752952Y-83305833D01*
X136676761Y-83267738D01*
X136638666Y-83229642D01*
X136600571Y-83153452D01*
X136600571Y-83039166D01*
X136638666Y-82962976D01*
X136676761Y-82924880D01*
X136752952Y-82886785D01*
X136981523Y-82886785D01*
X137057714Y-82924880D01*
X137095809Y-82962976D01*
X137133904Y-83039166D01*
X137133904Y-83153452D01*
X136600571Y-82543928D02*
X137133904Y-82543928D01*
X136676761Y-82543928D02*
X136638666Y-82505833D01*
X136600571Y-82429642D01*
X136600571Y-82315357D01*
X136638666Y-82239166D01*
X136714857Y-82201071D01*
X137133904Y-82201071D01*
X137095809Y-81515357D02*
X137133904Y-81591547D01*
X137133904Y-81743928D01*
X137095809Y-81820119D01*
X137019619Y-81858214D01*
X136714857Y-81858214D01*
X136638666Y-81820119D01*
X136600571Y-81743928D01*
X136600571Y-81591547D01*
X136638666Y-81515357D01*
X136714857Y-81477261D01*
X136791047Y-81477261D01*
X136867238Y-81858214D01*
X137057714Y-81134404D02*
X137095809Y-81096309D01*
X137133904Y-81134404D01*
X137095809Y-81172500D01*
X137057714Y-81134404D01*
X137133904Y-81134404D01*
X136638666Y-81134404D02*
X136676761Y-81096309D01*
X136714857Y-81134404D01*
X136676761Y-81172500D01*
X136638666Y-81134404D01*
X136714857Y-81134404D01*
X138421904Y-88182023D02*
X137621904Y-88182023D01*
X137621904Y-87877261D01*
X137660000Y-87801071D01*
X137698095Y-87762976D01*
X137774285Y-87724880D01*
X137888571Y-87724880D01*
X137964761Y-87762976D01*
X138002857Y-87801071D01*
X138040952Y-87877261D01*
X138040952Y-88182023D01*
X137888571Y-87039166D02*
X138421904Y-87039166D01*
X137888571Y-87382023D02*
X138307619Y-87382023D01*
X138383809Y-87343928D01*
X138421904Y-87267738D01*
X138421904Y-87153452D01*
X138383809Y-87077261D01*
X138345714Y-87039166D01*
X138421904Y-86543928D02*
X138383809Y-86620119D01*
X138307619Y-86658214D01*
X137621904Y-86658214D01*
X138421904Y-86124880D02*
X138383809Y-86201071D01*
X138307619Y-86239166D01*
X137621904Y-86239166D01*
X137888571Y-85477261D02*
X138421904Y-85477261D01*
X137888571Y-85820119D02*
X138307619Y-85820119D01*
X138383809Y-85782023D01*
X138421904Y-85705833D01*
X138421904Y-85591547D01*
X138383809Y-85515357D01*
X138345714Y-85477261D01*
X137888571Y-85096309D02*
X138688571Y-85096309D01*
X137926666Y-85096309D02*
X137888571Y-85020119D01*
X137888571Y-84867738D01*
X137926666Y-84791547D01*
X137964761Y-84753452D01*
X138040952Y-84715357D01*
X138269523Y-84715357D01*
X138345714Y-84753452D01*
X138383809Y-84791547D01*
X138421904Y-84867738D01*
X138421904Y-85020119D01*
X138383809Y-85096309D01*
X139709904Y-88182023D02*
X138909904Y-88182023D01*
X138909904Y-87877261D01*
X138948000Y-87801071D01*
X138986095Y-87762976D01*
X139062285Y-87724880D01*
X139176571Y-87724880D01*
X139252761Y-87762976D01*
X139290857Y-87801071D01*
X139328952Y-87877261D01*
X139328952Y-88182023D01*
X139176571Y-87039166D02*
X139709904Y-87039166D01*
X139176571Y-87382023D02*
X139595619Y-87382023D01*
X139671809Y-87343928D01*
X139709904Y-87267738D01*
X139709904Y-87153452D01*
X139671809Y-87077261D01*
X139633714Y-87039166D01*
X139709904Y-86543928D02*
X139671809Y-86620119D01*
X139595619Y-86658214D01*
X138909904Y-86658214D01*
X139709904Y-86124880D02*
X139671809Y-86201071D01*
X139595619Y-86239166D01*
X138909904Y-86239166D01*
X139709904Y-85477261D02*
X138909904Y-85477261D01*
X139671809Y-85477261D02*
X139709904Y-85553452D01*
X139709904Y-85705833D01*
X139671809Y-85782023D01*
X139633714Y-85820119D01*
X139557523Y-85858214D01*
X139328952Y-85858214D01*
X139252761Y-85820119D01*
X139214666Y-85782023D01*
X139176571Y-85705833D01*
X139176571Y-85553452D01*
X139214666Y-85477261D01*
X139709904Y-84982023D02*
X139671809Y-85058214D01*
X139633714Y-85096309D01*
X139557523Y-85134404D01*
X139328952Y-85134404D01*
X139252761Y-85096309D01*
X139214666Y-85058214D01*
X139176571Y-84982023D01*
X139176571Y-84867738D01*
X139214666Y-84791547D01*
X139252761Y-84753452D01*
X139328952Y-84715357D01*
X139557523Y-84715357D01*
X139633714Y-84753452D01*
X139671809Y-84791547D01*
X139709904Y-84867738D01*
X139709904Y-84982023D01*
X139176571Y-84448690D02*
X139709904Y-84296309D01*
X139328952Y-84143928D01*
X139709904Y-83991547D01*
X139176571Y-83839166D01*
X139176571Y-83534404D02*
X139709904Y-83534404D01*
X139252761Y-83534404D02*
X139214666Y-83496309D01*
X139176571Y-83420119D01*
X139176571Y-83305833D01*
X139214666Y-83229642D01*
X139290857Y-83191547D01*
X139709904Y-83191547D01*
D11*
X156808571Y-72095571D02*
X155308571Y-72095571D01*
X156808571Y-71238428D01*
X155308571Y-71238428D01*
X156665714Y-69667000D02*
X156737142Y-69738428D01*
X156808571Y-69952714D01*
X156808571Y-70095571D01*
X156737142Y-70309857D01*
X156594285Y-70452714D01*
X156451428Y-70524142D01*
X156165714Y-70595571D01*
X155951428Y-70595571D01*
X155665714Y-70524142D01*
X155522857Y-70452714D01*
X155380000Y-70309857D01*
X155308571Y-70095571D01*
X155308571Y-69952714D01*
X155380000Y-69738428D01*
X155451428Y-69667000D01*
X140997142Y-73734571D02*
X140997142Y-72591714D01*
X141568571Y-73163142D02*
X140425714Y-73163142D01*
X140068571Y-71163142D02*
X140068571Y-71877428D01*
X140782857Y-71948857D01*
X140711428Y-71877428D01*
X140640000Y-71734571D01*
X140640000Y-71377428D01*
X140711428Y-71234571D01*
X140782857Y-71163142D01*
X140925714Y-71091714D01*
X141282857Y-71091714D01*
X141425714Y-71163142D01*
X141497142Y-71234571D01*
X141568571Y-71377428D01*
X141568571Y-71734571D01*
X141497142Y-71877428D01*
X141425714Y-71948857D01*
X140068571Y-70663142D02*
X141568571Y-70163142D01*
X140068571Y-69663142D01*
D10*
X161252380Y-68522666D02*
X161252380Y-67903619D01*
X161633333Y-68236952D01*
X161633333Y-68094095D01*
X161680952Y-67998857D01*
X161728571Y-67951238D01*
X161823809Y-67903619D01*
X162061904Y-67903619D01*
X162157142Y-67951238D01*
X162204761Y-67998857D01*
X162252380Y-68094095D01*
X162252380Y-68379809D01*
X162204761Y-68475047D01*
X162157142Y-68522666D01*
X161680952Y-67332190D02*
X161633333Y-67427428D01*
X161585714Y-67475047D01*
X161490476Y-67522666D01*
X161442857Y-67522666D01*
X161347619Y-67475047D01*
X161300000Y-67427428D01*
X161252380Y-67332190D01*
X161252380Y-67141714D01*
X161300000Y-67046476D01*
X161347619Y-66998857D01*
X161442857Y-66951238D01*
X161490476Y-66951238D01*
X161585714Y-66998857D01*
X161633333Y-67046476D01*
X161680952Y-67141714D01*
X161680952Y-67332190D01*
X161728571Y-67427428D01*
X161776190Y-67475047D01*
X161871428Y-67522666D01*
X162061904Y-67522666D01*
X162157142Y-67475047D01*
X162204761Y-67427428D01*
X162252380Y-67332190D01*
X162252380Y-67141714D01*
X162204761Y-67046476D01*
X162157142Y-66998857D01*
X162061904Y-66951238D01*
X161871428Y-66951238D01*
X161776190Y-66998857D01*
X161728571Y-67046476D01*
X161680952Y-67141714D01*
X162252380Y-66522666D02*
X161252380Y-66522666D01*
X161633333Y-66522666D02*
X161585714Y-66427428D01*
X161585714Y-66236952D01*
X161633333Y-66141714D01*
X161680952Y-66094095D01*
X161776190Y-66046476D01*
X162061904Y-66046476D01*
X162157142Y-66094095D01*
X162204761Y-66141714D01*
X162252380Y-66236952D01*
X162252380Y-66427428D01*
X162204761Y-66522666D01*
X161252380Y-65713142D02*
X161252380Y-65046476D01*
X162252380Y-65475047D01*
X161252380Y-64760761D02*
X161252380Y-64094095D01*
X162252380Y-64522666D01*
X161347619Y-63760761D02*
X161300000Y-63713142D01*
X161252380Y-63617904D01*
X161252380Y-63379809D01*
X161300000Y-63284571D01*
X161347619Y-63236952D01*
X161442857Y-63189333D01*
X161538095Y-63189333D01*
X161680952Y-63236952D01*
X162252380Y-63808380D01*
X162252380Y-63189333D01*
X161252380Y-62856000D02*
X161252380Y-62236952D01*
X161633333Y-62570285D01*
X161633333Y-62427428D01*
X161680952Y-62332190D01*
X161728571Y-62284571D01*
X161823809Y-62236952D01*
X162061904Y-62236952D01*
X162157142Y-62284571D01*
X162204761Y-62332190D01*
X162252380Y-62427428D01*
X162252380Y-62713142D01*
X162204761Y-62808380D01*
X162157142Y-62856000D01*
D11*
X145270000Y-129668666D02*
X145203333Y-129802000D01*
X145203333Y-130002000D01*
X145270000Y-130202000D01*
X145403333Y-130335333D01*
X145536666Y-130402000D01*
X145803333Y-130468666D01*
X146003333Y-130468666D01*
X146270000Y-130402000D01*
X146403333Y-130335333D01*
X146536666Y-130202000D01*
X146603333Y-130002000D01*
X146603333Y-129868666D01*
X146536666Y-129668666D01*
X146470000Y-129602000D01*
X146003333Y-129602000D01*
X146003333Y-129868666D01*
X146603333Y-129002000D02*
X145203333Y-129002000D01*
X146603333Y-128202000D01*
X145203333Y-128202000D01*
X146603333Y-127535333D02*
X145203333Y-127535333D01*
X145203333Y-127202000D01*
X145270000Y-127002000D01*
X145403333Y-126868666D01*
X145536666Y-126802000D01*
X145803333Y-126735333D01*
X146003333Y-126735333D01*
X146270000Y-126802000D01*
X146403333Y-126868666D01*
X146536666Y-127002000D01*
X146603333Y-127202000D01*
X146603333Y-127535333D01*
X151657142Y-130392428D02*
X151728571Y-130178142D01*
X151728571Y-129821000D01*
X151657142Y-129678142D01*
X151585714Y-129606714D01*
X151442857Y-129535285D01*
X151300000Y-129535285D01*
X151157142Y-129606714D01*
X151085714Y-129678142D01*
X151014285Y-129821000D01*
X150942857Y-130106714D01*
X150871428Y-130249571D01*
X150800000Y-130321000D01*
X150657142Y-130392428D01*
X150514285Y-130392428D01*
X150371428Y-130321000D01*
X150300000Y-130249571D01*
X150228571Y-130106714D01*
X150228571Y-129749571D01*
X150300000Y-129535285D01*
X150228571Y-128606714D02*
X150228571Y-128463857D01*
X150300000Y-128321000D01*
X150371428Y-128249571D01*
X150514285Y-128178142D01*
X150800000Y-128106714D01*
X151157142Y-128106714D01*
X151442857Y-128178142D01*
X151585714Y-128249571D01*
X151657142Y-128321000D01*
X151728571Y-128463857D01*
X151728571Y-128606714D01*
X151657142Y-128749571D01*
X151585714Y-128821000D01*
X151442857Y-128892428D01*
X151157142Y-128963857D01*
X150800000Y-128963857D01*
X150514285Y-128892428D01*
X150371428Y-128821000D01*
X150300000Y-128749571D01*
X150228571Y-128606714D01*
X151157142Y-127463857D02*
X151157142Y-126321000D01*
X156737142Y-130519428D02*
X156808571Y-130305142D01*
X156808571Y-129948000D01*
X156737142Y-129805142D01*
X156665714Y-129733714D01*
X156522857Y-129662285D01*
X156380000Y-129662285D01*
X156237142Y-129733714D01*
X156165714Y-129805142D01*
X156094285Y-129948000D01*
X156022857Y-130233714D01*
X155951428Y-130376571D01*
X155880000Y-130448000D01*
X155737142Y-130519428D01*
X155594285Y-130519428D01*
X155451428Y-130448000D01*
X155380000Y-130376571D01*
X155308571Y-130233714D01*
X155308571Y-129876571D01*
X155380000Y-129662285D01*
X155308571Y-128733714D02*
X155308571Y-128590857D01*
X155380000Y-128448000D01*
X155451428Y-128376571D01*
X155594285Y-128305142D01*
X155880000Y-128233714D01*
X156237142Y-128233714D01*
X156522857Y-128305142D01*
X156665714Y-128376571D01*
X156737142Y-128448000D01*
X156808571Y-128590857D01*
X156808571Y-128733714D01*
X156737142Y-128876571D01*
X156665714Y-128948000D01*
X156522857Y-129019428D01*
X156237142Y-129090857D01*
X155880000Y-129090857D01*
X155594285Y-129019428D01*
X155451428Y-128948000D01*
X155380000Y-128876571D01*
X155308571Y-128733714D01*
X156237142Y-127590857D02*
X156237142Y-126448000D01*
X156808571Y-127019428D02*
X155665714Y-127019428D01*
D12*
X149649982Y-81953142D02*
X148221410Y-81953142D01*
X148596410Y-78953142D01*
X151935696Y-81953142D02*
X152132125Y-80381714D01*
X152024982Y-80096000D01*
X151757125Y-79953142D01*
X151185696Y-79953142D01*
X150882125Y-80096000D01*
X151953553Y-81810285D02*
X151649982Y-81953142D01*
X150935696Y-81953142D01*
X150667839Y-81810285D01*
X150560696Y-81524571D01*
X150596410Y-81238857D01*
X150774982Y-80953142D01*
X151078553Y-80810285D01*
X151792839Y-80810285D01*
X152096410Y-80667428D01*
X153239267Y-81810285D02*
X153507125Y-81953142D01*
X154078553Y-81953142D01*
X154382125Y-81810285D01*
X154560696Y-81524571D01*
X154578553Y-81381714D01*
X154471410Y-81096000D01*
X154203553Y-80953142D01*
X153774982Y-80953142D01*
X153507125Y-80810285D01*
X153399982Y-80524571D01*
X153417839Y-80381714D01*
X153596410Y-80096000D01*
X153899982Y-79953142D01*
X154328553Y-79953142D01*
X154596410Y-80096000D01*
X155667839Y-81810285D02*
X156078553Y-81953142D01*
X156792839Y-81953142D01*
X157096410Y-81810285D01*
X157257125Y-81667428D01*
X157435696Y-81381714D01*
X157471410Y-81096000D01*
X157364267Y-80810285D01*
X157239267Y-80667428D01*
X156971410Y-80524571D01*
X156417839Y-80381714D01*
X156149982Y-80238857D01*
X156024982Y-80096000D01*
X155917839Y-79810285D01*
X155953553Y-79524571D01*
X156132125Y-79238857D01*
X156292839Y-79096000D01*
X156596410Y-78953142D01*
X157310696Y-78953142D01*
X157721410Y-79096000D01*
X159596410Y-78953142D02*
X159882125Y-78953142D01*
X160149982Y-79096000D01*
X160274982Y-79238857D01*
X160382125Y-79524571D01*
X160453553Y-80096000D01*
X160364267Y-80810285D01*
X160149982Y-81381714D01*
X159971410Y-81667428D01*
X159810696Y-81810285D01*
X159507125Y-81953142D01*
X159221410Y-81953142D01*
X158953553Y-81810285D01*
X158828553Y-81667428D01*
X158721410Y-81381714D01*
X158649982Y-80810285D01*
X158739267Y-80096000D01*
X158953553Y-79524571D01*
X159132125Y-79238857D01*
X159292839Y-79096000D01*
X159596410Y-78953142D01*
D10*
%TO.C,R5*%
X153522380Y-77206666D02*
X153046190Y-77540000D01*
X153522380Y-77778095D02*
X152522380Y-77778095D01*
X152522380Y-77397142D01*
X152570000Y-77301904D01*
X152617619Y-77254285D01*
X152712857Y-77206666D01*
X152855714Y-77206666D01*
X152950952Y-77254285D01*
X152998571Y-77301904D01*
X153046190Y-77397142D01*
X153046190Y-77778095D01*
X152522380Y-76301904D02*
X152522380Y-76778095D01*
X152998571Y-76825714D01*
X152950952Y-76778095D01*
X152903333Y-76682857D01*
X152903333Y-76444761D01*
X152950952Y-76349523D01*
X152998571Y-76301904D01*
X153093809Y-76254285D01*
X153331904Y-76254285D01*
X153427142Y-76301904D01*
X153474761Y-76349523D01*
X153522380Y-76444761D01*
X153522380Y-76682857D01*
X153474761Y-76778095D01*
X153427142Y-76825714D01*
%TO.C,J3*%
X137000666Y-67956380D02*
X137000666Y-68670666D01*
X136953047Y-68813523D01*
X136857809Y-68908761D01*
X136714952Y-68956380D01*
X136619714Y-68956380D01*
X137381619Y-67956380D02*
X138000666Y-67956380D01*
X137667333Y-68337333D01*
X137810190Y-68337333D01*
X137905428Y-68384952D01*
X137953047Y-68432571D01*
X138000666Y-68527809D01*
X138000666Y-68765904D01*
X137953047Y-68861142D01*
X137905428Y-68908761D01*
X137810190Y-68956380D01*
X137524476Y-68956380D01*
X137429238Y-68908761D01*
X137381619Y-68861142D01*
%TO.C,R6*%
X146879580Y-87669866D02*
X146403390Y-88003200D01*
X146879580Y-88241295D02*
X145879580Y-88241295D01*
X145879580Y-87860342D01*
X145927200Y-87765104D01*
X145974819Y-87717485D01*
X146070057Y-87669866D01*
X146212914Y-87669866D01*
X146308152Y-87717485D01*
X146355771Y-87765104D01*
X146403390Y-87860342D01*
X146403390Y-88241295D01*
X145879580Y-86812723D02*
X145879580Y-87003200D01*
X145927200Y-87098438D01*
X145974819Y-87146057D01*
X146117676Y-87241295D01*
X146308152Y-87288914D01*
X146689104Y-87288914D01*
X146784342Y-87241295D01*
X146831961Y-87193676D01*
X146879580Y-87098438D01*
X146879580Y-86907961D01*
X146831961Y-86812723D01*
X146784342Y-86765104D01*
X146689104Y-86717485D01*
X146451009Y-86717485D01*
X146355771Y-86765104D01*
X146308152Y-86812723D01*
X146260533Y-86907961D01*
X146260533Y-87098438D01*
X146308152Y-87193676D01*
X146355771Y-87241295D01*
X146451009Y-87288914D01*
%TO.C,R12*%
X149981142Y-93400380D02*
X149647809Y-92924190D01*
X149409714Y-93400380D02*
X149409714Y-92400380D01*
X149790666Y-92400380D01*
X149885904Y-92448000D01*
X149933523Y-92495619D01*
X149981142Y-92590857D01*
X149981142Y-92733714D01*
X149933523Y-92828952D01*
X149885904Y-92876571D01*
X149790666Y-92924190D01*
X149409714Y-92924190D01*
X150933523Y-93400380D02*
X150362095Y-93400380D01*
X150647809Y-93400380D02*
X150647809Y-92400380D01*
X150552571Y-92543238D01*
X150457333Y-92638476D01*
X150362095Y-92686095D01*
X151314476Y-92495619D02*
X151362095Y-92448000D01*
X151457333Y-92400380D01*
X151695428Y-92400380D01*
X151790666Y-92448000D01*
X151838285Y-92495619D01*
X151885904Y-92590857D01*
X151885904Y-92686095D01*
X151838285Y-92828952D01*
X151266857Y-93400380D01*
X151885904Y-93400380D01*
%TO.C,C8*%
X148917942Y-106618266D02*
X148965561Y-106665885D01*
X149013180Y-106808742D01*
X149013180Y-106903980D01*
X148965561Y-107046838D01*
X148870323Y-107142076D01*
X148775085Y-107189695D01*
X148584609Y-107237314D01*
X148441752Y-107237314D01*
X148251276Y-107189695D01*
X148156038Y-107142076D01*
X148060800Y-107046838D01*
X148013180Y-106903980D01*
X148013180Y-106808742D01*
X148060800Y-106665885D01*
X148108419Y-106618266D01*
X148441752Y-106046838D02*
X148394133Y-106142076D01*
X148346514Y-106189695D01*
X148251276Y-106237314D01*
X148203657Y-106237314D01*
X148108419Y-106189695D01*
X148060800Y-106142076D01*
X148013180Y-106046838D01*
X148013180Y-105856361D01*
X148060800Y-105761123D01*
X148108419Y-105713504D01*
X148203657Y-105665885D01*
X148251276Y-105665885D01*
X148346514Y-105713504D01*
X148394133Y-105761123D01*
X148441752Y-105856361D01*
X148441752Y-106046838D01*
X148489371Y-106142076D01*
X148536990Y-106189695D01*
X148632228Y-106237314D01*
X148822704Y-106237314D01*
X148917942Y-106189695D01*
X148965561Y-106142076D01*
X149013180Y-106046838D01*
X149013180Y-105856361D01*
X148965561Y-105761123D01*
X148917942Y-105713504D01*
X148822704Y-105665885D01*
X148632228Y-105665885D01*
X148536990Y-105713504D01*
X148489371Y-105761123D01*
X148441752Y-105856361D01*
%TO.C,C3*%
X141069800Y-112256657D02*
X141034085Y-112292371D01*
X140926942Y-112328085D01*
X140855514Y-112328085D01*
X140748371Y-112292371D01*
X140676942Y-112220942D01*
X140641228Y-112149514D01*
X140605514Y-112006657D01*
X140605514Y-111899514D01*
X140641228Y-111756657D01*
X140676942Y-111685228D01*
X140748371Y-111613800D01*
X140855514Y-111578085D01*
X140926942Y-111578085D01*
X141034085Y-111613800D01*
X141069800Y-111649514D01*
X141319800Y-111578085D02*
X141784085Y-111578085D01*
X141534085Y-111863800D01*
X141641228Y-111863800D01*
X141712657Y-111899514D01*
X141748371Y-111935228D01*
X141784085Y-112006657D01*
X141784085Y-112185228D01*
X141748371Y-112256657D01*
X141712657Y-112292371D01*
X141641228Y-112328085D01*
X141426942Y-112328085D01*
X141355514Y-112292371D01*
X141319800Y-112256657D01*
%TO.C,U2*%
X155372380Y-111810904D02*
X156181904Y-111810904D01*
X156277142Y-111763285D01*
X156324761Y-111715666D01*
X156372380Y-111620428D01*
X156372380Y-111429952D01*
X156324761Y-111334714D01*
X156277142Y-111287095D01*
X156181904Y-111239476D01*
X155372380Y-111239476D01*
X155467619Y-110810904D02*
X155420000Y-110763285D01*
X155372380Y-110668047D01*
X155372380Y-110429952D01*
X155420000Y-110334714D01*
X155467619Y-110287095D01*
X155562857Y-110239476D01*
X155658095Y-110239476D01*
X155800952Y-110287095D01*
X156372380Y-110858523D01*
X156372380Y-110239476D01*
%TO.C,D1*%
X136008380Y-113539695D02*
X135008380Y-113539695D01*
X135008380Y-113301600D01*
X135056000Y-113158742D01*
X135151238Y-113063504D01*
X135246476Y-113015885D01*
X135436952Y-112968266D01*
X135579809Y-112968266D01*
X135770285Y-113015885D01*
X135865523Y-113063504D01*
X135960761Y-113158742D01*
X136008380Y-113301600D01*
X136008380Y-113539695D01*
X136008380Y-112015885D02*
X136008380Y-112587314D01*
X136008380Y-112301600D02*
X135008380Y-112301600D01*
X135151238Y-112396838D01*
X135246476Y-112492076D01*
X135294095Y-112587314D01*
%TO.C,C5*%
X146565333Y-115089142D02*
X146517714Y-115136761D01*
X146374857Y-115184380D01*
X146279619Y-115184380D01*
X146136761Y-115136761D01*
X146041523Y-115041523D01*
X145993904Y-114946285D01*
X145946285Y-114755809D01*
X145946285Y-114612952D01*
X145993904Y-114422476D01*
X146041523Y-114327238D01*
X146136761Y-114232000D01*
X146279619Y-114184380D01*
X146374857Y-114184380D01*
X146517714Y-114232000D01*
X146565333Y-114279619D01*
X147470095Y-114184380D02*
X146993904Y-114184380D01*
X146946285Y-114660571D01*
X146993904Y-114612952D01*
X147089142Y-114565333D01*
X147327238Y-114565333D01*
X147422476Y-114612952D01*
X147470095Y-114660571D01*
X147517714Y-114755809D01*
X147517714Y-114993904D01*
X147470095Y-115089142D01*
X147422476Y-115136761D01*
X147327238Y-115184380D01*
X147089142Y-115184380D01*
X146993904Y-115136761D01*
X146946285Y-115089142D01*
%TO.C,R7*%
X142327285Y-74625000D02*
X141970142Y-74875000D01*
X142327285Y-75053571D02*
X141577285Y-75053571D01*
X141577285Y-74767857D01*
X141613000Y-74696428D01*
X141648714Y-74660714D01*
X141720142Y-74625000D01*
X141827285Y-74625000D01*
X141898714Y-74660714D01*
X141934428Y-74696428D01*
X141970142Y-74767857D01*
X141970142Y-75053571D01*
X141577285Y-74375000D02*
X141577285Y-73875000D01*
X142327285Y-74196428D01*
%TO.C,Q2*%
X153571619Y-95677238D02*
X153524000Y-95772476D01*
X153428761Y-95867714D01*
X153285904Y-96010571D01*
X153238285Y-96105809D01*
X153238285Y-96201047D01*
X153476380Y-96153428D02*
X153428761Y-96248666D01*
X153333523Y-96343904D01*
X153143047Y-96391523D01*
X152809714Y-96391523D01*
X152619238Y-96343904D01*
X152524000Y-96248666D01*
X152476380Y-96153428D01*
X152476380Y-95962952D01*
X152524000Y-95867714D01*
X152619238Y-95772476D01*
X152809714Y-95724857D01*
X153143047Y-95724857D01*
X153333523Y-95772476D01*
X153428761Y-95867714D01*
X153476380Y-95962952D01*
X153476380Y-96153428D01*
X152571619Y-95343904D02*
X152524000Y-95296285D01*
X152476380Y-95201047D01*
X152476380Y-94962952D01*
X152524000Y-94867714D01*
X152571619Y-94820095D01*
X152666857Y-94772476D01*
X152762095Y-94772476D01*
X152904952Y-94820095D01*
X153476380Y-95391523D01*
X153476380Y-94772476D01*
%TO.C,R10*%
X160044380Y-114663657D02*
X159568190Y-114996990D01*
X160044380Y-115235085D02*
X159044380Y-115235085D01*
X159044380Y-114854133D01*
X159092000Y-114758895D01*
X159139619Y-114711276D01*
X159234857Y-114663657D01*
X159377714Y-114663657D01*
X159472952Y-114711276D01*
X159520571Y-114758895D01*
X159568190Y-114854133D01*
X159568190Y-115235085D01*
X160044380Y-113711276D02*
X160044380Y-114282704D01*
X160044380Y-113996990D02*
X159044380Y-113996990D01*
X159187238Y-114092228D01*
X159282476Y-114187466D01*
X159330095Y-114282704D01*
X159044380Y-113092228D02*
X159044380Y-112996990D01*
X159092000Y-112901752D01*
X159139619Y-112854133D01*
X159234857Y-112806514D01*
X159425333Y-112758895D01*
X159663428Y-112758895D01*
X159853904Y-112806514D01*
X159949142Y-112854133D01*
X159996761Y-112901752D01*
X160044380Y-112996990D01*
X160044380Y-113092228D01*
X159996761Y-113187466D01*
X159949142Y-113235085D01*
X159853904Y-113282704D01*
X159663428Y-113330323D01*
X159425333Y-113330323D01*
X159234857Y-113282704D01*
X159139619Y-113235085D01*
X159092000Y-113187466D01*
X159044380Y-113092228D01*
%TO.C,R4*%
X148868380Y-109501666D02*
X148392190Y-109835000D01*
X148868380Y-110073095D02*
X147868380Y-110073095D01*
X147868380Y-109692142D01*
X147916000Y-109596904D01*
X147963619Y-109549285D01*
X148058857Y-109501666D01*
X148201714Y-109501666D01*
X148296952Y-109549285D01*
X148344571Y-109596904D01*
X148392190Y-109692142D01*
X148392190Y-110073095D01*
X148201714Y-108644523D02*
X148868380Y-108644523D01*
X147820761Y-108882619D02*
X148535047Y-109120714D01*
X148535047Y-108501666D01*
%TO.C,C2*%
X141358333Y-124139142D02*
X141310714Y-124186761D01*
X141167857Y-124234380D01*
X141072619Y-124234380D01*
X140929761Y-124186761D01*
X140834523Y-124091523D01*
X140786904Y-123996285D01*
X140739285Y-123805809D01*
X140739285Y-123662952D01*
X140786904Y-123472476D01*
X140834523Y-123377238D01*
X140929761Y-123282000D01*
X141072619Y-123234380D01*
X141167857Y-123234380D01*
X141310714Y-123282000D01*
X141358333Y-123329619D01*
X141739285Y-123329619D02*
X141786904Y-123282000D01*
X141882142Y-123234380D01*
X142120238Y-123234380D01*
X142215476Y-123282000D01*
X142263095Y-123329619D01*
X142310714Y-123424857D01*
X142310714Y-123520095D01*
X142263095Y-123662952D01*
X141691666Y-124234380D01*
X142310714Y-124234380D01*
%TO.C,D3*%
X149129380Y-122328095D02*
X148129380Y-122328095D01*
X148129380Y-122090000D01*
X148177000Y-121947142D01*
X148272238Y-121851904D01*
X148367476Y-121804285D01*
X148557952Y-121756666D01*
X148700809Y-121756666D01*
X148891285Y-121804285D01*
X148986523Y-121851904D01*
X149081761Y-121947142D01*
X149129380Y-122090000D01*
X149129380Y-122328095D01*
X148129380Y-121423333D02*
X148129380Y-120804285D01*
X148510333Y-121137619D01*
X148510333Y-120994761D01*
X148557952Y-120899523D01*
X148605571Y-120851904D01*
X148700809Y-120804285D01*
X148938904Y-120804285D01*
X149034142Y-120851904D01*
X149081761Y-120899523D01*
X149129380Y-120994761D01*
X149129380Y-121280476D01*
X149081761Y-121375714D01*
X149034142Y-121423333D01*
%TO.C,J4*%
X159352666Y-67829380D02*
X159352666Y-68543666D01*
X159305047Y-68686523D01*
X159209809Y-68781761D01*
X159066952Y-68829380D01*
X158971714Y-68829380D01*
X160257428Y-68162714D02*
X160257428Y-68829380D01*
X160019333Y-67781761D02*
X159781238Y-68496047D01*
X160400285Y-68496047D01*
%TO.C,R1*%
X148835380Y-112612666D02*
X148359190Y-112946000D01*
X148835380Y-113184095D02*
X147835380Y-113184095D01*
X147835380Y-112803142D01*
X147883000Y-112707904D01*
X147930619Y-112660285D01*
X148025857Y-112612666D01*
X148168714Y-112612666D01*
X148263952Y-112660285D01*
X148311571Y-112707904D01*
X148359190Y-112803142D01*
X148359190Y-113184095D01*
X148835380Y-111660285D02*
X148835380Y-112231714D01*
X148835380Y-111946000D02*
X147835380Y-111946000D01*
X147978238Y-112041238D01*
X148073476Y-112136476D01*
X148121095Y-112231714D01*
%TO.C,Q1*%
X153571619Y-87549238D02*
X153524000Y-87644476D01*
X153428761Y-87739714D01*
X153285904Y-87882571D01*
X153238285Y-87977809D01*
X153238285Y-88073047D01*
X153476380Y-88025428D02*
X153428761Y-88120666D01*
X153333523Y-88215904D01*
X153143047Y-88263523D01*
X152809714Y-88263523D01*
X152619238Y-88215904D01*
X152524000Y-88120666D01*
X152476380Y-88025428D01*
X152476380Y-87834952D01*
X152524000Y-87739714D01*
X152619238Y-87644476D01*
X152809714Y-87596857D01*
X153143047Y-87596857D01*
X153333523Y-87644476D01*
X153428761Y-87739714D01*
X153476380Y-87834952D01*
X153476380Y-88025428D01*
X153476380Y-86644476D02*
X153476380Y-87215904D01*
X153476380Y-86930190D02*
X152476380Y-86930190D01*
X152619238Y-87025428D01*
X152714476Y-87120666D01*
X152762095Y-87215904D01*
%TO.C,R8*%
X146311333Y-102384380D02*
X145978000Y-101908190D01*
X145739904Y-102384380D02*
X145739904Y-101384380D01*
X146120857Y-101384380D01*
X146216095Y-101432000D01*
X146263714Y-101479619D01*
X146311333Y-101574857D01*
X146311333Y-101717714D01*
X146263714Y-101812952D01*
X146216095Y-101860571D01*
X146120857Y-101908190D01*
X145739904Y-101908190D01*
X146882761Y-101812952D02*
X146787523Y-101765333D01*
X146739904Y-101717714D01*
X146692285Y-101622476D01*
X146692285Y-101574857D01*
X146739904Y-101479619D01*
X146787523Y-101432000D01*
X146882761Y-101384380D01*
X147073238Y-101384380D01*
X147168476Y-101432000D01*
X147216095Y-101479619D01*
X147263714Y-101574857D01*
X147263714Y-101622476D01*
X147216095Y-101717714D01*
X147168476Y-101765333D01*
X147073238Y-101812952D01*
X146882761Y-101812952D01*
X146787523Y-101860571D01*
X146739904Y-101908190D01*
X146692285Y-102003428D01*
X146692285Y-102193904D01*
X146739904Y-102289142D01*
X146787523Y-102336761D01*
X146882761Y-102384380D01*
X147073238Y-102384380D01*
X147168476Y-102336761D01*
X147216095Y-102289142D01*
X147263714Y-102193904D01*
X147263714Y-102003428D01*
X147216095Y-101908190D01*
X147168476Y-101860571D01*
X147073238Y-101812952D01*
%TO.C,D2*%
X140413380Y-99595095D02*
X139413380Y-99595095D01*
X139413380Y-99357000D01*
X139461000Y-99214142D01*
X139556238Y-99118904D01*
X139651476Y-99071285D01*
X139841952Y-99023666D01*
X139984809Y-99023666D01*
X140175285Y-99071285D01*
X140270523Y-99118904D01*
X140365761Y-99214142D01*
X140413380Y-99357000D01*
X140413380Y-99595095D01*
X139508619Y-98642714D02*
X139461000Y-98595095D01*
X139413380Y-98499857D01*
X139413380Y-98261761D01*
X139461000Y-98166523D01*
X139508619Y-98118904D01*
X139603857Y-98071285D01*
X139699095Y-98071285D01*
X139841952Y-98118904D01*
X140413380Y-98690333D01*
X140413380Y-98071285D01*
%TO.C,C1*%
X142644142Y-125693666D02*
X142691761Y-125741285D01*
X142739380Y-125884142D01*
X142739380Y-125979380D01*
X142691761Y-126122238D01*
X142596523Y-126217476D01*
X142501285Y-126265095D01*
X142310809Y-126312714D01*
X142167952Y-126312714D01*
X141977476Y-126265095D01*
X141882238Y-126217476D01*
X141787000Y-126122238D01*
X141739380Y-125979380D01*
X141739380Y-125884142D01*
X141787000Y-125741285D01*
X141834619Y-125693666D01*
X142739380Y-124741285D02*
X142739380Y-125312714D01*
X142739380Y-125027000D02*
X141739380Y-125027000D01*
X141882238Y-125122238D01*
X141977476Y-125217476D01*
X142025095Y-125312714D01*
%TO.C,R2*%
X143058085Y-108761000D02*
X142700942Y-109011000D01*
X143058085Y-109189571D02*
X142308085Y-109189571D01*
X142308085Y-108903857D01*
X142343800Y-108832428D01*
X142379514Y-108796714D01*
X142450942Y-108761000D01*
X142558085Y-108761000D01*
X142629514Y-108796714D01*
X142665228Y-108832428D01*
X142700942Y-108903857D01*
X142700942Y-109189571D01*
X142379514Y-108475285D02*
X142343800Y-108439571D01*
X142308085Y-108368142D01*
X142308085Y-108189571D01*
X142343800Y-108118142D01*
X142379514Y-108082428D01*
X142450942Y-108046714D01*
X142522371Y-108046714D01*
X142629514Y-108082428D01*
X143058085Y-108511000D01*
X143058085Y-108046714D01*
%TO.C,R3*%
X143108885Y-110285000D02*
X142751742Y-110535000D01*
X143108885Y-110713571D02*
X142358885Y-110713571D01*
X142358885Y-110427857D01*
X142394600Y-110356428D01*
X142430314Y-110320714D01*
X142501742Y-110285000D01*
X142608885Y-110285000D01*
X142680314Y-110320714D01*
X142716028Y-110356428D01*
X142751742Y-110427857D01*
X142751742Y-110713571D01*
X142358885Y-110035000D02*
X142358885Y-109570714D01*
X142644600Y-109820714D01*
X142644600Y-109713571D01*
X142680314Y-109642142D01*
X142716028Y-109606428D01*
X142787457Y-109570714D01*
X142966028Y-109570714D01*
X143037457Y-109606428D01*
X143073171Y-109642142D01*
X143108885Y-109713571D01*
X143108885Y-109927857D01*
X143073171Y-109999285D01*
X143037457Y-110035000D01*
%TO.C,J1*%
X137127666Y-131075380D02*
X137127666Y-131789666D01*
X137080047Y-131932523D01*
X136984809Y-132027761D01*
X136841952Y-132075380D01*
X136746714Y-132075380D01*
X138127666Y-132075380D02*
X137556238Y-132075380D01*
X137841952Y-132075380D02*
X137841952Y-131075380D01*
X137746714Y-131218238D01*
X137651476Y-131313476D01*
X137556238Y-131361095D01*
%TO.C,R11*%
X147661285Y-73712142D02*
X147304142Y-73962142D01*
X147661285Y-74140714D02*
X146911285Y-74140714D01*
X146911285Y-73855000D01*
X146947000Y-73783571D01*
X146982714Y-73747857D01*
X147054142Y-73712142D01*
X147161285Y-73712142D01*
X147232714Y-73747857D01*
X147268428Y-73783571D01*
X147304142Y-73855000D01*
X147304142Y-74140714D01*
X147661285Y-72997857D02*
X147661285Y-73426428D01*
X147661285Y-73212142D02*
X146911285Y-73212142D01*
X147018428Y-73283571D01*
X147089857Y-73355000D01*
X147125571Y-73426428D01*
X147661285Y-72283571D02*
X147661285Y-72712142D01*
X147661285Y-72497857D02*
X146911285Y-72497857D01*
X147018428Y-72569285D01*
X147089857Y-72640714D01*
X147125571Y-72712142D01*
%TO.C,R9*%
X155312380Y-121629666D02*
X154836190Y-121963000D01*
X155312380Y-122201095D02*
X154312380Y-122201095D01*
X154312380Y-121820142D01*
X154360000Y-121724904D01*
X154407619Y-121677285D01*
X154502857Y-121629666D01*
X154645714Y-121629666D01*
X154740952Y-121677285D01*
X154788571Y-121724904D01*
X154836190Y-121820142D01*
X154836190Y-122201095D01*
X155312380Y-121153476D02*
X155312380Y-120963000D01*
X155264761Y-120867761D01*
X155217142Y-120820142D01*
X155074285Y-120724904D01*
X154883809Y-120677285D01*
X154502857Y-120677285D01*
X154407619Y-120724904D01*
X154360000Y-120772523D01*
X154312380Y-120867761D01*
X154312380Y-121058238D01*
X154360000Y-121153476D01*
X154407619Y-121201095D01*
X154502857Y-121248714D01*
X154740952Y-121248714D01*
X154836190Y-121201095D01*
X154883809Y-121153476D01*
X154931428Y-121058238D01*
X154931428Y-120867761D01*
X154883809Y-120772523D01*
X154836190Y-120724904D01*
X154740952Y-120677285D01*
%TO.C,C4*%
X144406333Y-124131542D02*
X144358714Y-124179161D01*
X144215857Y-124226780D01*
X144120619Y-124226780D01*
X143977761Y-124179161D01*
X143882523Y-124083923D01*
X143834904Y-123988685D01*
X143787285Y-123798209D01*
X143787285Y-123655352D01*
X143834904Y-123464876D01*
X143882523Y-123369638D01*
X143977761Y-123274400D01*
X144120619Y-123226780D01*
X144215857Y-123226780D01*
X144358714Y-123274400D01*
X144406333Y-123322019D01*
X145263476Y-123560114D02*
X145263476Y-124226780D01*
X145025380Y-123179161D02*
X144787285Y-123893447D01*
X145406333Y-123893447D01*
%TO.C,L1*%
X141282133Y-102941580D02*
X140805942Y-102941580D01*
X140805942Y-101941580D01*
X142139276Y-102941580D02*
X141567847Y-102941580D01*
X141853561Y-102941580D02*
X141853561Y-101941580D01*
X141758323Y-102084438D01*
X141663085Y-102179676D01*
X141567847Y-102227295D01*
%TO.C,J2*%
X159479666Y-131075380D02*
X159479666Y-131789666D01*
X159432047Y-131932523D01*
X159336809Y-132027761D01*
X159193952Y-132075380D01*
X159098714Y-132075380D01*
X159908238Y-131170619D02*
X159955857Y-131123000D01*
X160051095Y-131075380D01*
X160289190Y-131075380D01*
X160384428Y-131123000D01*
X160432047Y-131170619D01*
X160479666Y-131265857D01*
X160479666Y-131361095D01*
X160432047Y-131503952D01*
X159860619Y-132075380D01*
X160479666Y-132075380D01*
%TO.C,C7*%
X149019542Y-104383066D02*
X149067161Y-104430685D01*
X149114780Y-104573542D01*
X149114780Y-104668780D01*
X149067161Y-104811638D01*
X148971923Y-104906876D01*
X148876685Y-104954495D01*
X148686209Y-105002114D01*
X148543352Y-105002114D01*
X148352876Y-104954495D01*
X148257638Y-104906876D01*
X148162400Y-104811638D01*
X148114780Y-104668780D01*
X148114780Y-104573542D01*
X148162400Y-104430685D01*
X148210019Y-104383066D01*
X148114780Y-104049733D02*
X148114780Y-103383066D01*
X149114780Y-103811638D01*
%TO.C,U1*%
X139021580Y-121285104D02*
X139831104Y-121285104D01*
X139926342Y-121237485D01*
X139973961Y-121189866D01*
X140021580Y-121094628D01*
X140021580Y-120904152D01*
X139973961Y-120808914D01*
X139926342Y-120761295D01*
X139831104Y-120713676D01*
X139021580Y-120713676D01*
X140021580Y-119713676D02*
X140021580Y-120285104D01*
X140021580Y-119999390D02*
X139021580Y-119999390D01*
X139164438Y-120094628D01*
X139259676Y-120189866D01*
X139307295Y-120285104D01*
%TO.C,C6*%
X142986657Y-111809000D02*
X143022371Y-111844714D01*
X143058085Y-111951857D01*
X143058085Y-112023285D01*
X143022371Y-112130428D01*
X142950942Y-112201857D01*
X142879514Y-112237571D01*
X142736657Y-112273285D01*
X142629514Y-112273285D01*
X142486657Y-112237571D01*
X142415228Y-112201857D01*
X142343800Y-112130428D01*
X142308085Y-112023285D01*
X142308085Y-111951857D01*
X142343800Y-111844714D01*
X142379514Y-111809000D01*
X142308085Y-111166142D02*
X142308085Y-111309000D01*
X142343800Y-111380428D01*
X142379514Y-111416142D01*
X142486657Y-111487571D01*
X142629514Y-111523285D01*
X142915228Y-111523285D01*
X142986657Y-111487571D01*
X143022371Y-111451857D01*
X143058085Y-111380428D01*
X143058085Y-111237571D01*
X143022371Y-111166142D01*
X142986657Y-111130428D01*
X142915228Y-111094714D01*
X142736657Y-111094714D01*
X142665228Y-111130428D01*
X142629514Y-111166142D01*
X142593800Y-111237571D01*
X142593800Y-111380428D01*
X142629514Y-111451857D01*
X142665228Y-111487571D01*
X142736657Y-111523285D01*
D13*
%TO.C,R5*%
X152162500Y-76802742D02*
X152162500Y-77277258D01*
X151117500Y-76802742D02*
X151117500Y-77277258D01*
%TO.C,J3*%
X141640000Y-58380000D02*
X141890000Y-56880000D01*
X141890000Y-56880000D02*
X139890000Y-56880000D01*
X139890000Y-56880000D02*
X140140000Y-58380000D01*
X148570000Y-56880000D02*
X138270000Y-56880000D01*
X145220000Y-58380000D02*
X146720000Y-58380000D01*
X148570000Y-69100000D02*
X148570000Y-56880000D01*
X140140000Y-58380000D02*
X141640000Y-58380000D01*
X148570000Y-60180000D02*
X138270000Y-60180000D01*
X138270000Y-69100000D02*
X148570000Y-69100000D01*
X144970000Y-56880000D02*
X145220000Y-58380000D01*
X146970000Y-56880000D02*
X144970000Y-56880000D01*
X138270000Y-60180000D02*
X138270000Y-58380000D01*
X148570000Y-58380000D02*
X148570000Y-60180000D01*
X138270000Y-56880000D02*
X138270000Y-69100000D01*
X138270000Y-58380000D02*
X148570000Y-58380000D01*
X146720000Y-58380000D02*
X146970000Y-56880000D01*
%TO.C,R6*%
X148412000Y-87253742D02*
X148412000Y-87728258D01*
X147367000Y-87253742D02*
X147367000Y-87728258D01*
%TO.C,R12*%
X150861258Y-92040500D02*
X150386742Y-92040500D01*
X150861258Y-90995500D02*
X150386742Y-90995500D01*
%TO.C,C8*%
X144877748Y-107514000D02*
X146300252Y-107514000D01*
X144877748Y-105694000D02*
X146300252Y-105694000D01*
%TO.C,C3*%
X141511420Y-113718000D02*
X141792580Y-113718000D01*
X141511420Y-112698000D02*
X141792580Y-112698000D01*
%TO.C,U2*%
X154920000Y-107814000D02*
X149720000Y-107814000D01*
X154920000Y-110049000D02*
X154920000Y-107814000D01*
X149720000Y-107814000D02*
X149720000Y-114284000D01*
X154920000Y-114284000D02*
X154920000Y-112049000D01*
X149720000Y-114284000D02*
X154920000Y-114284000D01*
X154920000Y-112049000D02*
G75*
G02*
X154920000Y-110049000I0J1000000D01*
G01*
%TO.C,JP1_I1*%
X154418000Y-102570000D02*
X152418000Y-102570000D01*
X154418000Y-99770000D02*
X154418000Y-102570000D01*
X152418000Y-102570000D02*
X152418000Y-99770000D01*
X152418000Y-99770000D02*
X154418000Y-99770000D01*
%TO.C,D1*%
X139873000Y-112094000D02*
X136573000Y-112094000D01*
X139873000Y-112094000D02*
X139873000Y-117494000D01*
X136573000Y-112094000D02*
X136573000Y-117494000D01*
%TO.C,C5*%
X144559420Y-112698000D02*
X144840580Y-112698000D01*
X144559420Y-113718000D02*
X144840580Y-113718000D01*
%TO.C,R7*%
X142735500Y-72992742D02*
X142735500Y-73467258D01*
X143780500Y-72992742D02*
X143780500Y-73467258D01*
D14*
%TO.C,LOGO3*%
X159815814Y-84414931D02*
X159899635Y-84859555D01*
X159899635Y-84859555D02*
X160208920Y-84987053D01*
X160208920Y-84987053D02*
X160518206Y-85114551D01*
X160518206Y-85114551D02*
X160889246Y-84862246D01*
X160889246Y-84862246D02*
X160993157Y-84791996D01*
X160993157Y-84791996D02*
X161087087Y-84729272D01*
X161087087Y-84729272D02*
X161166652Y-84676938D01*
X161166652Y-84676938D02*
X161227470Y-84637857D01*
X161227470Y-84637857D02*
X161265157Y-84614893D01*
X161265157Y-84614893D02*
X161275421Y-84609942D01*
X161275421Y-84609942D02*
X161293910Y-84622676D01*
X161293910Y-84622676D02*
X161333420Y-84657882D01*
X161333420Y-84657882D02*
X161389522Y-84711062D01*
X161389522Y-84711062D02*
X161457787Y-84777718D01*
X161457787Y-84777718D02*
X161533786Y-84853354D01*
X161533786Y-84853354D02*
X161613092Y-84933472D01*
X161613092Y-84933472D02*
X161691275Y-85013574D01*
X161691275Y-85013574D02*
X161763907Y-85089164D01*
X161763907Y-85089164D02*
X161826559Y-85155745D01*
X161826559Y-85155745D02*
X161874803Y-85208818D01*
X161874803Y-85208818D02*
X161904210Y-85243887D01*
X161904210Y-85243887D02*
X161911241Y-85255623D01*
X161911241Y-85255623D02*
X161901123Y-85277260D01*
X161901123Y-85277260D02*
X161872759Y-85324662D01*
X161872759Y-85324662D02*
X161829129Y-85393193D01*
X161829129Y-85393193D02*
X161773218Y-85478215D01*
X161773218Y-85478215D02*
X161708006Y-85575093D01*
X161708006Y-85575093D02*
X161670219Y-85630350D01*
X161670219Y-85630350D02*
X161601343Y-85731248D01*
X161601343Y-85731248D02*
X161540140Y-85822299D01*
X161540140Y-85822299D02*
X161489578Y-85898970D01*
X161489578Y-85898970D02*
X161452628Y-85956728D01*
X161452628Y-85956728D02*
X161432258Y-85991043D01*
X161432258Y-85991043D02*
X161429197Y-85998254D01*
X161429197Y-85998254D02*
X161436136Y-86018748D01*
X161436136Y-86018748D02*
X161455051Y-86066513D01*
X161455051Y-86066513D02*
X161483087Y-86134832D01*
X161483087Y-86134832D02*
X161517391Y-86216989D01*
X161517391Y-86216989D02*
X161555109Y-86306270D01*
X161555109Y-86306270D02*
X161593387Y-86395958D01*
X161593387Y-86395958D02*
X161629370Y-86479338D01*
X161629370Y-86479338D02*
X161660206Y-86549694D01*
X161660206Y-86549694D02*
X161683039Y-86600310D01*
X161683039Y-86600310D02*
X161695017Y-86624471D01*
X161695017Y-86624471D02*
X161695724Y-86625422D01*
X161695724Y-86625422D02*
X161714531Y-86630036D01*
X161714531Y-86630036D02*
X161764618Y-86640328D01*
X161764618Y-86640328D02*
X161840793Y-86655287D01*
X161840793Y-86655287D02*
X161937865Y-86673901D01*
X161937865Y-86673901D02*
X162050643Y-86695159D01*
X162050643Y-86695159D02*
X162116442Y-86707418D01*
X162116442Y-86707418D02*
X162236950Y-86730362D01*
X162236950Y-86730362D02*
X162345797Y-86752195D01*
X162345797Y-86752195D02*
X162437476Y-86771722D01*
X162437476Y-86771722D02*
X162506481Y-86787748D01*
X162506481Y-86787748D02*
X162547304Y-86799079D01*
X162547304Y-86799079D02*
X162555511Y-86802674D01*
X162555511Y-86802674D02*
X162563548Y-86827006D01*
X162563548Y-86827006D02*
X162570033Y-86881959D01*
X162570033Y-86881959D02*
X162574970Y-86961108D01*
X162574970Y-86961108D02*
X162578364Y-87058026D01*
X162578364Y-87058026D02*
X162580218Y-87166287D01*
X162580218Y-87166287D02*
X162580538Y-87279465D01*
X162580538Y-87279465D02*
X162579327Y-87391135D01*
X162579327Y-87391135D02*
X162576590Y-87494868D01*
X162576590Y-87494868D02*
X162572331Y-87584241D01*
X162572331Y-87584241D02*
X162566555Y-87652826D01*
X162566555Y-87652826D02*
X162559267Y-87694197D01*
X162559267Y-87694197D02*
X162554895Y-87702810D01*
X162554895Y-87702810D02*
X162528764Y-87713133D01*
X162528764Y-87713133D02*
X162473393Y-87727892D01*
X162473393Y-87727892D02*
X162396107Y-87745352D01*
X162396107Y-87745352D02*
X162304230Y-87763780D01*
X162304230Y-87763780D02*
X162272158Y-87769741D01*
X162272158Y-87769741D02*
X162117524Y-87798066D01*
X162117524Y-87798066D02*
X161995375Y-87820876D01*
X161995375Y-87820876D02*
X161901673Y-87839080D01*
X161901673Y-87839080D02*
X161832384Y-87853583D01*
X161832384Y-87853583D02*
X161783471Y-87865292D01*
X161783471Y-87865292D02*
X161750897Y-87875115D01*
X161750897Y-87875115D02*
X161730628Y-87883956D01*
X161730628Y-87883956D02*
X161718626Y-87892724D01*
X161718626Y-87892724D02*
X161716947Y-87894457D01*
X161716947Y-87894457D02*
X161700184Y-87922371D01*
X161700184Y-87922371D02*
X161674614Y-87976695D01*
X161674614Y-87976695D02*
X161642788Y-88050777D01*
X161642788Y-88050777D02*
X161607260Y-88137965D01*
X161607260Y-88137965D02*
X161570583Y-88231608D01*
X161570583Y-88231608D02*
X161535311Y-88325052D01*
X161535311Y-88325052D02*
X161503996Y-88411647D01*
X161503996Y-88411647D02*
X161479193Y-88484740D01*
X161479193Y-88484740D02*
X161463454Y-88537678D01*
X161463454Y-88537678D02*
X161459332Y-88563811D01*
X161459332Y-88563811D02*
X161459676Y-88564726D01*
X161459676Y-88564726D02*
X161473641Y-88586086D01*
X161473641Y-88586086D02*
X161505322Y-88633084D01*
X161505322Y-88633084D02*
X161551391Y-88700827D01*
X161551391Y-88700827D02*
X161608518Y-88784423D01*
X161608518Y-88784423D02*
X161673373Y-88878982D01*
X161673373Y-88878982D02*
X161691843Y-88905854D01*
X161691843Y-88905854D02*
X161757699Y-89003275D01*
X161757699Y-89003275D02*
X161815650Y-89092163D01*
X161815650Y-89092163D02*
X161862538Y-89167412D01*
X161862538Y-89167412D02*
X161895207Y-89223920D01*
X161895207Y-89223920D02*
X161910500Y-89256581D01*
X161910500Y-89256581D02*
X161911241Y-89260593D01*
X161911241Y-89260593D02*
X161898392Y-89281684D01*
X161898392Y-89281684D02*
X161862888Y-89323464D01*
X161862888Y-89323464D02*
X161809293Y-89381445D01*
X161809293Y-89381445D02*
X161742171Y-89451135D01*
X161742171Y-89451135D02*
X161666087Y-89528045D01*
X161666087Y-89528045D02*
X161585604Y-89607683D01*
X161585604Y-89607683D02*
X161505287Y-89685561D01*
X161505287Y-89685561D02*
X161429699Y-89757186D01*
X161429699Y-89757186D02*
X161363405Y-89818070D01*
X161363405Y-89818070D02*
X161310969Y-89863721D01*
X161310969Y-89863721D02*
X161276955Y-89889650D01*
X161276955Y-89889650D02*
X161267545Y-89893883D01*
X161267545Y-89893883D02*
X161245643Y-89883912D01*
X161245643Y-89883912D02*
X161200800Y-89857020D01*
X161200800Y-89857020D02*
X161140321Y-89817736D01*
X161140321Y-89817736D02*
X161093789Y-89786117D01*
X161093789Y-89786117D02*
X161009475Y-89728098D01*
X161009475Y-89728098D02*
X160909626Y-89659784D01*
X160909626Y-89659784D02*
X160809473Y-89591579D01*
X160809473Y-89591579D02*
X160755627Y-89555075D01*
X160755627Y-89555075D02*
X160573371Y-89431800D01*
X160573371Y-89431800D02*
X160420381Y-89514520D01*
X160420381Y-89514520D02*
X160350682Y-89550759D01*
X160350682Y-89550759D02*
X160291414Y-89578926D01*
X160291414Y-89578926D02*
X160251311Y-89594991D01*
X160251311Y-89594991D02*
X160241103Y-89597226D01*
X160241103Y-89597226D02*
X160228829Y-89580722D01*
X160228829Y-89580722D02*
X160204613Y-89534082D01*
X160204613Y-89534082D02*
X160170263Y-89461609D01*
X160170263Y-89461609D02*
X160127588Y-89367606D01*
X160127588Y-89367606D02*
X160078394Y-89256374D01*
X160078394Y-89256374D02*
X160024490Y-89132215D01*
X160024490Y-89132215D02*
X159967684Y-88999432D01*
X159967684Y-88999432D02*
X159909782Y-88862327D01*
X159909782Y-88862327D02*
X159852593Y-88725202D01*
X159852593Y-88725202D02*
X159797924Y-88592358D01*
X159797924Y-88592358D02*
X159747584Y-88468098D01*
X159747584Y-88468098D02*
X159703380Y-88356725D01*
X159703380Y-88356725D02*
X159667119Y-88262539D01*
X159667119Y-88262539D02*
X159640609Y-88189844D01*
X159640609Y-88189844D02*
X159625658Y-88142941D01*
X159625658Y-88142941D02*
X159623254Y-88126833D01*
X159623254Y-88126833D02*
X159642311Y-88106286D01*
X159642311Y-88106286D02*
X159684036Y-88072933D01*
X159684036Y-88072933D02*
X159739706Y-88033702D01*
X159739706Y-88033702D02*
X159744378Y-88030599D01*
X159744378Y-88030599D02*
X159888264Y-87915423D01*
X159888264Y-87915423D02*
X160004283Y-87781053D01*
X160004283Y-87781053D02*
X160091430Y-87631784D01*
X160091430Y-87631784D02*
X160148699Y-87471913D01*
X160148699Y-87471913D02*
X160175086Y-87305737D01*
X160175086Y-87305737D02*
X160169585Y-87137552D01*
X160169585Y-87137552D02*
X160131190Y-86971655D01*
X160131190Y-86971655D02*
X160058895Y-86812342D01*
X160058895Y-86812342D02*
X160037626Y-86777487D01*
X160037626Y-86777487D02*
X159926996Y-86636737D01*
X159926996Y-86636737D02*
X159796302Y-86523714D01*
X159796302Y-86523714D02*
X159650064Y-86439003D01*
X159650064Y-86439003D02*
X159492808Y-86383194D01*
X159492808Y-86383194D02*
X159329057Y-86356874D01*
X159329057Y-86356874D02*
X159163333Y-86360630D01*
X159163333Y-86360630D02*
X159000162Y-86395050D01*
X159000162Y-86395050D02*
X158844065Y-86460723D01*
X158844065Y-86460723D02*
X158699567Y-86558235D01*
X158699567Y-86558235D02*
X158654869Y-86597813D01*
X158654869Y-86597813D02*
X158541112Y-86721703D01*
X158541112Y-86721703D02*
X158458218Y-86852124D01*
X158458218Y-86852124D02*
X158401356Y-86998315D01*
X158401356Y-86998315D02*
X158369687Y-87143088D01*
X158369687Y-87143088D02*
X158361869Y-87305860D01*
X158361869Y-87305860D02*
X158387938Y-87469440D01*
X158387938Y-87469440D02*
X158445245Y-87628298D01*
X158445245Y-87628298D02*
X158531144Y-87776906D01*
X158531144Y-87776906D02*
X158642986Y-87909735D01*
X158642986Y-87909735D02*
X158778123Y-88021256D01*
X158778123Y-88021256D02*
X158795883Y-88033011D01*
X158795883Y-88033011D02*
X158852150Y-88071508D01*
X158852150Y-88071508D02*
X158894923Y-88104863D01*
X158894923Y-88104863D02*
X158915372Y-88126160D01*
X158915372Y-88126160D02*
X158915669Y-88126833D01*
X158915669Y-88126833D02*
X158911279Y-88149871D01*
X158911279Y-88149871D02*
X158893876Y-88202157D01*
X158893876Y-88202157D02*
X158865268Y-88279390D01*
X158865268Y-88279390D02*
X158827265Y-88377268D01*
X158827265Y-88377268D02*
X158781674Y-88491491D01*
X158781674Y-88491491D02*
X158730303Y-88617758D01*
X158730303Y-88617758D02*
X158674962Y-88751767D01*
X158674962Y-88751767D02*
X158617458Y-88889218D01*
X158617458Y-88889218D02*
X158559601Y-89025808D01*
X158559601Y-89025808D02*
X158503198Y-89157237D01*
X158503198Y-89157237D02*
X158450058Y-89279205D01*
X158450058Y-89279205D02*
X158401990Y-89387409D01*
X158401990Y-89387409D02*
X158360801Y-89477549D01*
X158360801Y-89477549D02*
X158328301Y-89545323D01*
X158328301Y-89545323D02*
X158306297Y-89586430D01*
X158306297Y-89586430D02*
X158297436Y-89597226D01*
X158297436Y-89597226D02*
X158270360Y-89588819D01*
X158270360Y-89588819D02*
X158219697Y-89566272D01*
X158219697Y-89566272D02*
X158154183Y-89533613D01*
X158154183Y-89533613D02*
X158118159Y-89514520D01*
X158118159Y-89514520D02*
X157965168Y-89431800D01*
X157965168Y-89431800D02*
X157782912Y-89555075D01*
X157782912Y-89555075D02*
X157689875Y-89618228D01*
X157689875Y-89618228D02*
X157588015Y-89687727D01*
X157588015Y-89687727D02*
X157492562Y-89753165D01*
X157492562Y-89753165D02*
X157444750Y-89786117D01*
X157444750Y-89786117D02*
X157377505Y-89831273D01*
X157377505Y-89831273D02*
X157320564Y-89867057D01*
X157320564Y-89867057D02*
X157281354Y-89888938D01*
X157281354Y-89888938D02*
X157268619Y-89893563D01*
X157268619Y-89893563D02*
X157250083Y-89881085D01*
X157250083Y-89881085D02*
X157209059Y-89846252D01*
X157209059Y-89846252D02*
X157149525Y-89792678D01*
X157149525Y-89792678D02*
X157075458Y-89723983D01*
X157075458Y-89723983D02*
X156990835Y-89643781D01*
X156990835Y-89643781D02*
X156937315Y-89592286D01*
X156937315Y-89592286D02*
X156843681Y-89500286D01*
X156843681Y-89500286D02*
X156762759Y-89417999D01*
X156762759Y-89417999D02*
X156697823Y-89348945D01*
X156697823Y-89348945D02*
X156652142Y-89296644D01*
X156652142Y-89296644D02*
X156628989Y-89264616D01*
X156628989Y-89264616D02*
X156626768Y-89258116D01*
X156626768Y-89258116D02*
X156637076Y-89233394D01*
X156637076Y-89233394D02*
X156665561Y-89183405D01*
X156665561Y-89183405D02*
X156709063Y-89113212D01*
X156709063Y-89113212D02*
X156764423Y-89027875D01*
X156764423Y-89027875D02*
X156828480Y-88932456D01*
X156828480Y-88932456D02*
X156846697Y-88905854D01*
X156846697Y-88905854D02*
X156913073Y-88809167D01*
X156913073Y-88809167D02*
X156972622Y-88722117D01*
X156972622Y-88722117D02*
X157022016Y-88649595D01*
X157022016Y-88649595D02*
X157057925Y-88596493D01*
X157057925Y-88596493D02*
X157077019Y-88567703D01*
X157077019Y-88567703D02*
X157078864Y-88564726D01*
X157078864Y-88564726D02*
X157076105Y-88541782D01*
X157076105Y-88541782D02*
X157061462Y-88491336D01*
X157061462Y-88491336D02*
X157037487Y-88420041D01*
X157037487Y-88420041D02*
X157006734Y-88334547D01*
X157006734Y-88334547D02*
X156971756Y-88241507D01*
X156971756Y-88241507D02*
X156935107Y-88147574D01*
X156935107Y-88147574D02*
X156899339Y-88059399D01*
X156899339Y-88059399D02*
X156867006Y-87983634D01*
X156867006Y-87983634D02*
X156840662Y-87926931D01*
X156840662Y-87926931D02*
X156822858Y-87895943D01*
X156822858Y-87895943D02*
X156821593Y-87894457D01*
X156821593Y-87894457D02*
X156810706Y-87885601D01*
X156810706Y-87885601D02*
X156792318Y-87876843D01*
X156792318Y-87876843D02*
X156762394Y-87867277D01*
X156762394Y-87867277D02*
X156716897Y-87855996D01*
X156716897Y-87855996D02*
X156651791Y-87842093D01*
X156651791Y-87842093D02*
X156563039Y-87824663D01*
X156563039Y-87824663D02*
X156446607Y-87802798D01*
X156446607Y-87802798D02*
X156298458Y-87775591D01*
X156298458Y-87775591D02*
X156266382Y-87769741D01*
X156266382Y-87769741D02*
X156171314Y-87751374D01*
X156171314Y-87751374D02*
X156088435Y-87733405D01*
X156088435Y-87733405D02*
X156025070Y-87717569D01*
X156025070Y-87717569D02*
X155988542Y-87705600D01*
X155988542Y-87705600D02*
X155983644Y-87702810D01*
X155983644Y-87702810D02*
X155975573Y-87678072D01*
X155975573Y-87678072D02*
X155969013Y-87622790D01*
X155969013Y-87622790D02*
X155963967Y-87543389D01*
X155963967Y-87543389D02*
X155960441Y-87446296D01*
X155960441Y-87446296D02*
X155958439Y-87337938D01*
X155958439Y-87337938D02*
X155957964Y-87224740D01*
X155957964Y-87224740D02*
X155959023Y-87113128D01*
X155959023Y-87113128D02*
X155961618Y-87009529D01*
X155961618Y-87009529D02*
X155965754Y-86920368D01*
X155965754Y-86920368D02*
X155971437Y-86852072D01*
X155971437Y-86852072D02*
X155978669Y-86811066D01*
X155978669Y-86811066D02*
X155983029Y-86802674D01*
X155983029Y-86802674D02*
X156007302Y-86794208D01*
X156007302Y-86794208D02*
X156062574Y-86780435D01*
X156062574Y-86780435D02*
X156143338Y-86762550D01*
X156143338Y-86762550D02*
X156244088Y-86741748D01*
X156244088Y-86741748D02*
X156359317Y-86719223D01*
X156359317Y-86719223D02*
X156422098Y-86707418D01*
X156422098Y-86707418D02*
X156541213Y-86685151D01*
X156541213Y-86685151D02*
X156647435Y-86664979D01*
X156647435Y-86664979D02*
X156735573Y-86647915D01*
X156735573Y-86647915D02*
X156800434Y-86634969D01*
X156800434Y-86634969D02*
X156836826Y-86627155D01*
X156836826Y-86627155D02*
X156842816Y-86625422D01*
X156842816Y-86625422D02*
X156852939Y-86605890D01*
X156852939Y-86605890D02*
X156874338Y-86558843D01*
X156874338Y-86558843D02*
X156904161Y-86491003D01*
X156904161Y-86491003D02*
X156939555Y-86409091D01*
X156939555Y-86409091D02*
X156977668Y-86319828D01*
X156977668Y-86319828D02*
X157015647Y-86229935D01*
X157015647Y-86229935D02*
X157050640Y-86146135D01*
X157050640Y-86146135D02*
X157079794Y-86075147D01*
X157079794Y-86075147D02*
X157100257Y-86023694D01*
X157100257Y-86023694D02*
X157109177Y-85998497D01*
X157109177Y-85998497D02*
X157109343Y-85997396D01*
X157109343Y-85997396D02*
X157099231Y-85977519D01*
X157099231Y-85977519D02*
X157070883Y-85931777D01*
X157070883Y-85931777D02*
X157027277Y-85864717D01*
X157027277Y-85864717D02*
X156971394Y-85780884D01*
X156971394Y-85780884D02*
X156906213Y-85684826D01*
X156906213Y-85684826D02*
X156868321Y-85629650D01*
X156868321Y-85629650D02*
X156799275Y-85528481D01*
X156799275Y-85528481D02*
X156737950Y-85436630D01*
X156737950Y-85436630D02*
X156687337Y-85358744D01*
X156687337Y-85358744D02*
X156650429Y-85299469D01*
X156650429Y-85299469D02*
X156630218Y-85263451D01*
X156630218Y-85263451D02*
X156627299Y-85255377D01*
X156627299Y-85255377D02*
X156639847Y-85236584D01*
X156639847Y-85236584D02*
X156674537Y-85196457D01*
X156674537Y-85196457D02*
X156726937Y-85139493D01*
X156726937Y-85139493D02*
X156792616Y-85070185D01*
X156792616Y-85070185D02*
X156867144Y-84993031D01*
X156867144Y-84993031D02*
X156946087Y-84912525D01*
X156946087Y-84912525D02*
X157025017Y-84833163D01*
X157025017Y-84833163D02*
X157099500Y-84759440D01*
X157099500Y-84759440D02*
X157165106Y-84695852D01*
X157165106Y-84695852D02*
X157217404Y-84646894D01*
X157217404Y-84646894D02*
X157251961Y-84617061D01*
X157251961Y-84617061D02*
X157263522Y-84609942D01*
X157263522Y-84609942D02*
X157282346Y-84619953D01*
X157282346Y-84619953D02*
X157327369Y-84648078D01*
X157327369Y-84648078D02*
X157394213Y-84691454D01*
X157394213Y-84691454D02*
X157478501Y-84747218D01*
X157478501Y-84747218D02*
X157575856Y-84812506D01*
X157575856Y-84812506D02*
X157649293Y-84862246D01*
X157649293Y-84862246D02*
X158020333Y-85114551D01*
X158020333Y-85114551D02*
X158638905Y-84859555D01*
X158638905Y-84859555D02*
X158722725Y-84414931D01*
X158722725Y-84414931D02*
X158806546Y-83970307D01*
X158806546Y-83970307D02*
X159731994Y-83970307D01*
X159731994Y-83970307D02*
X159815814Y-84414931D01*
X159815814Y-84414931D02*
X159815814Y-84414931D01*
G36*
X159815814Y-84414931D02*
G01*
X159899635Y-84859555D01*
X160208920Y-84987053D01*
X160518206Y-85114551D01*
X160889246Y-84862246D01*
X160993157Y-84791996D01*
X161087087Y-84729272D01*
X161166652Y-84676938D01*
X161227470Y-84637857D01*
X161265157Y-84614893D01*
X161275421Y-84609942D01*
X161293910Y-84622676D01*
X161333420Y-84657882D01*
X161389522Y-84711062D01*
X161457787Y-84777718D01*
X161533786Y-84853354D01*
X161613092Y-84933472D01*
X161691275Y-85013574D01*
X161763907Y-85089164D01*
X161826559Y-85155745D01*
X161874803Y-85208818D01*
X161904210Y-85243887D01*
X161911241Y-85255623D01*
X161901123Y-85277260D01*
X161872759Y-85324662D01*
X161829129Y-85393193D01*
X161773218Y-85478215D01*
X161708006Y-85575093D01*
X161670219Y-85630350D01*
X161601343Y-85731248D01*
X161540140Y-85822299D01*
X161489578Y-85898970D01*
X161452628Y-85956728D01*
X161432258Y-85991043D01*
X161429197Y-85998254D01*
X161436136Y-86018748D01*
X161455051Y-86066513D01*
X161483087Y-86134832D01*
X161517391Y-86216989D01*
X161555109Y-86306270D01*
X161593387Y-86395958D01*
X161629370Y-86479338D01*
X161660206Y-86549694D01*
X161683039Y-86600310D01*
X161695017Y-86624471D01*
X161695724Y-86625422D01*
X161714531Y-86630036D01*
X161764618Y-86640328D01*
X161840793Y-86655287D01*
X161937865Y-86673901D01*
X162050643Y-86695159D01*
X162116442Y-86707418D01*
X162236950Y-86730362D01*
X162345797Y-86752195D01*
X162437476Y-86771722D01*
X162506481Y-86787748D01*
X162547304Y-86799079D01*
X162555511Y-86802674D01*
X162563548Y-86827006D01*
X162570033Y-86881959D01*
X162574970Y-86961108D01*
X162578364Y-87058026D01*
X162580218Y-87166287D01*
X162580538Y-87279465D01*
X162579327Y-87391135D01*
X162576590Y-87494868D01*
X162572331Y-87584241D01*
X162566555Y-87652826D01*
X162559267Y-87694197D01*
X162554895Y-87702810D01*
X162528764Y-87713133D01*
X162473393Y-87727892D01*
X162396107Y-87745352D01*
X162304230Y-87763780D01*
X162272158Y-87769741D01*
X162117524Y-87798066D01*
X161995375Y-87820876D01*
X161901673Y-87839080D01*
X161832384Y-87853583D01*
X161783471Y-87865292D01*
X161750897Y-87875115D01*
X161730628Y-87883956D01*
X161718626Y-87892724D01*
X161716947Y-87894457D01*
X161700184Y-87922371D01*
X161674614Y-87976695D01*
X161642788Y-88050777D01*
X161607260Y-88137965D01*
X161570583Y-88231608D01*
X161535311Y-88325052D01*
X161503996Y-88411647D01*
X161479193Y-88484740D01*
X161463454Y-88537678D01*
X161459332Y-88563811D01*
X161459676Y-88564726D01*
X161473641Y-88586086D01*
X161505322Y-88633084D01*
X161551391Y-88700827D01*
X161608518Y-88784423D01*
X161673373Y-88878982D01*
X161691843Y-88905854D01*
X161757699Y-89003275D01*
X161815650Y-89092163D01*
X161862538Y-89167412D01*
X161895207Y-89223920D01*
X161910500Y-89256581D01*
X161911241Y-89260593D01*
X161898392Y-89281684D01*
X161862888Y-89323464D01*
X161809293Y-89381445D01*
X161742171Y-89451135D01*
X161666087Y-89528045D01*
X161585604Y-89607683D01*
X161505287Y-89685561D01*
X161429699Y-89757186D01*
X161363405Y-89818070D01*
X161310969Y-89863721D01*
X161276955Y-89889650D01*
X161267545Y-89893883D01*
X161245643Y-89883912D01*
X161200800Y-89857020D01*
X161140321Y-89817736D01*
X161093789Y-89786117D01*
X161009475Y-89728098D01*
X160909626Y-89659784D01*
X160809473Y-89591579D01*
X160755627Y-89555075D01*
X160573371Y-89431800D01*
X160420381Y-89514520D01*
X160350682Y-89550759D01*
X160291414Y-89578926D01*
X160251311Y-89594991D01*
X160241103Y-89597226D01*
X160228829Y-89580722D01*
X160204613Y-89534082D01*
X160170263Y-89461609D01*
X160127588Y-89367606D01*
X160078394Y-89256374D01*
X160024490Y-89132215D01*
X159967684Y-88999432D01*
X159909782Y-88862327D01*
X159852593Y-88725202D01*
X159797924Y-88592358D01*
X159747584Y-88468098D01*
X159703380Y-88356725D01*
X159667119Y-88262539D01*
X159640609Y-88189844D01*
X159625658Y-88142941D01*
X159623254Y-88126833D01*
X159642311Y-88106286D01*
X159684036Y-88072933D01*
X159739706Y-88033702D01*
X159744378Y-88030599D01*
X159888264Y-87915423D01*
X160004283Y-87781053D01*
X160091430Y-87631784D01*
X160148699Y-87471913D01*
X160175086Y-87305737D01*
X160169585Y-87137552D01*
X160131190Y-86971655D01*
X160058895Y-86812342D01*
X160037626Y-86777487D01*
X159926996Y-86636737D01*
X159796302Y-86523714D01*
X159650064Y-86439003D01*
X159492808Y-86383194D01*
X159329057Y-86356874D01*
X159163333Y-86360630D01*
X159000162Y-86395050D01*
X158844065Y-86460723D01*
X158699567Y-86558235D01*
X158654869Y-86597813D01*
X158541112Y-86721703D01*
X158458218Y-86852124D01*
X158401356Y-86998315D01*
X158369687Y-87143088D01*
X158361869Y-87305860D01*
X158387938Y-87469440D01*
X158445245Y-87628298D01*
X158531144Y-87776906D01*
X158642986Y-87909735D01*
X158778123Y-88021256D01*
X158795883Y-88033011D01*
X158852150Y-88071508D01*
X158894923Y-88104863D01*
X158915372Y-88126160D01*
X158915669Y-88126833D01*
X158911279Y-88149871D01*
X158893876Y-88202157D01*
X158865268Y-88279390D01*
X158827265Y-88377268D01*
X158781674Y-88491491D01*
X158730303Y-88617758D01*
X158674962Y-88751767D01*
X158617458Y-88889218D01*
X158559601Y-89025808D01*
X158503198Y-89157237D01*
X158450058Y-89279205D01*
X158401990Y-89387409D01*
X158360801Y-89477549D01*
X158328301Y-89545323D01*
X158306297Y-89586430D01*
X158297436Y-89597226D01*
X158270360Y-89588819D01*
X158219697Y-89566272D01*
X158154183Y-89533613D01*
X158118159Y-89514520D01*
X157965168Y-89431800D01*
X157782912Y-89555075D01*
X157689875Y-89618228D01*
X157588015Y-89687727D01*
X157492562Y-89753165D01*
X157444750Y-89786117D01*
X157377505Y-89831273D01*
X157320564Y-89867057D01*
X157281354Y-89888938D01*
X157268619Y-89893563D01*
X157250083Y-89881085D01*
X157209059Y-89846252D01*
X157149525Y-89792678D01*
X157075458Y-89723983D01*
X156990835Y-89643781D01*
X156937315Y-89592286D01*
X156843681Y-89500286D01*
X156762759Y-89417999D01*
X156697823Y-89348945D01*
X156652142Y-89296644D01*
X156628989Y-89264616D01*
X156626768Y-89258116D01*
X156637076Y-89233394D01*
X156665561Y-89183405D01*
X156709063Y-89113212D01*
X156764423Y-89027875D01*
X156828480Y-88932456D01*
X156846697Y-88905854D01*
X156913073Y-88809167D01*
X156972622Y-88722117D01*
X157022016Y-88649595D01*
X157057925Y-88596493D01*
X157077019Y-88567703D01*
X157078864Y-88564726D01*
X157076105Y-88541782D01*
X157061462Y-88491336D01*
X157037487Y-88420041D01*
X157006734Y-88334547D01*
X156971756Y-88241507D01*
X156935107Y-88147574D01*
X156899339Y-88059399D01*
X156867006Y-87983634D01*
X156840662Y-87926931D01*
X156822858Y-87895943D01*
X156821593Y-87894457D01*
X156810706Y-87885601D01*
X156792318Y-87876843D01*
X156762394Y-87867277D01*
X156716897Y-87855996D01*
X156651791Y-87842093D01*
X156563039Y-87824663D01*
X156446607Y-87802798D01*
X156298458Y-87775591D01*
X156266382Y-87769741D01*
X156171314Y-87751374D01*
X156088435Y-87733405D01*
X156025070Y-87717569D01*
X155988542Y-87705600D01*
X155983644Y-87702810D01*
X155975573Y-87678072D01*
X155969013Y-87622790D01*
X155963967Y-87543389D01*
X155960441Y-87446296D01*
X155958439Y-87337938D01*
X155957964Y-87224740D01*
X155959023Y-87113128D01*
X155961618Y-87009529D01*
X155965754Y-86920368D01*
X155971437Y-86852072D01*
X155978669Y-86811066D01*
X155983029Y-86802674D01*
X156007302Y-86794208D01*
X156062574Y-86780435D01*
X156143338Y-86762550D01*
X156244088Y-86741748D01*
X156359317Y-86719223D01*
X156422098Y-86707418D01*
X156541213Y-86685151D01*
X156647435Y-86664979D01*
X156735573Y-86647915D01*
X156800434Y-86634969D01*
X156836826Y-86627155D01*
X156842816Y-86625422D01*
X156852939Y-86605890D01*
X156874338Y-86558843D01*
X156904161Y-86491003D01*
X156939555Y-86409091D01*
X156977668Y-86319828D01*
X157015647Y-86229935D01*
X157050640Y-86146135D01*
X157079794Y-86075147D01*
X157100257Y-86023694D01*
X157109177Y-85998497D01*
X157109343Y-85997396D01*
X157099231Y-85977519D01*
X157070883Y-85931777D01*
X157027277Y-85864717D01*
X156971394Y-85780884D01*
X156906213Y-85684826D01*
X156868321Y-85629650D01*
X156799275Y-85528481D01*
X156737950Y-85436630D01*
X156687337Y-85358744D01*
X156650429Y-85299469D01*
X156630218Y-85263451D01*
X156627299Y-85255377D01*
X156639847Y-85236584D01*
X156674537Y-85196457D01*
X156726937Y-85139493D01*
X156792616Y-85070185D01*
X156867144Y-84993031D01*
X156946087Y-84912525D01*
X157025017Y-84833163D01*
X157099500Y-84759440D01*
X157165106Y-84695852D01*
X157217404Y-84646894D01*
X157251961Y-84617061D01*
X157263522Y-84609942D01*
X157282346Y-84619953D01*
X157327369Y-84648078D01*
X157394213Y-84691454D01*
X157478501Y-84747218D01*
X157575856Y-84812506D01*
X157649293Y-84862246D01*
X158020333Y-85114551D01*
X158638905Y-84859555D01*
X158722725Y-84414931D01*
X158806546Y-83970307D01*
X159731994Y-83970307D01*
X159815814Y-84414931D01*
G37*
X159815814Y-84414931D02*
X159899635Y-84859555D01*
X160208920Y-84987053D01*
X160518206Y-85114551D01*
X160889246Y-84862246D01*
X160993157Y-84791996D01*
X161087087Y-84729272D01*
X161166652Y-84676938D01*
X161227470Y-84637857D01*
X161265157Y-84614893D01*
X161275421Y-84609942D01*
X161293910Y-84622676D01*
X161333420Y-84657882D01*
X161389522Y-84711062D01*
X161457787Y-84777718D01*
X161533786Y-84853354D01*
X161613092Y-84933472D01*
X161691275Y-85013574D01*
X161763907Y-85089164D01*
X161826559Y-85155745D01*
X161874803Y-85208818D01*
X161904210Y-85243887D01*
X161911241Y-85255623D01*
X161901123Y-85277260D01*
X161872759Y-85324662D01*
X161829129Y-85393193D01*
X161773218Y-85478215D01*
X161708006Y-85575093D01*
X161670219Y-85630350D01*
X161601343Y-85731248D01*
X161540140Y-85822299D01*
X161489578Y-85898970D01*
X161452628Y-85956728D01*
X161432258Y-85991043D01*
X161429197Y-85998254D01*
X161436136Y-86018748D01*
X161455051Y-86066513D01*
X161483087Y-86134832D01*
X161517391Y-86216989D01*
X161555109Y-86306270D01*
X161593387Y-86395958D01*
X161629370Y-86479338D01*
X161660206Y-86549694D01*
X161683039Y-86600310D01*
X161695017Y-86624471D01*
X161695724Y-86625422D01*
X161714531Y-86630036D01*
X161764618Y-86640328D01*
X161840793Y-86655287D01*
X161937865Y-86673901D01*
X162050643Y-86695159D01*
X162116442Y-86707418D01*
X162236950Y-86730362D01*
X162345797Y-86752195D01*
X162437476Y-86771722D01*
X162506481Y-86787748D01*
X162547304Y-86799079D01*
X162555511Y-86802674D01*
X162563548Y-86827006D01*
X162570033Y-86881959D01*
X162574970Y-86961108D01*
X162578364Y-87058026D01*
X162580218Y-87166287D01*
X162580538Y-87279465D01*
X162579327Y-87391135D01*
X162576590Y-87494868D01*
X162572331Y-87584241D01*
X162566555Y-87652826D01*
X162559267Y-87694197D01*
X162554895Y-87702810D01*
X162528764Y-87713133D01*
X162473393Y-87727892D01*
X162396107Y-87745352D01*
X162304230Y-87763780D01*
X162272158Y-87769741D01*
X162117524Y-87798066D01*
X161995375Y-87820876D01*
X161901673Y-87839080D01*
X161832384Y-87853583D01*
X161783471Y-87865292D01*
X161750897Y-87875115D01*
X161730628Y-87883956D01*
X161718626Y-87892724D01*
X161716947Y-87894457D01*
X161700184Y-87922371D01*
X161674614Y-87976695D01*
X161642788Y-88050777D01*
X161607260Y-88137965D01*
X161570583Y-88231608D01*
X161535311Y-88325052D01*
X161503996Y-88411647D01*
X161479193Y-88484740D01*
X161463454Y-88537678D01*
X161459332Y-88563811D01*
X161459676Y-88564726D01*
X161473641Y-88586086D01*
X161505322Y-88633084D01*
X161551391Y-88700827D01*
X161608518Y-88784423D01*
X161673373Y-88878982D01*
X161691843Y-88905854D01*
X161757699Y-89003275D01*
X161815650Y-89092163D01*
X161862538Y-89167412D01*
X161895207Y-89223920D01*
X161910500Y-89256581D01*
X161911241Y-89260593D01*
X161898392Y-89281684D01*
X161862888Y-89323464D01*
X161809293Y-89381445D01*
X161742171Y-89451135D01*
X161666087Y-89528045D01*
X161585604Y-89607683D01*
X161505287Y-89685561D01*
X161429699Y-89757186D01*
X161363405Y-89818070D01*
X161310969Y-89863721D01*
X161276955Y-89889650D01*
X161267545Y-89893883D01*
X161245643Y-89883912D01*
X161200800Y-89857020D01*
X161140321Y-89817736D01*
X161093789Y-89786117D01*
X161009475Y-89728098D01*
X160909626Y-89659784D01*
X160809473Y-89591579D01*
X160755627Y-89555075D01*
X160573371Y-89431800D01*
X160420381Y-89514520D01*
X160350682Y-89550759D01*
X160291414Y-89578926D01*
X160251311Y-89594991D01*
X160241103Y-89597226D01*
X160228829Y-89580722D01*
X160204613Y-89534082D01*
X160170263Y-89461609D01*
X160127588Y-89367606D01*
X160078394Y-89256374D01*
X160024490Y-89132215D01*
X159967684Y-88999432D01*
X159909782Y-88862327D01*
X159852593Y-88725202D01*
X159797924Y-88592358D01*
X159747584Y-88468098D01*
X159703380Y-88356725D01*
X159667119Y-88262539D01*
X159640609Y-88189844D01*
X159625658Y-88142941D01*
X159623254Y-88126833D01*
X159642311Y-88106286D01*
X159684036Y-88072933D01*
X159739706Y-88033702D01*
X159744378Y-88030599D01*
X159888264Y-87915423D01*
X160004283Y-87781053D01*
X160091430Y-87631784D01*
X160148699Y-87471913D01*
X160175086Y-87305737D01*
X160169585Y-87137552D01*
X160131190Y-86971655D01*
X160058895Y-86812342D01*
X160037626Y-86777487D01*
X159926996Y-86636737D01*
X159796302Y-86523714D01*
X159650064Y-86439003D01*
X159492808Y-86383194D01*
X159329057Y-86356874D01*
X159163333Y-86360630D01*
X159000162Y-86395050D01*
X158844065Y-86460723D01*
X158699567Y-86558235D01*
X158654869Y-86597813D01*
X158541112Y-86721703D01*
X158458218Y-86852124D01*
X158401356Y-86998315D01*
X158369687Y-87143088D01*
X158361869Y-87305860D01*
X158387938Y-87469440D01*
X158445245Y-87628298D01*
X158531144Y-87776906D01*
X158642986Y-87909735D01*
X158778123Y-88021256D01*
X158795883Y-88033011D01*
X158852150Y-88071508D01*
X158894923Y-88104863D01*
X158915372Y-88126160D01*
X158915669Y-88126833D01*
X158911279Y-88149871D01*
X158893876Y-88202157D01*
X158865268Y-88279390D01*
X158827265Y-88377268D01*
X158781674Y-88491491D01*
X158730303Y-88617758D01*
X158674962Y-88751767D01*
X158617458Y-88889218D01*
X158559601Y-89025808D01*
X158503198Y-89157237D01*
X158450058Y-89279205D01*
X158401990Y-89387409D01*
X158360801Y-89477549D01*
X158328301Y-89545323D01*
X158306297Y-89586430D01*
X158297436Y-89597226D01*
X158270360Y-89588819D01*
X158219697Y-89566272D01*
X158154183Y-89533613D01*
X158118159Y-89514520D01*
X157965168Y-89431800D01*
X157782912Y-89555075D01*
X157689875Y-89618228D01*
X157588015Y-89687727D01*
X157492562Y-89753165D01*
X157444750Y-89786117D01*
X157377505Y-89831273D01*
X157320564Y-89867057D01*
X157281354Y-89888938D01*
X157268619Y-89893563D01*
X157250083Y-89881085D01*
X157209059Y-89846252D01*
X157149525Y-89792678D01*
X157075458Y-89723983D01*
X156990835Y-89643781D01*
X156937315Y-89592286D01*
X156843681Y-89500286D01*
X156762759Y-89417999D01*
X156697823Y-89348945D01*
X156652142Y-89296644D01*
X156628989Y-89264616D01*
X156626768Y-89258116D01*
X156637076Y-89233394D01*
X156665561Y-89183405D01*
X156709063Y-89113212D01*
X156764423Y-89027875D01*
X156828480Y-88932456D01*
X156846697Y-88905854D01*
X156913073Y-88809167D01*
X156972622Y-88722117D01*
X157022016Y-88649595D01*
X157057925Y-88596493D01*
X157077019Y-88567703D01*
X157078864Y-88564726D01*
X157076105Y-88541782D01*
X157061462Y-88491336D01*
X157037487Y-88420041D01*
X157006734Y-88334547D01*
X156971756Y-88241507D01*
X156935107Y-88147574D01*
X156899339Y-88059399D01*
X156867006Y-87983634D01*
X156840662Y-87926931D01*
X156822858Y-87895943D01*
X156821593Y-87894457D01*
X156810706Y-87885601D01*
X156792318Y-87876843D01*
X156762394Y-87867277D01*
X156716897Y-87855996D01*
X156651791Y-87842093D01*
X156563039Y-87824663D01*
X156446607Y-87802798D01*
X156298458Y-87775591D01*
X156266382Y-87769741D01*
X156171314Y-87751374D01*
X156088435Y-87733405D01*
X156025070Y-87717569D01*
X155988542Y-87705600D01*
X155983644Y-87702810D01*
X155975573Y-87678072D01*
X155969013Y-87622790D01*
X155963967Y-87543389D01*
X155960441Y-87446296D01*
X155958439Y-87337938D01*
X155957964Y-87224740D01*
X155959023Y-87113128D01*
X155961618Y-87009529D01*
X155965754Y-86920368D01*
X155971437Y-86852072D01*
X155978669Y-86811066D01*
X155983029Y-86802674D01*
X156007302Y-86794208D01*
X156062574Y-86780435D01*
X156143338Y-86762550D01*
X156244088Y-86741748D01*
X156359317Y-86719223D01*
X156422098Y-86707418D01*
X156541213Y-86685151D01*
X156647435Y-86664979D01*
X156735573Y-86647915D01*
X156800434Y-86634969D01*
X156836826Y-86627155D01*
X156842816Y-86625422D01*
X156852939Y-86605890D01*
X156874338Y-86558843D01*
X156904161Y-86491003D01*
X156939555Y-86409091D01*
X156977668Y-86319828D01*
X157015647Y-86229935D01*
X157050640Y-86146135D01*
X157079794Y-86075147D01*
X157100257Y-86023694D01*
X157109177Y-85998497D01*
X157109343Y-85997396D01*
X157099231Y-85977519D01*
X157070883Y-85931777D01*
X157027277Y-85864717D01*
X156971394Y-85780884D01*
X156906213Y-85684826D01*
X156868321Y-85629650D01*
X156799275Y-85528481D01*
X156737950Y-85436630D01*
X156687337Y-85358744D01*
X156650429Y-85299469D01*
X156630218Y-85263451D01*
X156627299Y-85255377D01*
X156639847Y-85236584D01*
X156674537Y-85196457D01*
X156726937Y-85139493D01*
X156792616Y-85070185D01*
X156867144Y-84993031D01*
X156946087Y-84912525D01*
X157025017Y-84833163D01*
X157099500Y-84759440D01*
X157165106Y-84695852D01*
X157217404Y-84646894D01*
X157251961Y-84617061D01*
X157263522Y-84609942D01*
X157282346Y-84619953D01*
X157327369Y-84648078D01*
X157394213Y-84691454D01*
X157478501Y-84747218D01*
X157575856Y-84812506D01*
X157649293Y-84862246D01*
X158020333Y-85114551D01*
X158638905Y-84859555D01*
X158722725Y-84414931D01*
X158806546Y-83970307D01*
X159731994Y-83970307D01*
X159815814Y-84414931D01*
D13*
%TO.C,Q2*%
X149064000Y-95582000D02*
X149064000Y-96232000D01*
X152184000Y-95582000D02*
X152184000Y-96232000D01*
X152184000Y-95582000D02*
X152184000Y-93907000D01*
X149064000Y-95582000D02*
X149064000Y-94932000D01*
%TO.C,R10*%
X157639500Y-113783542D02*
X157639500Y-114258058D01*
X158684500Y-113783542D02*
X158684500Y-114258058D01*
%TO.C,R4*%
X146463500Y-109097742D02*
X146463500Y-109572258D01*
X147508500Y-109097742D02*
X147508500Y-109572258D01*
%TO.C,C2*%
X141665580Y-122862000D02*
X141384420Y-122862000D01*
X141665580Y-121842000D02*
X141384420Y-121842000D01*
%TO.C,D3*%
X149527000Y-124990000D02*
X152827000Y-124990000D01*
X152827000Y-124990000D02*
X152827000Y-119590000D01*
X149527000Y-124990000D02*
X149527000Y-119590000D01*
%TO.C,JP1_D1*%
X152132000Y-99770000D02*
X152132000Y-102570000D01*
X152132000Y-102570000D02*
X150132000Y-102570000D01*
X150132000Y-102570000D02*
X150132000Y-99770000D01*
X150132000Y-99770000D02*
X152132000Y-99770000D01*
%TO.C,J4*%
X148430000Y-69100000D02*
X158730000Y-69100000D01*
X148430000Y-56880000D02*
X148430000Y-69100000D01*
X155380000Y-58380000D02*
X156880000Y-58380000D01*
X158730000Y-69100000D02*
X158730000Y-56880000D01*
X156880000Y-58380000D02*
X157130000Y-56880000D01*
X155130000Y-56880000D02*
X155380000Y-58380000D01*
X158730000Y-58380000D02*
X158730000Y-60180000D01*
X148430000Y-58380000D02*
X158730000Y-58380000D01*
X158730000Y-56880000D02*
X148430000Y-56880000D01*
X152050000Y-56880000D02*
X150050000Y-56880000D01*
X151800000Y-58380000D02*
X152050000Y-56880000D01*
X150050000Y-56880000D02*
X150300000Y-58380000D01*
X148430000Y-60180000D02*
X148430000Y-58380000D01*
X158730000Y-60180000D02*
X148430000Y-60180000D01*
X150300000Y-58380000D02*
X151800000Y-58380000D01*
X157130000Y-56880000D02*
X155130000Y-56880000D01*
%TO.C,R1*%
X146463500Y-112620258D02*
X146463500Y-112145742D01*
X147508500Y-112620258D02*
X147508500Y-112145742D01*
%TO.C,Q1*%
X152184000Y-87454000D02*
X152184000Y-88104000D01*
X149064000Y-87454000D02*
X149064000Y-86804000D01*
X149064000Y-87454000D02*
X149064000Y-88104000D01*
X152184000Y-87454000D02*
X152184000Y-85779000D01*
%TO.C,R8*%
X146715258Y-100112500D02*
X146240742Y-100112500D01*
X146715258Y-101157500D02*
X146240742Y-101157500D01*
%TO.C,D2*%
X139111000Y-95457000D02*
X139111000Y-100857000D01*
X139111000Y-95457000D02*
X135811000Y-95457000D01*
X135811000Y-95457000D02*
X135811000Y-100857000D01*
%TO.C,C1*%
X144713580Y-126418000D02*
X144432420Y-126418000D01*
X144713580Y-125398000D02*
X144432420Y-125398000D01*
D15*
%TO.C,LOGO1*%
X156766800Y-109169400D02*
X156766800Y-91643400D01*
X156766800Y-91643400D02*
X162100800Y-91643400D01*
X162100800Y-109169400D02*
X156766800Y-109169400D01*
X162100800Y-91643400D02*
X162100800Y-109169400D01*
D13*
%TO.C,JP2_U2*%
X159162000Y-116938800D02*
X159162000Y-119738800D01*
X159162000Y-119738800D02*
X157162000Y-119738800D01*
X157162000Y-119738800D02*
X157162000Y-116938800D01*
X157162000Y-116938800D02*
X159162000Y-116938800D01*
%TO.C,R2*%
X144462742Y-109158500D02*
X144937258Y-109158500D01*
X144462742Y-108113500D02*
X144937258Y-108113500D01*
%TO.C,R3*%
X144462742Y-109637500D02*
X144937258Y-109637500D01*
X144462742Y-110682500D02*
X144937258Y-110682500D01*
%TO.C,J1*%
X138290000Y-130880000D02*
X138290000Y-143100000D01*
X148590000Y-143100000D02*
X148590000Y-130880000D01*
X141640000Y-141600000D02*
X140140000Y-141600000D01*
X138290000Y-141600000D02*
X138290000Y-139800000D01*
X145220000Y-141600000D02*
X144970000Y-143100000D01*
X148590000Y-141600000D02*
X138290000Y-141600000D01*
X148590000Y-130880000D02*
X138290000Y-130880000D01*
X139890000Y-143100000D02*
X141890000Y-143100000D01*
X148590000Y-139800000D02*
X148590000Y-141600000D01*
X138290000Y-143100000D02*
X148590000Y-143100000D01*
X144970000Y-143100000D02*
X146970000Y-143100000D01*
X138290000Y-139800000D02*
X148590000Y-139800000D01*
X141890000Y-143100000D02*
X141640000Y-141600000D01*
X146720000Y-141600000D02*
X145220000Y-141600000D01*
X140140000Y-141600000D02*
X139890000Y-143100000D01*
X146970000Y-143100000D02*
X146720000Y-141600000D01*
%TO.C,R11*%
X145275500Y-73467258D02*
X145275500Y-72992742D01*
X146320500Y-73467258D02*
X146320500Y-72992742D01*
%TO.C,R9*%
X156652500Y-121352742D02*
X156652500Y-121827258D01*
X155607500Y-121352742D02*
X155607500Y-121827258D01*
%TO.C,C4*%
X144432420Y-121842000D02*
X144713580Y-121842000D01*
X144432420Y-122862000D02*
X144713580Y-122862000D01*
%TO.C,L1*%
X136112000Y-110158000D02*
X136112000Y-103558000D01*
X142112000Y-103558000D02*
X142112000Y-110158000D01*
X140712000Y-103558000D02*
X142112000Y-103558000D01*
X142112000Y-110158000D02*
X140712000Y-110158000D01*
X137512000Y-110158000D02*
X136112000Y-110158000D01*
X136112000Y-103558000D02*
X137512000Y-103558000D01*
%TO.C,JP2_U1*%
X142258000Y-75640000D02*
X144258000Y-75640000D01*
X144258000Y-78440000D02*
X142258000Y-78440000D01*
X142258000Y-78440000D02*
X142258000Y-75640000D01*
X144258000Y-75640000D02*
X144258000Y-78440000D01*
%TO.C,J2*%
X158750000Y-139800000D02*
X158750000Y-141600000D01*
X155380000Y-141600000D02*
X155130000Y-143100000D01*
X148450000Y-139800000D02*
X158750000Y-139800000D01*
X150300000Y-141600000D02*
X150050000Y-143100000D01*
X155130000Y-143100000D02*
X157130000Y-143100000D01*
X151800000Y-141600000D02*
X150300000Y-141600000D01*
X148450000Y-143100000D02*
X158750000Y-143100000D01*
X158750000Y-141600000D02*
X148450000Y-141600000D01*
X152050000Y-143100000D02*
X151800000Y-141600000D01*
X148450000Y-130880000D02*
X148450000Y-143100000D01*
X148450000Y-141600000D02*
X148450000Y-139800000D01*
X158750000Y-130880000D02*
X148450000Y-130880000D01*
X158750000Y-143100000D02*
X158750000Y-130880000D01*
X157130000Y-143100000D02*
X156880000Y-141600000D01*
X150050000Y-143100000D02*
X152050000Y-143100000D01*
X156880000Y-141600000D02*
X155380000Y-141600000D01*
%TO.C,JP2_D2*%
X159702000Y-119738800D02*
X159702000Y-116938800D01*
X161702000Y-119738800D02*
X159702000Y-119738800D01*
X161702000Y-116938800D02*
X161702000Y-119738800D01*
X159702000Y-116938800D02*
X161702000Y-116938800D01*
%TO.C,C7*%
X144877748Y-103281000D02*
X146300252Y-103281000D01*
X144877748Y-105101000D02*
X146300252Y-105101000D01*
%TO.C,U1*%
X145609000Y-117780000D02*
X145609000Y-119730000D01*
X140489000Y-117780000D02*
X140489000Y-115830000D01*
X140489000Y-117780000D02*
X140489000Y-121230000D01*
X145609000Y-117780000D02*
X145609000Y-115830000D01*
%TO.C,C6*%
X144559420Y-112194000D02*
X144840580Y-112194000D01*
X144559420Y-111174000D02*
X144840580Y-111174000D01*
%TO.C,JP2_D1*%
X144798000Y-78440000D02*
X144798000Y-75640000D01*
X144798000Y-75640000D02*
X146798000Y-75640000D01*
X146798000Y-78440000D02*
X144798000Y-78440000D01*
X146798000Y-75640000D02*
X146798000Y-78440000D01*
%TD*%
%LPC*%
D10*
%TO.C,LOGO1*%
X157071600Y-91922800D02*
X157071600Y-108890000D01*
X157071600Y-108890000D02*
X161796000Y-108890000D01*
X161796000Y-108890000D02*
X161796000Y-91922800D01*
X161796000Y-91922800D02*
X157071600Y-91922800D01*
G36*
X161796000Y-108890000D02*
G01*
X157071600Y-108890000D01*
X157071600Y-91922800D01*
X161796000Y-91922800D01*
X161796000Y-108890000D01*
G37*
X161796000Y-108890000D02*
X157071600Y-108890000D01*
X157071600Y-91922800D01*
X161796000Y-91922800D01*
X161796000Y-108890000D01*
%TD*%
D16*
%TO.C,R5*%
X151640000Y-76215000D03*
X151640000Y-77865000D03*
%TD*%
D17*
%TO.C,J3*%
X145970000Y-66990000D03*
D18*
X140890000Y-66990000D03*
%TD*%
D16*
%TO.C,R6*%
X147889500Y-86666000D03*
X147889500Y-88316000D03*
%TD*%
D19*
%TO.C,R12*%
X151449000Y-91518000D03*
X149799000Y-91518000D03*
%TD*%
D20*
%TO.C,C8*%
X144114000Y-106604000D03*
X147064000Y-106604000D03*
%TD*%
D21*
%TO.C,C3*%
X140877000Y-113208000D03*
X142427000Y-113208000D03*
%TD*%
D22*
%TO.C,U2*%
X153590000Y-106284000D03*
X151050000Y-106284000D03*
X151050000Y-115814000D03*
X153590000Y-115814000D03*
%TD*%
D23*
%TO.C,JP1_I1*%
X153418000Y-100445000D03*
D24*
X153418000Y-101895000D03*
%TD*%
D25*
%TO.C,D1*%
X138223000Y-113494000D03*
X138223000Y-117494000D03*
%TD*%
D21*
%TO.C,C5*%
X143925000Y-113208000D03*
X145475000Y-113208000D03*
%TD*%
D16*
%TO.C,R7*%
X143258000Y-72405000D03*
X143258000Y-74055000D03*
%TD*%
D26*
%TO.C,Q2*%
X151574000Y-94644500D03*
X149674000Y-94644500D03*
X150624000Y-96519500D03*
%TD*%
D16*
%TO.C,R10*%
X158162000Y-113195800D03*
X158162000Y-114845800D03*
%TD*%
%TO.C,R4*%
X146986000Y-108510000D03*
X146986000Y-110160000D03*
%TD*%
D27*
%TO.C,C2*%
X142300000Y-122352000D03*
X140750000Y-122352000D03*
%TD*%
D25*
%TO.C,D3*%
X151177000Y-123590000D03*
X151177000Y-119590000D03*
%TD*%
D23*
%TO.C,JP1_D1*%
X151132000Y-100445000D03*
D24*
X151132000Y-101895000D03*
%TD*%
D28*
%TO.C,H2*%
X136860000Y-127990000D03*
%TD*%
D17*
%TO.C,J4*%
X156130000Y-66990000D03*
D18*
X151050000Y-66990000D03*
%TD*%
D29*
%TO.C,R1*%
X146986000Y-113208000D03*
X146986000Y-111558000D03*
%TD*%
D26*
%TO.C,Q1*%
X151574000Y-86516500D03*
X149674000Y-86516500D03*
X150624000Y-88391500D03*
%TD*%
D19*
%TO.C,R8*%
X147303000Y-100635000D03*
X145653000Y-100635000D03*
%TD*%
D25*
%TO.C,D2*%
X137461000Y-96857000D03*
X137461000Y-100857000D03*
%TD*%
D27*
%TO.C,C1*%
X145348000Y-125908000D03*
X143798000Y-125908000D03*
%TD*%
D30*
%TO.C,LOGO1*%
X158544800Y-96215400D03*
D31*
X158544800Y-103835400D03*
D32*
X158544800Y-100895400D03*
X158544800Y-99155400D03*
%TD*%
D23*
%TO.C,JP2_U2*%
X158162000Y-117613800D03*
D24*
X158162000Y-119063800D03*
%TD*%
D33*
%TO.C,R2*%
X143875000Y-108636000D03*
X145525000Y-108636000D03*
%TD*%
%TO.C,R3*%
X143875000Y-110160000D03*
X145525000Y-110160000D03*
%TD*%
D34*
%TO.C,J1*%
X140890000Y-132990000D03*
D18*
X145970000Y-132990000D03*
%TD*%
D29*
%TO.C,R11*%
X145798000Y-74055000D03*
X145798000Y-72405000D03*
%TD*%
D16*
%TO.C,R9*%
X156130000Y-120765000D03*
X156130000Y-122415000D03*
%TD*%
D21*
%TO.C,C4*%
X143798000Y-122352000D03*
X145348000Y-122352000D03*
%TD*%
D35*
%TO.C,L1*%
X139112000Y-104108000D03*
X139112000Y-109608000D03*
%TD*%
D36*
%TO.C,JP2_U1*%
X143258000Y-77765000D03*
D37*
X143258000Y-76315000D03*
%TD*%
D34*
%TO.C,J2*%
X151050000Y-132990000D03*
D18*
X156130000Y-132990000D03*
%TD*%
D36*
%TO.C,JP2_D2*%
X160702000Y-119063800D03*
D37*
X160702000Y-117613800D03*
%TD*%
D20*
%TO.C,C7*%
X144114000Y-104191000D03*
X147064000Y-104191000D03*
%TD*%
D28*
%TO.C,H1*%
X160160000Y-72000000D03*
%TD*%
D38*
%TO.C,U1*%
X141144000Y-120255000D03*
X142414000Y-120255000D03*
X143684000Y-120255000D03*
X144954000Y-120255000D03*
X144954000Y-115305000D03*
X143684000Y-115305000D03*
X142414000Y-115305000D03*
X141144000Y-115305000D03*
%TD*%
D21*
%TO.C,C6*%
X143925000Y-111684000D03*
X145475000Y-111684000D03*
%TD*%
D23*
%TO.C,JP2_D1*%
X145798000Y-76315000D03*
D24*
X145798000Y-77765000D03*
%TD*%
D39*
X146224000Y-89840000D03*
X160956000Y-113970000D03*
X159006000Y-77040000D03*
X140636000Y-117399000D03*
X147748000Y-83363000D03*
X148891000Y-112192000D03*
X139956000Y-95582000D03*
M02*
