%TF.GenerationSoftware,KiCad,Pcbnew,(5.99.0-11096-g937f5138db)*%
%TF.CreationDate,2021-07-05T20:04:54+02:00*%
%TF.ProjectId,LasS0,4c617353-302e-46b6-9963-61645f706362,v0.1*%
%TF.SameCoordinates,Original*%
%TF.FileFunction,Paste,Top*%
%TF.FilePolarity,Positive*%
%FSLAX46Y46*%
G04 Gerber Fmt 4.6, Leading zero omitted, Abs format (unit mm)*
G04 Created by KiCad (PCBNEW (5.99.0-11096-g937f5138db)) date 2021-07-05 20:04:54*
%MOMM*%
%LPD*%
G01*
G04 APERTURE LIST*
G04 Aperture macros list*
%AMRoundRect*
0 Rectangle with rounded corners*
0 $1 Rounding radius*
0 $2 $3 $4 $5 $6 $7 $8 $9 X,Y pos of 4 corners*
0 Add a 4 corners polygon primitive as box body*
4,1,4,$2,$3,$4,$5,$6,$7,$8,$9,$2,$3,0*
0 Add four circle primitives for the rounded corners*
1,1,$1+$1,$2,$3*
1,1,$1+$1,$4,$5*
1,1,$1+$1,$6,$7*
1,1,$1+$1,$8,$9*
0 Add four rect primitives between the rounded corners*
20,1,$1+$1,$2,$3,$4,$5,0*
20,1,$1+$1,$4,$5,$6,$7,0*
20,1,$1+$1,$6,$7,$8,$9,0*
20,1,$1+$1,$8,$9,$2,$3,0*%
G04 Aperture macros list end*
%ADD10RoundRect,0.200000X-0.275000X0.200000X-0.275000X-0.200000X0.275000X-0.200000X0.275000X0.200000X0*%
%ADD11RoundRect,0.200000X0.200000X0.275000X-0.200000X0.275000X-0.200000X-0.275000X0.200000X-0.275000X0*%
%ADD12RoundRect,0.250000X-0.325000X-0.650000X0.325000X-0.650000X0.325000X0.650000X-0.325000X0.650000X0*%
%ADD13RoundRect,0.225000X-0.225000X-0.250000X0.225000X-0.250000X0.225000X0.250000X-0.225000X0.250000X0*%
%ADD14R,1.780000X2.000000*%
%ADD15R,1.800000X2.500000*%
%ADD16RoundRect,0.150000X-0.150000X0.587500X-0.150000X-0.587500X0.150000X-0.587500X0.150000X0.587500X0*%
%ADD17RoundRect,0.225000X0.225000X0.250000X-0.225000X0.250000X-0.225000X-0.250000X0.225000X-0.250000X0*%
%ADD18RoundRect,0.200000X0.275000X-0.200000X0.275000X0.200000X-0.275000X0.200000X-0.275000X-0.200000X0*%
%ADD19RoundRect,0.200000X-0.200000X-0.275000X0.200000X-0.275000X0.200000X0.275000X-0.200000X0.275000X0*%
%ADD20R,3.000000X1.950000*%
%ADD21RoundRect,0.150000X0.150000X-0.825000X0.150000X0.825000X-0.150000X0.825000X-0.150000X-0.825000X0*%
G04 APERTURE END LIST*
D10*
%TO.C,R5*%
X151640000Y-76215000D03*
X151640000Y-77865000D03*
%TD*%
%TO.C,R6*%
X147889500Y-86666000D03*
X147889500Y-88316000D03*
%TD*%
D11*
%TO.C,R12*%
X151449000Y-91518000D03*
X149799000Y-91518000D03*
%TD*%
D12*
%TO.C,C8*%
X144114000Y-106604000D03*
X147064000Y-106604000D03*
%TD*%
D13*
%TO.C,C3*%
X140877000Y-113208000D03*
X142427000Y-113208000D03*
%TD*%
D14*
%TO.C,U2*%
X153590000Y-106284000D03*
X151050000Y-106284000D03*
X151050000Y-115814000D03*
X153590000Y-115814000D03*
%TD*%
D15*
%TO.C,D1*%
X138223000Y-113494000D03*
X138223000Y-117494000D03*
%TD*%
D13*
%TO.C,C5*%
X143925000Y-113208000D03*
X145475000Y-113208000D03*
%TD*%
D10*
%TO.C,R7*%
X143258000Y-72405000D03*
X143258000Y-74055000D03*
%TD*%
D16*
%TO.C,Q2*%
X151574000Y-94644500D03*
X149674000Y-94644500D03*
X150624000Y-96519500D03*
%TD*%
D10*
%TO.C,R10*%
X158162000Y-113195800D03*
X158162000Y-114845800D03*
%TD*%
%TO.C,R4*%
X146986000Y-108510000D03*
X146986000Y-110160000D03*
%TD*%
D17*
%TO.C,C2*%
X142300000Y-122352000D03*
X140750000Y-122352000D03*
%TD*%
D15*
%TO.C,D3*%
X151177000Y-123590000D03*
X151177000Y-119590000D03*
%TD*%
D18*
%TO.C,R1*%
X146986000Y-113208000D03*
X146986000Y-111558000D03*
%TD*%
D16*
%TO.C,Q1*%
X151574000Y-86516500D03*
X149674000Y-86516500D03*
X150624000Y-88391500D03*
%TD*%
D11*
%TO.C,R8*%
X147303000Y-100635000D03*
X145653000Y-100635000D03*
%TD*%
D15*
%TO.C,D2*%
X137461000Y-96857000D03*
X137461000Y-100857000D03*
%TD*%
D17*
%TO.C,C1*%
X145348000Y-125908000D03*
X143798000Y-125908000D03*
%TD*%
D19*
%TO.C,R2*%
X143875000Y-108636000D03*
X145525000Y-108636000D03*
%TD*%
%TO.C,R3*%
X143875000Y-110160000D03*
X145525000Y-110160000D03*
%TD*%
D18*
%TO.C,R11*%
X145798000Y-74055000D03*
X145798000Y-72405000D03*
%TD*%
D10*
%TO.C,R9*%
X156130000Y-120765000D03*
X156130000Y-122415000D03*
%TD*%
D13*
%TO.C,C4*%
X143798000Y-122352000D03*
X145348000Y-122352000D03*
%TD*%
D20*
%TO.C,L1*%
X139112000Y-104108000D03*
X139112000Y-109608000D03*
%TD*%
D12*
%TO.C,C7*%
X144114000Y-104191000D03*
X147064000Y-104191000D03*
%TD*%
D21*
%TO.C,U1*%
X141144000Y-120255000D03*
X142414000Y-120255000D03*
X143684000Y-120255000D03*
X144954000Y-120255000D03*
X144954000Y-115305000D03*
X143684000Y-115305000D03*
X142414000Y-115305000D03*
X141144000Y-115305000D03*
%TD*%
D13*
%TO.C,C6*%
X143925000Y-111684000D03*
X145475000Y-111684000D03*
%TD*%
M02*
