%TF.GenerationSoftware,KiCad,Pcbnew,(5.99.0-11096-g937f5138db)*%
%TF.CreationDate,2021-07-05T20:04:54+02:00*%
%TF.ProjectId,LasS0,4c617353-302e-46b6-9963-61645f706362,v0.1*%
%TF.SameCoordinates,Original*%
%TF.FileFunction,Copper,L1,Top*%
%TF.FilePolarity,Positive*%
%FSLAX46Y46*%
G04 Gerber Fmt 4.6, Leading zero omitted, Abs format (unit mm)*
G04 Created by KiCad (PCBNEW (5.99.0-11096-g937f5138db)) date 2021-07-05 20:04:54*
%MOMM*%
%LPD*%
G01*
G04 APERTURE LIST*
G04 Aperture macros list*
%AMRoundRect*
0 Rectangle with rounded corners*
0 $1 Rounding radius*
0 $2 $3 $4 $5 $6 $7 $8 $9 X,Y pos of 4 corners*
0 Add a 4 corners polygon primitive as box body*
4,1,4,$2,$3,$4,$5,$6,$7,$8,$9,$2,$3,0*
0 Add four circle primitives for the rounded corners*
1,1,$1+$1,$2,$3*
1,1,$1+$1,$4,$5*
1,1,$1+$1,$6,$7*
1,1,$1+$1,$8,$9*
0 Add four rect primitives between the rounded corners*
20,1,$1+$1,$2,$3,$4,$5,0*
20,1,$1+$1,$4,$5,$6,$7,0*
20,1,$1+$1,$6,$7,$8,$9,0*
20,1,$1+$1,$8,$9,$2,$3,0*%
%AMFreePoly0*
4,1,6,1.000000,0.000000,0.500000,-0.750000,-0.500000,-0.750000,-0.500000,0.750000,0.500000,0.750000,1.000000,0.000000,1.000000,0.000000,$1*%
%AMFreePoly1*
4,1,6,0.500000,-0.750000,-0.650000,-0.750000,-0.150000,0.000000,-0.650000,0.750000,0.500000,0.750000,0.500000,-0.750000,0.500000,-0.750000,$1*%
G04 Aperture macros list end*
%ADD10C,0.200000*%
%TA.AperFunction,NonConductor*%
%ADD11C,0.200000*%
%TD*%
%TA.AperFunction,EtchedComponent*%
%ADD12C,0.250000*%
%TD*%
%TA.AperFunction,SMDPad,CuDef*%
%ADD13RoundRect,0.200000X-0.275000X0.200000X-0.275000X-0.200000X0.275000X-0.200000X0.275000X0.200000X0*%
%TD*%
%TA.AperFunction,ComponentPad*%
%ADD14RoundRect,0.249999X0.790001X1.550001X-0.790001X1.550001X-0.790001X-1.550001X0.790001X-1.550001X0*%
%TD*%
%TA.AperFunction,ComponentPad*%
%ADD15O,2.080000X3.600000*%
%TD*%
%TA.AperFunction,SMDPad,CuDef*%
%ADD16RoundRect,0.200000X0.200000X0.275000X-0.200000X0.275000X-0.200000X-0.275000X0.200000X-0.275000X0*%
%TD*%
%TA.AperFunction,SMDPad,CuDef*%
%ADD17RoundRect,0.250000X-0.325000X-0.650000X0.325000X-0.650000X0.325000X0.650000X-0.325000X0.650000X0*%
%TD*%
%TA.AperFunction,SMDPad,CuDef*%
%ADD18RoundRect,0.225000X-0.225000X-0.250000X0.225000X-0.250000X0.225000X0.250000X-0.225000X0.250000X0*%
%TD*%
%TA.AperFunction,SMDPad,CuDef*%
%ADD19R,1.780000X2.000000*%
%TD*%
%TA.AperFunction,SMDPad,CuDef*%
%ADD20FreePoly0,270.000000*%
%TD*%
%TA.AperFunction,SMDPad,CuDef*%
%ADD21FreePoly1,270.000000*%
%TD*%
%TA.AperFunction,SMDPad,CuDef*%
%ADD22R,1.800000X2.500000*%
%TD*%
%TA.AperFunction,SMDPad,CuDef*%
%ADD23RoundRect,0.150000X-0.150000X0.587500X-0.150000X-0.587500X0.150000X-0.587500X0.150000X0.587500X0*%
%TD*%
%TA.AperFunction,SMDPad,CuDef*%
%ADD24RoundRect,0.225000X0.225000X0.250000X-0.225000X0.250000X-0.225000X-0.250000X0.225000X-0.250000X0*%
%TD*%
%TA.AperFunction,SMDPad,CuDef*%
%ADD25RoundRect,0.200000X0.275000X-0.200000X0.275000X0.200000X-0.275000X0.200000X-0.275000X-0.200000X0*%
%TD*%
%TA.AperFunction,ComponentPad*%
%ADD26O,1.600000X1.600000*%
%TD*%
%TA.AperFunction,ComponentPad*%
%ADD27C,1.600000*%
%TD*%
%TA.AperFunction,SMDPad,CuDef*%
%ADD28RoundRect,0.225000X0.675000X-0.225000X0.675000X0.225000X-0.675000X0.225000X-0.675000X-0.225000X0*%
%TD*%
%TA.AperFunction,SMDPad,CuDef*%
%ADD29RoundRect,0.200000X-0.200000X-0.275000X0.200000X-0.275000X0.200000X0.275000X-0.200000X0.275000X0*%
%TD*%
%TA.AperFunction,ComponentPad*%
%ADD30RoundRect,0.249999X-0.790001X-1.550001X0.790001X-1.550001X0.790001X1.550001X-0.790001X1.550001X0*%
%TD*%
%TA.AperFunction,SMDPad,CuDef*%
%ADD31R,3.000000X1.950000*%
%TD*%
%TA.AperFunction,SMDPad,CuDef*%
%ADD32FreePoly0,90.000000*%
%TD*%
%TA.AperFunction,SMDPad,CuDef*%
%ADD33FreePoly1,90.000000*%
%TD*%
%TA.AperFunction,SMDPad,CuDef*%
%ADD34RoundRect,0.150000X0.150000X-0.825000X0.150000X0.825000X-0.150000X0.825000X-0.150000X-0.825000X0*%
%TD*%
%TA.AperFunction,ViaPad*%
%ADD35C,0.800000*%
%TD*%
%TA.AperFunction,Conductor*%
%ADD36C,0.500000*%
%TD*%
%TA.AperFunction,Conductor*%
%ADD37C,0.250000*%
%TD*%
G04 APERTURE END LIST*
D10*
%TO.C,LOGO1*%
D11*
X160237085Y-105493971D02*
X160294228Y-105322542D01*
X160351371Y-105265400D01*
X160465657Y-105208257D01*
X160637085Y-105208257D01*
X160751371Y-105265400D01*
X160808514Y-105322542D01*
X160865657Y-105436828D01*
X160865657Y-105893971D01*
X159665657Y-105893971D01*
X159665657Y-105493971D01*
X159722800Y-105379685D01*
X159779942Y-105322542D01*
X159894228Y-105265400D01*
X160008514Y-105265400D01*
X160122800Y-105322542D01*
X160179942Y-105379685D01*
X160237085Y-105493971D01*
X160237085Y-105893971D01*
X160865657Y-104693971D02*
X160065657Y-104693971D01*
X159665657Y-104693971D02*
X159722800Y-104751114D01*
X159779942Y-104693971D01*
X159722800Y-104636828D01*
X159665657Y-104693971D01*
X159779942Y-104693971D01*
X160065657Y-104122542D02*
X160865657Y-104122542D01*
X160179942Y-104122542D02*
X160122800Y-104065400D01*
X160065657Y-103951114D01*
X160065657Y-103779685D01*
X160122800Y-103665400D01*
X160237085Y-103608257D01*
X160865657Y-103608257D01*
X160865657Y-102522542D02*
X160237085Y-102522542D01*
X160122800Y-102579685D01*
X160065657Y-102693971D01*
X160065657Y-102922542D01*
X160122800Y-103036828D01*
X160808514Y-102522542D02*
X160865657Y-102636828D01*
X160865657Y-102922542D01*
X160808514Y-103036828D01*
X160694228Y-103093971D01*
X160579942Y-103093971D01*
X160465657Y-103036828D01*
X160408514Y-102922542D01*
X160408514Y-102636828D01*
X160351371Y-102522542D01*
X160865657Y-101951114D02*
X160065657Y-101951114D01*
X160294228Y-101951114D02*
X160179942Y-101893971D01*
X160122800Y-101836828D01*
X160065657Y-101722542D01*
X160065657Y-101608257D01*
X160065657Y-101322542D02*
X160865657Y-101036828D01*
X160065657Y-100751114D02*
X160865657Y-101036828D01*
X161151371Y-101151114D01*
X161208514Y-101208257D01*
X161265657Y-101322542D01*
X160408514Y-100293971D02*
X160408514Y-99379685D01*
X159665657Y-98293971D02*
X159665657Y-98522542D01*
X159722800Y-98636828D01*
X159779942Y-98693971D01*
X159951371Y-98808257D01*
X160179942Y-98865400D01*
X160637085Y-98865400D01*
X160751371Y-98808257D01*
X160808514Y-98751114D01*
X160865657Y-98636828D01*
X160865657Y-98408257D01*
X160808514Y-98293971D01*
X160751371Y-98236828D01*
X160637085Y-98179685D01*
X160351371Y-98179685D01*
X160237085Y-98236828D01*
X160179942Y-98293971D01*
X160122800Y-98408257D01*
X160122800Y-98636828D01*
X160179942Y-98751114D01*
X160237085Y-98808257D01*
X160351371Y-98865400D01*
D12*
X161338800Y-96469400D02*
X161338800Y-108940800D01*
X158544800Y-105613400D02*
X161338800Y-108407400D01*
X158290800Y-91872000D02*
X158290800Y-93421400D01*
X158544800Y-94945400D02*
X157528800Y-93929400D01*
X158544800Y-96215400D02*
X158544800Y-94945400D01*
X158290800Y-93421400D02*
X161338800Y-96469400D01*
X158544800Y-103835400D02*
X158544800Y-105613400D01*
X158544800Y-98755400D02*
X158544800Y-96215400D01*
X158544800Y-103835400D02*
X158544800Y-101295400D01*
X157528800Y-93929400D02*
X157528800Y-91922800D01*
%TD*%
D13*
%TO.P,R5,1*%
%TO.N,/D0*%
X151640000Y-76215000D03*
%TO.P,R5,2*%
%TO.N,Net-(JP2_D1-Pad2)*%
X151640000Y-77865000D03*
%TD*%
D14*
%TO.P,J3,1,Pin_1*%
%TO.N,GND*%
X145970000Y-66990000D03*
D15*
%TO.P,J3,2,Pin_2*%
%TO.N,+5V*%
X140890000Y-66990000D03*
%TD*%
D13*
%TO.P,R6,1*%
%TO.N,+5V*%
X147889500Y-86666000D03*
%TO.P,R6,2*%
%TO.N,Net-(R6-Pad2)*%
X147889500Y-88316000D03*
%TD*%
D16*
%TO.P,R12,1*%
%TO.N,Net-(Q2-Pad1)*%
X151449000Y-91518000D03*
%TO.P,R12,2*%
%TO.N,Net-(R6-Pad2)*%
X149799000Y-91518000D03*
%TD*%
D17*
%TO.P,C8,1*%
%TO.N,Net-(C7-Pad1)*%
X144114000Y-106604000D03*
%TO.P,C8,2*%
%TO.N,GND*%
X147064000Y-106604000D03*
%TD*%
D18*
%TO.P,C3,1*%
%TO.N,Net-(C3-Pad1)*%
X140877000Y-113208000D03*
%TO.P,C3,2*%
%TO.N,Net-(C3-Pad2)*%
X142427000Y-113208000D03*
%TD*%
D19*
%TO.P,U2,1*%
%TO.N,Net-(R8-Pad1)*%
X153590000Y-106284000D03*
%TO.P,U2,2*%
%TO.N,Net-(U2-Pad2)*%
X151050000Y-106284000D03*
%TO.P,U2,3*%
%TO.N,Net-(D3-Pad2)*%
X151050000Y-115814000D03*
%TO.P,U2,4*%
%TO.N,Net-(R9-Pad1)*%
X153590000Y-115814000D03*
%TD*%
D20*
%TO.P,JP1_I1,1,A*%
%TO.N,Net-(R6-Pad2)*%
X153418000Y-100445000D03*
D21*
%TO.P,JP1_I1,2,B*%
%TO.N,Net-(U2-Pad2)*%
X153418000Y-101895000D03*
%TD*%
D22*
%TO.P,D1,1,K*%
%TO.N,Net-(C3-Pad1)*%
X138223000Y-113494000D03*
%TO.P,D1,2,A*%
%TO.N,GND*%
X138223000Y-117494000D03*
%TD*%
D18*
%TO.P,C5,1*%
%TO.N,Net-(C5-Pad1)*%
X143925000Y-113208000D03*
%TO.P,C5,2*%
%TO.N,Net-(C5-Pad2)*%
X145475000Y-113208000D03*
%TD*%
D13*
%TO.P,R7,1*%
%TO.N,+5V*%
X143258000Y-72405000D03*
%TO.P,R7,2*%
%TO.N,Net-(JP2_U1-Pad2)*%
X143258000Y-74055000D03*
%TD*%
D23*
%TO.P,Q2,1,G*%
%TO.N,Net-(Q2-Pad1)*%
X151574000Y-94644500D03*
%TO.P,Q2,2,S*%
%TO.N,GND*%
X149674000Y-94644500D03*
%TO.P,Q2,3,D*%
%TO.N,Net-(JP1_D1-Pad1)*%
X150624000Y-96519500D03*
%TD*%
D13*
%TO.P,R10,1*%
%TO.N,VCC*%
X158162000Y-113195800D03*
%TO.P,R10,2*%
%TO.N,Net-(JP2_U2-Pad1)*%
X158162000Y-114845800D03*
%TD*%
%TO.P,R4,1*%
%TO.N,Net-(R3-Pad2)*%
X146986000Y-108510000D03*
%TO.P,R4,2*%
%TO.N,GND*%
X146986000Y-110160000D03*
%TD*%
D24*
%TO.P,C2,1*%
%TO.N,VCC*%
X142300000Y-122352000D03*
%TO.P,C2,2*%
%TO.N,GND*%
X140750000Y-122352000D03*
%TD*%
D22*
%TO.P,D3,1,K*%
%TO.N,/S0-*%
X151177000Y-123590000D03*
%TO.P,D3,2,A*%
%TO.N,Net-(D3-Pad2)*%
X151177000Y-119590000D03*
%TD*%
D20*
%TO.P,JP1_D1,1,A*%
%TO.N,Net-(JP1_D1-Pad1)*%
X151132000Y-100445000D03*
D21*
%TO.P,JP1_D1,2,B*%
%TO.N,Net-(U2-Pad2)*%
X151132000Y-101895000D03*
%TD*%
D14*
%TO.P,J4,1,Pin_1*%
%TO.N,/A0*%
X156130000Y-66990000D03*
D15*
%TO.P,J4,2,Pin_2*%
%TO.N,/D0*%
X151050000Y-66990000D03*
%TD*%
D25*
%TO.P,R1,1*%
%TO.N,Net-(C5-Pad2)*%
X146986000Y-113208000D03*
%TO.P,R1,2*%
%TO.N,GND*%
X146986000Y-111558000D03*
%TD*%
D23*
%TO.P,Q1,1,G*%
%TO.N,Net-(JP2_D1-Pad2)*%
X151574000Y-86516500D03*
%TO.P,Q1,2,S*%
%TO.N,GND*%
X149674000Y-86516500D03*
%TO.P,Q1,3,D*%
%TO.N,Net-(R6-Pad2)*%
X150624000Y-88391500D03*
%TD*%
D16*
%TO.P,R8,1*%
%TO.N,Net-(R8-Pad1)*%
X147303000Y-100635000D03*
%TO.P,R8,2*%
%TO.N,+5V*%
X145653000Y-100635000D03*
%TD*%
D22*
%TO.P,D2,1,K*%
%TO.N,+5V*%
X137461000Y-96857000D03*
%TO.P,D2,2,A*%
%TO.N,Net-(C7-Pad1)*%
X137461000Y-100857000D03*
%TD*%
D24*
%TO.P,C1,1*%
%TO.N,GND*%
X145348000Y-125908000D03*
%TO.P,C1,2*%
%TO.N,VCC*%
X143798000Y-125908000D03*
%TD*%
D26*
%TO.P,LOGO1,*%
%TO.N,*%
X158544800Y-96215400D03*
D27*
X158544800Y-103835400D03*
D28*
X158544800Y-100895400D03*
X158544800Y-99155400D03*
%TD*%
D20*
%TO.P,JP2_U2,1,A*%
%TO.N,Net-(JP2_U2-Pad1)*%
X158162000Y-117613800D03*
D21*
%TO.P,JP2_U2,2,B*%
%TO.N,/S0+*%
X158162000Y-119063800D03*
%TD*%
D29*
%TO.P,R2,1*%
%TO.N,Net-(C7-Pad1)*%
X143875000Y-108636000D03*
%TO.P,R2,2*%
%TO.N,Net-(R2-Pad2)*%
X145525000Y-108636000D03*
%TD*%
%TO.P,R3,1*%
%TO.N,Net-(R2-Pad2)*%
X143875000Y-110160000D03*
%TO.P,R3,2*%
%TO.N,Net-(R3-Pad2)*%
X145525000Y-110160000D03*
%TD*%
D30*
%TO.P,J1,1,Pin_1*%
%TO.N,VCC*%
X140890000Y-132990000D03*
D15*
%TO.P,J1,2,Pin_2*%
%TO.N,GND*%
X145970000Y-132990000D03*
%TD*%
D25*
%TO.P,R11,1*%
%TO.N,Net-(JP2_D1-Pad1)*%
X145798000Y-74055000D03*
%TO.P,R11,2*%
%TO.N,GND*%
X145798000Y-72405000D03*
%TD*%
D13*
%TO.P,R9,1*%
%TO.N,Net-(R9-Pad1)*%
X156130000Y-120765000D03*
%TO.P,R9,2*%
%TO.N,/S0+*%
X156130000Y-122415000D03*
%TD*%
D18*
%TO.P,C4,1*%
%TO.N,Net-(C4-Pad1)*%
X143798000Y-122352000D03*
%TO.P,C4,2*%
%TO.N,GND*%
X145348000Y-122352000D03*
%TD*%
D31*
%TO.P,L1,1,1*%
%TO.N,Net-(C7-Pad1)*%
X139112000Y-104108000D03*
%TO.P,L1,2,2*%
%TO.N,Net-(C3-Pad1)*%
X139112000Y-109608000D03*
%TD*%
D32*
%TO.P,JP2_U1,1,A*%
%TO.N,Net-(JP2_D1-Pad2)*%
X143258000Y-77765000D03*
D33*
%TO.P,JP2_U1,2,B*%
%TO.N,Net-(JP2_U1-Pad2)*%
X143258000Y-76315000D03*
%TD*%
D30*
%TO.P,J2,1,Pin_1*%
%TO.N,/S0-*%
X151050000Y-132990000D03*
D15*
%TO.P,J2,2,Pin_2*%
%TO.N,/S0+*%
X156130000Y-132990000D03*
%TD*%
D32*
%TO.P,JP2_D2,1,A*%
%TO.N,/S0-*%
X160702000Y-119063800D03*
D33*
%TO.P,JP2_D2,2,B*%
%TO.N,GND*%
X160702000Y-117613800D03*
%TD*%
D17*
%TO.P,C7,1*%
%TO.N,Net-(C7-Pad1)*%
X144114000Y-104191000D03*
%TO.P,C7,2*%
%TO.N,GND*%
X147064000Y-104191000D03*
%TD*%
D34*
%TO.P,U1,1,BOOT*%
%TO.N,Net-(C3-Pad2)*%
X141144000Y-120255000D03*
%TO.P,U1,2,VIN*%
%TO.N,VCC*%
X142414000Y-120255000D03*
%TO.P,U1,3,EN*%
%TO.N,unconnected-(U1-Pad3)*%
X143684000Y-120255000D03*
%TO.P,U1,4,SS*%
%TO.N,Net-(C4-Pad1)*%
X144954000Y-120255000D03*
%TO.P,U1,5,VSNS*%
%TO.N,Net-(R2-Pad2)*%
X144954000Y-115305000D03*
%TO.P,U1,6,COMP*%
%TO.N,Net-(C5-Pad1)*%
X143684000Y-115305000D03*
%TO.P,U1,7,GND*%
%TO.N,GND*%
X142414000Y-115305000D03*
%TO.P,U1,8,PH*%
%TO.N,Net-(C3-Pad1)*%
X141144000Y-115305000D03*
%TD*%
D18*
%TO.P,C6,1*%
%TO.N,Net-(C5-Pad1)*%
X143925000Y-111684000D03*
%TO.P,C6,2*%
%TO.N,GND*%
X145475000Y-111684000D03*
%TD*%
D20*
%TO.P,JP2_D1,1,A*%
%TO.N,Net-(JP2_D1-Pad1)*%
X145798000Y-76315000D03*
D21*
%TO.P,JP2_D1,2,B*%
%TO.N,Net-(JP2_D1-Pad2)*%
X145798000Y-77765000D03*
%TD*%
D35*
%TO.N,GND*%
X146224000Y-89840000D03*
X160956000Y-113970000D03*
X159006000Y-77040000D03*
X140636000Y-117399000D03*
X147748000Y-83363000D03*
X148891000Y-112192000D03*
X139956000Y-95582000D03*
%TD*%
D36*
%TO.N,GND*%
X141398000Y-118288000D02*
X140128000Y-118288000D01*
X140750000Y-122352000D02*
X140128000Y-121730000D01*
X146097000Y-111684000D02*
X146223000Y-111558000D01*
X142414000Y-117272000D02*
X141398000Y-118288000D01*
X146986000Y-110160000D02*
X146986000Y-111558000D01*
X140128000Y-121730000D02*
X140128000Y-118288000D01*
X142414000Y-115305000D02*
X142414000Y-117272000D01*
X139334000Y-117494000D02*
X138223000Y-117494000D01*
X145475000Y-111684000D02*
X146097000Y-111684000D01*
X146223000Y-111558000D02*
X146986000Y-111558000D01*
X140128000Y-118288000D02*
X139334000Y-117494000D01*
X147064000Y-104191000D02*
X147064000Y-106604000D01*
%TO.N,VCC*%
X147595600Y-115798800D02*
X151621000Y-111773400D01*
X142300000Y-124447200D02*
X142300000Y-122352000D01*
X140890000Y-127940000D02*
X142300000Y-126530000D01*
X142300000Y-122352000D02*
X142300000Y-121831000D01*
X143798000Y-125908000D02*
X142922000Y-125908000D01*
X142312400Y-124434800D02*
X146173200Y-124434800D01*
X146173200Y-124434800D02*
X147595600Y-123012400D01*
X151621000Y-111773400D02*
X156739600Y-111773400D01*
X142922000Y-125908000D02*
X142300000Y-126530000D01*
X142300000Y-126530000D02*
X142300000Y-124447200D01*
X142300000Y-124447200D02*
X142312400Y-124434800D01*
X147595600Y-123012400D02*
X147595600Y-115798800D01*
X142300000Y-121831000D02*
X142414000Y-121717000D01*
X142414000Y-121717000D02*
X142414000Y-120255000D01*
X156739600Y-111773400D02*
X158162000Y-113195800D01*
X140890000Y-132990000D02*
X140890000Y-127940000D01*
%TO.N,Net-(C3-Pad1)*%
X139334000Y-113494000D02*
X139620000Y-113208000D01*
X139620000Y-113208000D02*
X140877000Y-113208000D01*
X140877000Y-113208000D02*
X140877000Y-113957000D01*
X138223000Y-113494000D02*
X139334000Y-113494000D01*
X139112000Y-109608000D02*
X139112000Y-110668000D01*
X141144000Y-114224000D02*
X141144000Y-115305000D01*
X140877000Y-113957000D02*
X141144000Y-114224000D01*
X139112000Y-110668000D02*
X138223000Y-111557000D01*
X138223000Y-111557000D02*
X138223000Y-113494000D01*
D37*
%TO.N,Net-(C3-Pad2)*%
X141144000Y-119177000D02*
X141144000Y-120255000D01*
X142033000Y-118923000D02*
X141398000Y-118923000D01*
X142427000Y-113664854D02*
X143038520Y-114276374D01*
X141398000Y-118923000D02*
X141144000Y-119177000D01*
X142427000Y-113208000D02*
X142427000Y-113664854D01*
X143038520Y-117917480D02*
X142033000Y-118923000D01*
X143038520Y-114276374D02*
X143038520Y-117917480D01*
%TO.N,Net-(C4-Pad1)*%
X143798000Y-122352000D02*
X144954000Y-121196000D01*
X144954000Y-121196000D02*
X144954000Y-120255000D01*
%TO.N,Net-(C5-Pad1)*%
X143925000Y-113729000D02*
X143684000Y-113970000D01*
X143925000Y-111684000D02*
X143925000Y-113208000D01*
X143925000Y-113208000D02*
X143925000Y-113729000D01*
X143684000Y-113970000D02*
X143684000Y-115305000D01*
%TO.N,Net-(C5-Pad2)*%
X145475000Y-113208000D02*
X146986000Y-113208000D01*
D36*
%TO.N,Net-(C7-Pad1)*%
X144114000Y-107698000D02*
X143875000Y-107937000D01*
X137461000Y-100857000D02*
X137461000Y-101651000D01*
X139195000Y-104191000D02*
X139112000Y-104108000D01*
X139112000Y-103302000D02*
X139112000Y-104108000D01*
X137461000Y-101651000D02*
X139112000Y-103302000D01*
X144114000Y-104191000D02*
X139195000Y-104191000D01*
X144114000Y-106604000D02*
X144114000Y-107698000D01*
X143875000Y-107937000D02*
X143875000Y-108636000D01*
X144114000Y-106604000D02*
X144114000Y-104191000D01*
%TO.N,+5V*%
X137461000Y-96857000D02*
X139017000Y-96857000D01*
X137461000Y-88951000D02*
X137461000Y-73203000D01*
X137461000Y-73203000D02*
X140890000Y-69774000D01*
X143258000Y-72405000D02*
X143258000Y-72142000D01*
X139746000Y-86666000D02*
X137461000Y-88951000D01*
X140890000Y-69774000D02*
X140890000Y-66990000D01*
X143258000Y-72142000D02*
X140890000Y-69774000D01*
X147889500Y-86666000D02*
X139746000Y-86666000D01*
X137461000Y-96857000D02*
X137461000Y-88951000D01*
X142795000Y-100635000D02*
X145653000Y-100635000D01*
X139017000Y-96857000D02*
X142795000Y-100635000D01*
%TO.N,/S0-*%
X151050000Y-135433000D02*
X151812000Y-136195000D01*
X151812000Y-136195000D02*
X158543000Y-136195000D01*
X151177000Y-123590000D02*
X151050000Y-123717000D01*
X160702000Y-134036000D02*
X160702000Y-119063800D01*
X151050000Y-123717000D02*
X151050000Y-132990000D01*
X151050000Y-132990000D02*
X151050000Y-135433000D01*
X158543000Y-136195000D02*
X160702000Y-134036000D01*
%TO.N,Net-(D3-Pad2)*%
X151177000Y-119590000D02*
X151050000Y-119463000D01*
X151050000Y-117272000D02*
X151050000Y-115814000D01*
X151050000Y-119463000D02*
X151050000Y-115814000D01*
%TO.N,/S0+*%
X156130000Y-128321000D02*
X158162000Y-126289000D01*
X158162000Y-126289000D02*
X158162000Y-119063800D01*
X156130000Y-122415000D02*
X156130000Y-128575000D01*
X156130000Y-128575000D02*
X156130000Y-128321000D01*
X156130000Y-128575000D02*
X156130000Y-132990000D01*
D37*
%TO.N,/D0*%
X151050000Y-74672000D02*
X151640000Y-75262000D01*
X151640000Y-75262000D02*
X151640000Y-76215000D01*
X151050000Y-66990000D02*
X151050000Y-74672000D01*
D36*
%TO.N,Net-(JP1_D1-Pad1)*%
X150624000Y-96519500D02*
X150624000Y-97868000D01*
X150624000Y-97868000D02*
X151132000Y-98376000D01*
X151132000Y-98376000D02*
X151132000Y-100445000D01*
%TO.N,Net-(U2-Pad2)*%
X151050000Y-106284000D02*
X151050000Y-104826000D01*
X151132000Y-104744000D02*
X151132000Y-101895000D01*
X151050000Y-104826000D02*
X151132000Y-104744000D01*
X151132000Y-101895000D02*
X153672000Y-101895000D01*
D37*
%TO.N,Net-(R6-Pad2)*%
X150624000Y-89740000D02*
X149799000Y-90565000D01*
X149799000Y-90565000D02*
X149799000Y-91518000D01*
D36*
X152910000Y-92026000D02*
X152910000Y-90677500D01*
D37*
X150624000Y-88391500D02*
X150624000Y-89740000D01*
D36*
X153418000Y-92534000D02*
X152910000Y-92026000D01*
D37*
X150542000Y-88316000D02*
X150556500Y-88301500D01*
D36*
X152910000Y-90677500D02*
X150624000Y-88391500D01*
D37*
X150548500Y-88316000D02*
X150624000Y-88391500D01*
D36*
X153418000Y-100445000D02*
X153418000Y-92534000D01*
D37*
X147889500Y-88316000D02*
X150548500Y-88316000D01*
%TO.N,Net-(JP2_D1-Pad2)*%
X151574000Y-86516500D02*
X151574000Y-77931000D01*
X143258000Y-77802000D02*
X143295000Y-77765000D01*
X151574000Y-77931000D02*
X151640000Y-77865000D01*
X143295000Y-77765000D02*
X145798000Y-77765000D01*
X145898000Y-77865000D02*
X145798000Y-77765000D01*
X151640000Y-77865000D02*
X145898000Y-77865000D01*
X143258000Y-77765000D02*
X143258000Y-77802000D01*
%TO.N,Net-(Q2-Pad1)*%
X151574000Y-94644500D02*
X151574000Y-92722000D01*
X151574000Y-92722000D02*
X151449000Y-92597000D01*
X151449000Y-92597000D02*
X151449000Y-91518000D01*
%TO.N,Net-(JP2_D1-Pad1)*%
X145798000Y-74055000D02*
X145798000Y-76315000D01*
%TO.N,Net-(R2-Pad2)*%
X144700000Y-109398000D02*
X144700000Y-110160000D01*
X143875000Y-110160000D02*
X144700000Y-110160000D01*
X144954000Y-113970000D02*
X144954000Y-115305000D01*
X144700000Y-113716000D02*
X144954000Y-113970000D01*
X144700000Y-110160000D02*
X144700000Y-113716000D01*
X145525000Y-108636000D02*
X145462000Y-108636000D01*
X145462000Y-108636000D02*
X144700000Y-109398000D01*
%TO.N,Net-(R3-Pad2)*%
X146986000Y-108699000D02*
X145525000Y-110160000D01*
X146986000Y-108510000D02*
X146986000Y-108699000D01*
D36*
%TO.N,Net-(R8-Pad1)*%
X148891000Y-101651000D02*
X147875000Y-100635000D01*
X148891000Y-107366000D02*
X148891000Y-101651000D01*
X153590000Y-108001000D02*
X153082000Y-108509000D01*
X150034000Y-108509000D02*
X148891000Y-107366000D01*
X153082000Y-108509000D02*
X150034000Y-108509000D01*
X153590000Y-106284000D02*
X153590000Y-108001000D01*
X147875000Y-100635000D02*
X147303000Y-100635000D01*
%TO.N,Net-(R9-Pad1)*%
X153590000Y-115814000D02*
X153590000Y-117272000D01*
X153590000Y-117272000D02*
X156130000Y-119812000D01*
X156130000Y-119812000D02*
X156130000Y-120765000D01*
D37*
%TO.N,Net-(JP2_U1-Pad2)*%
X143258000Y-76315000D02*
X143258000Y-74055000D01*
%TO.N,Net-(JP2_U2-Pad1)*%
X158162000Y-114845800D02*
X158162000Y-117613800D01*
%TD*%
%TA.AperFunction,Conductor*%
%TO.N,GND*%
G36*
X160160000Y-59510848D02*
G01*
X160160000Y-59513000D01*
X160172648Y-59513355D01*
X160294137Y-59516764D01*
X160304708Y-59517506D01*
X160397327Y-59527941D01*
X160569556Y-59547347D01*
X160583486Y-59549714D01*
X160841596Y-59608626D01*
X160855173Y-59612538D01*
X161105054Y-59699975D01*
X161118108Y-59705382D01*
X161356634Y-59820250D01*
X161369001Y-59827085D01*
X161593159Y-59967933D01*
X161604682Y-59976109D01*
X161811678Y-60141182D01*
X161822214Y-60150598D01*
X162009402Y-60337786D01*
X162018818Y-60348322D01*
X162183891Y-60555318D01*
X162192067Y-60566841D01*
X162332915Y-60790999D01*
X162339750Y-60803366D01*
X162454618Y-61041892D01*
X162460025Y-61054946D01*
X162547462Y-61304827D01*
X162551374Y-61318404D01*
X162610286Y-61576514D01*
X162612653Y-61590444D01*
X162642494Y-61855289D01*
X162643236Y-61865863D01*
X162647000Y-62000000D01*
X162645604Y-62000039D01*
X162645611Y-62000294D01*
X162647858Y-62000000D01*
X162650937Y-62023548D01*
X162652000Y-62039884D01*
X162652000Y-70193618D01*
X162631998Y-70261739D01*
X162578342Y-70308232D01*
X162508068Y-70318336D01*
X162443488Y-70288842D01*
X162425174Y-70269183D01*
X162368542Y-70193618D01*
X162341020Y-70156896D01*
X162111088Y-69915022D01*
X162108256Y-69912666D01*
X162108251Y-69912662D01*
X161857344Y-69703985D01*
X161854508Y-69701626D01*
X161851422Y-69699618D01*
X161577867Y-69521630D01*
X161577864Y-69521628D01*
X161574782Y-69519623D01*
X161571484Y-69517990D01*
X161571478Y-69517986D01*
X161279039Y-69373135D01*
X161279032Y-69373132D01*
X161275733Y-69371498D01*
X161272261Y-69370258D01*
X161272258Y-69370257D01*
X161070597Y-69298251D01*
X160961444Y-69259276D01*
X160811242Y-69224737D01*
X160639798Y-69185313D01*
X160639789Y-69185312D01*
X160636208Y-69184488D01*
X160632551Y-69184087D01*
X160632548Y-69184087D01*
X160308139Y-69148559D01*
X160308138Y-69148559D01*
X160304468Y-69148157D01*
X160300775Y-69148186D01*
X159974442Y-69150749D01*
X159974441Y-69150749D01*
X159970755Y-69150778D01*
X159967096Y-69151237D01*
X159643283Y-69191857D01*
X159643279Y-69191858D01*
X159639626Y-69192316D01*
X159636055Y-69193196D01*
X159636052Y-69193197D01*
X159319181Y-69271321D01*
X159319172Y-69271324D01*
X159315606Y-69272203D01*
X159312155Y-69273497D01*
X159312154Y-69273497D01*
X159046367Y-69373135D01*
X159003118Y-69389348D01*
X158999842Y-69391035D01*
X158999838Y-69391037D01*
X158866290Y-69459819D01*
X158706432Y-69542151D01*
X158429600Y-69728525D01*
X158176403Y-69945925D01*
X157950299Y-70191381D01*
X157754377Y-70461540D01*
X157591313Y-70752712D01*
X157589905Y-70756102D01*
X157589901Y-70756111D01*
X157464742Y-71057527D01*
X157463333Y-71060921D01*
X157372187Y-71381957D01*
X157319118Y-71711434D01*
X157304852Y-72044852D01*
X157329584Y-72377658D01*
X157330283Y-72381272D01*
X157330284Y-72381278D01*
X157380393Y-72640271D01*
X157392976Y-72705306D01*
X157394089Y-72708804D01*
X157394091Y-72708812D01*
X157488397Y-73005205D01*
X157494161Y-73023320D01*
X157495678Y-73026673D01*
X157495680Y-73026677D01*
X157629033Y-73321333D01*
X157631759Y-73327356D01*
X157803888Y-73613263D01*
X157806134Y-73616164D01*
X157806139Y-73616171D01*
X158005943Y-73874221D01*
X158005950Y-73874228D01*
X158008200Y-73877135D01*
X158241902Y-74115368D01*
X158501803Y-74324707D01*
X158504918Y-74326665D01*
X158504921Y-74326667D01*
X158695583Y-74446501D01*
X158784352Y-74502294D01*
X159085692Y-74645703D01*
X159401705Y-74752974D01*
X159728075Y-74822644D01*
X159815037Y-74830788D01*
X160056678Y-74853418D01*
X160056683Y-74853418D01*
X160060344Y-74853761D01*
X160265754Y-74848920D01*
X160390290Y-74845985D01*
X160390293Y-74845985D01*
X160393975Y-74845898D01*
X160724411Y-74799164D01*
X160727967Y-74798228D01*
X160727971Y-74798227D01*
X161043574Y-74715136D01*
X161043573Y-74715136D01*
X161047137Y-74714198D01*
X161179470Y-74662204D01*
X161354318Y-74593506D01*
X161354325Y-74593503D01*
X161357745Y-74592159D01*
X161651995Y-74434714D01*
X161676496Y-74417654D01*
X161922842Y-74246119D01*
X161925865Y-74244014D01*
X161928615Y-74241577D01*
X161928621Y-74241572D01*
X162172864Y-74025103D01*
X162175616Y-74022664D01*
X162397837Y-73773687D01*
X162422850Y-73738031D01*
X162478346Y-73693751D01*
X162548972Y-73686504D01*
X162612304Y-73718590D01*
X162648235Y-73779823D01*
X162652000Y-73810392D01*
X162652000Y-90374000D01*
X162631998Y-90442121D01*
X162578342Y-90488614D01*
X162526000Y-90500000D01*
X155410000Y-90500000D01*
X155410000Y-100328838D01*
X155389998Y-100396959D01*
X155338710Y-100441400D01*
X155329765Y-100441400D01*
X155329765Y-103689400D01*
X155337559Y-103689400D01*
X155359935Y-103708789D01*
X155359714Y-103709044D01*
X155373099Y-103716353D01*
X155407122Y-103778666D01*
X155410000Y-103805445D01*
X155410000Y-110500000D01*
X162526000Y-110500000D01*
X162594121Y-110520002D01*
X162640614Y-110573658D01*
X162652000Y-110626000D01*
X162652000Y-137952114D01*
X162650500Y-137971497D01*
X162647038Y-137993733D01*
X162647629Y-137998246D01*
X162647417Y-138000000D01*
X162647000Y-138000000D01*
X162646874Y-138004494D01*
X162643236Y-138134137D01*
X162642494Y-138144711D01*
X162612653Y-138409556D01*
X162610286Y-138423486D01*
X162551374Y-138681596D01*
X162547462Y-138695173D01*
X162460025Y-138945054D01*
X162454618Y-138958108D01*
X162339750Y-139196634D01*
X162332915Y-139209001D01*
X162192067Y-139433159D01*
X162183891Y-139444682D01*
X162018818Y-139651678D01*
X162009402Y-139662214D01*
X161822214Y-139849402D01*
X161811678Y-139858818D01*
X161604682Y-140023891D01*
X161593159Y-140032067D01*
X161369001Y-140172915D01*
X161356634Y-140179750D01*
X161118108Y-140294618D01*
X161105054Y-140300025D01*
X160855173Y-140387462D01*
X160841596Y-140391374D01*
X160583486Y-140450286D01*
X160569556Y-140452653D01*
X160397327Y-140472059D01*
X160304708Y-140482494D01*
X160294137Y-140483236D01*
X160175593Y-140486562D01*
X160175590Y-140486563D01*
X160160000Y-140487000D01*
X160160000Y-140489028D01*
X160141205Y-140492000D01*
X160132378Y-140492000D01*
X160131608Y-140491998D01*
X160131052Y-140491995D01*
X160090378Y-140491746D01*
X160089546Y-140491984D01*
X160089308Y-140492000D01*
X136884847Y-140492000D01*
X136860000Y-140489152D01*
X136860000Y-140487000D01*
X136847352Y-140486645D01*
X136725863Y-140483236D01*
X136715292Y-140482494D01*
X136622673Y-140472059D01*
X136450444Y-140452653D01*
X136436514Y-140450286D01*
X136178404Y-140391374D01*
X136164827Y-140387462D01*
X135914946Y-140300025D01*
X135901892Y-140294618D01*
X135663366Y-140179750D01*
X135650999Y-140172915D01*
X135426841Y-140032067D01*
X135415318Y-140023891D01*
X135208322Y-139858818D01*
X135197786Y-139849402D01*
X135010598Y-139662214D01*
X135001182Y-139651678D01*
X134836109Y-139444682D01*
X134827933Y-139433159D01*
X134687085Y-139209001D01*
X134680250Y-139196634D01*
X134565382Y-138958108D01*
X134559975Y-138945054D01*
X134472538Y-138695173D01*
X134468626Y-138681596D01*
X134409714Y-138423486D01*
X134407347Y-138409556D01*
X134377506Y-138144711D01*
X134376764Y-138134137D01*
X134373391Y-138013951D01*
X134373000Y-138000000D01*
X134372103Y-137993733D01*
X134369273Y-137973976D01*
X134368000Y-137956113D01*
X134368000Y-129796301D01*
X134388002Y-129728180D01*
X134441658Y-129681687D01*
X134511932Y-129671583D01*
X134576512Y-129701077D01*
X134593627Y-129719162D01*
X134705943Y-129864221D01*
X134705950Y-129864228D01*
X134708200Y-129867135D01*
X134941902Y-130105368D01*
X135201803Y-130314707D01*
X135204918Y-130316665D01*
X135204921Y-130316667D01*
X135481227Y-130490330D01*
X135484352Y-130492294D01*
X135785692Y-130635703D01*
X136101705Y-130742974D01*
X136428075Y-130812644D01*
X136541554Y-130823271D01*
X136756678Y-130843418D01*
X136756683Y-130843418D01*
X136760344Y-130843761D01*
X136965754Y-130838920D01*
X137090290Y-130835985D01*
X137090293Y-130835985D01*
X137093975Y-130835898D01*
X137424411Y-130789164D01*
X137427967Y-130788228D01*
X137427971Y-130788227D01*
X137740311Y-130705995D01*
X137747137Y-130704198D01*
X137870884Y-130655577D01*
X138054318Y-130583506D01*
X138054325Y-130583503D01*
X138057745Y-130582159D01*
X138351995Y-130424714D01*
X138625865Y-130234014D01*
X138628615Y-130231577D01*
X138628621Y-130231572D01*
X138872864Y-130015103D01*
X138875616Y-130012664D01*
X139097837Y-129763687D01*
X139122746Y-129728180D01*
X139287380Y-129493493D01*
X139289491Y-129490484D01*
X139447962Y-129196786D01*
X139571084Y-128886605D01*
X139642472Y-128619250D01*
X139656224Y-128567748D01*
X139656225Y-128567744D01*
X139657177Y-128564178D01*
X139703656Y-128243620D01*
X139704606Y-128237068D01*
X139704606Y-128237065D01*
X139705064Y-128233908D01*
X139715500Y-127990000D01*
X139695999Y-127656847D01*
X139676254Y-127545433D01*
X139638404Y-127331865D01*
X139638403Y-127331861D01*
X139637762Y-127328244D01*
X139541584Y-127008680D01*
X139460099Y-126820830D01*
X139410248Y-126705905D01*
X139410246Y-126705902D01*
X139408779Y-126702519D01*
X139267045Y-126458507D01*
X139243010Y-126417127D01*
X139243009Y-126417125D01*
X139241161Y-126413944D01*
X139206413Y-126367579D01*
X139089008Y-126210927D01*
X139041020Y-126146896D01*
X138811088Y-125905022D01*
X138808256Y-125902666D01*
X138808251Y-125902662D01*
X138584378Y-125716469D01*
X138554508Y-125691626D01*
X138514179Y-125665386D01*
X138277867Y-125511630D01*
X138277864Y-125511628D01*
X138274782Y-125509623D01*
X138271484Y-125507990D01*
X138271478Y-125507986D01*
X137979039Y-125363135D01*
X137979032Y-125363132D01*
X137975733Y-125361498D01*
X137972261Y-125360258D01*
X137972258Y-125360257D01*
X137664922Y-125250518D01*
X137661444Y-125249276D01*
X137590442Y-125232949D01*
X137339798Y-125175313D01*
X137339789Y-125175312D01*
X137336208Y-125174488D01*
X137332551Y-125174087D01*
X137332548Y-125174087D01*
X137008139Y-125138559D01*
X137008138Y-125138559D01*
X137004468Y-125138157D01*
X137000775Y-125138186D01*
X136674442Y-125140749D01*
X136674441Y-125140749D01*
X136670755Y-125140778D01*
X136667096Y-125141237D01*
X136343283Y-125181857D01*
X136343279Y-125181858D01*
X136339626Y-125182316D01*
X136336055Y-125183196D01*
X136336052Y-125183197D01*
X136019181Y-125261321D01*
X136019172Y-125261324D01*
X136015606Y-125262203D01*
X136012155Y-125263497D01*
X136012154Y-125263497D01*
X135741696Y-125364886D01*
X135703118Y-125379348D01*
X135699842Y-125381035D01*
X135699838Y-125381037D01*
X135606196Y-125429266D01*
X135406432Y-125532151D01*
X135129600Y-125718525D01*
X134876403Y-125935925D01*
X134650299Y-126181381D01*
X134624602Y-126216815D01*
X134596001Y-126256253D01*
X134539816Y-126299656D01*
X134469085Y-126305793D01*
X134406265Y-126272716D01*
X134371299Y-126210927D01*
X134368000Y-126182281D01*
X134368000Y-122619548D01*
X139792000Y-122619548D01*
X139792000Y-122641223D01*
X139792425Y-122648527D01*
X139805946Y-122764505D01*
X139809291Y-122778657D01*
X139862617Y-122925567D01*
X139869127Y-122938566D01*
X139954820Y-123069270D01*
X139964144Y-123080422D01*
X140077607Y-123187906D01*
X140089252Y-123196617D01*
X140224393Y-123275113D01*
X140237731Y-123280913D01*
X140388120Y-123326461D01*
X140400752Y-123328911D01*
X140466185Y-123334751D01*
X140471780Y-123335000D01*
X140477885Y-123335000D01*
X140493124Y-123330525D01*
X140494329Y-123329135D01*
X140496000Y-123321452D01*
X140496000Y-122624115D01*
X140491525Y-122608876D01*
X140490135Y-122607671D01*
X140482452Y-122606000D01*
X139810115Y-122606000D01*
X139794876Y-122610475D01*
X139793671Y-122611865D01*
X139792000Y-122619548D01*
X134368000Y-122619548D01*
X134368000Y-117761548D01*
X136810000Y-117761548D01*
X136810000Y-118741743D01*
X136810161Y-118746250D01*
X136814740Y-118810269D01*
X136817126Y-118823491D01*
X136853819Y-118948458D01*
X136861233Y-118964692D01*
X136930426Y-119072360D01*
X136942112Y-119085847D01*
X137038840Y-119169662D01*
X137053848Y-119179307D01*
X137170275Y-119232477D01*
X137187388Y-119237502D01*
X137318554Y-119256361D01*
X137327495Y-119257000D01*
X137950885Y-119257000D01*
X137966124Y-119252525D01*
X137967329Y-119251135D01*
X137969000Y-119243452D01*
X137969000Y-117766115D01*
X137967659Y-117761548D01*
X138477000Y-117761548D01*
X138477000Y-119238885D01*
X138481475Y-119254124D01*
X138482865Y-119255329D01*
X138490548Y-119257000D01*
X139120743Y-119257000D01*
X139125250Y-119256839D01*
X139189269Y-119252260D01*
X139202491Y-119249874D01*
X139327458Y-119213181D01*
X139343692Y-119205767D01*
X139451360Y-119136574D01*
X139464847Y-119124888D01*
X139548662Y-119028160D01*
X139558307Y-119013152D01*
X139611477Y-118896725D01*
X139616502Y-118879612D01*
X139635361Y-118748446D01*
X139636000Y-118739503D01*
X139636000Y-117766115D01*
X139631525Y-117750876D01*
X139630135Y-117749671D01*
X139622452Y-117748000D01*
X138495115Y-117748000D01*
X138479876Y-117752475D01*
X138478671Y-117753865D01*
X138477000Y-117761548D01*
X137967659Y-117761548D01*
X137964525Y-117750876D01*
X137963135Y-117749671D01*
X137955452Y-117748000D01*
X136828115Y-117748000D01*
X136812876Y-117752475D01*
X136811671Y-117753865D01*
X136810000Y-117761548D01*
X134368000Y-117761548D01*
X134368000Y-116248495D01*
X136810000Y-116248495D01*
X136810000Y-117221885D01*
X136814475Y-117237124D01*
X136815865Y-117238329D01*
X136823548Y-117240000D01*
X137950885Y-117240000D01*
X137966124Y-117235525D01*
X137967329Y-117234135D01*
X137969000Y-117226452D01*
X137969000Y-115749115D01*
X137967659Y-115744548D01*
X138477000Y-115744548D01*
X138477000Y-117221885D01*
X138481475Y-117237124D01*
X138482865Y-117238329D01*
X138490548Y-117240000D01*
X139617885Y-117240000D01*
X139633124Y-117235525D01*
X139634329Y-117234135D01*
X139636000Y-117226452D01*
X139636000Y-116246257D01*
X139635839Y-116241750D01*
X139631260Y-116177731D01*
X139628874Y-116164509D01*
X139592181Y-116039542D01*
X139584767Y-116023308D01*
X139515574Y-115915640D01*
X139503888Y-115902153D01*
X139407160Y-115818338D01*
X139392152Y-115808693D01*
X139275725Y-115755523D01*
X139258612Y-115750498D01*
X139127446Y-115731639D01*
X139118505Y-115731000D01*
X138495115Y-115731000D01*
X138479876Y-115735475D01*
X138478671Y-115736865D01*
X138477000Y-115744548D01*
X137967659Y-115744548D01*
X137964525Y-115733876D01*
X137963135Y-115732671D01*
X137955452Y-115731000D01*
X137325257Y-115731000D01*
X137320750Y-115731161D01*
X137256731Y-115735740D01*
X137243509Y-115738126D01*
X137118542Y-115774819D01*
X137102308Y-115782233D01*
X136994640Y-115851426D01*
X136981153Y-115863112D01*
X136897338Y-115959840D01*
X136887693Y-115974848D01*
X136834523Y-116091275D01*
X136829498Y-116108388D01*
X136810639Y-116239554D01*
X136810000Y-116248495D01*
X134368000Y-116248495D01*
X134368000Y-95607000D01*
X136047500Y-95607000D01*
X136047500Y-98107000D01*
X136052727Y-98180079D01*
X136058681Y-98200357D01*
X136080489Y-98274627D01*
X136093904Y-98320316D01*
X136110983Y-98346891D01*
X136168051Y-98435691D01*
X136168053Y-98435694D01*
X136172923Y-98443271D01*
X136179733Y-98449172D01*
X136276569Y-98533082D01*
X136276572Y-98533084D01*
X136283381Y-98538984D01*
X136416330Y-98599700D01*
X136425245Y-98600982D01*
X136425246Y-98600982D01*
X136556552Y-98619861D01*
X136556559Y-98619862D01*
X136561000Y-98620500D01*
X138361000Y-98620500D01*
X138434079Y-98615273D01*
X138512165Y-98592345D01*
X138565670Y-98576635D01*
X138565672Y-98576634D01*
X138574316Y-98574096D01*
X138638135Y-98533082D01*
X138689691Y-98499949D01*
X138689694Y-98499947D01*
X138697271Y-98495077D01*
X138737048Y-98449172D01*
X138787082Y-98391431D01*
X138787084Y-98391428D01*
X138792984Y-98384619D01*
X138853700Y-98251670D01*
X138859165Y-98213658D01*
X138873861Y-98111448D01*
X138873862Y-98111441D01*
X138874500Y-98107000D01*
X138874500Y-98091371D01*
X138894502Y-98023250D01*
X138948158Y-97976757D01*
X139018432Y-97966653D01*
X139083012Y-97996147D01*
X139089595Y-98002276D01*
X142211997Y-101124678D01*
X142224382Y-101139089D01*
X142236611Y-101155706D01*
X142256603Y-101172690D01*
X142275351Y-101188618D01*
X142282867Y-101195548D01*
X142288985Y-101201666D01*
X142312372Y-101220169D01*
X142315738Y-101222930D01*
X142371376Y-101270197D01*
X142377897Y-101273527D01*
X142382888Y-101276855D01*
X142388057Y-101280047D01*
X142393803Y-101284594D01*
X142459910Y-101315491D01*
X142463839Y-101317411D01*
X142528865Y-101350615D01*
X142535970Y-101352354D01*
X142541623Y-101354456D01*
X142547373Y-101356369D01*
X142554002Y-101359467D01*
X142561162Y-101360956D01*
X142561173Y-101360960D01*
X142625493Y-101374339D01*
X142629780Y-101375309D01*
X142695172Y-101391310D01*
X142695178Y-101391311D01*
X142700630Y-101392645D01*
X142706234Y-101392993D01*
X142706236Y-101392993D01*
X142713024Y-101393414D01*
X142716421Y-101393671D01*
X142719961Y-101393987D01*
X142727129Y-101395478D01*
X142734446Y-101395280D01*
X142782539Y-101393978D01*
X142798517Y-101393546D01*
X142801925Y-101393500D01*
X144882888Y-101393500D01*
X144951009Y-101413502D01*
X144966707Y-101425424D01*
X145040123Y-101490836D01*
X145040125Y-101490838D01*
X145045796Y-101495890D01*
X145052505Y-101499442D01*
X145052509Y-101499445D01*
X145190589Y-101572555D01*
X145190592Y-101572556D01*
X145197304Y-101576110D01*
X145363575Y-101617874D01*
X145369338Y-101618237D01*
X145369341Y-101618237D01*
X145371530Y-101618375D01*
X145371546Y-101618376D01*
X145373525Y-101618500D01*
X145894317Y-101618500D01*
X146023194Y-101602904D01*
X146183562Y-101542306D01*
X146258451Y-101490836D01*
X146318587Y-101449506D01*
X146318589Y-101449505D01*
X146324846Y-101445204D01*
X146342470Y-101425424D01*
X146381076Y-101382093D01*
X146441326Y-101344537D01*
X146512316Y-101345517D01*
X146567218Y-101381004D01*
X146567796Y-101381846D01*
X146573466Y-101386898D01*
X146573468Y-101386900D01*
X146690123Y-101490836D01*
X146690125Y-101490838D01*
X146695796Y-101495890D01*
X146702505Y-101499442D01*
X146702509Y-101499445D01*
X146840589Y-101572555D01*
X146840592Y-101572556D01*
X146847304Y-101576110D01*
X147013575Y-101617874D01*
X147019338Y-101618237D01*
X147019341Y-101618237D01*
X147021530Y-101618375D01*
X147021546Y-101618376D01*
X147023525Y-101618500D01*
X147544317Y-101618500D01*
X147673194Y-101602904D01*
X147680307Y-101600216D01*
X147681387Y-101599951D01*
X147752313Y-101603126D01*
X147800538Y-101633219D01*
X148095595Y-101928276D01*
X148129621Y-101990588D01*
X148132500Y-102017371D01*
X148132500Y-102908473D01*
X148112498Y-102976594D01*
X148058842Y-103023087D01*
X147988568Y-103033191D01*
X147919847Y-102999946D01*
X147851371Y-102935078D01*
X147839724Y-102926365D01*
X147699571Y-102844957D01*
X147686246Y-102839163D01*
X147530300Y-102791932D01*
X147517677Y-102789484D01*
X147447816Y-102783249D01*
X147442221Y-102783000D01*
X147336115Y-102783000D01*
X147320876Y-102787475D01*
X147319671Y-102788865D01*
X147318000Y-102796548D01*
X147318000Y-106732000D01*
X147297998Y-106800121D01*
X147244342Y-106846614D01*
X147192000Y-106858000D01*
X145999115Y-106858000D01*
X145983876Y-106862475D01*
X145982671Y-106863865D01*
X145981000Y-106871548D01*
X145981000Y-107293223D01*
X145981424Y-107300524D01*
X145995617Y-107422255D01*
X145998963Y-107436410D01*
X146023092Y-107502884D01*
X146027533Y-107573741D01*
X145992961Y-107635751D01*
X145930351Y-107669227D01*
X145873959Y-107668079D01*
X145820029Y-107654533D01*
X145820023Y-107654532D01*
X145814425Y-107653126D01*
X145808662Y-107652763D01*
X145808659Y-107652763D01*
X145806470Y-107652625D01*
X145806454Y-107652624D01*
X145804475Y-107652500D01*
X145283683Y-107652500D01*
X145283683Y-107651474D01*
X145218813Y-107636594D01*
X145169181Y-107585828D01*
X145154873Y-107516288D01*
X145159853Y-107490172D01*
X145188558Y-107395395D01*
X145188558Y-107395394D01*
X145190433Y-107389204D01*
X145197500Y-107310022D01*
X145197500Y-105911114D01*
X145182022Y-105778357D01*
X145137883Y-105656754D01*
X145124184Y-105619015D01*
X145121687Y-105612136D01*
X145025591Y-105465564D01*
X145004968Y-105397629D01*
X145024348Y-105329329D01*
X145039492Y-105309825D01*
X145045324Y-105303669D01*
X145050358Y-105298355D01*
X145139175Y-105145445D01*
X145190433Y-104976204D01*
X145192298Y-104955309D01*
X145197251Y-104899815D01*
X145197251Y-104899809D01*
X145197500Y-104897022D01*
X145197500Y-104458548D01*
X145981000Y-104458548D01*
X145981000Y-104880223D01*
X145981424Y-104887524D01*
X145995617Y-105009255D01*
X145998963Y-105023410D01*
X146054263Y-105175761D01*
X146060773Y-105188760D01*
X146153040Y-105329491D01*
X146173663Y-105397426D01*
X146154283Y-105465727D01*
X146139139Y-105485230D01*
X146133081Y-105491625D01*
X146124365Y-105503276D01*
X146042957Y-105643429D01*
X146037163Y-105656754D01*
X145989932Y-105812700D01*
X145987484Y-105825323D01*
X145981249Y-105895184D01*
X145981000Y-105900779D01*
X145981000Y-106331885D01*
X145985475Y-106347124D01*
X145986865Y-106348329D01*
X145994548Y-106350000D01*
X146791885Y-106350000D01*
X146807124Y-106345525D01*
X146808329Y-106344135D01*
X146810000Y-106336452D01*
X146810000Y-104463115D01*
X146805525Y-104447876D01*
X146804135Y-104446671D01*
X146796452Y-104445000D01*
X145999115Y-104445000D01*
X145983876Y-104449475D01*
X145982671Y-104450865D01*
X145981000Y-104458548D01*
X145197500Y-104458548D01*
X145197500Y-103498114D01*
X145196295Y-103487779D01*
X145981000Y-103487779D01*
X145981000Y-103918885D01*
X145985475Y-103934124D01*
X145986865Y-103935329D01*
X145994548Y-103937000D01*
X146791885Y-103937000D01*
X146807124Y-103932525D01*
X146808329Y-103931135D01*
X146810000Y-103923452D01*
X146810000Y-102801115D01*
X146805525Y-102785876D01*
X146804135Y-102784671D01*
X146796452Y-102783000D01*
X146699777Y-102783000D01*
X146692476Y-102783424D01*
X146570745Y-102797617D01*
X146556590Y-102800963D01*
X146404239Y-102856263D01*
X146391240Y-102862773D01*
X146255694Y-102951641D01*
X146244542Y-102960965D01*
X146133078Y-103078629D01*
X146124365Y-103090276D01*
X146042957Y-103230429D01*
X146037163Y-103243754D01*
X145989932Y-103399700D01*
X145987484Y-103412323D01*
X145981249Y-103482184D01*
X145981000Y-103487779D01*
X145196295Y-103487779D01*
X145182022Y-103365357D01*
X145137883Y-103243754D01*
X145124184Y-103206015D01*
X145121687Y-103199136D01*
X145045968Y-103083645D01*
X145028743Y-103057372D01*
X145028742Y-103057371D01*
X145024731Y-103051253D01*
X144896355Y-102929642D01*
X144743445Y-102840825D01*
X144574204Y-102789567D01*
X144567764Y-102788992D01*
X144567763Y-102788992D01*
X144497815Y-102782749D01*
X144497809Y-102782749D01*
X144495022Y-102782500D01*
X143746114Y-102782500D01*
X143650894Y-102793602D01*
X143620629Y-102797130D01*
X143620628Y-102797130D01*
X143613357Y-102797978D01*
X143606479Y-102800474D01*
X143606477Y-102800475D01*
X143454015Y-102855816D01*
X143447136Y-102858313D01*
X143370629Y-102908473D01*
X143330050Y-102935078D01*
X143299253Y-102955269D01*
X143177642Y-103083645D01*
X143088825Y-103236555D01*
X143086704Y-103243559D01*
X143086702Y-103243563D01*
X143056579Y-103343023D01*
X143017690Y-103402421D01*
X142952861Y-103431365D01*
X142935989Y-103432500D01*
X141251500Y-103432500D01*
X141183379Y-103412498D01*
X141136886Y-103358842D01*
X141125500Y-103306500D01*
X141125500Y-103133000D01*
X141120273Y-103059921D01*
X141089545Y-102955269D01*
X141081635Y-102928330D01*
X141081634Y-102928328D01*
X141079096Y-102919684D01*
X141038956Y-102857225D01*
X141004949Y-102804309D01*
X141004947Y-102804306D01*
X141000077Y-102796729D01*
X140991002Y-102788865D01*
X140896431Y-102706918D01*
X140896428Y-102706916D01*
X140889619Y-102701016D01*
X140842355Y-102679431D01*
X140764864Y-102644042D01*
X140764863Y-102644042D01*
X140756670Y-102640300D01*
X140747755Y-102639018D01*
X140747754Y-102639018D01*
X140616448Y-102620139D01*
X140616441Y-102620138D01*
X140612000Y-102619500D01*
X139554371Y-102619500D01*
X139486250Y-102599498D01*
X139465276Y-102582595D01*
X138911405Y-102028724D01*
X138877379Y-101966412D01*
X138874500Y-101939629D01*
X138874500Y-99607000D01*
X138869273Y-99533921D01*
X138841125Y-99438057D01*
X138830635Y-99402330D01*
X138830634Y-99402328D01*
X138828096Y-99393684D01*
X138783018Y-99323542D01*
X138753949Y-99278309D01*
X138753947Y-99278306D01*
X138749077Y-99270729D01*
X138742267Y-99264828D01*
X138645431Y-99180918D01*
X138645428Y-99180916D01*
X138638619Y-99175016D01*
X138505670Y-99114300D01*
X138496755Y-99113018D01*
X138496754Y-99113018D01*
X138365448Y-99094139D01*
X138365441Y-99094138D01*
X138361000Y-99093500D01*
X136561000Y-99093500D01*
X136487921Y-99098727D01*
X136434884Y-99114300D01*
X136356330Y-99137365D01*
X136356328Y-99137366D01*
X136347684Y-99139904D01*
X136340105Y-99144775D01*
X136232309Y-99214051D01*
X136232306Y-99214053D01*
X136224729Y-99218923D01*
X136218828Y-99225733D01*
X136134918Y-99322569D01*
X136134916Y-99322572D01*
X136129016Y-99329381D01*
X136125272Y-99337579D01*
X136072881Y-99452300D01*
X136068300Y-99462330D01*
X136067018Y-99471245D01*
X136067018Y-99471246D01*
X136048139Y-99602552D01*
X136048138Y-99602559D01*
X136047500Y-99607000D01*
X136047500Y-102107000D01*
X136052727Y-102180079D01*
X136093904Y-102320316D01*
X136098775Y-102327895D01*
X136168051Y-102435691D01*
X136168053Y-102435694D01*
X136172923Y-102443271D01*
X136179733Y-102449172D01*
X136276569Y-102533082D01*
X136276572Y-102533084D01*
X136283381Y-102538984D01*
X136416330Y-102599700D01*
X136425245Y-102600982D01*
X136425246Y-102600982D01*
X136556552Y-102619861D01*
X136556559Y-102619862D01*
X136561000Y-102620500D01*
X137107640Y-102620500D01*
X137175761Y-102640502D01*
X137222254Y-102694158D01*
X137232358Y-102764432D01*
X137202864Y-102829012D01*
X137185921Y-102848565D01*
X137185918Y-102848570D01*
X137180016Y-102855381D01*
X137176272Y-102863579D01*
X137134399Y-102955269D01*
X137119300Y-102988330D01*
X137118018Y-102997245D01*
X137118018Y-102997246D01*
X137099139Y-103128552D01*
X137099138Y-103128559D01*
X137098500Y-103133000D01*
X137098500Y-105083000D01*
X137103727Y-105156079D01*
X137119830Y-105210921D01*
X137141288Y-105284000D01*
X137144904Y-105296316D01*
X137149775Y-105303895D01*
X137219051Y-105411691D01*
X137219053Y-105411694D01*
X137223923Y-105419271D01*
X137230733Y-105425172D01*
X137327569Y-105509082D01*
X137327572Y-105509084D01*
X137334381Y-105514984D01*
X137467330Y-105575700D01*
X137476245Y-105576982D01*
X137476246Y-105576982D01*
X137607552Y-105595861D01*
X137607559Y-105595862D01*
X137612000Y-105596500D01*
X140612000Y-105596500D01*
X140685079Y-105591273D01*
X140763165Y-105568345D01*
X140816670Y-105552635D01*
X140816672Y-105552634D01*
X140825316Y-105550096D01*
X140908487Y-105496645D01*
X140940691Y-105475949D01*
X140940694Y-105475947D01*
X140948271Y-105471077D01*
X140988048Y-105425172D01*
X141038082Y-105367431D01*
X141038084Y-105367428D01*
X141043984Y-105360619D01*
X141104700Y-105227670D01*
X141117530Y-105138437D01*
X141124861Y-105087448D01*
X141124862Y-105087441D01*
X141125500Y-105083000D01*
X141125500Y-105075500D01*
X141125784Y-105074533D01*
X141125821Y-105074014D01*
X141125934Y-105074022D01*
X141145502Y-105007379D01*
X141199158Y-104960886D01*
X141251500Y-104949500D01*
X142933298Y-104949500D01*
X143001419Y-104969502D01*
X143047912Y-105023158D01*
X143051737Y-105032509D01*
X143106313Y-105182864D01*
X143202409Y-105329435D01*
X143223032Y-105397371D01*
X143203652Y-105465671D01*
X143188510Y-105485172D01*
X143177642Y-105496645D01*
X143088825Y-105649555D01*
X143037567Y-105818796D01*
X143030500Y-105897978D01*
X143030500Y-107296886D01*
X143040512Y-107382763D01*
X143045117Y-107422255D01*
X143045978Y-107429643D01*
X143048474Y-107436521D01*
X143048475Y-107436523D01*
X143086632Y-107541643D01*
X143106313Y-107595864D01*
X143127080Y-107627539D01*
X143147702Y-107695472D01*
X143145066Y-107722284D01*
X143135661Y-107767495D01*
X143134691Y-107771780D01*
X143118690Y-107837172D01*
X143118689Y-107837178D01*
X143117355Y-107842630D01*
X143117007Y-107848234D01*
X143117007Y-107848236D01*
X143116586Y-107855024D01*
X143116329Y-107858421D01*
X143116013Y-107861961D01*
X143114522Y-107869129D01*
X143114720Y-107876446D01*
X143114069Y-107883740D01*
X143112584Y-107883607D01*
X143096550Y-107944249D01*
X143093688Y-107948658D01*
X143089110Y-107953796D01*
X143085557Y-107960507D01*
X143085556Y-107960508D01*
X143014150Y-108095370D01*
X143008890Y-108105304D01*
X142967126Y-108271575D01*
X142966763Y-108277338D01*
X142966763Y-108277341D01*
X142966625Y-108279530D01*
X142966624Y-108279546D01*
X142966500Y-108281525D01*
X142966500Y-108952317D01*
X142982096Y-109081194D01*
X143042694Y-109241562D01*
X143046995Y-109247820D01*
X143098634Y-109322955D01*
X143120734Y-109390424D01*
X143102849Y-109459131D01*
X143098258Y-109466233D01*
X143094164Y-109472123D01*
X143089110Y-109477796D01*
X143008890Y-109629304D01*
X142967126Y-109795575D01*
X142966763Y-109801338D01*
X142966763Y-109801341D01*
X142966625Y-109803530D01*
X142966624Y-109803546D01*
X142966500Y-109805525D01*
X142966500Y-110476317D01*
X142982096Y-110605194D01*
X143042694Y-110765562D01*
X143063836Y-110796323D01*
X143104573Y-110855596D01*
X143126673Y-110923065D01*
X143108891Y-110991377D01*
X143108660Y-110991621D01*
X143022751Y-111139524D01*
X142973172Y-111303223D01*
X142966500Y-111377978D01*
X142966500Y-111976887D01*
X142972772Y-112030684D01*
X142981307Y-112103892D01*
X142979010Y-112104160D01*
X142975809Y-112163910D01*
X142934285Y-112221497D01*
X142868219Y-112247493D01*
X142820461Y-112242585D01*
X142788967Y-112233046D01*
X142788960Y-112233045D01*
X142782777Y-112231172D01*
X142776341Y-112230598D01*
X142776338Y-112230597D01*
X142710815Y-112224749D01*
X142710809Y-112224749D01*
X142708022Y-112224500D01*
X142159113Y-112224500D01*
X142070490Y-112234832D01*
X142039380Y-112238459D01*
X142039378Y-112238459D01*
X142032108Y-112239307D01*
X142025231Y-112241803D01*
X142025228Y-112241804D01*
X141889694Y-112291001D01*
X141871330Y-112297667D01*
X141825310Y-112327839D01*
X141734409Y-112387436D01*
X141734408Y-112387437D01*
X141728289Y-112391449D01*
X141728265Y-112391412D01*
X141666075Y-112418497D01*
X141595990Y-112407155D01*
X141563694Y-112384957D01*
X141549695Y-112371696D01*
X141544379Y-112366660D01*
X141396476Y-112280751D01*
X141232777Y-112231172D01*
X141226341Y-112230598D01*
X141226338Y-112230597D01*
X141160815Y-112224749D01*
X141160809Y-112224749D01*
X141158022Y-112224500D01*
X140609113Y-112224500D01*
X140520490Y-112234832D01*
X140489380Y-112238459D01*
X140489378Y-112238459D01*
X140482108Y-112239307D01*
X140475231Y-112241803D01*
X140475228Y-112241804D01*
X140339694Y-112291001D01*
X140321330Y-112297667D01*
X140178289Y-112391449D01*
X140164169Y-112406355D01*
X140160572Y-112410152D01*
X140099203Y-112445851D01*
X140069098Y-112449500D01*
X139762500Y-112449500D01*
X139694379Y-112429498D01*
X139647886Y-112375842D01*
X139636500Y-112323500D01*
X139636500Y-112244000D01*
X139631273Y-112170921D01*
X139590096Y-112030684D01*
X139565574Y-111992528D01*
X139515949Y-111915309D01*
X139515947Y-111915306D01*
X139511077Y-111907729D01*
X139461006Y-111864342D01*
X139407431Y-111817918D01*
X139407428Y-111817916D01*
X139400619Y-111812016D01*
X139318589Y-111774554D01*
X139264933Y-111728061D01*
X139244931Y-111659940D01*
X139264933Y-111591819D01*
X139281836Y-111570845D01*
X139601678Y-111251003D01*
X139616089Y-111238618D01*
X139632706Y-111226389D01*
X139665618Y-111187649D01*
X139672548Y-111180133D01*
X139678666Y-111174015D01*
X139697169Y-111150628D01*
X139699914Y-111147281D01*
X139705324Y-111140912D01*
X139764675Y-111101953D01*
X139801342Y-111096500D01*
X140612000Y-111096500D01*
X140685079Y-111091273D01*
X140787792Y-111061114D01*
X140816670Y-111052635D01*
X140816672Y-111052634D01*
X140825316Y-111050096D01*
X140880348Y-111014729D01*
X140940691Y-110975949D01*
X140940694Y-110975947D01*
X140948271Y-110971077D01*
X140981699Y-110932499D01*
X141038082Y-110867431D01*
X141038084Y-110867428D01*
X141043984Y-110860619D01*
X141104700Y-110727670D01*
X141121884Y-110608150D01*
X141124861Y-110587448D01*
X141124862Y-110587441D01*
X141125500Y-110583000D01*
X141125500Y-108633000D01*
X141120273Y-108559921D01*
X141079096Y-108419684D01*
X141025374Y-108336091D01*
X141004949Y-108304309D01*
X141004947Y-108304306D01*
X141000077Y-108296729D01*
X140982531Y-108281525D01*
X140896431Y-108206918D01*
X140896428Y-108206916D01*
X140889619Y-108201016D01*
X140756670Y-108140300D01*
X140747755Y-108139018D01*
X140747754Y-108139018D01*
X140616448Y-108120139D01*
X140616441Y-108120138D01*
X140612000Y-108119500D01*
X137612000Y-108119500D01*
X137538921Y-108124727D01*
X137485884Y-108140300D01*
X137407330Y-108163365D01*
X137407328Y-108163366D01*
X137398684Y-108165904D01*
X137391105Y-108170775D01*
X137283309Y-108240051D01*
X137283306Y-108240053D01*
X137275729Y-108244923D01*
X137269828Y-108251733D01*
X137185918Y-108348569D01*
X137185916Y-108348572D01*
X137180016Y-108355381D01*
X137119300Y-108488330D01*
X137118018Y-108497245D01*
X137118018Y-108497246D01*
X137099139Y-108628552D01*
X137099138Y-108628559D01*
X137098500Y-108633000D01*
X137098500Y-110583000D01*
X137103727Y-110656079D01*
X137144904Y-110796316D01*
X137149775Y-110803895D01*
X137219051Y-110911691D01*
X137219053Y-110911694D01*
X137223923Y-110919271D01*
X137230733Y-110925172D01*
X137327569Y-111009082D01*
X137327572Y-111009084D01*
X137334381Y-111014984D01*
X137342579Y-111018728D01*
X137467330Y-111075700D01*
X137465968Y-111078681D01*
X137512176Y-111108373D01*
X137541673Y-111172952D01*
X137529174Y-111248192D01*
X137511032Y-111283722D01*
X137507385Y-111290865D01*
X137505646Y-111297972D01*
X137503544Y-111303623D01*
X137501631Y-111309373D01*
X137498533Y-111316002D01*
X137497044Y-111323162D01*
X137497040Y-111323173D01*
X137483661Y-111387493D01*
X137482691Y-111391780D01*
X137466690Y-111457172D01*
X137466689Y-111457178D01*
X137465355Y-111462630D01*
X137465007Y-111468234D01*
X137465007Y-111468236D01*
X137464586Y-111475024D01*
X137464329Y-111478421D01*
X137464013Y-111481961D01*
X137462522Y-111489129D01*
X137462720Y-111496446D01*
X137464454Y-111560516D01*
X137464500Y-111563925D01*
X137464500Y-111604500D01*
X137444498Y-111672621D01*
X137390842Y-111719114D01*
X137338500Y-111730500D01*
X137323000Y-111730500D01*
X137249921Y-111735727D01*
X137196884Y-111751300D01*
X137118330Y-111774365D01*
X137118328Y-111774366D01*
X137109684Y-111776904D01*
X137102105Y-111781775D01*
X136994309Y-111851051D01*
X136994306Y-111851053D01*
X136986729Y-111855923D01*
X136980828Y-111862733D01*
X136896918Y-111959569D01*
X136896916Y-111959572D01*
X136891016Y-111966381D01*
X136830300Y-112099330D01*
X136829018Y-112108245D01*
X136829018Y-112108246D01*
X136810139Y-112239552D01*
X136810138Y-112239559D01*
X136809500Y-112244000D01*
X136809500Y-114744000D01*
X136814727Y-114817079D01*
X136855904Y-114957316D01*
X136860775Y-114964895D01*
X136930051Y-115072691D01*
X136930053Y-115072694D01*
X136934923Y-115080271D01*
X136941733Y-115086172D01*
X137038569Y-115170082D01*
X137038572Y-115170084D01*
X137045381Y-115175984D01*
X137053579Y-115179728D01*
X137147320Y-115222538D01*
X137178330Y-115236700D01*
X137187245Y-115237982D01*
X137187246Y-115237982D01*
X137318552Y-115256861D01*
X137318559Y-115256862D01*
X137323000Y-115257500D01*
X139123000Y-115257500D01*
X139196079Y-115252273D01*
X139297348Y-115222538D01*
X139327670Y-115213635D01*
X139327672Y-115213634D01*
X139336316Y-115211096D01*
X139400135Y-115170082D01*
X139451691Y-115136949D01*
X139451694Y-115136947D01*
X139459271Y-115132077D01*
X139494967Y-115090882D01*
X139549082Y-115028431D01*
X139549084Y-115028428D01*
X139554984Y-115021619D01*
X139558728Y-115013421D01*
X139611958Y-114896864D01*
X139611958Y-114896863D01*
X139615700Y-114888670D01*
X139625993Y-114817079D01*
X139635861Y-114748448D01*
X139635862Y-114748441D01*
X139636500Y-114744000D01*
X139636500Y-114270552D01*
X139656502Y-114202431D01*
X139693412Y-114165182D01*
X139736948Y-114136638D01*
X139740611Y-114134328D01*
X139770742Y-114116044D01*
X139798208Y-114099378D01*
X139798212Y-114099375D01*
X139803006Y-114096466D01*
X139812310Y-114088249D01*
X139814894Y-114086028D01*
X139817624Y-114083745D01*
X139823747Y-114079731D01*
X139832440Y-114070555D01*
X139872877Y-114027868D01*
X139875255Y-114025426D01*
X139897276Y-114003405D01*
X139959588Y-113969379D01*
X139986371Y-113966500D01*
X140000737Y-113966500D01*
X140068858Y-113986502D01*
X140115351Y-114040158D01*
X140126322Y-114082285D01*
X140128300Y-114106605D01*
X140130556Y-114113568D01*
X140131732Y-114119456D01*
X140133130Y-114125373D01*
X140133978Y-114132643D01*
X140158887Y-114201267D01*
X140160304Y-114205395D01*
X140180542Y-114267868D01*
X140180544Y-114267873D01*
X140182798Y-114274830D01*
X140186593Y-114281084D01*
X140189101Y-114286562D01*
X140191815Y-114291981D01*
X140194313Y-114298864D01*
X140198326Y-114304984D01*
X140198326Y-114304985D01*
X140200061Y-114307631D01*
X140225810Y-114346904D01*
X140234335Y-114359907D01*
X140236672Y-114363612D01*
X140251368Y-114387830D01*
X140271622Y-114421208D01*
X140271625Y-114421212D01*
X140274534Y-114426006D01*
X140278246Y-114430209D01*
X140278249Y-114430213D01*
X140282752Y-114435311D01*
X140284974Y-114437896D01*
X140287253Y-114440622D01*
X140291269Y-114446747D01*
X140296588Y-114451785D01*
X140301279Y-114457396D01*
X140300188Y-114458308D01*
X140331852Y-114512746D01*
X140335500Y-114542846D01*
X140335500Y-116169579D01*
X140342968Y-116228693D01*
X140345187Y-116246257D01*
X140351345Y-116295006D01*
X140412571Y-116449644D01*
X140417229Y-116456055D01*
X140417230Y-116456057D01*
X140430978Y-116474979D01*
X140510329Y-116584197D01*
X140638479Y-116690212D01*
X140788967Y-116761026D01*
X140796750Y-116762511D01*
X140796754Y-116762512D01*
X140927148Y-116787386D01*
X140927151Y-116787386D01*
X140932989Y-116788500D01*
X141333579Y-116788500D01*
X141392693Y-116781032D01*
X141451141Y-116773649D01*
X141451144Y-116773648D01*
X141459006Y-116772655D01*
X141466372Y-116769738D01*
X141466374Y-116769738D01*
X141606275Y-116714347D01*
X141606277Y-116714346D01*
X141613644Y-116711429D01*
X141638783Y-116693165D01*
X141698526Y-116649759D01*
X141705619Y-116644606D01*
X141772486Y-116620747D01*
X141841637Y-116636828D01*
X141859994Y-116649457D01*
X141902639Y-116684736D01*
X141915921Y-116693165D01*
X142051945Y-116757173D01*
X142066913Y-116762036D01*
X142197176Y-116786886D01*
X142208961Y-116788000D01*
X142279020Y-116788000D01*
X142347141Y-116808002D01*
X142393634Y-116861658D01*
X142405020Y-116914000D01*
X142405020Y-117602886D01*
X142385018Y-117671007D01*
X142368115Y-117691981D01*
X141807501Y-118252595D01*
X141745189Y-118286621D01*
X141718406Y-118289500D01*
X141476383Y-118289500D01*
X141465479Y-118288986D01*
X141458088Y-118287334D01*
X141450162Y-118287583D01*
X141450161Y-118287583D01*
X141391134Y-118289438D01*
X141387176Y-118289500D01*
X141358422Y-118289500D01*
X141354155Y-118290039D01*
X141342313Y-118290972D01*
X141310665Y-118291967D01*
X141306040Y-118292112D01*
X141298117Y-118292361D01*
X141278667Y-118298012D01*
X141259305Y-118302022D01*
X141239212Y-118304560D01*
X141205349Y-118317967D01*
X141198108Y-118320834D01*
X141186878Y-118324679D01*
X141152034Y-118334802D01*
X141152032Y-118334803D01*
X141144421Y-118337014D01*
X141129067Y-118346094D01*
X141126989Y-118347323D01*
X141109236Y-118356020D01*
X141090400Y-118363478D01*
X141083985Y-118368139D01*
X141054626Y-118389469D01*
X141044707Y-118395984D01*
X141011758Y-118415471D01*
X141011755Y-118415473D01*
X141006659Y-118418487D01*
X141006241Y-118418855D01*
X140992158Y-118432938D01*
X140977133Y-118445772D01*
X140960917Y-118457554D01*
X140932971Y-118491335D01*
X140924981Y-118500115D01*
X140751487Y-118673609D01*
X140743399Y-118680969D01*
X140737005Y-118685027D01*
X140731580Y-118690804D01*
X140691131Y-118733878D01*
X140688376Y-118736720D01*
X140668062Y-118757034D01*
X140665417Y-118760445D01*
X140657713Y-118769465D01*
X140627443Y-118801699D01*
X140623626Y-118808643D01*
X140623624Y-118808645D01*
X140617682Y-118819453D01*
X140606828Y-118835977D01*
X140594417Y-118851977D01*
X140591270Y-118859248D01*
X140591270Y-118859249D01*
X140576859Y-118892551D01*
X140571640Y-118903204D01*
X140564673Y-118915877D01*
X140542666Y-118944249D01*
X140539803Y-118946329D01*
X140534749Y-118952438D01*
X140534747Y-118952440D01*
X140484522Y-119013152D01*
X140433788Y-119074479D01*
X140430413Y-119081652D01*
X140430412Y-119081653D01*
X140419923Y-119103943D01*
X140362974Y-119224967D01*
X140361489Y-119232750D01*
X140361488Y-119232754D01*
X140345401Y-119317085D01*
X140335500Y-119368989D01*
X140335500Y-121119579D01*
X140341704Y-121168691D01*
X140349822Y-121232949D01*
X140351345Y-121245006D01*
X140354262Y-121252373D01*
X140356235Y-121260058D01*
X140353405Y-121260785D01*
X140358613Y-121317734D01*
X140325828Y-121380708D01*
X140277977Y-121411833D01*
X140201433Y-121439617D01*
X140188434Y-121446127D01*
X140057730Y-121531820D01*
X140046578Y-121541144D01*
X139939094Y-121654607D01*
X139930383Y-121666252D01*
X139851887Y-121801393D01*
X139846087Y-121814731D01*
X139800539Y-121965120D01*
X139798089Y-121977752D01*
X139792249Y-122043185D01*
X139792000Y-122048780D01*
X139792000Y-122079885D01*
X139796475Y-122095124D01*
X139797865Y-122096329D01*
X139805548Y-122098000D01*
X140878000Y-122098000D01*
X140946121Y-122118002D01*
X140992614Y-122171658D01*
X141004000Y-122224000D01*
X141004000Y-123316885D01*
X141008475Y-123332124D01*
X141009865Y-123333329D01*
X141016847Y-123334847D01*
X141021527Y-123334575D01*
X141137505Y-123321054D01*
X141151657Y-123317709D01*
X141298567Y-123264383D01*
X141311564Y-123257874D01*
X141346416Y-123235025D01*
X141414351Y-123214403D01*
X141482652Y-123233784D01*
X141529632Y-123287013D01*
X141541500Y-123340398D01*
X141541500Y-124361096D01*
X141541006Y-124372197D01*
X141539522Y-124379329D01*
X141539720Y-124386648D01*
X141539720Y-124386649D01*
X141541454Y-124450716D01*
X141541500Y-124454125D01*
X141541500Y-126163629D01*
X141521498Y-126231750D01*
X141504595Y-126252724D01*
X140400322Y-127356997D01*
X140385911Y-127369382D01*
X140369294Y-127381611D01*
X140364551Y-127387194D01*
X140336382Y-127420351D01*
X140329452Y-127427867D01*
X140323335Y-127433984D01*
X140321062Y-127436857D01*
X140321054Y-127436866D01*
X140304854Y-127457343D01*
X140302063Y-127460747D01*
X140259545Y-127510794D01*
X140254803Y-127516376D01*
X140251475Y-127522894D01*
X140248123Y-127527919D01*
X140244946Y-127533064D01*
X140240406Y-127538802D01*
X140237307Y-127545433D01*
X140209511Y-127604905D01*
X140207580Y-127608855D01*
X140177714Y-127667345D01*
X140174385Y-127673865D01*
X140172646Y-127680972D01*
X140170544Y-127686623D01*
X140168631Y-127692373D01*
X140165533Y-127699002D01*
X140164044Y-127706162D01*
X140164040Y-127706173D01*
X140150661Y-127770493D01*
X140149691Y-127774780D01*
X140133690Y-127840172D01*
X140133689Y-127840178D01*
X140132355Y-127845630D01*
X140132007Y-127851234D01*
X140132007Y-127851236D01*
X140131586Y-127858024D01*
X140131329Y-127861421D01*
X140131013Y-127864961D01*
X140129522Y-127872129D01*
X140129720Y-127879446D01*
X140131454Y-127943516D01*
X140131500Y-127946925D01*
X140131500Y-130560664D01*
X140111498Y-130628785D01*
X140057842Y-130675278D01*
X140020092Y-130685816D01*
X139931628Y-130696130D01*
X139931627Y-130696130D01*
X139924356Y-130696978D01*
X139917478Y-130699474D01*
X139917476Y-130699475D01*
X139812160Y-130737703D01*
X139758135Y-130757313D01*
X139610253Y-130854269D01*
X139488641Y-130982645D01*
X139399825Y-131135554D01*
X139348567Y-131304795D01*
X139341500Y-131383977D01*
X139341500Y-134582887D01*
X139356978Y-134715644D01*
X139359474Y-134722522D01*
X139359475Y-134722524D01*
X139410720Y-134863701D01*
X139417313Y-134881865D01*
X139514269Y-135029747D01*
X139642645Y-135151359D01*
X139795554Y-135240175D01*
X139964795Y-135291433D01*
X139971235Y-135292008D01*
X139971236Y-135292008D01*
X140041184Y-135298251D01*
X140041190Y-135298251D01*
X140043977Y-135298500D01*
X141722887Y-135298500D01*
X141818107Y-135287398D01*
X141848372Y-135283870D01*
X141848373Y-135283870D01*
X141855644Y-135283022D01*
X141862522Y-135280526D01*
X141862524Y-135280525D01*
X142014986Y-135225184D01*
X142021865Y-135222687D01*
X142169747Y-135125731D01*
X142291359Y-134997355D01*
X142380175Y-134844446D01*
X142431433Y-134675205D01*
X142438500Y-134596023D01*
X142438500Y-133257548D01*
X144422000Y-133257548D01*
X144422000Y-133809626D01*
X144422202Y-133814658D01*
X144436571Y-133993244D01*
X144438185Y-134003214D01*
X144495191Y-134235296D01*
X144498370Y-134244854D01*
X144591750Y-134464844D01*
X144596424Y-134473783D01*
X144723768Y-134676003D01*
X144729809Y-134684078D01*
X144887852Y-134863342D01*
X144895104Y-134870345D01*
X145079772Y-135022033D01*
X145088054Y-135027789D01*
X145294595Y-135147999D01*
X145303700Y-135152361D01*
X145526795Y-135238000D01*
X145536484Y-135240851D01*
X145698264Y-135274649D01*
X145712325Y-135273526D01*
X145716000Y-135263418D01*
X145716000Y-133262115D01*
X145714659Y-133257548D01*
X146224000Y-133257548D01*
X146224000Y-135260821D01*
X146228136Y-135274907D01*
X146241114Y-135276956D01*
X146266618Y-135274005D01*
X146276515Y-135272045D01*
X146506469Y-135206975D01*
X146515914Y-135203463D01*
X146732510Y-135102463D01*
X146741274Y-135097484D01*
X146938925Y-134963160D01*
X146946800Y-134956828D01*
X147120422Y-134792642D01*
X147127183Y-134785133D01*
X147272327Y-134595293D01*
X147277791Y-134586814D01*
X147390719Y-134376203D01*
X147394759Y-134366957D01*
X147472561Y-134141004D01*
X147475072Y-134131223D01*
X147515933Y-133894662D01*
X147516788Y-133886790D01*
X147517936Y-133861519D01*
X147518000Y-133858686D01*
X147518000Y-133262115D01*
X147513525Y-133246876D01*
X147512135Y-133245671D01*
X147504452Y-133244000D01*
X146242115Y-133244000D01*
X146226876Y-133248475D01*
X146225671Y-133249865D01*
X146224000Y-133257548D01*
X145714659Y-133257548D01*
X145711525Y-133246876D01*
X145710135Y-133245671D01*
X145702452Y-133244000D01*
X144440115Y-133244000D01*
X144424876Y-133248475D01*
X144423671Y-133249865D01*
X144422000Y-133257548D01*
X142438500Y-133257548D01*
X142438500Y-132121314D01*
X144422000Y-132121314D01*
X144422000Y-132717885D01*
X144426475Y-132733124D01*
X144427865Y-132734329D01*
X144435548Y-132736000D01*
X145697885Y-132736000D01*
X145713124Y-132731525D01*
X145714329Y-132730135D01*
X145716000Y-132722452D01*
X145716000Y-130719179D01*
X145715237Y-130716582D01*
X146224000Y-130716582D01*
X146224000Y-132717885D01*
X146228475Y-132733124D01*
X146229865Y-132734329D01*
X146237548Y-132736000D01*
X147499885Y-132736000D01*
X147515124Y-132731525D01*
X147516329Y-132730135D01*
X147518000Y-132722452D01*
X147518000Y-132170374D01*
X147517798Y-132165342D01*
X147503429Y-131986756D01*
X147501815Y-131976786D01*
X147444809Y-131744704D01*
X147441630Y-131735146D01*
X147348250Y-131515156D01*
X147343576Y-131506217D01*
X147216232Y-131303997D01*
X147210191Y-131295922D01*
X147052148Y-131116658D01*
X147044896Y-131109655D01*
X146860228Y-130957967D01*
X146851946Y-130952211D01*
X146645405Y-130832001D01*
X146636300Y-130827639D01*
X146413205Y-130742000D01*
X146403516Y-130739149D01*
X146241736Y-130705351D01*
X146227675Y-130706474D01*
X146224000Y-130716582D01*
X145715237Y-130716582D01*
X145711864Y-130705093D01*
X145698886Y-130703044D01*
X145673382Y-130705995D01*
X145663485Y-130707955D01*
X145433531Y-130773025D01*
X145424086Y-130776537D01*
X145207490Y-130877537D01*
X145198726Y-130882516D01*
X145001075Y-131016840D01*
X144993200Y-131023172D01*
X144819578Y-131187358D01*
X144812817Y-131194867D01*
X144667673Y-131384707D01*
X144662209Y-131393186D01*
X144549281Y-131603797D01*
X144545241Y-131613043D01*
X144467439Y-131838996D01*
X144464928Y-131848777D01*
X144424067Y-132085338D01*
X144423212Y-132093210D01*
X144422064Y-132118481D01*
X144422000Y-132121314D01*
X142438500Y-132121314D01*
X142438500Y-131397113D01*
X142423022Y-131264356D01*
X142369411Y-131116658D01*
X142365184Y-131105014D01*
X142362687Y-131098135D01*
X142265731Y-130950253D01*
X142137355Y-130828641D01*
X141984446Y-130739825D01*
X141815205Y-130688567D01*
X141808765Y-130687992D01*
X141808764Y-130687992D01*
X141763298Y-130683934D01*
X141697225Y-130657955D01*
X141655687Y-130600378D01*
X141648500Y-130558433D01*
X141648500Y-128306371D01*
X141668502Y-128238250D01*
X141685405Y-128217276D01*
X142789678Y-127113003D01*
X142804089Y-127100618D01*
X142820706Y-127088389D01*
X142853618Y-127049649D01*
X142860548Y-127042133D01*
X143076442Y-126826239D01*
X143138754Y-126792213D01*
X143209569Y-126797278D01*
X143228822Y-126806380D01*
X143272193Y-126831572D01*
X143272195Y-126831573D01*
X143278524Y-126835249D01*
X143442223Y-126884828D01*
X143448659Y-126885402D01*
X143448662Y-126885403D01*
X143514185Y-126891251D01*
X143514191Y-126891251D01*
X143516978Y-126891500D01*
X144065887Y-126891500D01*
X144154510Y-126881168D01*
X144185620Y-126877541D01*
X144185622Y-126877541D01*
X144192892Y-126876693D01*
X144199769Y-126874197D01*
X144199772Y-126874196D01*
X144346791Y-126820830D01*
X144353670Y-126818333D01*
X144446169Y-126757688D01*
X144490591Y-126728564D01*
X144490594Y-126728561D01*
X144496711Y-126724551D01*
X144496882Y-126724371D01*
X144559310Y-126697182D01*
X144629394Y-126708524D01*
X144661692Y-126730724D01*
X144675607Y-126743906D01*
X144687252Y-126752617D01*
X144822393Y-126831113D01*
X144835731Y-126836913D01*
X144986120Y-126882461D01*
X144998752Y-126884911D01*
X145064185Y-126890751D01*
X145069780Y-126891000D01*
X145075885Y-126891000D01*
X145091124Y-126886525D01*
X145092329Y-126885135D01*
X145094000Y-126877452D01*
X145094000Y-126175548D01*
X145602000Y-126175548D01*
X145602000Y-126872885D01*
X145606475Y-126888124D01*
X145607865Y-126889329D01*
X145614847Y-126890847D01*
X145619527Y-126890575D01*
X145735505Y-126877054D01*
X145749657Y-126873709D01*
X145896567Y-126820383D01*
X145909566Y-126813873D01*
X146040270Y-126728180D01*
X146051422Y-126718856D01*
X146158906Y-126605393D01*
X146167617Y-126593748D01*
X146246113Y-126458607D01*
X146251913Y-126445269D01*
X146297461Y-126294880D01*
X146299911Y-126282248D01*
X146305751Y-126216815D01*
X146306000Y-126211220D01*
X146306000Y-126180115D01*
X146301525Y-126164876D01*
X146300135Y-126163671D01*
X146292452Y-126162000D01*
X145620115Y-126162000D01*
X145604876Y-126166475D01*
X145603671Y-126167865D01*
X145602000Y-126175548D01*
X145094000Y-126175548D01*
X145094000Y-125780000D01*
X145114002Y-125711879D01*
X145167658Y-125665386D01*
X145220000Y-125654000D01*
X146287885Y-125654000D01*
X146303124Y-125649525D01*
X146304329Y-125648135D01*
X146306000Y-125640452D01*
X146306000Y-125618777D01*
X146305575Y-125611473D01*
X146292054Y-125495495D01*
X146288709Y-125481346D01*
X146239947Y-125347009D01*
X146235506Y-125276151D01*
X146270078Y-125214141D01*
X146323562Y-125185823D01*
X146322809Y-125183499D01*
X146323695Y-125183212D01*
X146331854Y-125181433D01*
X146333690Y-125180461D01*
X146335653Y-125180069D01*
X146341574Y-125178669D01*
X146348843Y-125177822D01*
X146417467Y-125152913D01*
X146421595Y-125151496D01*
X146484068Y-125131258D01*
X146484073Y-125131256D01*
X146491030Y-125129002D01*
X146497284Y-125125207D01*
X146502762Y-125122699D01*
X146508181Y-125119985D01*
X146515064Y-125117487D01*
X146576123Y-125077455D01*
X146579812Y-125075128D01*
X146604030Y-125060432D01*
X146637408Y-125040178D01*
X146637412Y-125040175D01*
X146642206Y-125037266D01*
X146651510Y-125029049D01*
X146654094Y-125026828D01*
X146656824Y-125024545D01*
X146662947Y-125020531D01*
X146712077Y-124968668D01*
X146714455Y-124966226D01*
X148085278Y-123595403D01*
X148099689Y-123583018D01*
X148116306Y-123570789D01*
X148149218Y-123532049D01*
X148156148Y-123524533D01*
X148162265Y-123518416D01*
X148164538Y-123515543D01*
X148164546Y-123515534D01*
X148180746Y-123495057D01*
X148183537Y-123491653D01*
X148226055Y-123441606D01*
X148226056Y-123441604D01*
X148230797Y-123436024D01*
X148234127Y-123429503D01*
X148237479Y-123424477D01*
X148240652Y-123419339D01*
X148245194Y-123413598D01*
X148276118Y-123347433D01*
X148278022Y-123343538D01*
X148311215Y-123278535D01*
X148312956Y-123271421D01*
X148315063Y-123265755D01*
X148316967Y-123260031D01*
X148320067Y-123253399D01*
X148333377Y-123189407D01*
X148334934Y-123181924D01*
X148335905Y-123177635D01*
X148351911Y-123112224D01*
X148351912Y-123112218D01*
X148353245Y-123106770D01*
X148354012Y-123094400D01*
X148354269Y-123091006D01*
X148354588Y-123087437D01*
X148356078Y-123080271D01*
X148354146Y-123008884D01*
X148354100Y-123005476D01*
X148354100Y-116165171D01*
X148374102Y-116097050D01*
X148391005Y-116076076D01*
X149431405Y-115035676D01*
X149493717Y-115001650D01*
X149564532Y-115006715D01*
X149621368Y-115049262D01*
X149646179Y-115115782D01*
X149646500Y-115124771D01*
X149646500Y-116814000D01*
X149651727Y-116887079D01*
X149692904Y-117027316D01*
X149697775Y-117034895D01*
X149767051Y-117142691D01*
X149767053Y-117142694D01*
X149771923Y-117150271D01*
X149778733Y-117156172D01*
X149875569Y-117240082D01*
X149875572Y-117240084D01*
X149882381Y-117245984D01*
X149890579Y-117249728D01*
X149969971Y-117285985D01*
X150015330Y-117306700D01*
X150024245Y-117307982D01*
X150024246Y-117307982D01*
X150155552Y-117326861D01*
X150155559Y-117326862D01*
X150160000Y-117327500D01*
X150165500Y-117327500D01*
X150165823Y-117327595D01*
X150168986Y-117327821D01*
X150168937Y-117328509D01*
X150233621Y-117347502D01*
X150280114Y-117401158D01*
X150291500Y-117453500D01*
X150291500Y-117711689D01*
X150271498Y-117779810D01*
X150217842Y-117826303D01*
X150200998Y-117832585D01*
X150072330Y-117870365D01*
X150072328Y-117870366D01*
X150063684Y-117872904D01*
X150040219Y-117887984D01*
X149948309Y-117947051D01*
X149948306Y-117947053D01*
X149940729Y-117951923D01*
X149934828Y-117958733D01*
X149850918Y-118055569D01*
X149850916Y-118055572D01*
X149845016Y-118062381D01*
X149841272Y-118070579D01*
X149792065Y-118178328D01*
X149784300Y-118195330D01*
X149783018Y-118204245D01*
X149783018Y-118204246D01*
X149764139Y-118335552D01*
X149764138Y-118335559D01*
X149763500Y-118340000D01*
X149763500Y-120840000D01*
X149768727Y-120913079D01*
X149809904Y-121053316D01*
X149814775Y-121060895D01*
X149884051Y-121168691D01*
X149884053Y-121168694D01*
X149888923Y-121176271D01*
X149895733Y-121182172D01*
X149992569Y-121266082D01*
X149992572Y-121266084D01*
X149999381Y-121271984D01*
X150132330Y-121332700D01*
X150141245Y-121333982D01*
X150141246Y-121333982D01*
X150272552Y-121352861D01*
X150272559Y-121352862D01*
X150277000Y-121353500D01*
X152077000Y-121353500D01*
X152150079Y-121348273D01*
X152228165Y-121325345D01*
X152281670Y-121309635D01*
X152281672Y-121309634D01*
X152290316Y-121307096D01*
X152344951Y-121271984D01*
X152405691Y-121232949D01*
X152405694Y-121232947D01*
X152413271Y-121228077D01*
X152453048Y-121182172D01*
X152503082Y-121124431D01*
X152503084Y-121124428D01*
X152508984Y-121117619D01*
X152559814Y-121006317D01*
X152565958Y-120992864D01*
X152565958Y-120992863D01*
X152569700Y-120984670D01*
X152580962Y-120906340D01*
X152589861Y-120844448D01*
X152589862Y-120844441D01*
X152590500Y-120840000D01*
X152590500Y-118340000D01*
X152585273Y-118266921D01*
X152553724Y-118159475D01*
X152546635Y-118135330D01*
X152546634Y-118135328D01*
X152544096Y-118126684D01*
X152496064Y-118051945D01*
X152469949Y-118011309D01*
X152469947Y-118011306D01*
X152465077Y-118003729D01*
X152422818Y-117967111D01*
X152361431Y-117913918D01*
X152361428Y-117913916D01*
X152354619Y-117908016D01*
X152221670Y-117847300D01*
X152212755Y-117846018D01*
X152212754Y-117846018D01*
X152081448Y-117827139D01*
X152081441Y-117827138D01*
X152077000Y-117826500D01*
X151934500Y-117826500D01*
X151866379Y-117806498D01*
X151819886Y-117752842D01*
X151808500Y-117700500D01*
X151808500Y-117453500D01*
X151828502Y-117385379D01*
X151882158Y-117338886D01*
X151934500Y-117327500D01*
X151940000Y-117327500D01*
X152013079Y-117322273D01*
X152091165Y-117299345D01*
X152144670Y-117283635D01*
X152144672Y-117283634D01*
X152153316Y-117281096D01*
X152238343Y-117226452D01*
X152251719Y-117217856D01*
X152319840Y-117197854D01*
X152387961Y-117217856D01*
X152402351Y-117228629D01*
X152415565Y-117240079D01*
X152415570Y-117240082D01*
X152422381Y-117245984D01*
X152430579Y-117249728D01*
X152509971Y-117285985D01*
X152555330Y-117306700D01*
X152564245Y-117307982D01*
X152564246Y-117307982D01*
X152695552Y-117326861D01*
X152695559Y-117326862D01*
X152700000Y-117327500D01*
X152720047Y-117327500D01*
X152788168Y-117347502D01*
X152834661Y-117401158D01*
X152841277Y-117421617D01*
X152841301Y-117421609D01*
X152841588Y-117422495D01*
X152841643Y-117422747D01*
X152843606Y-117428817D01*
X152844735Y-117434468D01*
X152846130Y-117440372D01*
X152846978Y-117447643D01*
X152871887Y-117516267D01*
X152873304Y-117520395D01*
X152893542Y-117582868D01*
X152893544Y-117582873D01*
X152895798Y-117589830D01*
X152899593Y-117596084D01*
X152902101Y-117601562D01*
X152904815Y-117606981D01*
X152907313Y-117613864D01*
X152911326Y-117619984D01*
X152911326Y-117619985D01*
X152947335Y-117674907D01*
X152949682Y-117678627D01*
X152984622Y-117736208D01*
X152984625Y-117736212D01*
X152987534Y-117741006D01*
X152991249Y-117745212D01*
X152995751Y-117750310D01*
X152997972Y-117752894D01*
X153000255Y-117755624D01*
X153004269Y-117761747D01*
X153009584Y-117766782D01*
X153056132Y-117810877D01*
X153058574Y-117813255D01*
X155250217Y-120004898D01*
X155284243Y-120067210D01*
X155279178Y-120138025D01*
X155268891Y-120157680D01*
X155269110Y-120157796D01*
X155248347Y-120197011D01*
X155188890Y-120309304D01*
X155147126Y-120475575D01*
X155146763Y-120481338D01*
X155146763Y-120481341D01*
X155146625Y-120483530D01*
X155146624Y-120483546D01*
X155146500Y-120485525D01*
X155146500Y-121006317D01*
X155162096Y-121135194D01*
X155222694Y-121295562D01*
X155226995Y-121301820D01*
X155294228Y-121399644D01*
X155319796Y-121436846D01*
X155325466Y-121441898D01*
X155325467Y-121441899D01*
X155382907Y-121493076D01*
X155420463Y-121553326D01*
X155419483Y-121624316D01*
X155383996Y-121679218D01*
X155383154Y-121679796D01*
X155378102Y-121685466D01*
X155378100Y-121685468D01*
X155274815Y-121801393D01*
X155269110Y-121807796D01*
X155265558Y-121814505D01*
X155265555Y-121814509D01*
X155192798Y-121951923D01*
X155188890Y-121959304D01*
X155147126Y-122125575D01*
X155146763Y-122131338D01*
X155146763Y-122131341D01*
X155146625Y-122133530D01*
X155146624Y-122133546D01*
X155146500Y-122135525D01*
X155146500Y-122656317D01*
X155162096Y-122785194D01*
X155222694Y-122945562D01*
X155226995Y-122951820D01*
X155279268Y-123027877D01*
X155319796Y-123086846D01*
X155329322Y-123095333D01*
X155366875Y-123155583D01*
X155371500Y-123189407D01*
X155371500Y-128234896D01*
X155371006Y-128245997D01*
X155369522Y-128253129D01*
X155369720Y-128260448D01*
X155369720Y-128260449D01*
X155371454Y-128324516D01*
X155371500Y-128327925D01*
X155371500Y-130806520D01*
X155351498Y-130874641D01*
X155316323Y-130910731D01*
X155156571Y-131019298D01*
X155152894Y-131022775D01*
X155152888Y-131022780D01*
X155026224Y-131142562D01*
X154975525Y-131190506D01*
X154824180Y-131388456D01*
X154706430Y-131608058D01*
X154625306Y-131843660D01*
X154582894Y-132089202D01*
X154581500Y-132119898D01*
X154581500Y-133812143D01*
X154581702Y-133814651D01*
X154581702Y-133814656D01*
X154587510Y-133886836D01*
X154596484Y-133998375D01*
X154597690Y-134003283D01*
X154597690Y-134003286D01*
X154625861Y-134117976D01*
X154655921Y-134240361D01*
X154753283Y-134469730D01*
X154755981Y-134474015D01*
X154755984Y-134474020D01*
X154802656Y-134548133D01*
X154886064Y-134680583D01*
X154923040Y-134722524D01*
X155047188Y-134863342D01*
X155050848Y-134867494D01*
X155243396Y-135025655D01*
X155247764Y-135028197D01*
X155450728Y-135146325D01*
X155458755Y-135150997D01*
X155463478Y-135152810D01*
X155567836Y-135192869D01*
X155624264Y-135235954D01*
X155648441Y-135302708D01*
X155632690Y-135371935D01*
X155582012Y-135421657D01*
X155522682Y-135436500D01*
X152277732Y-135436500D01*
X152209611Y-135416498D01*
X152163118Y-135362842D01*
X152153014Y-135292568D01*
X152182508Y-135227988D01*
X152208647Y-135205128D01*
X152230016Y-135191118D01*
X152329747Y-135125731D01*
X152451359Y-134997355D01*
X152540175Y-134844446D01*
X152591433Y-134675205D01*
X152598500Y-134596023D01*
X152598500Y-131397113D01*
X152583022Y-131264356D01*
X152529411Y-131116658D01*
X152525184Y-131105014D01*
X152522687Y-131098135D01*
X152425731Y-130950253D01*
X152297355Y-130828641D01*
X152144446Y-130739825D01*
X151975205Y-130688567D01*
X151968765Y-130687992D01*
X151968764Y-130687992D01*
X151923298Y-130683934D01*
X151857225Y-130657955D01*
X151815687Y-130600378D01*
X151808500Y-130558433D01*
X151808500Y-125479500D01*
X151828502Y-125411379D01*
X151882158Y-125364886D01*
X151934500Y-125353500D01*
X152077000Y-125353500D01*
X152150079Y-125348273D01*
X152228165Y-125325345D01*
X152281670Y-125309635D01*
X152281672Y-125309634D01*
X152290316Y-125307096D01*
X152358157Y-125263497D01*
X152405691Y-125232949D01*
X152405694Y-125232947D01*
X152413271Y-125228077D01*
X152449885Y-125185823D01*
X152503082Y-125124431D01*
X152503084Y-125124428D01*
X152508984Y-125117619D01*
X152569700Y-124984670D01*
X152580962Y-124906340D01*
X152589861Y-124844448D01*
X152589862Y-124844441D01*
X152590500Y-124840000D01*
X152590500Y-122340000D01*
X152585273Y-122266921D01*
X152557896Y-122173683D01*
X152546635Y-122135330D01*
X152546634Y-122135328D01*
X152544096Y-122126684D01*
X152498331Y-122055473D01*
X152469949Y-122011309D01*
X152469947Y-122011306D01*
X152465077Y-122003729D01*
X152435098Y-121977752D01*
X152361431Y-121913918D01*
X152361428Y-121913916D01*
X152354619Y-121908016D01*
X152221670Y-121847300D01*
X152212755Y-121846018D01*
X152212754Y-121846018D01*
X152081448Y-121827139D01*
X152081441Y-121827138D01*
X152077000Y-121826500D01*
X150277000Y-121826500D01*
X150203921Y-121831727D01*
X150150884Y-121847300D01*
X150072330Y-121870365D01*
X150072328Y-121870366D01*
X150063684Y-121872904D01*
X150025528Y-121897426D01*
X149948309Y-121947051D01*
X149948306Y-121947053D01*
X149940729Y-121951923D01*
X149934828Y-121958733D01*
X149850918Y-122055569D01*
X149850916Y-122055572D01*
X149845016Y-122062381D01*
X149841272Y-122070579D01*
X149792456Y-122177472D01*
X149784300Y-122195330D01*
X149783018Y-122204245D01*
X149783018Y-122204246D01*
X149764139Y-122335552D01*
X149764138Y-122335559D01*
X149763500Y-122340000D01*
X149763500Y-124840000D01*
X149768727Y-124913079D01*
X149770631Y-124919562D01*
X149804101Y-125033551D01*
X149809904Y-125053316D01*
X149824650Y-125076261D01*
X149884051Y-125168691D01*
X149884053Y-125168694D01*
X149888923Y-125176271D01*
X149895733Y-125182172D01*
X149992569Y-125266082D01*
X149992572Y-125266084D01*
X149999381Y-125271984D01*
X150132330Y-125332700D01*
X150141245Y-125333982D01*
X150141246Y-125333982D01*
X150183431Y-125340047D01*
X150248012Y-125369540D01*
X150286396Y-125429266D01*
X150291500Y-125464765D01*
X150291500Y-130560664D01*
X150271498Y-130628785D01*
X150217842Y-130675278D01*
X150180092Y-130685816D01*
X150091628Y-130696130D01*
X150091627Y-130696130D01*
X150084356Y-130696978D01*
X150077478Y-130699474D01*
X150077476Y-130699475D01*
X149972160Y-130737703D01*
X149918135Y-130757313D01*
X149770253Y-130854269D01*
X149648641Y-130982645D01*
X149559825Y-131135554D01*
X149508567Y-131304795D01*
X149501500Y-131383977D01*
X149501500Y-134582887D01*
X149516978Y-134715644D01*
X149519474Y-134722522D01*
X149519475Y-134722524D01*
X149570720Y-134863701D01*
X149577313Y-134881865D01*
X149674269Y-135029747D01*
X149802645Y-135151359D01*
X149955554Y-135240175D01*
X150124795Y-135291433D01*
X150131235Y-135292008D01*
X150131236Y-135292008D01*
X150172961Y-135295732D01*
X150239033Y-135321711D01*
X150280572Y-135379287D01*
X150287344Y-135411018D01*
X150291085Y-135457009D01*
X150291500Y-135467224D01*
X150291500Y-135475886D01*
X150291924Y-135479520D01*
X150291924Y-135479524D01*
X150294951Y-135505483D01*
X150295384Y-135509862D01*
X150301300Y-135582605D01*
X150303556Y-135589568D01*
X150304732Y-135595456D01*
X150306130Y-135601373D01*
X150306978Y-135608643D01*
X150331887Y-135677267D01*
X150333304Y-135681395D01*
X150353542Y-135743868D01*
X150353544Y-135743873D01*
X150355798Y-135750830D01*
X150359593Y-135757084D01*
X150362101Y-135762562D01*
X150364815Y-135767981D01*
X150367313Y-135774864D01*
X150371326Y-135780984D01*
X150371326Y-135780985D01*
X150407335Y-135835907D01*
X150409682Y-135839627D01*
X150444622Y-135897208D01*
X150444625Y-135897212D01*
X150447534Y-135902006D01*
X150451249Y-135906212D01*
X150455751Y-135911310D01*
X150457972Y-135913894D01*
X150460255Y-135916624D01*
X150464269Y-135922747D01*
X150469584Y-135927782D01*
X150516132Y-135971877D01*
X150518574Y-135974255D01*
X151228997Y-136684678D01*
X151241382Y-136699089D01*
X151253611Y-136715706D01*
X151259194Y-136720449D01*
X151292351Y-136748618D01*
X151299867Y-136755548D01*
X151305985Y-136761666D01*
X151329372Y-136780169D01*
X151332738Y-136782930D01*
X151388376Y-136830197D01*
X151394897Y-136833527D01*
X151399888Y-136836855D01*
X151405057Y-136840047D01*
X151410803Y-136844594D01*
X151476910Y-136875491D01*
X151480839Y-136877411D01*
X151545865Y-136910615D01*
X151552970Y-136912354D01*
X151558623Y-136914456D01*
X151564373Y-136916369D01*
X151571002Y-136919467D01*
X151578162Y-136920956D01*
X151578173Y-136920960D01*
X151642493Y-136934339D01*
X151646780Y-136935309D01*
X151712172Y-136951310D01*
X151712178Y-136951311D01*
X151717630Y-136952645D01*
X151723234Y-136952993D01*
X151723236Y-136952993D01*
X151730024Y-136953414D01*
X151733421Y-136953671D01*
X151736961Y-136953987D01*
X151744129Y-136955478D01*
X151751446Y-136955280D01*
X151801882Y-136953915D01*
X151815517Y-136953546D01*
X151818925Y-136953500D01*
X158477013Y-136953500D01*
X158495963Y-136954933D01*
X158509120Y-136956935D01*
X158509124Y-136956935D01*
X158516354Y-136958035D01*
X158523646Y-136957442D01*
X158523649Y-136957442D01*
X158567010Y-136953915D01*
X158577224Y-136953500D01*
X158585886Y-136953500D01*
X158589520Y-136953076D01*
X158589524Y-136953076D01*
X158615483Y-136950049D01*
X158619862Y-136949616D01*
X158628647Y-136948901D01*
X158692605Y-136943700D01*
X158699568Y-136941444D01*
X158705456Y-136940268D01*
X158711373Y-136938870D01*
X158718643Y-136938022D01*
X158787267Y-136913113D01*
X158791395Y-136911696D01*
X158853868Y-136891458D01*
X158853873Y-136891456D01*
X158860830Y-136889202D01*
X158867084Y-136885407D01*
X158872562Y-136882899D01*
X158877981Y-136880185D01*
X158884864Y-136877687D01*
X158945923Y-136837655D01*
X158949612Y-136835328D01*
X158973830Y-136820632D01*
X159007208Y-136800378D01*
X159007212Y-136800375D01*
X159012006Y-136797466D01*
X159021310Y-136789249D01*
X159023894Y-136787028D01*
X159026624Y-136784745D01*
X159032747Y-136780731D01*
X159081877Y-136728868D01*
X159084255Y-136726426D01*
X161191678Y-134619003D01*
X161206089Y-134606618D01*
X161222706Y-134594389D01*
X161255618Y-134555649D01*
X161262548Y-134548133D01*
X161268665Y-134542016D01*
X161270938Y-134539143D01*
X161270946Y-134539134D01*
X161287146Y-134518657D01*
X161289937Y-134515253D01*
X161332455Y-134465206D01*
X161332456Y-134465204D01*
X161337197Y-134459624D01*
X161340525Y-134453106D01*
X161343877Y-134448081D01*
X161347054Y-134442936D01*
X161351594Y-134437198D01*
X161380008Y-134376403D01*
X161382489Y-134371095D01*
X161384420Y-134367145D01*
X161414286Y-134308655D01*
X161414287Y-134308653D01*
X161417615Y-134302135D01*
X161419354Y-134295028D01*
X161421456Y-134289377D01*
X161423369Y-134283627D01*
X161426467Y-134276998D01*
X161427956Y-134269838D01*
X161427960Y-134269827D01*
X161441339Y-134205507D01*
X161442309Y-134201220D01*
X161458310Y-134135828D01*
X161458311Y-134135822D01*
X161459645Y-134130370D01*
X161460414Y-134117976D01*
X161460671Y-134114579D01*
X161460987Y-134111039D01*
X161462478Y-134103871D01*
X161460546Y-134032483D01*
X161460500Y-134029075D01*
X161460500Y-120185357D01*
X161480502Y-120117236D01*
X161534158Y-120070743D01*
X161550997Y-120064463D01*
X161610174Y-120047087D01*
X161656670Y-120033435D01*
X161656672Y-120033434D01*
X161665316Y-120030896D01*
X161729135Y-119989882D01*
X161780691Y-119956749D01*
X161780694Y-119956747D01*
X161788271Y-119951877D01*
X161828048Y-119905972D01*
X161878082Y-119848231D01*
X161878084Y-119848228D01*
X161883984Y-119841419D01*
X161944700Y-119708470D01*
X161945982Y-119699554D01*
X161964861Y-119568248D01*
X161964862Y-119568241D01*
X161965500Y-119563800D01*
X161965500Y-118563800D01*
X161961430Y-118499272D01*
X161939833Y-118420871D01*
X161925007Y-118367048D01*
X161925005Y-118367045D01*
X161922614Y-118358363D01*
X161845673Y-118234097D01*
X161802424Y-118195330D01*
X161740191Y-118139546D01*
X161740186Y-118139542D01*
X161736839Y-118136542D01*
X160986839Y-117636542D01*
X160983819Y-117634601D01*
X160976556Y-117629933D01*
X160976550Y-117629930D01*
X160972321Y-117627212D01*
X160955766Y-117619985D01*
X160931605Y-117609438D01*
X160838370Y-117568739D01*
X160829426Y-117567606D01*
X160702311Y-117551504D01*
X160702309Y-117551504D01*
X160693372Y-117550372D01*
X160549072Y-117573601D01*
X160417161Y-117636542D01*
X159667161Y-118136542D01*
X159665581Y-118137746D01*
X159627854Y-118166486D01*
X159561545Y-118191855D01*
X159492046Y-118177347D01*
X159441424Y-118127569D01*
X159425500Y-118066256D01*
X159425500Y-117113800D01*
X159420273Y-117040721D01*
X159393563Y-116949754D01*
X159381635Y-116909130D01*
X159381634Y-116909128D01*
X159379096Y-116900484D01*
X159333393Y-116829369D01*
X159304949Y-116785109D01*
X159304947Y-116785106D01*
X159300077Y-116777529D01*
X159276585Y-116757173D01*
X159196431Y-116687718D01*
X159196428Y-116687716D01*
X159189619Y-116681816D01*
X159091771Y-116637130D01*
X159064864Y-116624842D01*
X159064863Y-116624842D01*
X159056670Y-116621100D01*
X159047755Y-116619818D01*
X159047754Y-116619818D01*
X159004999Y-116613671D01*
X158912000Y-116600300D01*
X158911551Y-116600300D01*
X158845991Y-116575847D01*
X158803444Y-116519011D01*
X158795500Y-116474979D01*
X158795500Y-115725197D01*
X158815502Y-115657076D01*
X158850132Y-115621358D01*
X158902585Y-115585307D01*
X158908846Y-115581004D01*
X158923129Y-115564973D01*
X159017836Y-115458677D01*
X159017838Y-115458675D01*
X159022890Y-115453004D01*
X159026442Y-115446295D01*
X159026445Y-115446291D01*
X159099555Y-115308211D01*
X159099556Y-115308208D01*
X159103110Y-115301496D01*
X159144874Y-115135225D01*
X159145237Y-115129459D01*
X159145375Y-115127270D01*
X159145376Y-115127254D01*
X159145500Y-115125275D01*
X159145500Y-114604483D01*
X159129904Y-114475606D01*
X159069306Y-114315238D01*
X159059616Y-114301139D01*
X158976506Y-114180213D01*
X158976505Y-114180211D01*
X158972204Y-114173954D01*
X158962357Y-114165180D01*
X158909093Y-114117724D01*
X158871537Y-114057474D01*
X158872517Y-113986484D01*
X158908004Y-113931582D01*
X158908846Y-113931004D01*
X159006966Y-113820877D01*
X159017836Y-113808677D01*
X159017838Y-113808675D01*
X159022890Y-113803004D01*
X159026442Y-113796295D01*
X159026445Y-113796291D01*
X159099555Y-113658211D01*
X159099556Y-113658208D01*
X159103110Y-113651496D01*
X159144874Y-113485225D01*
X159145237Y-113479459D01*
X159145375Y-113477270D01*
X159145376Y-113477254D01*
X159145500Y-113475275D01*
X159145500Y-112954483D01*
X159129904Y-112825606D01*
X159069306Y-112665238D01*
X159065005Y-112658980D01*
X158976506Y-112530213D01*
X158976505Y-112530211D01*
X158972204Y-112523954D01*
X158888639Y-112449500D01*
X158849877Y-112414964D01*
X158849875Y-112414962D01*
X158844204Y-112409910D01*
X158837495Y-112406358D01*
X158837491Y-112406355D01*
X158699411Y-112333245D01*
X158699408Y-112333244D01*
X158692696Y-112329690D01*
X158526425Y-112287926D01*
X158520662Y-112287563D01*
X158520659Y-112287563D01*
X158518470Y-112287425D01*
X158518454Y-112287424D01*
X158516475Y-112287300D01*
X158378371Y-112287300D01*
X158310250Y-112267298D01*
X158289276Y-112250395D01*
X157322603Y-111283722D01*
X157310215Y-111269308D01*
X157302329Y-111258592D01*
X157297989Y-111252694D01*
X157259250Y-111219782D01*
X157251733Y-111212852D01*
X157245616Y-111206735D01*
X157242743Y-111204462D01*
X157242734Y-111204454D01*
X157222257Y-111188254D01*
X157218853Y-111185463D01*
X157168806Y-111142945D01*
X157168804Y-111142944D01*
X157163224Y-111138203D01*
X157156706Y-111134875D01*
X157151681Y-111131523D01*
X157146536Y-111128346D01*
X157140798Y-111123806D01*
X157082374Y-111096500D01*
X157074695Y-111092911D01*
X157070745Y-111090980D01*
X157012255Y-111061114D01*
X157012253Y-111061113D01*
X157005735Y-111057785D01*
X156998628Y-111056046D01*
X156992977Y-111053944D01*
X156987227Y-111052031D01*
X156980598Y-111048933D01*
X156973438Y-111047444D01*
X156973427Y-111047440D01*
X156909107Y-111034061D01*
X156904820Y-111033091D01*
X156839428Y-111017090D01*
X156839422Y-111017089D01*
X156833970Y-111015755D01*
X156828366Y-111015407D01*
X156828364Y-111015407D01*
X156821576Y-111014986D01*
X156818179Y-111014729D01*
X156814639Y-111014413D01*
X156807471Y-111012922D01*
X156800154Y-111013120D01*
X156787333Y-111013467D01*
X156740703Y-111014729D01*
X156736084Y-111014854D01*
X156732675Y-111014900D01*
X151686987Y-111014900D01*
X151668036Y-111013467D01*
X151654879Y-111011465D01*
X151654876Y-111011465D01*
X151647646Y-111010365D01*
X151640354Y-111010958D01*
X151640351Y-111010958D01*
X151596993Y-111014485D01*
X151586778Y-111014900D01*
X151578114Y-111014900D01*
X151574480Y-111015324D01*
X151574474Y-111015324D01*
X151564533Y-111016483D01*
X151548485Y-111018354D01*
X151544158Y-111018782D01*
X151514994Y-111021154D01*
X151478692Y-111024107D01*
X151478688Y-111024108D01*
X151471395Y-111024701D01*
X151464434Y-111026956D01*
X151458503Y-111028141D01*
X151452627Y-111029530D01*
X151445357Y-111030378D01*
X151376722Y-111055291D01*
X151372618Y-111056699D01*
X151358991Y-111061114D01*
X151310134Y-111076941D01*
X151310129Y-111076943D01*
X151303169Y-111079198D01*
X151296911Y-111082995D01*
X151291426Y-111085507D01*
X151286020Y-111088214D01*
X151279136Y-111090713D01*
X151218067Y-111130751D01*
X151214385Y-111133074D01*
X151205933Y-111138203D01*
X151151994Y-111170935D01*
X151147786Y-111174651D01*
X151147782Y-111174654D01*
X151142679Y-111179160D01*
X151140100Y-111181377D01*
X151137376Y-111183655D01*
X151131253Y-111187669D01*
X151126218Y-111192984D01*
X151082123Y-111239532D01*
X151079745Y-111241974D01*
X147105922Y-115215797D01*
X147091511Y-115228182D01*
X147074894Y-115240411D01*
X147070151Y-115245994D01*
X147041982Y-115279151D01*
X147035052Y-115286667D01*
X147028935Y-115292784D01*
X147026662Y-115295657D01*
X147026654Y-115295666D01*
X147010454Y-115316143D01*
X147007663Y-115319547D01*
X146965430Y-115369259D01*
X146960403Y-115375176D01*
X146957075Y-115381694D01*
X146953723Y-115386719D01*
X146950546Y-115391864D01*
X146946006Y-115397602D01*
X146942907Y-115404233D01*
X146915111Y-115463705D01*
X146913180Y-115467655D01*
X146890850Y-115511387D01*
X146879985Y-115532665D01*
X146878246Y-115539772D01*
X146876144Y-115545423D01*
X146874231Y-115551173D01*
X146871133Y-115557802D01*
X146869644Y-115564962D01*
X146869640Y-115564973D01*
X146856261Y-115629293D01*
X146855291Y-115633580D01*
X146839290Y-115698972D01*
X146839289Y-115698978D01*
X146837955Y-115704430D01*
X146837607Y-115710034D01*
X146837607Y-115710036D01*
X146837186Y-115716824D01*
X146836929Y-115720221D01*
X146836613Y-115723761D01*
X146835122Y-115730929D01*
X146835320Y-115738246D01*
X146837054Y-115802316D01*
X146837100Y-115805725D01*
X146837100Y-122646029D01*
X146817098Y-122714150D01*
X146800195Y-122735124D01*
X146394040Y-123141279D01*
X146331728Y-123175305D01*
X146260913Y-123170240D01*
X146204077Y-123127693D01*
X146179266Y-123061173D01*
X146195991Y-122988899D01*
X146246113Y-122902607D01*
X146251913Y-122889269D01*
X146297461Y-122738880D01*
X146299911Y-122726248D01*
X146305751Y-122660815D01*
X146306000Y-122655220D01*
X146306000Y-122624115D01*
X146301525Y-122608876D01*
X146300135Y-122607671D01*
X146292452Y-122606000D01*
X145620115Y-122606000D01*
X145604876Y-122610475D01*
X145603671Y-122611865D01*
X145602000Y-122619548D01*
X145602000Y-123316885D01*
X145606475Y-123332124D01*
X145607865Y-123333329D01*
X145614847Y-123334847D01*
X145619527Y-123334575D01*
X145735505Y-123321054D01*
X145749657Y-123317709D01*
X145896567Y-123264383D01*
X145909566Y-123257873D01*
X145953798Y-123228874D01*
X146021734Y-123208251D01*
X146090034Y-123227631D01*
X146137014Y-123280861D01*
X146147759Y-123351039D01*
X146118856Y-123415887D01*
X146111978Y-123423341D01*
X145895924Y-123639395D01*
X145833612Y-123673421D01*
X145806829Y-123676300D01*
X143184500Y-123676300D01*
X143116379Y-123656298D01*
X143069886Y-123602642D01*
X143058500Y-123550300D01*
X143058500Y-123370349D01*
X143078502Y-123302228D01*
X143132158Y-123255735D01*
X143202432Y-123245631D01*
X143247785Y-123261395D01*
X143255292Y-123265755D01*
X143278524Y-123279249D01*
X143442223Y-123328828D01*
X143448659Y-123329402D01*
X143448662Y-123329403D01*
X143514185Y-123335251D01*
X143514191Y-123335251D01*
X143516978Y-123335500D01*
X144065887Y-123335500D01*
X144154510Y-123325168D01*
X144185620Y-123321541D01*
X144185622Y-123321541D01*
X144192892Y-123320693D01*
X144199769Y-123318197D01*
X144199772Y-123318196D01*
X144346791Y-123264830D01*
X144353670Y-123262333D01*
X144436159Y-123208251D01*
X144490591Y-123172564D01*
X144490594Y-123172561D01*
X144496711Y-123168551D01*
X144496882Y-123168371D01*
X144559310Y-123141182D01*
X144629394Y-123152524D01*
X144661692Y-123174724D01*
X144675607Y-123187906D01*
X144687252Y-123196617D01*
X144822393Y-123275113D01*
X144835731Y-123280913D01*
X144986120Y-123326461D01*
X144998752Y-123328911D01*
X145064185Y-123334751D01*
X145069780Y-123335000D01*
X145075885Y-123335000D01*
X145091124Y-123330525D01*
X145092329Y-123329135D01*
X145094000Y-123321452D01*
X145094000Y-122224000D01*
X145114002Y-122155879D01*
X145167658Y-122109386D01*
X145220000Y-122098000D01*
X146287885Y-122098000D01*
X146303124Y-122093525D01*
X146304329Y-122092135D01*
X146306000Y-122084452D01*
X146306000Y-122062777D01*
X146305575Y-122055473D01*
X146292054Y-121939495D01*
X146288709Y-121925343D01*
X146235383Y-121778433D01*
X146228873Y-121765434D01*
X146143180Y-121634730D01*
X146133856Y-121623578D01*
X146020393Y-121516094D01*
X146008748Y-121507383D01*
X145873607Y-121428887D01*
X145860271Y-121423088D01*
X145825454Y-121412543D01*
X145766056Y-121373653D01*
X145737113Y-121308824D01*
X145738210Y-121268343D01*
X145761386Y-121146853D01*
X145761386Y-121146848D01*
X145762500Y-121141011D01*
X145762500Y-119390421D01*
X145754512Y-119327189D01*
X145747649Y-119272859D01*
X145747648Y-119272856D01*
X145746655Y-119264994D01*
X145743237Y-119256361D01*
X145688347Y-119117725D01*
X145688346Y-119117723D01*
X145685429Y-119110356D01*
X145667623Y-119085847D01*
X145592331Y-118982217D01*
X145587671Y-118975803D01*
X145459521Y-118869788D01*
X145437125Y-118859249D01*
X145408231Y-118845653D01*
X145309033Y-118798974D01*
X145301250Y-118797489D01*
X145301246Y-118797488D01*
X145170852Y-118772614D01*
X145170849Y-118772614D01*
X145165011Y-118771500D01*
X144764421Y-118771500D01*
X144705307Y-118778968D01*
X144646859Y-118786351D01*
X144646856Y-118786352D01*
X144638994Y-118787345D01*
X144631628Y-118790262D01*
X144631626Y-118790262D01*
X144491725Y-118845653D01*
X144491723Y-118845654D01*
X144484356Y-118848571D01*
X144477945Y-118853229D01*
X144477943Y-118853230D01*
X144392797Y-118915092D01*
X144325929Y-118938951D01*
X144256777Y-118922870D01*
X144238421Y-118910241D01*
X144195629Y-118874841D01*
X144189521Y-118869788D01*
X144167125Y-118859249D01*
X144138231Y-118845653D01*
X144039033Y-118798974D01*
X144031250Y-118797489D01*
X144031246Y-118797488D01*
X143900852Y-118772614D01*
X143900849Y-118772614D01*
X143895011Y-118771500D01*
X143494421Y-118771500D01*
X143385650Y-118785241D01*
X143315561Y-118773935D01*
X143262709Y-118726530D01*
X143243877Y-118658076D01*
X143265044Y-118590308D01*
X143280764Y-118571140D01*
X143431033Y-118420871D01*
X143439121Y-118413511D01*
X143445515Y-118409453D01*
X143491390Y-118360601D01*
X143494144Y-118357760D01*
X143514458Y-118337446D01*
X143517103Y-118334035D01*
X143524809Y-118325013D01*
X143528734Y-118320834D01*
X143555077Y-118292781D01*
X143558896Y-118285835D01*
X143564838Y-118275027D01*
X143575692Y-118258503D01*
X143583245Y-118248766D01*
X143583245Y-118248765D01*
X143588103Y-118242503D01*
X143605662Y-118201927D01*
X143610883Y-118191270D01*
X143613156Y-118187136D01*
X143632182Y-118152528D01*
X143635515Y-118139546D01*
X143637219Y-118132912D01*
X143643623Y-118114208D01*
X143648519Y-118102895D01*
X143648521Y-118102888D01*
X143651668Y-118095616D01*
X143655634Y-118070579D01*
X143658585Y-118051945D01*
X143660992Y-118040324D01*
X143670507Y-118003262D01*
X143670507Y-118003261D01*
X143671985Y-117997505D01*
X143672020Y-117996949D01*
X143672020Y-117977028D01*
X143673571Y-117957318D01*
X143675464Y-117945366D01*
X143675464Y-117945365D01*
X143676704Y-117937536D01*
X143672579Y-117893897D01*
X143672020Y-117882040D01*
X143672020Y-116914500D01*
X143692022Y-116846379D01*
X143745678Y-116799886D01*
X143798020Y-116788500D01*
X143873579Y-116788500D01*
X143932693Y-116781032D01*
X143991141Y-116773649D01*
X143991144Y-116773648D01*
X143999006Y-116772655D01*
X144006372Y-116769738D01*
X144006374Y-116769738D01*
X144146275Y-116714347D01*
X144146277Y-116714346D01*
X144153644Y-116711429D01*
X144178201Y-116693588D01*
X144245203Y-116644908D01*
X144312071Y-116621049D01*
X144381223Y-116637130D01*
X144399579Y-116649759D01*
X144433804Y-116678072D01*
X144448479Y-116690212D01*
X144598967Y-116761026D01*
X144606750Y-116762511D01*
X144606754Y-116762512D01*
X144737148Y-116787386D01*
X144737151Y-116787386D01*
X144742989Y-116788500D01*
X145143579Y-116788500D01*
X145202693Y-116781032D01*
X145261141Y-116773649D01*
X145261144Y-116773648D01*
X145269006Y-116772655D01*
X145276372Y-116769738D01*
X145276374Y-116769738D01*
X145416275Y-116714347D01*
X145416277Y-116714346D01*
X145423644Y-116711429D01*
X145448783Y-116693165D01*
X145551783Y-116618331D01*
X145558197Y-116613671D01*
X145664212Y-116485521D01*
X145735026Y-116335033D01*
X145736511Y-116327250D01*
X145736512Y-116327246D01*
X145761386Y-116196852D01*
X145761386Y-116196849D01*
X145762500Y-116191011D01*
X145762500Y-114440421D01*
X145747170Y-114319071D01*
X145758476Y-114248982D01*
X145805881Y-114196130D01*
X145857583Y-114178128D01*
X145862621Y-114177541D01*
X145862624Y-114177540D01*
X145869892Y-114176693D01*
X145876769Y-114174197D01*
X145876772Y-114174196D01*
X146023791Y-114120830D01*
X146030670Y-114118333D01*
X146149681Y-114040306D01*
X146167586Y-114028567D01*
X146167587Y-114028566D01*
X146173711Y-114024551D01*
X146178748Y-114019234D01*
X146180836Y-114017488D01*
X146245926Y-113989137D01*
X146320618Y-114002797D01*
X146455304Y-114074110D01*
X146621575Y-114115874D01*
X146627338Y-114116237D01*
X146627341Y-114116237D01*
X146629530Y-114116375D01*
X146629546Y-114116376D01*
X146631525Y-114116500D01*
X147302317Y-114116500D01*
X147431194Y-114100904D01*
X147591562Y-114040306D01*
X147611426Y-114026654D01*
X147726587Y-113947506D01*
X147726589Y-113947505D01*
X147732846Y-113943204D01*
X147745382Y-113929134D01*
X147841836Y-113820877D01*
X147841838Y-113820875D01*
X147846890Y-113815204D01*
X147850442Y-113808495D01*
X147850445Y-113808491D01*
X147923555Y-113670411D01*
X147923556Y-113670408D01*
X147927110Y-113663696D01*
X147968874Y-113497425D01*
X147969237Y-113491659D01*
X147969375Y-113489470D01*
X147969376Y-113489454D01*
X147969500Y-113487475D01*
X147969500Y-112966683D01*
X147953904Y-112837806D01*
X147893306Y-112677438D01*
X147880620Y-112658980D01*
X147800506Y-112542413D01*
X147800505Y-112542411D01*
X147796204Y-112536154D01*
X147732717Y-112479589D01*
X147695161Y-112419339D01*
X147696141Y-112348349D01*
X147733209Y-112291001D01*
X147737567Y-112287159D01*
X147841426Y-112170591D01*
X147850034Y-112158205D01*
X147923088Y-112020230D01*
X147928493Y-112006150D01*
X147966972Y-111852960D01*
X147968741Y-111841600D01*
X147968874Y-111839473D01*
X147969000Y-111835482D01*
X147969000Y-111830115D01*
X147964525Y-111814876D01*
X147963135Y-111813671D01*
X147955452Y-111812000D01*
X146491115Y-111812000D01*
X146475876Y-111816475D01*
X146474671Y-111817865D01*
X146470121Y-111838783D01*
X146436096Y-111901095D01*
X146373784Y-111935120D01*
X146347000Y-111938000D01*
X145459500Y-111938000D01*
X145391379Y-111917998D01*
X145344886Y-111864342D01*
X145333500Y-111812000D01*
X145333500Y-111556000D01*
X145353502Y-111487879D01*
X145407158Y-111441386D01*
X145459500Y-111430000D01*
X145944885Y-111430000D01*
X145960124Y-111425525D01*
X145961329Y-111424135D01*
X145965879Y-111403217D01*
X145999904Y-111340905D01*
X146062216Y-111306880D01*
X146089000Y-111304000D01*
X146713885Y-111304000D01*
X146729124Y-111299525D01*
X146730329Y-111298135D01*
X146732000Y-111290452D01*
X146732000Y-110427548D01*
X147240000Y-110427548D01*
X147240000Y-111285885D01*
X147244475Y-111301124D01*
X147245865Y-111302329D01*
X147253548Y-111304000D01*
X147949350Y-111304000D01*
X147963332Y-111299895D01*
X147965375Y-111286729D01*
X147954331Y-111195466D01*
X147950735Y-111180823D01*
X147895547Y-111034773D01*
X147888562Y-111021412D01*
X147827454Y-110932499D01*
X147805354Y-110865030D01*
X147823240Y-110796323D01*
X147837219Y-110777312D01*
X147841426Y-110772590D01*
X147850034Y-110760205D01*
X147923088Y-110622230D01*
X147928493Y-110608150D01*
X147966972Y-110454960D01*
X147968741Y-110443600D01*
X147968874Y-110441473D01*
X147969000Y-110437482D01*
X147969000Y-110432115D01*
X147964525Y-110416876D01*
X147963135Y-110415671D01*
X147955452Y-110414000D01*
X147258115Y-110414000D01*
X147242876Y-110418475D01*
X147241671Y-110419865D01*
X147240000Y-110427548D01*
X146732000Y-110427548D01*
X146732000Y-110032000D01*
X146752002Y-109963879D01*
X146805658Y-109917386D01*
X146858000Y-109906000D01*
X147949350Y-109906000D01*
X147963332Y-109901895D01*
X147965375Y-109888729D01*
X147954331Y-109797466D01*
X147950735Y-109782823D01*
X147895547Y-109636773D01*
X147888562Y-109623412D01*
X147800131Y-109494744D01*
X147790158Y-109483432D01*
X147732718Y-109432255D01*
X147695162Y-109372005D01*
X147696142Y-109301015D01*
X147731713Y-109245982D01*
X147732846Y-109245204D01*
X147741973Y-109234960D01*
X147841836Y-109122877D01*
X147841838Y-109122875D01*
X147846890Y-109117204D01*
X147850442Y-109110495D01*
X147850445Y-109110491D01*
X147923555Y-108972411D01*
X147923556Y-108972408D01*
X147927110Y-108965696D01*
X147968874Y-108799425D01*
X147969237Y-108793659D01*
X147969375Y-108791470D01*
X147969376Y-108791454D01*
X147969500Y-108789475D01*
X147969500Y-108268683D01*
X147953904Y-108139806D01*
X147893306Y-107979438D01*
X147888993Y-107973162D01*
X147888988Y-107973147D01*
X147885485Y-107966447D01*
X147886602Y-107965863D01*
X147866891Y-107905694D01*
X147884775Y-107836987D01*
X147901358Y-107815140D01*
X147994926Y-107716367D01*
X148003929Y-107704333D01*
X148060753Y-107661770D01*
X148131567Y-107656685D01*
X148193889Y-107690692D01*
X148210190Y-107710726D01*
X148236658Y-107751096D01*
X148248335Y-107768907D01*
X148250672Y-107772612D01*
X148261448Y-107790369D01*
X148285622Y-107830208D01*
X148285625Y-107830212D01*
X148288534Y-107835006D01*
X148292249Y-107839212D01*
X148296751Y-107844310D01*
X148298972Y-107846894D01*
X148301255Y-107849624D01*
X148305269Y-107855747D01*
X148310584Y-107860782D01*
X148357132Y-107904877D01*
X148359574Y-107907255D01*
X149450997Y-108998678D01*
X149463382Y-109013089D01*
X149475611Y-109029706D01*
X149481194Y-109034449D01*
X149514351Y-109062618D01*
X149521867Y-109069548D01*
X149527984Y-109075665D01*
X149530857Y-109077938D01*
X149530866Y-109077946D01*
X149551343Y-109094146D01*
X149554747Y-109096937D01*
X149604794Y-109139455D01*
X149610376Y-109144197D01*
X149616894Y-109147525D01*
X149621919Y-109150877D01*
X149627064Y-109154054D01*
X149632802Y-109158594D01*
X149639433Y-109161693D01*
X149698905Y-109189489D01*
X149702855Y-109191420D01*
X149761345Y-109221286D01*
X149761347Y-109221287D01*
X149767865Y-109224615D01*
X149774972Y-109226354D01*
X149780623Y-109228456D01*
X149786373Y-109230369D01*
X149793002Y-109233467D01*
X149800162Y-109234956D01*
X149800173Y-109234960D01*
X149864493Y-109248339D01*
X149868780Y-109249309D01*
X149934172Y-109265310D01*
X149934178Y-109265311D01*
X149939630Y-109266645D01*
X149945234Y-109266993D01*
X149945236Y-109266993D01*
X149952024Y-109267414D01*
X149955421Y-109267671D01*
X149958961Y-109267987D01*
X149966129Y-109269478D01*
X149973446Y-109269280D01*
X150023881Y-109267915D01*
X150037516Y-109267546D01*
X150040924Y-109267500D01*
X153016013Y-109267500D01*
X153034963Y-109268933D01*
X153048120Y-109270935D01*
X153048124Y-109270935D01*
X153055354Y-109272035D01*
X153062646Y-109271442D01*
X153062649Y-109271442D01*
X153106010Y-109267915D01*
X153116224Y-109267500D01*
X153124886Y-109267500D01*
X153128520Y-109267076D01*
X153128524Y-109267076D01*
X153154483Y-109264049D01*
X153158862Y-109263616D01*
X153167647Y-109262901D01*
X153231605Y-109257700D01*
X153238568Y-109255444D01*
X153244456Y-109254268D01*
X153250373Y-109252870D01*
X153257643Y-109252022D01*
X153326267Y-109227113D01*
X153330395Y-109225696D01*
X153392868Y-109205458D01*
X153392873Y-109205456D01*
X153399830Y-109203202D01*
X153406084Y-109199407D01*
X153411562Y-109196899D01*
X153416981Y-109194185D01*
X153423864Y-109191687D01*
X153484923Y-109151655D01*
X153488612Y-109149328D01*
X153512830Y-109134632D01*
X153546208Y-109114378D01*
X153546212Y-109114375D01*
X153551006Y-109111466D01*
X153560310Y-109103249D01*
X153562894Y-109101028D01*
X153565624Y-109098745D01*
X153571747Y-109094731D01*
X153587648Y-109077946D01*
X153620877Y-109042868D01*
X153623255Y-109040426D01*
X154079678Y-108584003D01*
X154094089Y-108571618D01*
X154110706Y-108559389D01*
X154143618Y-108520649D01*
X154150548Y-108513133D01*
X154156665Y-108507016D01*
X154158938Y-108504143D01*
X154158946Y-108504134D01*
X154175146Y-108483657D01*
X154177937Y-108480253D01*
X154220455Y-108430206D01*
X154220456Y-108430204D01*
X154225197Y-108424624D01*
X154228527Y-108418103D01*
X154231879Y-108413077D01*
X154235052Y-108407939D01*
X154239594Y-108402198D01*
X154270518Y-108336033D01*
X154272422Y-108332138D01*
X154305615Y-108267135D01*
X154307356Y-108260021D01*
X154309463Y-108254355D01*
X154311367Y-108248631D01*
X154314467Y-108241999D01*
X154329338Y-108170504D01*
X154330295Y-108166275D01*
X154347645Y-108095370D01*
X154348415Y-108082963D01*
X154348671Y-108079569D01*
X154348986Y-108076039D01*
X154350477Y-108068871D01*
X154348546Y-107997506D01*
X154348500Y-107994098D01*
X154348500Y-107923500D01*
X154368502Y-107855379D01*
X154422158Y-107808886D01*
X154474500Y-107797500D01*
X154480000Y-107797500D01*
X154553079Y-107792273D01*
X154637466Y-107767495D01*
X154684670Y-107753635D01*
X154684672Y-107753634D01*
X154693316Y-107751096D01*
X154747951Y-107715984D01*
X154808691Y-107676949D01*
X154808694Y-107676947D01*
X154816271Y-107672077D01*
X154833007Y-107652763D01*
X154906082Y-107568431D01*
X154906084Y-107568428D01*
X154911984Y-107561619D01*
X154932998Y-107515605D01*
X154968958Y-107436864D01*
X154968958Y-107436863D01*
X154972700Y-107428670D01*
X154973982Y-107419754D01*
X154992861Y-107288448D01*
X154992862Y-107288441D01*
X154993500Y-107284000D01*
X154993500Y-105284000D01*
X154988273Y-105210921D01*
X154965345Y-105132835D01*
X154949635Y-105079330D01*
X154949634Y-105079328D01*
X154947096Y-105070684D01*
X154876533Y-104960886D01*
X154872949Y-104955309D01*
X154872947Y-104955306D01*
X154868077Y-104947729D01*
X154812782Y-104899815D01*
X154764431Y-104857918D01*
X154764428Y-104857916D01*
X154757619Y-104852016D01*
X154624670Y-104791300D01*
X154615755Y-104790018D01*
X154615754Y-104790018D01*
X154484448Y-104771139D01*
X154484441Y-104771138D01*
X154480000Y-104770500D01*
X152700000Y-104770500D01*
X152626921Y-104775727D01*
X152573884Y-104791300D01*
X152495330Y-104814365D01*
X152495328Y-104814366D01*
X152486684Y-104816904D01*
X152437875Y-104848272D01*
X152388281Y-104880144D01*
X152320160Y-104900146D01*
X152252039Y-104880144D01*
X152237649Y-104869371D01*
X152224435Y-104857921D01*
X152224430Y-104857918D01*
X152217619Y-104852016D01*
X152084670Y-104791300D01*
X152075755Y-104790018D01*
X152075754Y-104790018D01*
X152051506Y-104786532D01*
X151998568Y-104778921D01*
X151933988Y-104749428D01*
X151895604Y-104689702D01*
X151890500Y-104654203D01*
X151890500Y-103016557D01*
X151910502Y-102948436D01*
X151964158Y-102901943D01*
X151980997Y-102895663D01*
X152037754Y-102878998D01*
X152086670Y-102864635D01*
X152086672Y-102864634D01*
X152095316Y-102862096D01*
X152208647Y-102789262D01*
X152276768Y-102769260D01*
X152344888Y-102789262D01*
X152359280Y-102800035D01*
X152364213Y-102804309D01*
X152390381Y-102826984D01*
X152398579Y-102830728D01*
X152470513Y-102863579D01*
X152523330Y-102887700D01*
X152532245Y-102888982D01*
X152532246Y-102888982D01*
X152663552Y-102907861D01*
X152663559Y-102907862D01*
X152668000Y-102908500D01*
X154168000Y-102908500D01*
X154241079Y-102903273D01*
X154319165Y-102880345D01*
X154372670Y-102864635D01*
X154372672Y-102864634D01*
X154381316Y-102862096D01*
X154476204Y-102801115D01*
X154496691Y-102787949D01*
X154496694Y-102787947D01*
X154504271Y-102783077D01*
X154544048Y-102737172D01*
X154594082Y-102679431D01*
X154594084Y-102679428D01*
X154599984Y-102672619D01*
X154660700Y-102539670D01*
X154661982Y-102530754D01*
X154680861Y-102399448D01*
X154680862Y-102399441D01*
X154681500Y-102395000D01*
X154681500Y-101245000D01*
X154677827Y-101199068D01*
X154675534Y-101170391D01*
X154675534Y-101170389D01*
X154674974Y-101163391D01*
X154666442Y-101136042D01*
X154662006Y-101080587D01*
X154680861Y-100949448D01*
X154680862Y-100949441D01*
X154681500Y-100945000D01*
X154681500Y-99945000D01*
X154676273Y-99871921D01*
X154647553Y-99774110D01*
X154637635Y-99740330D01*
X154637634Y-99740328D01*
X154635096Y-99731684D01*
X154599039Y-99675579D01*
X154560949Y-99616309D01*
X154560947Y-99616306D01*
X154556077Y-99608729D01*
X154512236Y-99570740D01*
X154452431Y-99518918D01*
X154452428Y-99518916D01*
X154445619Y-99513016D01*
X154312670Y-99452300D01*
X154284570Y-99448260D01*
X154219989Y-99418767D01*
X154181604Y-99359042D01*
X154176500Y-99323542D01*
X154176500Y-92599987D01*
X154177933Y-92581036D01*
X154179935Y-92567879D01*
X154179935Y-92567876D01*
X154181035Y-92560646D01*
X154179750Y-92544838D01*
X154176915Y-92509993D01*
X154176500Y-92499778D01*
X154176500Y-92491114D01*
X154173046Y-92461485D01*
X154172616Y-92457139D01*
X154171422Y-92442452D01*
X154166699Y-92384395D01*
X154164444Y-92377434D01*
X154163259Y-92371503D01*
X154161870Y-92365627D01*
X154161022Y-92358357D01*
X154136109Y-92289722D01*
X154134697Y-92285608D01*
X154114459Y-92223134D01*
X154114457Y-92223129D01*
X154112202Y-92216169D01*
X154108404Y-92209911D01*
X154105898Y-92204437D01*
X154103186Y-92199020D01*
X154100687Y-92192136D01*
X154060664Y-92131089D01*
X154058319Y-92127372D01*
X154023375Y-92069788D01*
X154023374Y-92069786D01*
X154020465Y-92064993D01*
X154012249Y-92055690D01*
X154010031Y-92053108D01*
X154007741Y-92050369D01*
X154003731Y-92044253D01*
X153951868Y-91995123D01*
X153949426Y-91992745D01*
X153705405Y-91748724D01*
X153671379Y-91686412D01*
X153668500Y-91659629D01*
X153668500Y-90743487D01*
X153669933Y-90724537D01*
X153671935Y-90711380D01*
X153671935Y-90711376D01*
X153673035Y-90704146D01*
X153668915Y-90653493D01*
X153668500Y-90643278D01*
X153668500Y-90634614D01*
X153665046Y-90604985D01*
X153664616Y-90600639D01*
X153664117Y-90594496D01*
X153658699Y-90527895D01*
X153656443Y-90520931D01*
X153655257Y-90514996D01*
X153653870Y-90509126D01*
X153653022Y-90501857D01*
X153628104Y-90433209D01*
X153626689Y-90429086D01*
X153606459Y-90366636D01*
X153606458Y-90366633D01*
X153604202Y-90359670D01*
X153600404Y-90353412D01*
X153597892Y-90347925D01*
X153595186Y-90342522D01*
X153592687Y-90335636D01*
X153552658Y-90274582D01*
X153550318Y-90270873D01*
X153515378Y-90213293D01*
X153515373Y-90213286D01*
X153512465Y-90208494D01*
X153508752Y-90204290D01*
X153508748Y-90204284D01*
X153504240Y-90199179D01*
X153502023Y-90196600D01*
X153499745Y-90193876D01*
X153495731Y-90187753D01*
X153443868Y-90138623D01*
X153441426Y-90136245D01*
X151469405Y-88164224D01*
X151435379Y-88101912D01*
X151432500Y-88075129D01*
X151432500Y-87888500D01*
X151452502Y-87820379D01*
X151506158Y-87773886D01*
X151558500Y-87762500D01*
X151763579Y-87762500D01*
X151822693Y-87755032D01*
X151881141Y-87747649D01*
X151881144Y-87747648D01*
X151889006Y-87746655D01*
X151896372Y-87743738D01*
X151896374Y-87743738D01*
X152036275Y-87688347D01*
X152036277Y-87688346D01*
X152043644Y-87685429D01*
X152100455Y-87644154D01*
X152171783Y-87592331D01*
X152178197Y-87587671D01*
X152284212Y-87459521D01*
X152291280Y-87444502D01*
X152331140Y-87359793D01*
X152355026Y-87309033D01*
X152356511Y-87301250D01*
X152356512Y-87301246D01*
X152381386Y-87170852D01*
X152381386Y-87170849D01*
X152382500Y-87165011D01*
X152382500Y-85889421D01*
X152367690Y-85772184D01*
X152367649Y-85771859D01*
X152367648Y-85771856D01*
X152366655Y-85763994D01*
X152305429Y-85609356D01*
X152231564Y-85507689D01*
X152207500Y-85433628D01*
X152207500Y-78789757D01*
X152227502Y-78721636D01*
X152262133Y-78685917D01*
X152380587Y-78604506D01*
X152380589Y-78604505D01*
X152386846Y-78600204D01*
X152392651Y-78593689D01*
X152495836Y-78477877D01*
X152495838Y-78477875D01*
X152500890Y-78472204D01*
X152504442Y-78465495D01*
X152504445Y-78465491D01*
X152577555Y-78327411D01*
X152577556Y-78327408D01*
X152581110Y-78320696D01*
X152622874Y-78154425D01*
X152623237Y-78148659D01*
X152623375Y-78146470D01*
X152623376Y-78146454D01*
X152623500Y-78144475D01*
X152623500Y-77623683D01*
X152607904Y-77494806D01*
X152547306Y-77334438D01*
X152502673Y-77269496D01*
X152454506Y-77199413D01*
X152454505Y-77199411D01*
X152450204Y-77193154D01*
X152387093Y-77136924D01*
X152349537Y-77076674D01*
X152350517Y-77005684D01*
X152386004Y-76950782D01*
X152386846Y-76950204D01*
X152448873Y-76880587D01*
X152495836Y-76827877D01*
X152495838Y-76827875D01*
X152500890Y-76822204D01*
X152504442Y-76815495D01*
X152504445Y-76815491D01*
X152577555Y-76677411D01*
X152577556Y-76677408D01*
X152581110Y-76670696D01*
X152622874Y-76504425D01*
X152623237Y-76498659D01*
X152623375Y-76496470D01*
X152623376Y-76496454D01*
X152623500Y-76494475D01*
X152623500Y-75973683D01*
X152607904Y-75844806D01*
X152547306Y-75684438D01*
X152450204Y-75543154D01*
X152322204Y-75429110D01*
X152323183Y-75428011D01*
X152283946Y-75379274D01*
X152275484Y-75322902D01*
X152275666Y-75322089D01*
X152274673Y-75290472D01*
X152273562Y-75255134D01*
X152273500Y-75251177D01*
X152273500Y-75222422D01*
X152272961Y-75218155D01*
X152272027Y-75206305D01*
X152270888Y-75170040D01*
X152270639Y-75162117D01*
X152264988Y-75142666D01*
X152260978Y-75123304D01*
X152259433Y-75111070D01*
X152259432Y-75111067D01*
X152258440Y-75103212D01*
X152255524Y-75095847D01*
X152255523Y-75095843D01*
X152242163Y-75062099D01*
X152238318Y-75050870D01*
X152225986Y-75008422D01*
X152221948Y-75001594D01*
X152215677Y-74990989D01*
X152206981Y-74973238D01*
X152202442Y-74961774D01*
X152202440Y-74961771D01*
X152199522Y-74954400D01*
X152173535Y-74918632D01*
X152167016Y-74908709D01*
X152144514Y-74870659D01*
X152144145Y-74870241D01*
X152130062Y-74856158D01*
X152117228Y-74841133D01*
X152105446Y-74824917D01*
X152071664Y-74796970D01*
X152062885Y-74788981D01*
X151720405Y-74446501D01*
X151686379Y-74384189D01*
X151683500Y-74357406D01*
X151683500Y-69243442D01*
X151703502Y-69175321D01*
X151756249Y-69129248D01*
X151812752Y-69102899D01*
X151817339Y-69100760D01*
X151821519Y-69097919D01*
X151821523Y-69097917D01*
X151908619Y-69038727D01*
X152023429Y-68960702D01*
X152027106Y-68957225D01*
X152027112Y-68957220D01*
X152200796Y-68792973D01*
X152204475Y-68789494D01*
X152355820Y-68591544D01*
X152473570Y-68371942D01*
X152554694Y-68136340D01*
X152597106Y-67890798D01*
X152598500Y-67860102D01*
X152598500Y-66167857D01*
X152594755Y-66121312D01*
X152583922Y-65986667D01*
X152583921Y-65986663D01*
X152583516Y-65981625D01*
X152524079Y-65739639D01*
X152426717Y-65510270D01*
X152424019Y-65505985D01*
X152424016Y-65505980D01*
X152347186Y-65383977D01*
X154581500Y-65383977D01*
X154581500Y-68582887D01*
X154596978Y-68715644D01*
X154657313Y-68881865D01*
X154754269Y-69029747D01*
X154882645Y-69151359D01*
X155035554Y-69240175D01*
X155204795Y-69291433D01*
X155211235Y-69292008D01*
X155211236Y-69292008D01*
X155281184Y-69298251D01*
X155281190Y-69298251D01*
X155283977Y-69298500D01*
X156962887Y-69298500D01*
X157058107Y-69287398D01*
X157088372Y-69283870D01*
X157088373Y-69283870D01*
X157095644Y-69283022D01*
X157102522Y-69280526D01*
X157102524Y-69280525D01*
X157254986Y-69225184D01*
X157261865Y-69222687D01*
X157409747Y-69125731D01*
X157531359Y-68997355D01*
X157620175Y-68844446D01*
X157671433Y-68675205D01*
X157678500Y-68596023D01*
X157678500Y-65397113D01*
X157663022Y-65264356D01*
X157602687Y-65098135D01*
X157505731Y-64950253D01*
X157377355Y-64828641D01*
X157224446Y-64739825D01*
X157055205Y-64688567D01*
X157048765Y-64687992D01*
X157048764Y-64687992D01*
X156978816Y-64681749D01*
X156978810Y-64681749D01*
X156976023Y-64681500D01*
X155297113Y-64681500D01*
X155201893Y-64692602D01*
X155171628Y-64696130D01*
X155171627Y-64696130D01*
X155164356Y-64696978D01*
X155157478Y-64699474D01*
X155157476Y-64699475D01*
X155046314Y-64739825D01*
X154998135Y-64757313D01*
X154850253Y-64854269D01*
X154728641Y-64982645D01*
X154639825Y-65135554D01*
X154588567Y-65304795D01*
X154581500Y-65383977D01*
X152347186Y-65383977D01*
X152345427Y-65381184D01*
X152293936Y-65299417D01*
X152129152Y-65112506D01*
X151936604Y-64954345D01*
X151773783Y-64859581D01*
X151725613Y-64831545D01*
X151725611Y-64831544D01*
X151721245Y-64829003D01*
X151583344Y-64776068D01*
X151493341Y-64741519D01*
X151493337Y-64741518D01*
X151488617Y-64739706D01*
X151483667Y-64738672D01*
X151483664Y-64738671D01*
X151249656Y-64689784D01*
X151249652Y-64689784D01*
X151244705Y-64688750D01*
X150995784Y-64677446D01*
X150990764Y-64678027D01*
X150990760Y-64678027D01*
X150753284Y-64705504D01*
X150753280Y-64705505D01*
X150748257Y-64706086D01*
X150743393Y-64707462D01*
X150743390Y-64707463D01*
X150633103Y-64738671D01*
X150508493Y-64773932D01*
X150282661Y-64879240D01*
X150278481Y-64882081D01*
X150278477Y-64882083D01*
X150191381Y-64941273D01*
X150076571Y-65019298D01*
X150072894Y-65022775D01*
X150072888Y-65022780D01*
X149946224Y-65142562D01*
X149895525Y-65190506D01*
X149744180Y-65388456D01*
X149626430Y-65608058D01*
X149545306Y-65843660D01*
X149502894Y-66089202D01*
X149501500Y-66119898D01*
X149501500Y-67812143D01*
X149501702Y-67814651D01*
X149501702Y-67814656D01*
X149507510Y-67886836D01*
X149516484Y-67998375D01*
X149575921Y-68240361D01*
X149673283Y-68469730D01*
X149675981Y-68474015D01*
X149675984Y-68474020D01*
X149741935Y-68578748D01*
X149806064Y-68680583D01*
X149970848Y-68867494D01*
X150163396Y-69025655D01*
X150299522Y-69104882D01*
X150353881Y-69136520D01*
X150402694Y-69188074D01*
X150416500Y-69245419D01*
X150416500Y-74593616D01*
X150415986Y-74604520D01*
X150414334Y-74611911D01*
X150414583Y-74619837D01*
X150414583Y-74619838D01*
X150416438Y-74678866D01*
X150416500Y-74682823D01*
X150416500Y-74711578D01*
X150416996Y-74715503D01*
X150416996Y-74715504D01*
X150417039Y-74715843D01*
X150417972Y-74727687D01*
X150419361Y-74771883D01*
X150424329Y-74788981D01*
X150425012Y-74791333D01*
X150429022Y-74810695D01*
X150431560Y-74830788D01*
X150434476Y-74838153D01*
X150434477Y-74838157D01*
X150447837Y-74871901D01*
X150451681Y-74883128D01*
X150464014Y-74925578D01*
X150468052Y-74932406D01*
X150474323Y-74943011D01*
X150483019Y-74960762D01*
X150483420Y-74961774D01*
X150490478Y-74979600D01*
X150495139Y-74986015D01*
X150516465Y-75015367D01*
X150522983Y-75025290D01*
X150545486Y-75063341D01*
X150545855Y-75063759D01*
X150559938Y-75077842D01*
X150572772Y-75092867D01*
X150584554Y-75109083D01*
X150613638Y-75133143D01*
X150618335Y-75137029D01*
X150627115Y-75145019D01*
X150841435Y-75359339D01*
X150875461Y-75421651D01*
X150870396Y-75492466D01*
X150846418Y-75532251D01*
X150779110Y-75607796D01*
X150775558Y-75614505D01*
X150775555Y-75614509D01*
X150702445Y-75752589D01*
X150698890Y-75759304D01*
X150657126Y-75925575D01*
X150656763Y-75931338D01*
X150656763Y-75931341D01*
X150656625Y-75933530D01*
X150656624Y-75933546D01*
X150656500Y-75935525D01*
X150656500Y-76456317D01*
X150672096Y-76585194D01*
X150732694Y-76745562D01*
X150736995Y-76751820D01*
X150789268Y-76827877D01*
X150829796Y-76886846D01*
X150835466Y-76891898D01*
X150835467Y-76891899D01*
X150892907Y-76943076D01*
X150930463Y-77003326D01*
X150929483Y-77074316D01*
X150893996Y-77129218D01*
X150893154Y-77129796D01*
X150888102Y-77135466D01*
X150888100Y-77135468D01*
X150840121Y-77189319D01*
X150779871Y-77226875D01*
X150746045Y-77231500D01*
X147187121Y-77231500D01*
X147119000Y-77211498D01*
X147072507Y-77157842D01*
X147062262Y-77114939D01*
X147061500Y-77115000D01*
X147055534Y-77040391D01*
X147055534Y-77040389D01*
X147054974Y-77033391D01*
X147046442Y-77006042D01*
X147042006Y-76950587D01*
X147060861Y-76819448D01*
X147060862Y-76819441D01*
X147061500Y-76815000D01*
X147061500Y-75815000D01*
X147056273Y-75741921D01*
X147015096Y-75601684D01*
X146977481Y-75543154D01*
X146940949Y-75486309D01*
X146940947Y-75486306D01*
X146936077Y-75478729D01*
X146904996Y-75451797D01*
X146832431Y-75388918D01*
X146832428Y-75388916D01*
X146825619Y-75383016D01*
X146692670Y-75322300D01*
X146683755Y-75321018D01*
X146683754Y-75321018D01*
X146654625Y-75316830D01*
X146548000Y-75301500D01*
X146547551Y-75301500D01*
X146481991Y-75277047D01*
X146439444Y-75220211D01*
X146431500Y-75176179D01*
X146431500Y-74934397D01*
X146451502Y-74866276D01*
X146486132Y-74830558D01*
X146538585Y-74794507D01*
X146544846Y-74790204D01*
X146549899Y-74784533D01*
X146653836Y-74667877D01*
X146653838Y-74667875D01*
X146658890Y-74662204D01*
X146662442Y-74655495D01*
X146662445Y-74655491D01*
X146735555Y-74517411D01*
X146735556Y-74517408D01*
X146739110Y-74510696D01*
X146780874Y-74344425D01*
X146781237Y-74338659D01*
X146781375Y-74336470D01*
X146781376Y-74336454D01*
X146781500Y-74334475D01*
X146781500Y-73813683D01*
X146765904Y-73684806D01*
X146705306Y-73524438D01*
X146652631Y-73447796D01*
X146612506Y-73389413D01*
X146612505Y-73389411D01*
X146608204Y-73383154D01*
X146544717Y-73326589D01*
X146507161Y-73266339D01*
X146508141Y-73195349D01*
X146545209Y-73138001D01*
X146549567Y-73134159D01*
X146653426Y-73017591D01*
X146662034Y-73005205D01*
X146735088Y-72867230D01*
X146740493Y-72853150D01*
X146778972Y-72699960D01*
X146780741Y-72688600D01*
X146780874Y-72686473D01*
X146781000Y-72682482D01*
X146781000Y-72677115D01*
X146776525Y-72661876D01*
X146775135Y-72660671D01*
X146767452Y-72659000D01*
X144834650Y-72659000D01*
X144820668Y-72663105D01*
X144818625Y-72676271D01*
X144829669Y-72767534D01*
X144833265Y-72782177D01*
X144888453Y-72928227D01*
X144895438Y-72941588D01*
X144983869Y-73070256D01*
X144993842Y-73081568D01*
X145051282Y-73132745D01*
X145088838Y-73192995D01*
X145087858Y-73263985D01*
X145052287Y-73319018D01*
X145051154Y-73319796D01*
X145046103Y-73325465D01*
X145046102Y-73325466D01*
X145041613Y-73330505D01*
X144937110Y-73447796D01*
X144933558Y-73454505D01*
X144933555Y-73454509D01*
X144860445Y-73592589D01*
X144856890Y-73599304D01*
X144815126Y-73765575D01*
X144814763Y-73771338D01*
X144814763Y-73771341D01*
X144814625Y-73773530D01*
X144814624Y-73773546D01*
X144814500Y-73775525D01*
X144814500Y-74296317D01*
X144830096Y-74425194D01*
X144890694Y-74585562D01*
X144894995Y-74591820D01*
X144977303Y-74711578D01*
X144987796Y-74726846D01*
X145110576Y-74836239D01*
X145115796Y-74840890D01*
X145115021Y-74841760D01*
X145154934Y-74891342D01*
X145164500Y-74939500D01*
X145164500Y-75175858D01*
X145144498Y-75243979D01*
X145090842Y-75290472D01*
X145047490Y-75301536D01*
X144974921Y-75306727D01*
X144921884Y-75322300D01*
X144843330Y-75345365D01*
X144843328Y-75345366D01*
X144834684Y-75347904D01*
X144827105Y-75352775D01*
X144719309Y-75422051D01*
X144719306Y-75422053D01*
X144711729Y-75426923D01*
X144705828Y-75433733D01*
X144621601Y-75530935D01*
X144561875Y-75569318D01*
X144490878Y-75569318D01*
X144431152Y-75530934D01*
X144420380Y-75516544D01*
X144400950Y-75486311D01*
X144400948Y-75486309D01*
X144396077Y-75478729D01*
X144364996Y-75451797D01*
X144292431Y-75388918D01*
X144292428Y-75388916D01*
X144285619Y-75383016D01*
X144152670Y-75322300D01*
X144143755Y-75321018D01*
X144143754Y-75321018D01*
X144114625Y-75316830D01*
X144008000Y-75301500D01*
X144007551Y-75301500D01*
X143941991Y-75277047D01*
X143899444Y-75220211D01*
X143891500Y-75176179D01*
X143891500Y-74934397D01*
X143911502Y-74866276D01*
X143946132Y-74830558D01*
X143998585Y-74794507D01*
X144004846Y-74790204D01*
X144009899Y-74784533D01*
X144113836Y-74667877D01*
X144113838Y-74667875D01*
X144118890Y-74662204D01*
X144122442Y-74655495D01*
X144122445Y-74655491D01*
X144195555Y-74517411D01*
X144195556Y-74517408D01*
X144199110Y-74510696D01*
X144240874Y-74344425D01*
X144241237Y-74338659D01*
X144241375Y-74336470D01*
X144241376Y-74336454D01*
X144241500Y-74334475D01*
X144241500Y-73813683D01*
X144225904Y-73684806D01*
X144165306Y-73524438D01*
X144112631Y-73447796D01*
X144072506Y-73389413D01*
X144072505Y-73389411D01*
X144068204Y-73383154D01*
X144005093Y-73326924D01*
X143967537Y-73266674D01*
X143968517Y-73195684D01*
X144004004Y-73140782D01*
X144004846Y-73140204D01*
X144017840Y-73125620D01*
X144113836Y-73017877D01*
X144113838Y-73017875D01*
X144118890Y-73012204D01*
X144122442Y-73005495D01*
X144122445Y-73005491D01*
X144195555Y-72867411D01*
X144195556Y-72867408D01*
X144199110Y-72860696D01*
X144240874Y-72694425D01*
X144241237Y-72688659D01*
X144241375Y-72686470D01*
X144241376Y-72686454D01*
X144241500Y-72684475D01*
X144241500Y-72163683D01*
X144237124Y-72127518D01*
X144815000Y-72127518D01*
X144815000Y-72132885D01*
X144819475Y-72148124D01*
X144820865Y-72149329D01*
X144828548Y-72151000D01*
X145525885Y-72151000D01*
X145541124Y-72146525D01*
X145542329Y-72145135D01*
X145544000Y-72137452D01*
X145544000Y-71515115D01*
X145542659Y-71510548D01*
X146052000Y-71510548D01*
X146052000Y-72132885D01*
X146056475Y-72148124D01*
X146057865Y-72149329D01*
X146065548Y-72151000D01*
X146761350Y-72151000D01*
X146775332Y-72146895D01*
X146777375Y-72133729D01*
X146766331Y-72042466D01*
X146762735Y-72027823D01*
X146707547Y-71881773D01*
X146700562Y-71868412D01*
X146612131Y-71739744D01*
X146602158Y-71728432D01*
X146485591Y-71624574D01*
X146473205Y-71615966D01*
X146335230Y-71542912D01*
X146321150Y-71537507D01*
X146167960Y-71499028D01*
X146156600Y-71497259D01*
X146154473Y-71497126D01*
X146150482Y-71497000D01*
X146070115Y-71497000D01*
X146054876Y-71501475D01*
X146053671Y-71502865D01*
X146052000Y-71510548D01*
X145542659Y-71510548D01*
X145539525Y-71499876D01*
X145538135Y-71498671D01*
X145530452Y-71497000D01*
X145485471Y-71497000D01*
X145477916Y-71497456D01*
X145360466Y-71511669D01*
X145345823Y-71515265D01*
X145199773Y-71570453D01*
X145186412Y-71577438D01*
X145057744Y-71665869D01*
X145046432Y-71675842D01*
X144942574Y-71792409D01*
X144933966Y-71804795D01*
X144860912Y-71942770D01*
X144855507Y-71956850D01*
X144817028Y-72110040D01*
X144815259Y-72121400D01*
X144815126Y-72123527D01*
X144815000Y-72127518D01*
X144237124Y-72127518D01*
X144225904Y-72034806D01*
X144165306Y-71874438D01*
X144068204Y-71733154D01*
X144003879Y-71675842D01*
X143945877Y-71624164D01*
X143945875Y-71624162D01*
X143940204Y-71619110D01*
X143933495Y-71615558D01*
X143933491Y-71615555D01*
X143795411Y-71542445D01*
X143795408Y-71542444D01*
X143788696Y-71538890D01*
X143781327Y-71537039D01*
X143740842Y-71526870D01*
X143682442Y-71493761D01*
X141685405Y-69496724D01*
X141651379Y-69434412D01*
X141648500Y-69407629D01*
X141648500Y-69173480D01*
X141668502Y-69105359D01*
X141703678Y-69069268D01*
X141863429Y-68960702D01*
X141867106Y-68957225D01*
X141867112Y-68957220D01*
X142040796Y-68792973D01*
X142044475Y-68789494D01*
X142195820Y-68591544D01*
X142313570Y-68371942D01*
X142394694Y-68136340D01*
X142437106Y-67890798D01*
X142438500Y-67860102D01*
X142438500Y-67257548D01*
X144422000Y-67257548D01*
X144422000Y-68579225D01*
X144422425Y-68586529D01*
X144436616Y-68708257D01*
X144439961Y-68722409D01*
X144495263Y-68874762D01*
X144501772Y-68887761D01*
X144590641Y-69023306D01*
X144599965Y-69034458D01*
X144717629Y-69145922D01*
X144729276Y-69154635D01*
X144869429Y-69236043D01*
X144882754Y-69241837D01*
X145038700Y-69289068D01*
X145051323Y-69291516D01*
X145121184Y-69297751D01*
X145126779Y-69298000D01*
X145697885Y-69298000D01*
X145713124Y-69293525D01*
X145714329Y-69292135D01*
X145716000Y-69284452D01*
X145716000Y-67262115D01*
X145714659Y-67257548D01*
X146224000Y-67257548D01*
X146224000Y-69279885D01*
X146228475Y-69295124D01*
X146229865Y-69296329D01*
X146237548Y-69298000D01*
X146799225Y-69298000D01*
X146806529Y-69297575D01*
X146928257Y-69283384D01*
X146942409Y-69280039D01*
X147094762Y-69224737D01*
X147107761Y-69218228D01*
X147243306Y-69129359D01*
X147254458Y-69120035D01*
X147365922Y-69002371D01*
X147374635Y-68990724D01*
X147456043Y-68850571D01*
X147461837Y-68837246D01*
X147509068Y-68681300D01*
X147511516Y-68668677D01*
X147517751Y-68598816D01*
X147518000Y-68593221D01*
X147518000Y-67262115D01*
X147513525Y-67246876D01*
X147512135Y-67245671D01*
X147504452Y-67244000D01*
X146242115Y-67244000D01*
X146226876Y-67248475D01*
X146225671Y-67249865D01*
X146224000Y-67257548D01*
X145714659Y-67257548D01*
X145711525Y-67246876D01*
X145710135Y-67245671D01*
X145702452Y-67244000D01*
X144440115Y-67244000D01*
X144424876Y-67248475D01*
X144423671Y-67249865D01*
X144422000Y-67257548D01*
X142438500Y-67257548D01*
X142438500Y-66167857D01*
X142434755Y-66121312D01*
X142423922Y-65986667D01*
X142423921Y-65986663D01*
X142423516Y-65981625D01*
X142364079Y-65739639D01*
X142266717Y-65510270D01*
X142264019Y-65505985D01*
X142264016Y-65505980D01*
X142188950Y-65386779D01*
X144422000Y-65386779D01*
X144422000Y-66717885D01*
X144426475Y-66733124D01*
X144427865Y-66734329D01*
X144435548Y-66736000D01*
X145697885Y-66736000D01*
X145713124Y-66731525D01*
X145714329Y-66730135D01*
X145716000Y-66722452D01*
X145716000Y-64700115D01*
X145714659Y-64695548D01*
X146224000Y-64695548D01*
X146224000Y-66717885D01*
X146228475Y-66733124D01*
X146229865Y-66734329D01*
X146237548Y-66736000D01*
X147499885Y-66736000D01*
X147515124Y-66731525D01*
X147516329Y-66730135D01*
X147518000Y-66722452D01*
X147518000Y-65400775D01*
X147517575Y-65393471D01*
X147503384Y-65271743D01*
X147500039Y-65257591D01*
X147444737Y-65105238D01*
X147438228Y-65092239D01*
X147349359Y-64956694D01*
X147340035Y-64945542D01*
X147222371Y-64834078D01*
X147210724Y-64825365D01*
X147070571Y-64743957D01*
X147057246Y-64738163D01*
X146901300Y-64690932D01*
X146888677Y-64688484D01*
X146818816Y-64682249D01*
X146813221Y-64682000D01*
X146242115Y-64682000D01*
X146226876Y-64686475D01*
X146225671Y-64687865D01*
X146224000Y-64695548D01*
X145714659Y-64695548D01*
X145711525Y-64684876D01*
X145710135Y-64683671D01*
X145702452Y-64682000D01*
X145140775Y-64682000D01*
X145133471Y-64682425D01*
X145011743Y-64696616D01*
X144997591Y-64699961D01*
X144845238Y-64755263D01*
X144832239Y-64761772D01*
X144696694Y-64850641D01*
X144685542Y-64859965D01*
X144574078Y-64977629D01*
X144565365Y-64989276D01*
X144483957Y-65129429D01*
X144478163Y-65142754D01*
X144430932Y-65298700D01*
X144428484Y-65311323D01*
X144422249Y-65381184D01*
X144422000Y-65386779D01*
X142188950Y-65386779D01*
X142185427Y-65381184D01*
X142133936Y-65299417D01*
X141969152Y-65112506D01*
X141776604Y-64954345D01*
X141613783Y-64859581D01*
X141565613Y-64831545D01*
X141565611Y-64831544D01*
X141561245Y-64829003D01*
X141423344Y-64776068D01*
X141333341Y-64741519D01*
X141333337Y-64741518D01*
X141328617Y-64739706D01*
X141323667Y-64738672D01*
X141323664Y-64738671D01*
X141089656Y-64689784D01*
X141089652Y-64689784D01*
X141084705Y-64688750D01*
X140835784Y-64677446D01*
X140830764Y-64678027D01*
X140830760Y-64678027D01*
X140593284Y-64705504D01*
X140593280Y-64705505D01*
X140588257Y-64706086D01*
X140583393Y-64707462D01*
X140583390Y-64707463D01*
X140473103Y-64738671D01*
X140348493Y-64773932D01*
X140122661Y-64879240D01*
X140118481Y-64882081D01*
X140118477Y-64882083D01*
X140031381Y-64941273D01*
X139916571Y-65019298D01*
X139912894Y-65022775D01*
X139912888Y-65022780D01*
X139786224Y-65142562D01*
X139735525Y-65190506D01*
X139584180Y-65388456D01*
X139466430Y-65608058D01*
X139385306Y-65843660D01*
X139342894Y-66089202D01*
X139341500Y-66119898D01*
X139341500Y-67812143D01*
X139341702Y-67814651D01*
X139341702Y-67814656D01*
X139347510Y-67886836D01*
X139356484Y-67998375D01*
X139415921Y-68240361D01*
X139513283Y-68469730D01*
X139515981Y-68474015D01*
X139515984Y-68474020D01*
X139581935Y-68578748D01*
X139646064Y-68680583D01*
X139810848Y-68867494D01*
X140003396Y-69025655D01*
X140068881Y-69063768D01*
X140117694Y-69115320D01*
X140131500Y-69172666D01*
X140131500Y-69407629D01*
X140111498Y-69475750D01*
X140094595Y-69496724D01*
X136971322Y-72619997D01*
X136956911Y-72632382D01*
X136940294Y-72644611D01*
X136935551Y-72650194D01*
X136907382Y-72683351D01*
X136900452Y-72690867D01*
X136894335Y-72696984D01*
X136892062Y-72699857D01*
X136892054Y-72699866D01*
X136875854Y-72720343D01*
X136873063Y-72723747D01*
X136830545Y-72773794D01*
X136825803Y-72779376D01*
X136822475Y-72785894D01*
X136819123Y-72790919D01*
X136815946Y-72796064D01*
X136811406Y-72801802D01*
X136808307Y-72808433D01*
X136780511Y-72867905D01*
X136778580Y-72871855D01*
X136749677Y-72928459D01*
X136745385Y-72936865D01*
X136743646Y-72943972D01*
X136741544Y-72949623D01*
X136739631Y-72955373D01*
X136736533Y-72962002D01*
X136735044Y-72969162D01*
X136735040Y-72969173D01*
X136721661Y-73033493D01*
X136720691Y-73037780D01*
X136704690Y-73103172D01*
X136704689Y-73103178D01*
X136703355Y-73108630D01*
X136703007Y-73114234D01*
X136703007Y-73114236D01*
X136702586Y-73121024D01*
X136702329Y-73124421D01*
X136702013Y-73127961D01*
X136700522Y-73135129D01*
X136700720Y-73142446D01*
X136702454Y-73206516D01*
X136702500Y-73209925D01*
X136702500Y-88864896D01*
X136702006Y-88875997D01*
X136700522Y-88883129D01*
X136700720Y-88890448D01*
X136700720Y-88890449D01*
X136702454Y-88954516D01*
X136702500Y-88957925D01*
X136702500Y-94967500D01*
X136682498Y-95035621D01*
X136628842Y-95082114D01*
X136576500Y-95093500D01*
X136561000Y-95093500D01*
X136487921Y-95098727D01*
X136434884Y-95114300D01*
X136356330Y-95137365D01*
X136356328Y-95137366D01*
X136347684Y-95139904D01*
X136309528Y-95164426D01*
X136232309Y-95214051D01*
X136232306Y-95214053D01*
X136224729Y-95218923D01*
X136218828Y-95225733D01*
X136134918Y-95322569D01*
X136134916Y-95322572D01*
X136129016Y-95329381D01*
X136125272Y-95337579D01*
X136101782Y-95389016D01*
X136068300Y-95462330D01*
X136067018Y-95471245D01*
X136067018Y-95471246D01*
X136048139Y-95602552D01*
X136048138Y-95602559D01*
X136047500Y-95607000D01*
X134368000Y-95607000D01*
X134368000Y-62051870D01*
X134369746Y-62030964D01*
X134372041Y-62017326D01*
X134372041Y-62017323D01*
X134372847Y-62012534D01*
X134372989Y-62000906D01*
X134373029Y-61998950D01*
X134373152Y-61994601D01*
X134376764Y-61865861D01*
X134377506Y-61855289D01*
X134407347Y-61590444D01*
X134409714Y-61576514D01*
X134468626Y-61318404D01*
X134472538Y-61304827D01*
X134559975Y-61054946D01*
X134565382Y-61041892D01*
X134680250Y-60803366D01*
X134687085Y-60790999D01*
X134827933Y-60566841D01*
X134836109Y-60555318D01*
X135001182Y-60348322D01*
X135010598Y-60337786D01*
X135197786Y-60150598D01*
X135208322Y-60141182D01*
X135415318Y-59976109D01*
X135426841Y-59967933D01*
X135650999Y-59827085D01*
X135663366Y-59820250D01*
X135901892Y-59705382D01*
X135914946Y-59699975D01*
X136164827Y-59612538D01*
X136178404Y-59608626D01*
X136436514Y-59549714D01*
X136450444Y-59547347D01*
X136622673Y-59527941D01*
X136715292Y-59517506D01*
X136725863Y-59516764D01*
X136845903Y-59513396D01*
X136845907Y-59513395D01*
X136860000Y-59513000D01*
X136860000Y-59511299D01*
X136880316Y-59508276D01*
X136907236Y-59508770D01*
X136914835Y-59508909D01*
X136914836Y-59508909D01*
X136923408Y-59509066D01*
X136926679Y-59508174D01*
X136929488Y-59508000D01*
X160135153Y-59508000D01*
X160160000Y-59510848D01*
G37*
%TD.AperFunction*%
%TA.AperFunction,Conductor*%
G36*
X147069012Y-87444502D02*
G01*
X147115505Y-87498158D01*
X147125609Y-87568432D01*
X147094967Y-87634318D01*
X147028610Y-87708796D01*
X147025058Y-87715505D01*
X147025055Y-87715509D01*
X146994146Y-87773886D01*
X146948390Y-87860304D01*
X146906626Y-88026575D01*
X146906263Y-88032338D01*
X146906263Y-88032341D01*
X146906125Y-88034530D01*
X146906124Y-88034546D01*
X146906000Y-88036525D01*
X146906000Y-88557317D01*
X146921596Y-88686194D01*
X146982194Y-88846562D01*
X147079296Y-88987846D01*
X147084966Y-88992898D01*
X147084967Y-88992899D01*
X147201623Y-89096836D01*
X147201625Y-89096838D01*
X147207296Y-89101890D01*
X147214005Y-89105442D01*
X147214009Y-89105445D01*
X147352089Y-89178555D01*
X147352092Y-89178556D01*
X147358804Y-89182110D01*
X147525075Y-89223874D01*
X147530838Y-89224237D01*
X147530841Y-89224237D01*
X147533030Y-89224375D01*
X147533046Y-89224376D01*
X147535025Y-89224500D01*
X148205817Y-89224500D01*
X148334694Y-89208904D01*
X148495062Y-89148306D01*
X148636346Y-89051204D01*
X148689379Y-88991681D01*
X148749629Y-88954125D01*
X148783455Y-88949500D01*
X149695690Y-88949500D01*
X149763811Y-88969502D01*
X149810304Y-89023158D01*
X149820695Y-89059700D01*
X149831345Y-89144006D01*
X149834262Y-89151372D01*
X149834262Y-89151374D01*
X149863166Y-89224375D01*
X149892571Y-89298644D01*
X149897229Y-89305055D01*
X149897230Y-89305057D01*
X149945831Y-89371950D01*
X149969690Y-89438818D01*
X149953609Y-89507969D01*
X149932990Y-89535106D01*
X149406487Y-90061609D01*
X149398399Y-90068969D01*
X149392005Y-90073027D01*
X149386580Y-90078804D01*
X149346131Y-90121878D01*
X149343376Y-90124720D01*
X149323062Y-90145034D01*
X149320417Y-90148445D01*
X149312713Y-90157465D01*
X149282443Y-90189699D01*
X149278626Y-90196643D01*
X149278624Y-90196645D01*
X149272682Y-90207453D01*
X149261828Y-90223977D01*
X149255626Y-90231973D01*
X149249417Y-90239977D01*
X149246270Y-90247248D01*
X149246270Y-90247249D01*
X149231859Y-90280551D01*
X149226638Y-90291207D01*
X149205338Y-90329952D01*
X149203366Y-90337635D01*
X149203365Y-90337636D01*
X149200301Y-90349568D01*
X149193897Y-90368272D01*
X149189001Y-90379585D01*
X149188999Y-90379592D01*
X149185852Y-90386864D01*
X149184613Y-90394688D01*
X149184612Y-90394691D01*
X149178935Y-90430535D01*
X149176528Y-90442156D01*
X149167636Y-90476793D01*
X149165535Y-90484975D01*
X149165500Y-90485531D01*
X149165500Y-90505452D01*
X149163949Y-90525162D01*
X149160816Y-90544944D01*
X149161562Y-90552836D01*
X149164941Y-90588582D01*
X149165500Y-90600440D01*
X149165500Y-90618315D01*
X149145498Y-90686436D01*
X149127151Y-90707793D01*
X149127154Y-90707796D01*
X149127010Y-90707957D01*
X149126995Y-90707974D01*
X149013110Y-90835796D01*
X149009558Y-90842505D01*
X149009555Y-90842509D01*
X148936445Y-90980589D01*
X148932890Y-90987304D01*
X148891126Y-91153575D01*
X148890763Y-91159338D01*
X148890763Y-91159341D01*
X148890625Y-91161530D01*
X148890624Y-91161546D01*
X148890500Y-91163525D01*
X148890500Y-91834317D01*
X148906096Y-91963194D01*
X148966694Y-92123562D01*
X148970995Y-92129820D01*
X149038828Y-92228517D01*
X149063796Y-92264846D01*
X149069466Y-92269898D01*
X149069467Y-92269899D01*
X149186123Y-92373836D01*
X149186125Y-92373838D01*
X149191796Y-92378890D01*
X149198505Y-92382442D01*
X149198509Y-92382445D01*
X149336589Y-92455555D01*
X149336592Y-92455556D01*
X149343304Y-92459110D01*
X149509575Y-92500874D01*
X149515338Y-92501237D01*
X149515341Y-92501237D01*
X149517530Y-92501375D01*
X149517546Y-92501376D01*
X149519525Y-92501500D01*
X150040317Y-92501500D01*
X150169194Y-92485904D01*
X150329562Y-92425306D01*
X150407846Y-92371503D01*
X150464587Y-92332506D01*
X150464589Y-92332505D01*
X150470846Y-92328204D01*
X150480046Y-92317879D01*
X150527076Y-92265093D01*
X150587326Y-92227537D01*
X150658316Y-92228517D01*
X150713218Y-92264004D01*
X150713796Y-92264846D01*
X150719466Y-92269898D01*
X150719468Y-92269900D01*
X150773319Y-92317879D01*
X150810875Y-92378129D01*
X150815500Y-92411955D01*
X150815500Y-92518616D01*
X150814986Y-92529520D01*
X150813334Y-92536911D01*
X150813583Y-92544837D01*
X150813583Y-92544838D01*
X150815438Y-92603866D01*
X150815500Y-92607823D01*
X150815500Y-92636578D01*
X150815996Y-92640503D01*
X150815996Y-92640504D01*
X150816039Y-92640843D01*
X150816972Y-92652687D01*
X150818361Y-92696883D01*
X150823085Y-92713143D01*
X150824012Y-92716333D01*
X150828022Y-92735695D01*
X150830560Y-92755788D01*
X150833476Y-92763153D01*
X150833477Y-92763157D01*
X150846837Y-92796901D01*
X150850681Y-92808128D01*
X150863014Y-92850578D01*
X150867052Y-92857406D01*
X150873323Y-92868011D01*
X150882019Y-92885762D01*
X150886558Y-92897226D01*
X150889478Y-92904600D01*
X150894139Y-92911015D01*
X150915465Y-92940367D01*
X150921980Y-92950285D01*
X150922950Y-92951925D01*
X150940500Y-93016069D01*
X150940500Y-93563387D01*
X150920498Y-93631508D01*
X150911585Y-93643702D01*
X150863788Y-93701479D01*
X150792974Y-93851967D01*
X150791489Y-93859750D01*
X150791488Y-93859754D01*
X150786720Y-93884751D01*
X150765500Y-93995989D01*
X150765500Y-95147500D01*
X150745498Y-95215621D01*
X150691842Y-95262114D01*
X150639500Y-95273500D01*
X150608000Y-95273500D01*
X150539879Y-95253498D01*
X150493386Y-95199842D01*
X150482000Y-95147500D01*
X150482000Y-94916615D01*
X150477525Y-94901376D01*
X150476135Y-94900171D01*
X150468452Y-94898500D01*
X149946115Y-94898500D01*
X149930876Y-94902975D01*
X149929671Y-94904365D01*
X149928000Y-94912048D01*
X149928000Y-95519333D01*
X149911684Y-95575489D01*
X149913788Y-95576479D01*
X149842974Y-95726967D01*
X149841489Y-95734750D01*
X149841488Y-95734754D01*
X149817754Y-95859173D01*
X149815500Y-95870989D01*
X149815500Y-97146579D01*
X149831345Y-97272006D01*
X149834262Y-97279372D01*
X149834262Y-97279374D01*
X149856652Y-97335924D01*
X149865500Y-97382308D01*
X149865500Y-97802013D01*
X149864067Y-97820963D01*
X149860965Y-97841354D01*
X149861558Y-97848646D01*
X149861558Y-97848649D01*
X149865085Y-97892010D01*
X149865500Y-97902224D01*
X149865500Y-97910886D01*
X149865924Y-97914520D01*
X149865924Y-97914524D01*
X149868951Y-97940483D01*
X149869384Y-97944862D01*
X149875300Y-98017605D01*
X149877556Y-98024568D01*
X149878732Y-98030456D01*
X149880130Y-98036373D01*
X149880978Y-98043643D01*
X149905887Y-98112267D01*
X149907304Y-98116395D01*
X149927542Y-98178868D01*
X149927544Y-98178873D01*
X149929798Y-98185830D01*
X149933593Y-98192084D01*
X149936101Y-98197562D01*
X149938815Y-98202981D01*
X149941313Y-98209864D01*
X149974095Y-98259864D01*
X149981335Y-98270907D01*
X149983682Y-98274627D01*
X150018622Y-98332208D01*
X150018625Y-98332212D01*
X150021534Y-98337006D01*
X150025249Y-98341212D01*
X150029751Y-98346310D01*
X150031972Y-98348894D01*
X150034255Y-98351624D01*
X150038269Y-98357747D01*
X150043584Y-98362782D01*
X150090132Y-98406877D01*
X150092574Y-98409255D01*
X150336595Y-98653276D01*
X150370621Y-98715588D01*
X150373500Y-98742371D01*
X150373500Y-99323443D01*
X150353498Y-99391564D01*
X150299842Y-99438057D01*
X150283003Y-99444337D01*
X150249631Y-99454136D01*
X150177330Y-99475365D01*
X150177328Y-99475366D01*
X150168684Y-99477904D01*
X150161105Y-99482775D01*
X150053309Y-99552051D01*
X150053306Y-99552053D01*
X150045729Y-99556923D01*
X150039828Y-99563733D01*
X149955918Y-99660569D01*
X149955916Y-99660572D01*
X149950016Y-99667381D01*
X149889300Y-99800330D01*
X149888018Y-99809245D01*
X149888018Y-99809246D01*
X149869139Y-99940552D01*
X149869138Y-99940559D01*
X149868500Y-99945000D01*
X149868500Y-100945000D01*
X149868624Y-100946962D01*
X149868624Y-100946970D01*
X149869777Y-100965252D01*
X149872570Y-101009528D01*
X149885155Y-101055214D01*
X149888398Y-101106605D01*
X149868500Y-101245000D01*
X149868500Y-101404924D01*
X149848498Y-101473045D01*
X149794842Y-101519538D01*
X149724568Y-101529642D01*
X149659988Y-101500148D01*
X149624061Y-101447916D01*
X149623077Y-101445204D01*
X149609113Y-101406733D01*
X149607696Y-101402605D01*
X149587458Y-101340132D01*
X149587456Y-101340127D01*
X149585202Y-101333170D01*
X149581407Y-101326916D01*
X149578899Y-101321438D01*
X149576185Y-101316019D01*
X149573687Y-101309136D01*
X149533655Y-101248077D01*
X149531318Y-101244373D01*
X149529002Y-101240555D01*
X149506783Y-101203940D01*
X149496378Y-101186792D01*
X149496375Y-101186788D01*
X149493466Y-101181994D01*
X149485249Y-101172690D01*
X149483028Y-101170106D01*
X149480745Y-101167376D01*
X149476731Y-101161253D01*
X149470876Y-101155706D01*
X149424868Y-101112123D01*
X149422426Y-101109745D01*
X148458003Y-100145322D01*
X148445615Y-100130908D01*
X148437729Y-100120192D01*
X148433389Y-100114294D01*
X148394650Y-100081382D01*
X148387133Y-100074452D01*
X148381016Y-100068335D01*
X148378143Y-100066062D01*
X148378134Y-100066054D01*
X148357657Y-100049854D01*
X148354253Y-100047063D01*
X148304206Y-100004545D01*
X148304204Y-100004544D01*
X148298624Y-99999803D01*
X148292106Y-99996475D01*
X148287081Y-99993123D01*
X148281936Y-99989946D01*
X148276198Y-99985406D01*
X148248989Y-99972689D01*
X148210095Y-99954511D01*
X148206145Y-99952580D01*
X148147655Y-99922714D01*
X148147653Y-99922713D01*
X148141135Y-99919385D01*
X148134028Y-99917646D01*
X148128377Y-99915544D01*
X148122628Y-99913632D01*
X148115998Y-99910533D01*
X148080273Y-99903102D01*
X148022114Y-99873819D01*
X147930436Y-99792136D01*
X147915877Y-99779164D01*
X147915875Y-99779162D01*
X147910204Y-99774110D01*
X147903495Y-99770558D01*
X147903491Y-99770555D01*
X147765411Y-99697445D01*
X147765408Y-99697444D01*
X147758696Y-99693890D01*
X147592425Y-99652126D01*
X147586662Y-99651763D01*
X147586659Y-99651763D01*
X147584470Y-99651625D01*
X147584454Y-99651624D01*
X147582475Y-99651500D01*
X147061683Y-99651500D01*
X146932806Y-99667096D01*
X146772438Y-99727694D01*
X146766180Y-99731995D01*
X146754053Y-99740330D01*
X146631154Y-99824796D01*
X146626103Y-99830465D01*
X146626101Y-99830467D01*
X146574924Y-99887907D01*
X146514674Y-99925463D01*
X146443684Y-99924483D01*
X146388782Y-99888996D01*
X146388204Y-99888154D01*
X146382532Y-99883100D01*
X146265877Y-99779164D01*
X146265875Y-99779162D01*
X146260204Y-99774110D01*
X146253495Y-99770558D01*
X146253491Y-99770555D01*
X146115411Y-99697445D01*
X146115408Y-99697444D01*
X146108696Y-99693890D01*
X145942425Y-99652126D01*
X145936662Y-99651763D01*
X145936659Y-99651763D01*
X145934470Y-99651625D01*
X145934454Y-99651624D01*
X145932475Y-99651500D01*
X145411683Y-99651500D01*
X145282806Y-99667096D01*
X145122438Y-99727694D01*
X145116180Y-99731995D01*
X145104053Y-99740330D01*
X144981154Y-99824796D01*
X144972667Y-99834322D01*
X144912417Y-99871875D01*
X144878593Y-99876500D01*
X143161371Y-99876500D01*
X143093250Y-99856498D01*
X143072276Y-99839595D01*
X139600003Y-96367322D01*
X139587615Y-96352908D01*
X139579729Y-96342192D01*
X139575389Y-96336294D01*
X139536650Y-96303382D01*
X139529133Y-96296452D01*
X139523016Y-96290335D01*
X139520143Y-96288062D01*
X139520134Y-96288054D01*
X139499657Y-96271854D01*
X139496253Y-96269063D01*
X139446206Y-96226545D01*
X139446204Y-96226544D01*
X139440624Y-96221803D01*
X139434106Y-96218475D01*
X139429081Y-96215123D01*
X139423936Y-96211946D01*
X139418198Y-96207406D01*
X139390989Y-96194689D01*
X139352095Y-96176511D01*
X139348145Y-96174580D01*
X139289655Y-96144714D01*
X139289653Y-96144713D01*
X139283135Y-96141385D01*
X139276028Y-96139646D01*
X139270377Y-96137544D01*
X139264627Y-96135631D01*
X139257998Y-96132533D01*
X139250838Y-96131044D01*
X139250827Y-96131040D01*
X139186507Y-96117661D01*
X139182220Y-96116691D01*
X139116828Y-96100690D01*
X139116822Y-96100689D01*
X139111370Y-96099355D01*
X139105766Y-96099007D01*
X139105764Y-96099007D01*
X139098976Y-96098586D01*
X139095579Y-96098329D01*
X139092039Y-96098013D01*
X139084871Y-96096522D01*
X139077554Y-96096720D01*
X139029461Y-96098022D01*
X139018103Y-96098329D01*
X139013484Y-96098454D01*
X139010075Y-96098500D01*
X139000500Y-96098500D01*
X138932379Y-96078498D01*
X138885886Y-96024842D01*
X138874500Y-95972500D01*
X138874500Y-95607000D01*
X138869273Y-95533921D01*
X138844141Y-95448329D01*
X138830635Y-95402330D01*
X138830634Y-95402328D01*
X138828096Y-95393684D01*
X138759576Y-95287065D01*
X138753949Y-95278309D01*
X138753947Y-95278306D01*
X138749077Y-95270729D01*
X138739135Y-95262114D01*
X138645431Y-95180918D01*
X138645428Y-95180916D01*
X138638619Y-95175016D01*
X138505670Y-95114300D01*
X138496755Y-95113018D01*
X138496754Y-95113018D01*
X138365448Y-95094139D01*
X138365441Y-95094138D01*
X138361000Y-95093500D01*
X138345500Y-95093500D01*
X138277379Y-95073498D01*
X138230886Y-95019842D01*
X138219500Y-94967500D01*
X138219500Y-94912048D01*
X148866000Y-94912048D01*
X148866000Y-95267621D01*
X148866497Y-95275511D01*
X148880835Y-95389016D01*
X148884746Y-95404249D01*
X148940091Y-95544034D01*
X148947668Y-95557816D01*
X149036034Y-95679441D01*
X149046802Y-95690908D01*
X149162639Y-95786736D01*
X149175921Y-95795165D01*
X149311945Y-95859173D01*
X149326913Y-95864036D01*
X149402206Y-95878400D01*
X149415245Y-95877129D01*
X149420000Y-95862207D01*
X149420000Y-94916615D01*
X149415525Y-94901376D01*
X149414135Y-94900171D01*
X149406452Y-94898500D01*
X148884115Y-94898500D01*
X148868876Y-94902975D01*
X148867671Y-94904365D01*
X148866000Y-94912048D01*
X138219500Y-94912048D01*
X138219500Y-94001961D01*
X148866000Y-94001961D01*
X148866000Y-94372385D01*
X148870475Y-94387624D01*
X148871865Y-94388829D01*
X148879548Y-94390500D01*
X149401885Y-94390500D01*
X149417124Y-94386025D01*
X149418329Y-94384635D01*
X149420000Y-94376952D01*
X149420000Y-93426793D01*
X149928000Y-93426793D01*
X149928000Y-94372385D01*
X149932475Y-94387624D01*
X149933865Y-94388829D01*
X149941548Y-94390500D01*
X150463885Y-94390500D01*
X150479124Y-94386025D01*
X150480329Y-94384635D01*
X150482000Y-94376952D01*
X150482000Y-94021379D01*
X150481503Y-94013489D01*
X150467165Y-93899984D01*
X150463254Y-93884751D01*
X150407909Y-93744966D01*
X150400332Y-93731184D01*
X150311966Y-93609559D01*
X150301198Y-93598092D01*
X150185361Y-93502264D01*
X150172079Y-93493835D01*
X150036055Y-93429827D01*
X150021087Y-93424964D01*
X149945794Y-93410600D01*
X149932755Y-93411871D01*
X149928000Y-93426793D01*
X149420000Y-93426793D01*
X149420000Y-93425253D01*
X149415925Y-93411376D01*
X149402574Y-93409339D01*
X149366984Y-93413835D01*
X149351751Y-93417746D01*
X149211966Y-93473091D01*
X149198184Y-93480668D01*
X149076559Y-93569034D01*
X149065092Y-93579802D01*
X148969264Y-93695639D01*
X148960835Y-93708921D01*
X148896827Y-93844945D01*
X148891964Y-93859913D01*
X148867114Y-93990176D01*
X148866000Y-94001961D01*
X138219500Y-94001961D01*
X138219500Y-89317371D01*
X138239502Y-89249250D01*
X138256405Y-89228276D01*
X140023276Y-87461405D01*
X140085588Y-87427379D01*
X140112371Y-87424500D01*
X147000891Y-87424500D01*
X147069012Y-87444502D01*
G37*
%TD.AperFunction*%
%TA.AperFunction,Conductor*%
G36*
X140934032Y-70906815D02*
G01*
X140979095Y-70935776D01*
X142237595Y-72194276D01*
X142271621Y-72256588D01*
X142274500Y-72283371D01*
X142274500Y-72646317D01*
X142290096Y-72775194D01*
X142350694Y-72935562D01*
X142354995Y-72941820D01*
X142420947Y-73037780D01*
X142447796Y-73076846D01*
X142453466Y-73081898D01*
X142453467Y-73081899D01*
X142510907Y-73133076D01*
X142548463Y-73193326D01*
X142547483Y-73264316D01*
X142511996Y-73319218D01*
X142511154Y-73319796D01*
X142506102Y-73325466D01*
X142506100Y-73325468D01*
X142501613Y-73330505D01*
X142397110Y-73447796D01*
X142393558Y-73454505D01*
X142393555Y-73454509D01*
X142320445Y-73592589D01*
X142316890Y-73599304D01*
X142275126Y-73765575D01*
X142274763Y-73771338D01*
X142274763Y-73771341D01*
X142274625Y-73773530D01*
X142274624Y-73773546D01*
X142274500Y-73775525D01*
X142274500Y-74296317D01*
X142290096Y-74425194D01*
X142350694Y-74585562D01*
X142354995Y-74591820D01*
X142437303Y-74711578D01*
X142447796Y-74726846D01*
X142570576Y-74836239D01*
X142575796Y-74840890D01*
X142575021Y-74841760D01*
X142614934Y-74891342D01*
X142624500Y-74939500D01*
X142624500Y-75175858D01*
X142604498Y-75243979D01*
X142550842Y-75290472D01*
X142507490Y-75301536D01*
X142434921Y-75306727D01*
X142381884Y-75322300D01*
X142303330Y-75345365D01*
X142303328Y-75345366D01*
X142294684Y-75347904D01*
X142287105Y-75352775D01*
X142179309Y-75422051D01*
X142179306Y-75422053D01*
X142171729Y-75426923D01*
X142165828Y-75433733D01*
X142081918Y-75530569D01*
X142081916Y-75530572D01*
X142076016Y-75537381D01*
X142015300Y-75670330D01*
X142014018Y-75679245D01*
X142014018Y-75679246D01*
X141995139Y-75810552D01*
X141995138Y-75810559D01*
X141994500Y-75815000D01*
X141994500Y-76965000D01*
X141994701Y-76967513D01*
X141994701Y-76967514D01*
X142000310Y-77037651D01*
X142001026Y-77046609D01*
X142009558Y-77073956D01*
X142013994Y-77129413D01*
X141995139Y-77260552D01*
X141995138Y-77260559D01*
X141994500Y-77265000D01*
X141994500Y-78265000D01*
X141999727Y-78338079D01*
X142040904Y-78478316D01*
X142045775Y-78485895D01*
X142115051Y-78593691D01*
X142115053Y-78593694D01*
X142119923Y-78601271D01*
X142126733Y-78607172D01*
X142223569Y-78691082D01*
X142223572Y-78691084D01*
X142230381Y-78696984D01*
X142363330Y-78757700D01*
X142372245Y-78758982D01*
X142372246Y-78758982D01*
X142503552Y-78777861D01*
X142503559Y-78777862D01*
X142508000Y-78778500D01*
X144008000Y-78778500D01*
X144081079Y-78773273D01*
X144159165Y-78750345D01*
X144212670Y-78734635D01*
X144212672Y-78734634D01*
X144221316Y-78732096D01*
X144285135Y-78691082D01*
X144336691Y-78657949D01*
X144336694Y-78657947D01*
X144344271Y-78653077D01*
X144384048Y-78607172D01*
X144434399Y-78549065D01*
X144494125Y-78510682D01*
X144565122Y-78510682D01*
X144624848Y-78549066D01*
X144635620Y-78563456D01*
X144655050Y-78593689D01*
X144659923Y-78601271D01*
X144666733Y-78607172D01*
X144763569Y-78691082D01*
X144763572Y-78691084D01*
X144770381Y-78696984D01*
X144903330Y-78757700D01*
X144912245Y-78758982D01*
X144912246Y-78758982D01*
X145043552Y-78777861D01*
X145043559Y-78777862D01*
X145048000Y-78778500D01*
X146548000Y-78778500D01*
X146621079Y-78773273D01*
X146699165Y-78750345D01*
X146752670Y-78734635D01*
X146752672Y-78734634D01*
X146761316Y-78732096D01*
X146825135Y-78691082D01*
X146876691Y-78657949D01*
X146876694Y-78657947D01*
X146884271Y-78653077D01*
X146979984Y-78542619D01*
X146982743Y-78545009D01*
X147023251Y-78509896D01*
X147075614Y-78498500D01*
X150740315Y-78498500D01*
X150808436Y-78518502D01*
X150829793Y-78536849D01*
X150829796Y-78536846D01*
X150829957Y-78536990D01*
X150829974Y-78537005D01*
X150835465Y-78541897D01*
X150835466Y-78541898D01*
X150898319Y-78597898D01*
X150935875Y-78658148D01*
X150940500Y-78691974D01*
X150940500Y-85435387D01*
X150920498Y-85503508D01*
X150911585Y-85515702D01*
X150863788Y-85573479D01*
X150792974Y-85723967D01*
X150791489Y-85731750D01*
X150791488Y-85731754D01*
X150766614Y-85862148D01*
X150765500Y-85867989D01*
X150765500Y-87019500D01*
X150745498Y-87087621D01*
X150691842Y-87134114D01*
X150639500Y-87145500D01*
X150608000Y-87145500D01*
X150539879Y-87125498D01*
X150493386Y-87071842D01*
X150482000Y-87019500D01*
X150482000Y-86788615D01*
X150477525Y-86773376D01*
X150476135Y-86772171D01*
X150468452Y-86770500D01*
X149546000Y-86770500D01*
X149477879Y-86750498D01*
X149431386Y-86696842D01*
X149420000Y-86644500D01*
X149420000Y-85298793D01*
X149928000Y-85298793D01*
X149928000Y-86244385D01*
X149932475Y-86259624D01*
X149933865Y-86260829D01*
X149941548Y-86262500D01*
X150463885Y-86262500D01*
X150479124Y-86258025D01*
X150480329Y-86256635D01*
X150482000Y-86248952D01*
X150482000Y-85893379D01*
X150481503Y-85885489D01*
X150467165Y-85771984D01*
X150463254Y-85756751D01*
X150407909Y-85616966D01*
X150400332Y-85603184D01*
X150311966Y-85481559D01*
X150301198Y-85470092D01*
X150185361Y-85374264D01*
X150172079Y-85365835D01*
X150036055Y-85301827D01*
X150021087Y-85296964D01*
X149945794Y-85282600D01*
X149932755Y-85283871D01*
X149928000Y-85298793D01*
X149420000Y-85298793D01*
X149420000Y-85297253D01*
X149415925Y-85283376D01*
X149402574Y-85281339D01*
X149366984Y-85285835D01*
X149351751Y-85289746D01*
X149211966Y-85345091D01*
X149198184Y-85352668D01*
X149076559Y-85441034D01*
X149065092Y-85451802D01*
X148969264Y-85567639D01*
X148960835Y-85580921D01*
X148896827Y-85716945D01*
X148891964Y-85731913D01*
X148867114Y-85862178D01*
X148866027Y-85873677D01*
X148839705Y-85939614D01*
X148781913Y-85980852D01*
X148711000Y-85984299D01*
X148656768Y-85955900D01*
X148571704Y-85880110D01*
X148564995Y-85876558D01*
X148564991Y-85876555D01*
X148426911Y-85803445D01*
X148426908Y-85803444D01*
X148420196Y-85799890D01*
X148253925Y-85758126D01*
X148248162Y-85757763D01*
X148248159Y-85757763D01*
X148245970Y-85757625D01*
X148245954Y-85757624D01*
X148243975Y-85757500D01*
X147573183Y-85757500D01*
X147444306Y-85773096D01*
X147283938Y-85833694D01*
X147277680Y-85837995D01*
X147208793Y-85885340D01*
X147137426Y-85907500D01*
X139811987Y-85907500D01*
X139793037Y-85906067D01*
X139779880Y-85904065D01*
X139779876Y-85904065D01*
X139772646Y-85902965D01*
X139765354Y-85903558D01*
X139765351Y-85903558D01*
X139721990Y-85907085D01*
X139711776Y-85907500D01*
X139703114Y-85907500D01*
X139699480Y-85907924D01*
X139699476Y-85907924D01*
X139673517Y-85910951D01*
X139669138Y-85911384D01*
X139660353Y-85912099D01*
X139596395Y-85917300D01*
X139589432Y-85919556D01*
X139583544Y-85920732D01*
X139577627Y-85922130D01*
X139570357Y-85922978D01*
X139501733Y-85947887D01*
X139497605Y-85949304D01*
X139435132Y-85969542D01*
X139435127Y-85969544D01*
X139428170Y-85971798D01*
X139421916Y-85975593D01*
X139416438Y-85978101D01*
X139411019Y-85980815D01*
X139404136Y-85983313D01*
X139343077Y-86023345D01*
X139339388Y-86025672D01*
X139315170Y-86040368D01*
X139281792Y-86060622D01*
X139281788Y-86060625D01*
X139276994Y-86063534D01*
X139272788Y-86067249D01*
X139267690Y-86071751D01*
X139265106Y-86073972D01*
X139262376Y-86076255D01*
X139256253Y-86080269D01*
X139251218Y-86085584D01*
X139207123Y-86132132D01*
X139204745Y-86134574D01*
X138434595Y-86904724D01*
X138372283Y-86938750D01*
X138301468Y-86933685D01*
X138244632Y-86891138D01*
X138219821Y-86824618D01*
X138219500Y-86815629D01*
X138219500Y-73569371D01*
X138239502Y-73501250D01*
X138256405Y-73480276D01*
X140800905Y-70935776D01*
X140863217Y-70901750D01*
X140934032Y-70906815D01*
G37*
%TD.AperFunction*%
%TD*%
M02*
